<?xml version="1.0" standalone="no"?>
<!DOCTYPE svg PUBLIC "-//W3C//DTD SVG 1.1//EN" "http://www.w3.org/Graphics/SVG/1.1/DTD/svg11.dtd" >
<svg xmlns="http://www.w3.org/2000/svg">
<metadata></metadata>
<defs>
<font id="urw_classicoregular" horiz-adv-x="1132" >
<font-face units-per-em="2048" ascent="1522" descent="-526" />
<missing-glyph horiz-adv-x="565" />
<glyph horiz-adv-x="0" />
<glyph horiz-adv-x="682" />
<glyph unicode=" "  horiz-adv-x="565" />
<glyph unicode="&#x09;" horiz-adv-x="565" />
<glyph unicode="&#xa0;" horiz-adv-x="565" />
<glyph unicode="!" horiz-adv-x="565" d="M170 94q0 48 35 82.5t84 34.5t84 -34.5t35 -84.5t-35 -84.5t-84 -34.5q-51 0 -85 35t-34 86zM184 1257q0 66 29 105t76 39t75.5 -39t28.5 -105q0 -34 -10 -145l-68 -797h-53l-69 797q-9 108 -9 145z" />
<glyph unicode="&#x22;" horiz-adv-x="831" d="M164 1325q0 47 23 76t61 29q40 0 63 -28.5t23 -76.5q0 -39 -6 -88l-43 -348h-72l-43 348q-6 53 -6 88zM504 1327q0 46 23 74.5t61 28.5q40 0 63 -28.5t23 -76.5q0 -39 -6 -88l-43 -348h-72l-43 348q-6 53 -6 90z" />
<glyph unicode="#" d="M47 432q6 40 6 62q0 20 -6 63q161 -16 258 -16q31 157 53 307h-63q-116 -2 -184 -14q4 54 4 61q0 5 -4 63q131 -16 262 -16q50 268 61 459q46 -6 68 -6t69 6q-35 -124 -94 -459q80 -2 125 -2q39 0 121 2q48 318 55 459q46 -6 70 -6t70 6q-44 -159 -91 -459 q109 0 150.5 2.5t105.5 13.5q-6 -43 -6 -63q0 -21 6 -61q-14 1 -86 6l-69 4l-64 2q-14 2 -53 2q-9 -63 -27 -171t-22 -136q113 0 254 16q-4 -58 -4 -63q0 -8 4 -62q-105 14 -268 14q-12 -68 -13 -73q-28 -150 -35.5 -221.5t-9.5 -182.5q-62 4 -72 4q-5 0 -71 -4q8 36 18 86 q5 22 16.5 78t18.5 86q36 196 41 227l-39 3q-21 1 -44 2t-35 1.5t-15 0.5q-35 0 -119 -7q-19 -99 -38 -245.5t-23 -231.5q-62 4 -68 4q-8 0 -70 -4q44 141 99 477q-72 0 -131 -6q-1 0 -111 -8zM403 541q82 -2 127 -2q55 0 129 2q7 39 13 72.5t9 51t5 29.5q8 39 23 154 q-90 4 -129 4q-41 0 -123 -4q-7 -35 -54 -307z" />
<glyph unicode="$" d="M150 995q0 151 90 247.5t260 127.5q0 76 -17 152q47 -6 68 -6t65 6q-1 -13 -3.5 -31.5t-2.5 -22.5q-8 -49 -8 -92q101 -5 175 -29t153 -79q-37 -49 -49 -73t-33 -87q-47 84 -102.5 124.5t-143.5 55.5q-2 -150 -2 -489q112 -42 160.5 -65t95.5 -56q137 -95 137 -275 q0 -194 -162 -325q-82 -68 -225 -101q1 -15 4 -41.5t4 -39.5q2 -16 4 -72q0 -3 1 -10.5t2 -19t2 -21.5q-43 6 -66 6q-21 0 -65 -6q11 47 13 74.5t1 123.5q-227 6 -352 125q28 69 36 98.5t17 94.5q47 -109 124.5 -169t172.5 -61v299q2 102 2 205v78q-106 39 -156 63.5 t-94 57.5q-106 80 -106 233zM309 1059q0 -83 41.5 -132t155.5 -102q-2 147 -2 240q0 111 -4 217q-191 -41 -191 -223zM600 498q0 -253 2 -435q75 18 115 46q54 35 85.5 97.5t31.5 131.5q0 109 -74 186q-26 26 -60 44.5t-100 43.5v-43v-71z" />
<glyph unicode="%" horiz-adv-x="1812" d="M197 1057q0 138 85.5 230.5t213.5 92.5t208 -92t80 -239q0 -148 -79.5 -236t-212.5 -88q-132 0 -213.5 91.5t-81.5 240.5zM332 1073q0 -134 41 -208t116 -74q76 0 118 70t42 196q0 127 -41 192.5t-119 65.5q-75 0 -116 -64t-41 -178zM627 -39l260 791q134 412 205 645 q40 -4 47 -4q3 0 49 4q-117 -350 -281 -856q-122 -370 -184 -580q-40 4 -47 4q-9 0 -49 -4zM1030 324q0 135 85.5 225t213.5 90q127 0 208 -90.5t81 -233.5q0 -144 -79.5 -229.5t-213.5 -85.5q-132 0 -213.5 89.5t-81.5 234.5zM1165 342q0 -132 41.5 -204t116.5 -72 t117.5 68t42.5 190q0 249 -162 249q-73 0 -114.5 -61t-41.5 -170z" />
<glyph unicode="&#x26;" horiz-adv-x="1472" d="M158 319q0 135 86 240t272 197q-77 109 -107 180t-30 141q0 130 91 213.5t232 83.5q117 0 191 -62.5t74 -162.5q0 -92 -67.5 -181t-209.5 -184q159 -206 211 -270t141 -162q114 149 236 396q26 -34 38.5 -46.5t43.5 -35.5q-169 -262 -268 -371q55 -68 135 -156 q46 -50 131 -145q-82 6 -123 6t-123 -6q-71 98 -129 176q-63 -60 -104 -90.5t-88 -52.5q-121 -56 -252 -56q-172 0 -276.5 95.5t-104.5 252.5zM334 375q0 -126 83.5 -210.5t209.5 -84.5q84 0 150.5 31t156.5 112q-20 24 -84.5 102.5t-93.5 112.5l-142 185q-44 60 -53 69 q-227 -116 -227 -317zM532 1122q0 -64 26.5 -126.5t94.5 -159.5q108 85 151.5 151.5t43.5 145.5q0 66 -44 108.5t-110 42.5q-69 0 -115.5 -46.5t-46.5 -115.5z" />
<glyph unicode="'" horiz-adv-x="565" d="M203 1325q0 47 23 76t61 29q39 0 62.5 -28.5t23.5 -76.5q0 -39 -6 -88l-43 -348h-72l-43 348q-6 53 -6 88z" />
<glyph unicode="(" horiz-adv-x="565" d="M147 592q0 328 132 577q36 69 75.5 125t110.5 136l53 -46q-127 -174 -177 -349.5t-50 -442.5q0 -247 52 -425t175 -357l-55 -56q-164 183 -240 384.5t-76 453.5z" />
<glyph unicode=")" horiz-adv-x="565" d="M55 -190l35 53q193 284 193 729q0 266 -50.5 442t-177.5 350l54 46q121 -136 186 -261q131 -247 131 -577q0 -252 -76.5 -453.5t-240.5 -384.5z" />
<glyph unicode="*" d="M211 899q83 27 162.5 64.5t124.5 72.5q-43 33 -125 72t-162 66q38 37 48.5 54.5t19.5 65.5q5 -4 20 -18t18 -16t15 -13t16.5 -14.5l18 -14t23.5 -17.5t27.5 -20t37 -26.5t45.5 -32.5q7 -4 28 -20q-1 121 -6 168.5t-24 136.5q46 -6 69 -6t70 6q-20 -88 -25 -135t-8 -170 q37 26 127 92q58 39 125 100q9 -49 19 -66.5t49 -53.5q-80 -27 -161.5 -66t-125.5 -72q45 -35 124.5 -72.5t162.5 -64.5q-38 -37 -48.5 -55.5t-19.5 -65.5q-51 44 -77.5 64.5t-145.5 105.5q-24 18 -29 21q3 -129 8 -174.5t25 -128.5q-62 4 -70 4q-7 0 -69 -4q19 89 24 135.5 t6 167.5l-28 -21q-16 -13 -47.5 -35t-42.5 -30q-50 -34 -131 -105q-9 46 -19.5 64.5t-48.5 56.5z" />
<glyph unicode="+" horiz-adv-x="1812" d="M375 446v107h477v479h106v-479h480v-107h-480v-477h-106v477h-477z" />
<glyph unicode="," horiz-adv-x="565" d="M88 -358l119 385q33 112 58.5 148t68.5 36q33 0 56.5 -22.5t23.5 -53.5q0 -46 -56 -141l-225 -377z" />
<glyph unicode="-" horiz-adv-x="565" d="M29 420v145h514v-145h-514z" />
<glyph unicode="." horiz-adv-x="565" d="M168 94q0 48 35 82.5t84 34.5t84 -34.5t35 -84.5t-35 -84.5t-84 -34.5q-51 0 -85 35t-34 86z" />
<glyph unicode="/" horiz-adv-x="565" d="M-57 -31q74 163 88 205q7 23 47 135q110 302 149 418q144 422 211 625q15 50 43 170q70 -4 80 -4q8 0 78 4q-15 -35 -18 -47l-56 -132q-191 -513 -315.5 -882.5t-147.5 -491.5q-70 4 -79 4q-10 0 -80 -4z" />
<glyph unicode="0" d="M86 662q0 339 128.5 527.5t358.5 188.5q217 0 345 -166q137 -179 137 -524q0 -351 -127 -532q-61 -87 -160 -136t-213 -49q-215 0 -338 166q-69 95 -100 218.5t-31 306.5zM274 631q0 -270 60 -404q32 -76 97 -122t140 -46q62 0 117.5 34t93.5 97q84 137 84 488 q0 310 -74.5 461t-226.5 151q-142 0 -217 -141q-34 -68 -54 -206.5t-20 -311.5z" />
<glyph unicode="1" d="M219 1202q86 29 238 97.5t258 125.5q-15 -419 -15 -669q0 -386 2.5 -511t12.5 -251q-65 6 -99 6t-98 -6q17 139 17 858q0 72 -15 317l-2 62q-103 -57 -215 -121q-35 43 -84 92z" />
<glyph unicode="2" d="M80 6l76 82q133 139 264 285.5t178 208.5q82 109 120 215t38 227q0 132 -61 207.5t-167 75.5q-117 0 -188 -90q-35 -47 -70 -164l-82 127q60 95 156.5 146.5t214.5 51.5q177 0 285 -97t108 -255q0 -166 -94 -309q-42 -63 -82 -108.5t-168 -176.5q-129 -133 -276 -293 q497 2 639 17q-6 -58 -6 -86t6 -86q-144 16 -506 16q-195 0 -373 -16z" />
<glyph unicode="3" d="M137 45q21 95 21 133l26 -2q79 -75 133 -100t134 -25q146 0 228.5 90.5t82.5 251.5q0 136 -69 209.5t-197 73.5q-44 0 -99 -14q-2 62 -10 110q60 -16 92 -16q104 0 163.5 78t59.5 215q0 115 -55.5 182t-150.5 67q-72 0 -122.5 -36t-125.5 -140q-20 66 -51 133 q84 69 155.5 96t173.5 27q164 0 264.5 -86.5t100.5 -228.5q0 -123 -80 -223q-30 -36 -59.5 -57.5t-83.5 -45.5q80 -19 123.5 -40.5t80.5 -59.5q86 -89 86 -238q0 -190 -148 -309t-384 -119q-85 0 -149.5 16.5t-139.5 57.5z" />
<glyph unicode="4" d="M27 379q81 100 157 209l445 641q34 49 67 125q62 -6 92 -6q32 0 91 6q-19 -148 -19 -647q0 -113 2 -187q93 0 185 17q-7 -68 -7 -86q0 -21 7 -86q-54 16 -125 16h-60v-70l2 -157q0 -75 15 -160q-67 6 -99 6q-36 0 -100 -6q7 54 9 106t5 281h-123q-292 0 -532 -16z M244 520h217h164h71v305v222v137q-221 -310 -452 -664z" />
<glyph unicode="5" d="M135 57q30 73 47 150q78 -82 140.5 -115t138.5 -33q139 0 231 104t92 261q0 158 -72.5 248t-199.5 90q-68 0 -117 -21t-110 -77l-19 10q17 185 17 375q0 94 -17 315q127 -16 289 -16q163 0 232 3t147 13q-4 -74 -4 -86q0 -10 4 -84q-115 11 -561 14q-17 -249 -17 -403 q75 26 120 35.5t99 9.5q180 0 292 -109t112 -284q0 -113 -48.5 -216.5t-131.5 -166.5q-63 -48 -154 -75.5t-186 -27.5q-175 0 -324 86z" />
<glyph unicode="6" d="M123 561q0 238 77.5 424t217.5 289.5t319 103.5q37 0 94 -8q11 -41 35 -94q-84 14 -129 14q-100 0 -184.5 -65.5t-144.5 -188.5q-37 -77 -57.5 -161.5t-39.5 -235.5q69 101 144.5 143.5t185.5 42.5q183 0 290 -105.5t107 -285.5q0 -205 -125 -334t-325 -129 q-96 0 -181 34t-145 97q-139 148 -139 459zM324 397q0 -156 72 -247t196 -91q115 0 186.5 98.5t71.5 256.5q0 149 -67 236t-183 87q-121 0 -198.5 -95.5t-77.5 -244.5z" />
<glyph unicode="7" d="M172 -6q61 76 290 455t433 741q-563 0 -686 -16q6 62 6 94t-6 96q111 -10 218 -13t372 -3q145 0 278 4l15 -21q-37 -69 -48 -86q-102 -176 -153 -266q-334 -596 -408.5 -737.5t-107.5 -247.5q-67 6 -101 6t-102 -6z" />
<glyph unicode="8" d="M100 369q0 159 93 276q38 47 82 74t116 47q-50 15 -78 30t-55 42q-90 84 -90 215q0 145 109 235t282 90t282 -90t109 -235q0 -72 -30 -134.5t-84 -103.5q-42 -29 -109 -49q73 -20 117 -47t80 -74q94 -114 94 -276q0 -191 -135 -295q-137 -103 -324 -103q-186 0 -323 103 q-136 102 -136 295zM289 375q0 -145 73.5 -230.5t198.5 -85.5q120 0 194 86t74 224q0 81 -27 156.5t-73 125.5q-67 70 -170 70q-105 0 -172 -70q-44 -47 -71 -123t-27 -153zM348 1042q0 -106 56.5 -169.5t150.5 -63.5q100 0 157.5 61t57.5 166q0 109 -60 181.5t-151 72.5 q-89 0 -150 -72t-61 -176z" />
<glyph unicode="9" d="M115 930q0 198 125.5 323t324.5 125q217 0 336 -153t119 -432q0 -228 -79.5 -417t-218.5 -297t-306 -108q-72 0 -160 33q-15 56 -45 137q83 -48 129.5 -65t95.5 -17q88 0 179 72.5t135 177.5q78 192 81 408q-63 -98 -141 -143.5t-184 -45.5q-169 0 -280 114.5t-111 287.5 zM303 952q0 -159 64 -243q71 -93 190 -93q112 0 186 98t74 247t-69.5 239t-184.5 90q-120 0 -190 -90.5t-70 -247.5z" />
<glyph unicode=":" horiz-adv-x="565" d="M168 94q0 48 35 82.5t84 34.5t84 -34.5t35 -84.5t-35 -84.5t-84 -34.5q-51 0 -85 35t-34 86zM168 795q0 47 35 81.5t84 34.5q50 0 84.5 -34.5t34.5 -83.5t-35 -84t-84 -35q-50 0 -84.5 35t-34.5 86z" />
<glyph unicode=";" horiz-adv-x="565" d="M88 -358l119 385q33 112 58.5 148t68.5 36q33 0 56.5 -22.5t23.5 -53.5q0 -46 -56 -141l-225 -377zM168 795q0 47 35 81.5t84 34.5q50 0 84.5 -34.5t34.5 -83.5t-35 -84t-84 -35q-51 0 -85 35t-34 86z" />
<glyph unicode="&#x3c;" horiz-adv-x="1150" d="M121 641v131l907 424v-149l-745 -340l745 -342v-150z" />
<glyph unicode="=" horiz-adv-x="1812" d="M389 330v106h1063v-106h-1063zM389 565v107h1063v-107h-1063z" />
<glyph unicode="&#x3e;" horiz-adv-x="1150" d="M123 215v150l745 342l-745 340v149l907 -426v-131z" />
<glyph unicode="?" horiz-adv-x="792" d="M180 1335q72 38 117 52t98 14q129 0 211 -79.5t82 -205.5q0 -91 -47 -180q-21 -40 -131 -172q-95 -110 -124.5 -158.5t-29.5 -95.5q0 -49 32 -80t83 -31q27 0 70 13l-43 -97h-23q-105 0 -158 33q-47 29 -75.5 86t-28.5 123q0 82 37.5 152.5t138.5 179.5 q87 93 121.5 151.5t34.5 112.5q0 68 -49 116t-119 48q-51 0 -89 -22.5t-89 -82.5zM283 94q0 47 35.5 82t82.5 35q49 0 84 -34.5t35 -84.5q0 -51 -34.5 -85t-84.5 -34q-51 0 -84.5 35t-33.5 86z" />
<glyph unicode="@" horiz-adv-x="1812" d="M96 391q0 179 72.5 351t204.5 307q263 272 639 272q208 0 378 -85.5t266.5 -236t96.5 -335.5q0 -168 -80 -321.5t-211.5 -247t-275.5 -93.5q-92 0 -131 55q-18 29 -27 80q-82 -64 -145.5 -90.5t-137.5 -26.5q-115 0 -184 75t-69 198q0 126 50 253.5t144 241.5 q156 187 338 187q80 0 134 -33.5t106 -116.5l41 113h184l-275 -664q-24 -63 -24 -104q0 -25 16.5 -40t42.5 -15q38 0 93.5 28.5t109.5 75.5q98 88 151.5 203t53.5 240q0 149 -81 275.5t-221 200.5t-304 74q-156 0 -306.5 -68.5t-262 -179.5t-180.5 -260.5t-69 -304.5 q0 -253 201 -415t516 -162q211 0 400 86q80 38 196 121l68 -43q-109 -86 -178 -128.5t-152 -74.5q-171 -68 -369 -68q-350 0 -593 205q-226 185 -226 471zM655 252q-4 -66 34.5 -109t101.5 -43q69 0 126.5 49.5t120.5 163.5q66 120 111 250t45 199q0 57 -35.5 95t-89.5 38 q-115 0 -242 -190q-66 -100 -116 -231t-56 -222z" />
<glyph unicode="A" horiz-adv-x="1359" d="M27 -6q89 162 230 471.5t411 935.5h37q15 -35 30 -70.5t23.5 -57t11.5 -28.5l104 -241q11 -23 203 -474q161 -371 248 -536q-73 6 -111 6t-112 -6q-1 2 -12 29.5t-19 50.5q-17 42 -70 182q-32 84 -114 268q-132 17 -269 17q-111 0 -235 -17q-129 -311 -199 -530 q-52 6 -78 6t-79 -6zM442 657q148 -14 215 -14q66 0 170 14q-52 138 -141 338q-18 40 -45 103q-185 -406 -199 -441z" />
<glyph unicode="B" horiz-adv-x="1245" d="M180 -6q17 374 17 891q0 330 -17 522q95 -6 203 -6l215 6q189 0 299 -51q72 -32 113 -99.5t41 -152.5q0 -144 -105 -238q-35 -32 -78.5 -54t-126.5 -50q97 -24 145.5 -43.5t92.5 -52.5q117 -88 117 -256q0 -222 -189 -336q-72 -43 -155 -61.5t-205 -18.5l-133 2 q-102 4 -105 4q-43 0 -129 -6zM371 274q0 -89 2 -165q105 -7 143 -7q183 0 282 80t99 228q0 94 -48 159.5t-140 96.5q-89 28 -299 28h-39q2 -47 2 -106q0 -84 -2 -174v-140zM371 803q58 -6 82 -6q190 0 294.5 70t104.5 198q0 110 -82.5 171.5t-230.5 61.5q-49 0 -166 -6v-51 l-2 -166l2 -201q0 -34 -2 -71z" />
<glyph unicode="C" horiz-adv-x="1359" d="M88 688q0 357 244 569q106 91 229.5 132t290.5 41q138 0 240 -21t219 -74q-29 -85 -47 -164l-33 -2q-113 97 -197 133.5t-194 36.5q-117 0 -223.5 -48t-178.5 -134q-141 -170 -141 -467q0 -261 127 -428q75 -97 183 -149t235 -52q118 0 216 38.5t212 129.5l14 -22 q-12 -66 -18 -121q-107 -62 -213 -88.5t-244 -26.5q-338 0 -526 197q-195 201 -195 520z" />
<glyph unicode="D" horiz-adv-x="1585" d="M201 -6q16 239 16 645q0 365 -3 509.5t-13 258.5q111 -6 186 -6l207 2q176 4 197 4q169 0 279 -30.5t198 -102.5q106 -88 163.5 -223t57.5 -295q0 -195 -78.5 -361.5t-218.5 -267.5q-102 -74 -227.5 -103.5t-339.5 -29.5q-6 0 -162 4q-45 2 -107 2q-47 0 -155 -6z M391 692q0 -468 6 -583q146 -7 240 -7q191 0 305 38t193 128q145 168 145 465q0 350 -207 481q-74 46 -173.5 65t-272.5 19q-110 0 -230 -6q-6 -332 -6 -600z" />
<glyph unicode="E" horiz-adv-x="1019" d="M168 -16q16 235 16 690q0 232 -2 459q-2 147 -3.5 182.5t-10.5 101.5q136 -16 373 -16q196 0 368 16q-6 -47 -6 -67q0 -22 6 -68q-169 16 -397 16q-67 0 -147 -6q-5 -166 -5 -262l-2 -248q61 -2 140 -2q208 0 358 17q-6 -43 -6 -68q0 -21 6 -65q-114 13 -498 16v-287 q0 -93 7 -291h106q168 0 440 17q-6 -46 -6 -70q0 -21 6 -65q-292 16 -417 16q-126 0 -326 -16z" />
<glyph unicode="F" horiz-adv-x="1019" d="M182 -6q9 119 11 405q3 459 3 625v64q-1 116 -10 258q0 5 -4 71q203 -16 385 -16q113 0 379 16q-6 -47 -6 -67q0 -22 6 -68q-260 16 -567 16q-6 -298 -6 -424v-79q68 -4 141 -4q242 0 383 16q-4 -58 -4 -68q0 -7 4 -65q-237 14 -524 14v-86q0 -398 16 -608q-67 6 -104 6 q-35 0 -103 -6z" />
<glyph unicode="G" horiz-adv-x="1585" d="M84 688q0 349 213.5 545.5t591.5 196.5q155 0 272 -29t252 -101q-22 -49 -29.5 -70.5t-23.5 -80.5l-25 -8q-113 103 -224.5 150.5t-240.5 47.5q-109 0 -214 -40t-179 -109q-88 -83 -136 -210.5t-48 -277.5q0 -138 39 -258t112 -206q78 -94 184 -135.5t265 -41.5 q94 0 157.5 13t151.5 49q17 177 17 242q0 22 -11 202q-3 16 -6 78q94 -4 105 -4q12 0 102 4q-16 -170 -16 -369q0 -94 16 -225q-205 -50 -306 -65t-231 -15q-188 0 -322.5 40t-238.5 128q-109 94 -168 236t-59 313z" />
<glyph unicode="H" horiz-adv-x="1585" d="M184 -6q17 443 17 825q0 258 -15 514q0 35 -2 74q68 -6 105 -6q35 0 102 6q-13 -91 -16 -592q304 -14 454 -14q149 0 381 14q2 96 2 281q0 152 -16 311q68 -6 102 -6q36 0 103 6q-15 -161 -15 -578l3 -477q0 -184 12 -358q-65 6 -101 6t-104 -6q14 165 14 688 q-213 16 -393 16q-194 0 -442 -16v-152v-200q0 -156 16 -336q-67 6 -102 6q-37 0 -105 -6z" />
<glyph unicode="I" horiz-adv-x="565" d="M180 -6q17 366 17 842q0 288 -17 571q68 -6 105 -6q35 0 102 6q-16 -239 -16 -664q0 -569 16 -749q-67 6 -102 6q-37 0 -105 -6z" />
<glyph unicode="J" horiz-adv-x="565" d="M-57 -223q120 15 172.5 62.5t66.5 152.5q11 92 13 268q0 78 4 356v132q0 529 -17 659q70 -6 105 -6t102 6q-8 -77 -10 -266q0 -26 -4 -230q-2 -106 -2 -196l8 -441q0 -193 -16.5 -269t-73.5 -148q-59 -75 -136 -111t-200 -45q0 32 -12 76z" />
<glyph unicode="K" horiz-adv-x="1245" d="M182 -6q17 163 17 686l-4 510q0 110 -13 217q70 -6 105 -6t102 6q-12 -72 -14 -125.5t-2 -259.5v-262q106 82 243 220.5t396 426.5q64 -6 98 -6q36 0 104 6q-66 -62 -190 -174q-120 -110 -270 -260l-199 -199q121 -139 289 -333.5t196 -227.5q95 -112 193 -219 q-83 6 -127 6q-46 0 -131 -6q-195 272 -602 713v-82v-234l2 -211q0 -104 14 -186q-67 6 -102 6q-37 0 -105 -6z" />
<glyph unicode="L" horiz-adv-x="1019" d="M199 -16q10 103 13 268.5t3 640.5q0 358 -16 514q67 -6 102 -6q37 0 105 6q-17 -247 -17 -752q0 -328 6 -553q49 -2 113 -2q302 0 446 19q-6 -46 -6 -68q0 -20 6 -67q-180 16 -266 16q-311 0 -489 -16z" />
<glyph unicode="M" horiz-adv-x="1812" d="M76 -6q39 149 117 758q1 9 31.5 236t54.5 413h38q294 -574 370.5 -716t225.5 -396l95 176q17 32 46 85.5t74.5 137t83.5 154.5q140 253 301 559h39q46 -468 94.5 -867.5t75.5 -539.5q-68 6 -100 6q-36 0 -100 -6q-16 130 -27 260q-47 500 -80 772q-181 -333 -280 -524 q-86 -174 -250 -502h-37q-77 170 -516 1008q-98 -715 -101 -1014q-53 6 -77 6q-26 0 -78 -6z" />
<glyph unicode="N" horiz-adv-x="1585" d="M197 -6q16 301 16 754q0 222 -16 653h53q826 -877 1012 -1069v121v284q0 328 -17 670q46 -6 70 -6q23 0 69 6q-16 -291 -16 -789q0 -239 16 -647h-55q-247 281 -436 483t-578 597q3 -277 4 -306v-280q8 -352 15 -471q-44 6 -68 6q-22 0 -69 -6z" />
<glyph unicode="O" horiz-adv-x="1699" d="M88 698q0 150 54.5 284.5t154.5 234.5q113 109 248.5 161t308.5 52q343 0 551.5 -194.5t208.5 -512.5q0 -323 -217 -537q-215 -215 -557 -215q-344 0 -548 197t-204 530zM297 698q0 -302 164 -475q152 -162 385 -162q252 0 405.5 180t153.5 474q0 301 -152 465 q-72 77 -174.5 118t-222.5 41q-255 0 -407 -174.5t-152 -466.5z" />
<glyph unicode="P" d="M174 -6q14 322 14 809q0 409 -14 598h94h90l248 6h27q95 -1 177 -19q94 -22 144 -59q123 -95 123 -276q0 -198 -141.5 -308t-396.5 -110q-61 0 -174 10v-59v-64v-262q0 -94 16 -266q-67 6 -102 6q-37 0 -105 -6zM365 748q93 -11 114 -11q187 0 293.5 82.5t106.5 227.5 q0 130 -85 190.5t-268 60.5q-42 0 -155 -6q-6 -147 -6 -477v-67z" />
<glyph unicode="Q" horiz-adv-x="1699" d="M86 690q0 365 258 576q199 164 502 164q350 0 557 -189.5t207 -507.5q0 -199 -85.5 -369t-234.5 -270q-68 -48 -194 -88q178 -134 247 -184q86 -67 226 -150q-95 -41 -183 -92q-87 89 -234.5 213t-229.5 178q-190 0 -300 21.5t-204 77.5q-162 97 -247 255.5t-85 364.5z M295 680q0 -133 29 -232t94 -184q75 -99 180 -151t229 -52q264 0 426 195q148 182 148 475q0 285 -148 445q-150 163 -399 163q-262 0 -410.5 -175t-148.5 -484z" />
<glyph unicode="R" horiz-adv-x="1245" d="M176 -6q5 94 11 366.5t6 403.5q0 394 -3 412q0 30 -14 231q13 -1 30.5 -1.5t28.5 -1t15 -1.5l86 -2q4 0 20.5 0.5t48.5 1.5t62 2q35 2 104 2q161 0 236.5 -11.5t126.5 -45.5q139 -92 139 -265q0 -196 -170 -303q-52 -34 -105.5 -51t-142.5 -29q129 -174 303.5 -390.5 t268.5 -317.5q-85 6 -131 6t-131 -6q-143 199 -277 375q-89 110 -252 311h-69l2 -131l2 -287q0 -83 12 -268q-67 6 -104 6q-36 0 -103 -6zM367 764h63q128 7 196.5 24.5t125.5 55.5q52 35 82 94t30 127q0 60 -23.5 111.5t-66.5 83.5q-77 57 -242 57q-18 0 -38 -0.5t-54 -1.5 t-67 -2l-2 -275z" />
<glyph unicode="S" horiz-adv-x="1019" d="M90 94q23 76 31 142l26 4q78 -97 150.5 -138t167.5 -41q126 0 206.5 80.5t80.5 206.5q0 121 -82 191q-44 35 -82 54t-221 95q-252 103 -252 359q0 170 117.5 276.5t306.5 106.5q95 0 162 -21.5t149 -77.5q-23 -60 -51 -151l-25 -4q-49 86 -111 124.5t-147 38.5 q-109 0 -177.5 -65.5t-68.5 -169.5q0 -134 107 -207q40 -26 77 -42.5t220 -86.5q116 -46 176.5 -133.5t60.5 -208.5q0 -194 -141.5 -324.5t-351.5 -130.5q-103 0 -176.5 27.5t-151.5 95.5z" />
<glyph unicode="T" d="M39 1282q6 44 6 64q0 18 -6 61q242 -6 661 -6q162 0 390 6q-1 -13 -3 -34t-2 -27q0 -8 2 -30t3 -34q-148 16 -340 16h-78q-8 -308 -8 -622q0 -432 16 -682q-68 6 -102 6t-105 -6q5 67 10.5 292t5.5 347q0 92 -3.5 364t-4.5 301q-261 0 -442 -16z" />
<glyph unicode="U" horiz-adv-x="1585" d="M207 1407q68 -6 104 -6q35 0 103 6q-17 -173 -17 -807q0 -224 68 -340q107 -180 362 -180q288 0 383 213q35 75 48.5 180.5t13.5 304.5q0 367 -12 557l-3 72q47 -6 70 -6q25 0 72 6q-14 -289 -17 -653q0 -190 -8 -272t-35 -169q-53 -164 -199 -253t-364 -89 q-251 0 -399 127q-160 138 -160 412l6 307q0 104 -4 221q-2 88 -2 211q0 88 -10 158z" />
<glyph unicode="V" horiz-adv-x="1359" d="M18 1407q76 -6 117 -6q40 0 117 6q29 -102 66.5 -202.5t152.5 -385.5q96 -239 166 -407q7 -16 31 -73.5t47 -107.5q184 446 265 661t181 515q56 -6 82 -6q29 0 82 6q-107 -218 -276 -647q-127 -323 -218 -537q-46 -110 -90 -229q-47 6 -71 6q-26 0 -72 -6 q-79 224 -162 420q-236 576 -299.5 727.5t-118.5 265.5z" />
<glyph unicode="W" horiz-adv-x="2039" d="M31 1407q74 -6 108 -6q36 0 107 6q17 -75 119 -440q116 -388 235 -766l43 135q44 140 90 272q72 207 115 340q72 215 141 459q44 -6 64 -6q23 0 63 6q34 -112 53 -178q10 -24 21 -62q14 -42 86 -260l127 -391q54 -164 98 -283q33 92 178 566q61 193 131 440 q32 107 35 119q1 4 5 22t5 27q53 -6 78 -6t78 6q-169 -445 -304.5 -838.5t-182.5 -574.5q-46 6 -72 6q-24 0 -70 -6q-48 171 -108 356q-189 594 -191 602q-23 77 -63 191q-196 -552 -255.5 -723.5t-141.5 -425.5q-47 6 -70 6q-25 0 -72 -6q-22 75 -24 80q-9 35 -35 121 q-198 646 -274.5 882t-116.5 330z" />
<glyph unicode="X" horiz-adv-x="1245" d="M63 -6q135 206 240 356q143 216 174 262q24 39 62 90q-234 389 -317.5 522t-125.5 183q79 -6 119 -6q39 0 115 6q194 -358 311 -547q117 178 165 257.5t169 289.5q55 -6 84 -6t82 6q-129 -170 -234 -328q-30 -44 -99 -147.5t-108 -159.5q344 -575 482 -778q-82 6 -125 6 q-41 0 -121 -6q-75 160 -338 622q-107 -165 -221.5 -357t-147.5 -265q-55 6 -82 6q-29 0 -84 -6z" />
<glyph unicode="Y" horiz-adv-x="1245" d="M29 1407q83 -6 125 -6q44 0 127 6q169 -352 376 -692q115 185 230.5 397.5t146.5 294.5q62 -6 90 -6t90 6q-98 -142 -127 -188q-40 -61 -71 -115q-74 -118 -197 -322q-24 -38 -104 -168q0 -250 4 -350q0 -12 1 -37t4.5 -94t6.5 -139q-67 6 -102 6q-37 0 -105 -6 q17 233 17 440q0 74 -2 137q-152 266 -299 506.5t-211 329.5z" />
<glyph unicode="Z" horiz-adv-x="1245" d="M18 16q122 165 424 606.5t453 677.5q-553 -6 -789 -18q7 54 7 70q0 14 -7 65q83 -11 161 -13t313 -3q307 0 417.5 3t173.5 13l9 -43q-52 -77 -183 -254q-105 -139 -245.5 -348t-440.5 -668q84 -2 195 -2q384 0 670 17q-1 -12 -2 -27t-2 -25t-1 -16q0 -8 2 -31t3 -36 q-154 16 -502 16q-446 0 -637 -16z" />
<glyph unicode="[" horiz-adv-x="565" d="M147 -326q0 108 7 430q10 368 10 443q0 72 -10 440q-7 318 -7 430q109 -16 187 -16q88 0 221 16v-121q-121 20 -229 31v-1563q108 11 229 31v-121q-142 17 -221 17q-71 0 -187 -17z" />
<glyph unicode="\" horiz-adv-x="565" d="M-72 1522q70 -4 80 -4q8 0 78 4q36 -140 69.5 -245t145.5 -423q37 -112 193 -565q58 -149 131 -320q-70 4 -78 4q-10 0 -80 -4q-40 158 -73.5 262.5t-166.5 493.5q-185 512 -223.5 614.5t-75.5 182.5z" />
<glyph unicode="]" horiz-adv-x="565" d="M14 -205q119 -19 230 -31v1563q-86 -7 -230 -31v121q133 -16 222 -16q77 0 186 16q-3 -285 -6 -430q-10 -378 -10 -440q0 -66 10 -441q4 -166 6 -432q-116 17 -186 17q-80 0 -222 -17v121z" />
<glyph unicode="^" horiz-adv-x="1048" d="M55 768l371 635h201l370 -635h-163l-310 516l-305 -516h-164z" />
<glyph unicode="_" horiz-adv-x="1048" d="M0 -137h1049v-139h-1049v139z" />
<glyph unicode="`" d="M293 1386l10 29q73 -12 111 -12t112 12q49 -107 74.5 -155.5t97.5 -169.5h-73q-113 113 -162.5 157t-169.5 139z" />
<glyph unicode="a" horiz-adv-x="980" d="M72 227q0 122 75 191q38 36 97 58.5t168 43.5q201 37 234.5 52t33.5 69q0 102 -31 156q-58 104 -207 104q-95 0 -166 -41q-35 -20 -54.5 -42.5t-39.5 -67.5h-24v127q145 118 336 118q173 0 268 -106q43 -45 59.5 -105t16.5 -163q0 -88 -9 -369v-62q0 -80 17 -110.5 t61 -30.5q7 0 31 4l12 -49q-73 -31 -141 -31q-63 0 -94 45q-16 20 -35 82q-157 -127 -315 -127q-135 0 -214 68.5t-79 185.5zM256 246q0 -80 49.5 -129t132.5 -49q72 0 126 30t110 99l2 86l2 139q0 33 2 70q-233 -38 -309 -74q-115 -53 -115 -172z" />
<glyph unicode="b" d="M129 -16q14 117 14 264l-2 293l4 280q0 541 -16 701q61 -6 94 -6q32 0 96 6q-16 -246 -16 -566q0 -91 2 -165q65 104 149.5 154t198.5 50q170 0 285 -118q127 -127 127 -357q0 -241 -129 -394t-332 -153q-94 0 -161 33t-121 105q-61 -41 -86.5 -62t-83.5 -76zM311 463 q0 -110 17 -180t55 -123q71 -99 201 -99q138 0 217.5 121t79.5 330q0 183 -75 289t-204 106q-63 0 -119.5 -30t-93.5 -84q-78 -118 -78 -330z" />
<glyph unicode="c" horiz-adv-x="980" d="M78 483q0 230 144 371t380 141q90 0 166.5 -19.5t171.5 -66.5l-53 -155l-13 -2q-101 168 -274 168q-151 0 -244.5 -120.5t-93.5 -312.5t102 -315t259 -123q80 0 147.5 31.5t140.5 103.5v-106q-143 -105 -331 -105q-223 0 -362.5 142t-139.5 368z" />
<glyph unicode="d" d="M61 481q0 228 124 371t321 143q113 0 197.5 -49.5t119.5 -136.5q0 146 -2 332q-2 288 -12 381q62 -6 94 -6q33 0 94 6q-10 -84 -13 -296t-3 -870q0 -164 3 -228t13 -134q-59 6 -88 6t-88 -6q12 82 17 221q-50 -98 -97 -145q-44 -46 -114 -71.5t-150 -25.5 q-187 0 -301.5 140t-114.5 368zM246 500q0 -215 69.5 -327t202.5 -112q64 0 121 30t96 83q80 113 80 318q0 107 -17 178t-55 125q-41 59 -89.5 85.5t-114.5 26.5q-140 0 -217 -112q-76 -103 -76 -295z" />
<glyph unicode="e" horiz-adv-x="1019" d="M66 475q0 244 127.5 382t351.5 138q192 0 304 -114t112 -310l-3 -82q-220 5 -301 5q-238 0 -407 -5q6 -114 22 -175t56 -121q95 -144 270 -144q97 0 169 37t155 131l-13 -131q-100 -64 -177 -88.5t-181 -24.5q-224 0 -354.5 135t-130.5 367zM250 575q94 -6 250 -6 q190 0 274 6l2 46q0 108 -55 194q-63 105 -193 105q-137 0 -221 -140q-27 -43 -39 -87.5t-18 -117.5z" />
<glyph unicode="f" horiz-adv-x="565" d="M53 872q6 34 6 54q0 16 -6 53q44 -10 135 -10q13 136 35.5 214.5t67.5 151.5q57 89 132.5 144t141.5 55q19 0 53 -6q-6 -58 -6 -90q0 -28 6 -90q-66 30 -118 30q-78 0 -125 -47t-47 -125q0 -63 20 -237q130 3 213 10q-4 -50 -4 -53q0 -8 4 -54q-113 11 -155 11 q-33 0 -58 -2q-2 -33 -2 -60l2 -311q0 -271 2.5 -352.5t11.5 -163.5q-64 6 -94 6q-32 0 -96 -6q13 126 16 887q-10 2 -22 2q-38 0 -113 -11z" />
<glyph unicode="g" horiz-adv-x="1019" d="M78 -154q0 103 96 174q43 30 141 62q-80 26 -114.5 61.5t-34.5 92.5t35.5 95t120.5 72q-59 19 -91 36.5t-59 45.5q-66 72 -66 193q0 154 111 235.5t318 81.5q42 0 210 -8q12 -2 43 -2q56 0 189 16q-6 -37 -6 -55t6 -55q-85 11 -191 16q57 -47 82 -98t25 -121 q0 -128 -108.5 -222.5t-254.5 -94.5l-104 2q-60 0 -95.5 -24t-35.5 -64q0 -38 30 -59t87 -21l202 4q152 0 234 -31q66 -25 107.5 -85.5t41.5 -131.5q0 -75 -38 -146.5t-107 -127.5q-136 -109 -354 -109q-188 0 -304 74t-116 194zM217 -135q0 -100 75.5 -155.5t209.5 -55.5 q153 0 247.5 65t94.5 170q0 187 -305 187q-153 0 -237.5 -55.5t-84.5 -155.5zM291 686q0 -110 54.5 -175t146.5 -65q98 0 157.5 67t59.5 177q0 103 -57.5 166.5t-151.5 63.5q-95 0 -152 -64t-57 -170z" />
<glyph unicode="h" d="M147 -6q13 66 13 205q0 119 2 225q2 158 2 319q0 174 -5.5 424t-11.5 355q61 -6 93 -6q34 0 98 6q-9 -96 -12 -216t-4 -507q46 100 123 148t194 48q94 0 169.5 -38.5t121.5 -110.5q45 -72 45 -225q0 -27 -4 -154q-2 -37 -2 -125q0 -257 16 -348q-61 6 -94 6q-31 0 -96 -6 q16 131 16 420q0 236 -27 325q-20 64 -78.5 104t-132.5 40q-93 0 -158.5 -55t-82.5 -148q-10 -58 -10 -227q0 -342 16 -459q-64 6 -96 6q-34 0 -95 -6z" />
<glyph unicode="i" horiz-adv-x="565" d="M164 1325q0 41 30.5 71.5t73.5 30.5t74 -30.5t31 -73.5t-31 -73.5t-74 -30.5q-44 0 -74 31t-30 75zM170 -6q10 64 12 170q0 79 2 145q2 100 2 219q0 105 -2 181q-2 63 -2 129q0 69 -12 137q62 -6 94 -6t96 6q-16 -112 -16 -516q0 -345 16 -465q-64 6 -96 6t-94 -6z" />
<glyph unicode="j" horiz-adv-x="565" d="M-8 -358q80 17 119 49.5t61 99.5q19 56 22.5 86t4.5 156q0 76 2 135l2 90l-4 250q-4 344 -11 467q62 -6 95 -6t94 6q-17 -183 -17 -531q0 -61 5 -301q2 -63 2 -139q0 -128 -34 -209.5t-110 -138.5q-43 -32 -89 -49t-124 -29zM182 1325q0 41 31 71.5t74 30.5t73.5 -30.5 t30.5 -73.5q0 -44 -30.5 -74t-73.5 -30q-44 0 -74.5 31t-30.5 75z" />
<glyph unicode="k" horiz-adv-x="1019" d="M139 -6q13 94 13 205l2 231q2 160 2 291l-2 545q-3 136 -15 256q62 -6 94 -6q33 0 97 6q-11 -134 -14 -284.5t-3 -549.5v-137h21q25 0 39.5 9t62.5 52q72 66 182.5 188t145.5 175q65 -6 96 -6q32 0 94 6q-6 -6 -14.5 -15t-13.5 -14.5t-8 -7.5q-4 -4 -15.5 -14t-32.5 -27 t-39 -33q-65 -59 -337 -301q172 -197 348 -393q74 -84 101 -110t79 -66q-88 6 -135 6q-45 0 -131 -6q-111 171 -412 504h-31v-326q0 -66 3 -95t14 -83q-64 6 -97 6t-94 -6z" />
<glyph unicode="l" horiz-adv-x="565" d="M193 -6q14 139 14 295l-2 219l4 299q0 535 -16 715q86 -4 96 -4q8 0 94 4q-14 -129 -14 -256l-2 -455l2 -518q0 -180 14 -299q-65 6 -94 6q-31 0 -96 -6z" />
<glyph unicode="m" horiz-adv-x="1699" d="M139 -6q17 139 17 475q0 231 -17 506q61 -6 94 -6q31 0 93 6q-12 -53 -14.5 -74.5t-2.5 -73.5v-14q107 182 312 182q135 0 215 -71q25 -23 40 -49.5t33 -79.5q44 75 95 120q99 80 239 80q142 0 227 -88q42 -42 59 -100t17 -158q0 -88 -2 -131q-1 -46 -2 -93.5t-1.5 -72 t-0.5 -30.5q0 -146 3 -207.5t13 -120.5q-62 6 -94 6t-96 -6q16 153 16 514q0 127 -7.5 187t-28.5 98q-22 41 -70 65.5t-109 24.5q-80 0 -136 -39t-79 -111q-24 -76 -24 -381q0 -254 14 -358q-62 6 -94 6t-94 -6q16 98 16 348q0 235 -3 303.5t-15 108.5q-41 129 -189 129 q-89 0 -149 -46t-80 -130q-14 -62 -17.5 -130t-3.5 -264q0 -190 17 -319q-64 6 -97 6t-94 -6z" />
<glyph unicode="n" d="M145 -6q17 133 17 467q0 249 -3.5 348t-13.5 166q62 -6 91 -6q30 0 92 6q-12 -68 -17 -166q66 97 144.5 141.5t181.5 44.5q192 0 287 -137q28 -41 38.5 -89t10.5 -134q0 -38 -4 -152q-2 -61 -2 -116l2 -123q2 -143 3.5 -174.5t10.5 -75.5q-61 6 -94 6q-31 0 -96 -6 q16 88 16 346q0 234 -3 293.5t-15 101.5q-22 68 -83 108t-143 40q-93 0 -152.5 -51.5t-78.5 -147.5q-9 -56 -12 -114t-3 -212q0 -185 2.5 -238.5t14.5 -125.5q-64 6 -96 6q-34 0 -95 -6z" />
<glyph unicode="o" d="M78 475q0 229 142.5 374.5t367.5 145.5q214 0 344.5 -138.5t130.5 -364.5q0 -229 -138.5 -374t-359.5 -145t-354 136.5t-133 365.5zM262 473q0 -197 81 -310.5t220 -113.5q141 0 228.5 124.5t87.5 324.5q0 196 -79.5 309t-217.5 113q-143 0 -231.5 -123t-88.5 -324z" />
<glyph unicode="p" d="M133 -426q17 128 17 668q0 539 -17 733q59 -6 88 -6t90 6q-7 -30 -16 -195q6 8 16.5 21t12.5 16q50 68 67.5 86.5t52.5 38.5q92 53 199 53q86 0 166 -35t137 -98q115 -124 115 -356q0 -241 -123.5 -387t-327.5 -146q-95 0 -161.5 32t-135.5 110q0 -247 3 -336.5 t14 -204.5q-67 6 -99 6q-33 0 -98 -6zM307 475q0 -203 71.5 -308.5t209.5 -105.5t213.5 111.5t75.5 314.5q0 201 -73 310.5t-208 109.5q-138 0 -213.5 -112.5t-75.5 -319.5z" />
<glyph unicode="q" d="M72 483q0 226 120.5 369t309.5 143q142 0 241 -86q44 -38 93 -118q-2 103 -17 184q62 -6 90 -6q31 0 90 6q-16 -203 -16 -586l2 -266q2 -324 3.5 -392.5t10.5 -156.5q-61 6 -94 6t-94 -6q9 104 10.5 174.5t3.5 386.5q-68 -89 -139 -125.5t-180 -36.5q-196 0 -315 140 t-119 370zM256 502q0 -212 74 -326.5t209 -114.5q75 0 137.5 37.5t93.5 100.5q53 106 53 284q0 193 -77.5 308.5t-206.5 115.5q-132 0 -207.5 -107.5t-75.5 -297.5z" />
<glyph unicode="r" horiz-adv-x="679" d="M166 -6q16 138 16 446q0 436 -16 535q67 -6 100 -6q34 0 99 6q-15 -103 -15 -176q75 110 133.5 153t130.5 43q35 0 72 -12q-20 -62 -25 -88t-8 -88q-59 29 -108 29q-153 0 -191 -177q-14 -69 -14 -364q0 -192 16 -301q-64 6 -94 6q-32 0 -96 -6z" />
<glyph unicode="s" horiz-adv-x="792" d="M90 53q30 59 62 142q52 -80 102.5 -113t126.5 -33q89 0 145 48.5t56 125.5q0 75 -52 121t-176 78q-132 35 -190 99.5t-58 174.5q0 137 90.5 218t243.5 81q70 0 117.5 -13.5t108.5 -51.5q-13 -26 -39 -88l-21 -54q-46 74 -89 103t-107 29q-75 0 -120.5 -45.5t-45.5 -120.5 q0 -74 45.5 -115.5t163.5 -73.5q93 -25 140 -49.5t75 -62.5q51 -66 51 -152q0 -139 -110 -233.5t-271 -94.5q-79 0 -133.5 17.5t-114.5 62.5z" />
<glyph unicode="t" horiz-adv-x="565" d="M47 891q4 36 4 43q0 5 -4 45q27 -7 44.5 -8.5t82.5 -1.5v65q-3 118 -4 140q97 36 186 83q-16 -75 -16 -288q27 -2 61 -2q113 0 166 12q-6 -30 -6 -45q0 -16 6 -43q-44 -10 -194 -10h-33q-6 -199 -6 -572q0 -252 153 -252q35 0 82 23v-60q-39 -26 -72.5 -36.5t-82.5 -10.5 q-122 0 -187 74q-32 38 -44.5 84t-12.5 123q0 39 2 211l2 416q-12 2 -27 2q-22 0 -38 -2h-17q-20 0 -45 10z" />
<glyph unicode="u" d="M162 975q61 -6 94 -6q32 0 96 6q-16 -99 -16 -563q0 -99 8 -146t31 -84q29 -46 81.5 -72t116.5 -26q82 0 143.5 43t84.5 117q15 45 19.5 118.5t4.5 262.5q0 167 -3 232t-13 118q65 -6 96 -6q33 0 94 6q-16 -115 -16 -440q0 -440 16 -541q-59 6 -88 6t-88 -6 q12 113 15 180q-66 -107 -143 -154t-187 -47q-69 0 -133 20.5t-107 57.5q-52 46 -74 117.5t-22 196.5q0 52 6 245q0 50 -2 111v141q0 58 -14 113z" />
<glyph unicode="v" horiz-adv-x="1019" d="M18 975q71 -6 109 -6q35 0 106 6q26 -105 135 -376t175 -396q78 169 196 483q53 142 67 186.5t23 102.5q55 -6 84 -6t84 6q-34 -29 -194.5 -396.5t-233.5 -584.5q-41 6 -61 6q-24 0 -64 -6q-260 641 -315.5 768.5t-110.5 212.5z" />
<glyph unicode="w" horiz-adv-x="1585" d="M33 975q71 -6 104 -6q37 0 107 6q52 -233 248 -746q147 373 247 746q47 -6 70 -6t70 6q19 -71 104 -336q30 -81 84 -231.5t66 -182.5q87 209 171.5 456t84.5 294q55 -6 81 -6q28 0 80 6q-64 -109 -223.5 -501t-177.5 -480q-37 6 -57 6t-60 -6q-36 185 -258 760 q-11 -31 -184 -521q-42 -128 -51 -165q-5 -21 -12 -48l-7 -26q-40 6 -59 6q-21 0 -58 -6q-37 136 -81 248q-13 35 -53 142t-66 177q-57 158 -170 414z" />
<glyph unicode="x" horiz-adv-x="1019" d="M63 -6q15 21 93 117q224 288 280 362q-154 218 -368 502q70 -6 108 -6q37 0 105 6q41 -85 258 -377q249 331 266 377q47 -6 74 -6q25 0 71 6q-223 -275 -364 -445l114 -153q256 -340 291 -383q-77 6 -117 6q-38 0 -118 -6q-29 67 -75.5 137.5t-193.5 271.5 q-120 -165 -176 -249q-37 -55 -39 -58l-47 -69q-18 -30 -20 -33q-47 6 -70 6q-25 0 -72 -6z" />
<glyph unicode="y" horiz-adv-x="1019" d="M29 975q77 -6 116 -6t115 6q11 -158 289 -768q30 59 44 94t62 164q6 14 29 73.5t39 96.5q88 217 104 340q59 -6 88 -6q31 0 89 6q-24 -50 -31 -57q-19 -38 -41 -76q-52 -94 -365 -805q-157 -385 -168 -463q-78 4 -88 4q-12 0 -90 -4q21 35 25 41t21.5 31.5t25.5 40.5 q28 40 54 90t110 221q-147 360 -265 629t-163 348z" />
<glyph unicode="z" horiz-adv-x="1019" d="M45 18q20 25 58.5 75t52.5 67q2 3 206 278q55 78 173 234q83 110 147 209h-63q-264 0 -467 -15q4 54 4 60q0 5 -4 59q128 -16 458 -16q206 0 314 6l20 -29q-332 -420 -651 -860q33 1 84.5 1.5t136.5 1t152 1.5q159 6 252 12q-7 -47 -7 -59t7 -59q-163 16 -541 16 q-58 0 -316 -6z" />
<glyph unicode="{" horiz-adv-x="905" d="M164 502v51q227 105 227 258q0 78 -24 186q-25 112 -25 193q0 83 45 157t125 121q77 47 254 82v-51q-80 -26 -119 -63q-94 -85 -94 -252q0 -82 12 -176q10 -92 10 -140q0 -135 -120 -223q-45 -36 -185 -119q142 -83 185 -114q120 -91 120 -222q0 -47 -10 -139 q-12 -88 -12 -172q0 -166 94 -248q39 -37 119 -63v-51q-104 19 -166 40t-111 54q-69 46 -108 115.5t-39 146.5q0 75 25 188q24 108 24 185q0 151 -227 256z" />
<glyph unicode="|" horiz-adv-x="1048" d="M449 -350v1749h151v-1749h-151z" />
<glyph unicode="}" horiz-adv-x="905" d="M139 -432q80 26 119 63q94 82 94 248q0 80 -12 172q-10 92 -10 139q0 130 121 222q46 35 184 114q-130 76 -184 119q-121 88 -121 223q0 52 10 140q12 94 12 176q0 167 -94 252q-39 37 -119 63v51q105 -21 166.5 -42t110.5 -54q69 -46 108 -116.5t39 -147.5 q0 -85 -24 -193q-25 -113 -25 -186q0 -156 227 -258v-51q-227 -105 -227 -256q0 -72 25 -185q24 -108 24 -188q0 -83 -45.5 -156.5t-124.5 -119.5q-47 -27 -103 -45t-151 -35v51z" />
<glyph unicode="~" horiz-adv-x="1398" d="M195 451q41 79 67.5 117.5t59.5 66.5q68 55 159 55q45 0 96.5 -15.5t139.5 -56.5q101 -44 134 -54.5t71 -10.5q59 0 96.5 28t91.5 113l92 -55q-61 -118 -125 -170q-36 -28 -82.5 -44.5t-85.5 -16.5q-55 0 -153 34q-4 2 -6 2q-3 0 -21 9q-185 92 -260 92 q-55 0 -94.5 -32.5t-89.5 -119.5z" />
<glyph unicode="&#xa1;" horiz-adv-x="565" d="M170 852q0 48 35 82.5t84 34.5t84 -34.5t35 -84.5t-35 -84.5t-84 -34.5q-50 0 -84.5 35t-34.5 86zM182 -283q0 36 8 142l68 770h59l68 -770q10 -109 10 -142q0 -63 -28.5 -100t-77.5 -37t-78 37t-29 100z" />
<glyph unicode="&#xa2;" d="M145 752q0 207 120.5 337.5t340.5 161.5q-2 51 -8 125q-1 20 -6 113q62 -4 70 -4q7 0 69 4q-16 -154 -16 -197v-37q107 -9 166 -28.5t129 -67.5q-27 -44 -36 -65t-24 -74q-47 71 -100.5 103.5t-136.5 41.5q-6 -417 -6 -651q0 -107 6 -164q83 4 142.5 30t148.5 97 q-23 -70 -33 -131q-65 -42 -120 -60.5t-140 -25.5l2 -41l8 -158q0 -3 0.5 -11t1.5 -24.5t2 -31.5q-43 6 -66 6q-21 0 -67 -6q10 76 10 143q4 97 6 119q-99 10 -158 30.5t-118 63.5q-88 68 -137.5 173.5t-49.5 228.5zM334 768q0 -214 108 -334q32 -36 68.5 -54.5t95.5 -29.5 q6 123 6 473q0 225 -6 342q-272 -73 -272 -397z" />
<glyph unicode="&#xa3;" d="M66 -16q6 47 6 69q0 23 -6 70q75 5 116.5 17.5t79.5 43.5q58 46 82.5 120t24.5 208q0 8 -7 166q-123 -8 -188 -16q6 34 6 51t-6 51q92 -9 186 -16v34l-2 129q0 131 30 216.5t97 148.5q114 102 269 102q68 0 123 -20t147 -78q-37 -46 -49.5 -68.5t-34.5 -81.5 q-37 92 -82 130t-119 38q-64 0 -116.5 -35t-75.5 -94q-25 -68 -25 -176q0 -31 6 -245q62 -3 95 -3q79 0 198 19q-6 -34 -6 -49q0 -17 6 -51q-120 16 -293 16q-6 -128 -16 -189.5t-35 -123.5q-41 -96 -75 -144.5t-83 -83.5q444 5 654 17q-6 -58 -6 -88q0 -28 6 -84 q-258 16 -508 16q-259 0 -399 -16z" />
<glyph unicode="&#xa4;" d="M80 313l137 138q-94 128 -94 286q0 81 22 147t72 134l-137 137l65 66l136 -138q71 51 138 74t148 23q156 0 287 -97l137 138l66 -66l-139 -137q51 -69 73.5 -134.5t22.5 -146.5q0 -161 -96 -286l137 -138l-64 -63l-137 137q-82 -56 -144 -77t-143 -21q-80 0 -142 21 t-144 77l-138 -137zM223 739q0 -148 99.5 -250t244.5 -102t246.5 100.5t101.5 245.5q0 144 -101.5 246t-244.5 102q-141 0 -243.5 -101.5t-102.5 -240.5z" />
<glyph unicode="&#xa5;" d="M-23 1382q110 -4 125 -4t125 4q159 -321 379 -677q69 108 193 325q10 18 39 70t45 80q57 101 100 202q82 -4 90 -4t90 4q-77 -108 -127.5 -185.5t-181.5 -287.5q-157 -250 -190 -303v-131h59l18 -2q48 -2 142 19q-4 -54 -4 -62q0 -7 4 -61q-109 16 -158 16h-10l-51 -2 v-115l59 -2q88 3 160 17q-4 -54 -4 -62q0 -7 4 -61q-77 14 -160 16h-55q7 -61 16 -182q-74 6 -109 6q-37 0 -110 -6q14 91 16 182h-57q-82 -2 -162 -16q6 40 6 61t-6 62q75 -14 160 -17l65 2v115l-53 2h-10q-50 0 -162 -16q6 41 6 61q0 22 -6 62q99 -21 144 -19l18 2h63v88 q-244 412 -322 536.5t-188 282.5z" />
<glyph unicode="&#xa6;" horiz-adv-x="1048" d="M449 322h151v-672h-151v672zM449 700v699h151v-699h-151z" />
<glyph unicode="&#xa7;" d="M178 610q0 74 26.5 129.5t96.5 130.5q-29 53 -40 91t-11 90q0 154 102 252t260 98q78 0 147 -25.5t148 -83.5q-39 -61 -53 -88t-39 -94h-14q-13 60 -31 93.5t-47 56.5q-63 51 -150 51q-92 0 -151.5 -53.5t-59.5 -135.5q0 -74 47 -121t171 -96q173 -69 209 -86.5t77 -54.5 q41 -35 65.5 -91.5t24.5 -117.5q0 -116 -77 -219l-23 -31q40 -49 55 -91t15 -101q0 -175 -120.5 -285.5t-311.5 -110.5q-82 0 -140 16t-153 64q18 77 22.5 112t7.5 118h13q23 -57 43.5 -87.5t52.5 -56.5q92 -76 213 -76q110 0 185 64t75 158q0 72 -44.5 116t-168.5 95 q-239 99 -305 145q-117 75 -117 225zM291 690q0 -94 94 -153q84 -51 268 -121q101 -40 148 -72q25 37 34 63.5t9 61.5q0 89 -70 143q-34 25 -73.5 43t-194.5 80q-66 26 -92 40t-70 46q-31 -41 -42 -68.5t-11 -62.5z" />
<glyph unicode="&#xa8;" d="M266 1243q0 38 29.5 67t69.5 29q41 0 69.5 -28.5t28.5 -69.5t-28.5 -69.5t-69.5 -28.5t-70 29.5t-29 70.5zM678 1243q0 38 29 67t69 29q41 0 69.5 -28.5t28.5 -69.5t-28.5 -69.5t-69.5 -28.5t-69.5 29.5t-28.5 70.5z" />
<glyph unicode="&#xa9;" horiz-adv-x="1019" d="M-4 1044q0 142 69 261t189 187.5t264 68.5q137 0 253 -69.5t183.5 -188.5t67.5 -259q0 -141 -68 -259.5t-186 -186.5t-258 -68t-258.5 68.5t-187 187t-68.5 258.5zM61 1047q0 -126 59.5 -231.5t163 -166.5t226.5 -61q187 0 317.5 132.5t130.5 323.5q0 194 -131 326.5 t-323 132.5q-183 0 -313 -133.5t-130 -322.5zM213 1044q0 137 91 217t247 80q104 0 190 -34q-12 -35 -20 -70l-10 -2q-2 0 -6 4q-40 32 -76.5 45.5t-85.5 13.5q-106 0 -169 -67.5t-63 -183.5q0 -115 62 -181.5t168 -66.5q98 0 188 67l12 -6l-16 -53q-77 -51 -195 -51 q-148 0 -232.5 77t-84.5 211z" />
<glyph unicode="&#xaa;" horiz-adv-x="831" d="M111 858q0 89 64 139.5t208 73.5q88 15 112.5 29t24.5 49q0 63 -41.5 104t-105.5 41q-61 0 -106 -25.5t-85 -82.5h-14l10 131q67 35 113.5 48t101.5 13q127 0 193 -69q57 -57 57 -207v-215q3 -74 4.5 -89t7.5 -30q3 -8 13 -14t20 -6q17 0 35 6l-2 -49q-66 -27 -105 -27 q-38 0 -56.5 18t-33.5 70q-59 -48 -109.5 -68t-113.5 -20q-86 0 -139 50t-53 130zM256 860q0 -46 26.5 -72t73.5 -26q45 0 79 18.5t81 69.5v164q-154 -28 -207 -59.5t-53 -94.5z" />
<glyph unicode="&#xab;" horiz-adv-x="755" d="M80 489q16 22 57.5 81t63.5 89q10 15 110 183q28 -36 44.5 -47t60.5 -21q-78 -110 -193 -285q98 -151 189 -272q-46 -12 -61 -23.5t-40 -54.5q-7 12 -28.5 47t-25.5 41.5l-20 32.5t-20 32t-17 26.5t-19.5 29.5t-18.5 27t-23.5 33.5t-26 35.5t-32.5 45zM377 489 q4 6 8.5 13t9.5 14.5t8 11.5q89 120 95 131q20 29 110 183q30 -37 46.5 -47.5t60.5 -20.5q-71 -95 -195 -285q95 -145 189 -272q-45 -12 -61 -24t-40 -54q-70 119 -105 172t-126 178z" />
<glyph unicode="&#xac;" horiz-adv-x="1812" d="M375 686v107h1063v-586h-107v479h-956z" />
<glyph unicode="&#xad;" horiz-adv-x="565" d="M29 420v145h514v-145h-514z" />
<glyph unicode="&#xae;" horiz-adv-x="1019" d="M-4 1040q0 142 69 260.5t189 187t264 68.5q137 0 253 -69t183.5 -188t67.5 -259q0 -215 -148.5 -364.5t-363.5 -149.5t-364.5 149.5t-149.5 364.5zM61 1042q0 -192 130.5 -325t318.5 -133q187 0 317.5 132.5t130.5 323.5q0 195 -131 327t-323 132q-183 0 -313 -134 t-130 -323zM313 764v16q9 61 9 271q0 65 -3 209q-2 37 -2 69v2q25 -4 60 -4q58 0 74 2l75 2q85 0 132 -34.5t47 -96.5q0 -61 -42 -98.5t-135 -59.5q28 -35 50 -57q154 -188 184 -209v-12q-36 4 -57 4q-36 0 -50 -4q-9 10 -43 53q-50 65 -108 134t-76 83h-27v-4v-80 q0 -6 5 -186h-3q-12 4 -51 4q-3 0 -8 -0.5t-14 -1.5t-17 -2zM397 1096q0 -14 7 -19.5t26 -5.5q188 0 188 119q0 54 -38.5 78t-124.5 24q-48 0 -52 -4v-2v-2q-2 -10 -2 -24v-35v-43v-39q-4 -31 -4 -47z" />
<glyph unicode="&#xaf;" d="M266 1178v118h604v-118h-604z" />
<glyph unicode="&#xb0;" d="M244 1057q0 131 97 226t230 95q137 0 232.5 -95.5t95.5 -231.5q0 -137 -96 -232.5t-234 -95.5q-136 0 -230.5 97t-94.5 237zM334 1055q0 -101 68.5 -171.5t166.5 -70.5q100 0 170 69t70 169q0 98 -70 167.5t-168 69.5q-97 0 -167 -69t-70 -164z" />
<glyph unicode="&#xb1;" horiz-adv-x="1812" d="M375 -137h1063v-107h-1063v107zM375 446v107h477v479h106v-479h480v-107h-480v-477h-106v477h-477z" />
<glyph unicode="&#xb2;" horiz-adv-x="755" d="M59 565l56 56q215 203 288.5 311t73.5 223q0 74 -30 113t-87 39t-88.5 -34t-44.5 -110l-102 84q57 75 111 103t141 28q117 0 186.5 -59.5t69.5 -159.5q0 -92 -64 -184q-27 -38 -54.5 -67.5t-104.5 -102.5q-75 -67 -138 -137q177 2 238 4t149 10q-10 -48 -10 -66t10 -63 q-99 12 -262 12q-229 0 -321 -12z" />
<glyph unicode="&#xb3;" horiz-adv-x="755" d="M106 590q19 62 27 110q41 -44 80 -63t90 -19q81 0 130.5 51.5t49.5 135.5q0 68 -40 104.5t-115 36.5q-43 0 -80 -12q12 30 12 49q0 17 -12 47q40 -12 69 -12q55 0 87 40t32 109q0 64 -27 102t-73 38q-41 0 -71 -23.5t-56 -77.5q-24 35 -35 48t-41 40q43 44 93 64t120 20 q114 0 180 -53t66 -145q0 -121 -105 -181q72 -19 112 -68.5t40 -119.5q0 -114 -93.5 -189t-234.5 -75q-85 0 -205 43z" />
<glyph unicode="&#xb4;" d="M471 1090q68 113 94.5 162t79.5 163q73 -12 111 -12q40 0 110 12l11 -29q-124 -99 -173.5 -143t-158.5 -153h-74z" />
<glyph unicode="&#xb5;" horiz-adv-x="1208" d="M70 -307q0 34 3 52t21 87l12 51q25 100 25 158v1008h184v-695q0 -109 50 -170t141 -61q69 0 121.5 33.5t113.5 117.5v775h187v-775q0 -84 28 -136t74 -52q38 0 67 39.5t36 103.5l57 -2q-17 -77 -35.5 -117t-50.5 -71q-69 -66 -160 -66q-83 0 -131 47t-70 148 q-98 -107 -171 -151t-156 -44q-50 0 -91 19.5t-112 77.5q0 -58 4.5 -91t20.5 -92q41 -140 41 -192q0 -69 -29 -112.5t-76 -43.5q-46 0 -75 42.5t-29 111.5z" />
<glyph unicode="&#xb6;" d="M188 1040q0 117 55 220t150 161q168 107 455 107h186v-84h-137v-1772h-80v1772h-98v-1772h-80v899q-129 24 -215 68q-109 57 -172.5 164.5t-63.5 236.5z" />
<glyph unicode="&#xb7;" horiz-adv-x="565" d="M168 690q0 48 35 82.5t84 34.5t84 -34.5t35 -84.5t-35 -84.5t-84 -34.5q-51 0 -85 35t-34 86z" />
<glyph unicode="&#xb8;" d="M328 -360l41 71q77 -46 116.5 -61t85.5 -15q49 0 80 24t31 62q0 39 -29 61.5t-80 22.5q-21 0 -67 -14l-27 31l105 178h78l-68 -117h43q76 0 122 -39.5t46 -105.5q0 -76 -63.5 -128t-155.5 -52q-57 0 -112.5 17.5t-145.5 64.5z" />
<glyph unicode="&#xb9;" horiz-adv-x="755" d="M141 1237q179 65 338 141q-16 -240 -16 -508q0 -150 16 -311q-53 6 -80 6t-82 -6q17 163 17 442q0 100 -17 236q-81 -40 -116 -61z" />
<glyph unicode="&#xba;" horiz-adv-x="831" d="M68 1024q0 158 98 256t258 98q154 0 247 -93t93 -245q0 -163 -97.5 -262.5t-258.5 -99.5q-156 0 -248 93.5t-92 252.5zM213 1022q0 -126 52 -193t149 -67q95 0 149.5 73t54.5 201q0 125 -49 191.5t-141 66.5q-98 0 -156.5 -74t-58.5 -198z" />
<glyph unicode="&#xbb;" horiz-adv-x="755" d="M43 207q101 139 193 282q-107 168 -189 275q45 10 60 22t40 56q92 -153 119 -189q5 -10 113 -164q-4 -6 -13.5 -18t-13.5 -18q-42 -59 -92 -134q-61 -94 -113 -180q-28 36 -43.5 46t-60.5 22zM340 207q75 101 195 282q-99 152 -189 275q43 10 58 22t42 56 q88 -146 117 -189q30 -47 115 -164q-1 -2 -11 -14.5t-16 -19.5q-59 -87 -94 -136q-20 -27 -111 -180q-30 36 -45.5 46t-60.5 22z" />
<glyph unicode="&#xbc;" horiz-adv-x="1812" d="M213 1237q179 65 338 141q-16 -240 -16 -508q0 -150 16 -311q-52 6 -80 6q-27 0 -82 -6q17 163 17 442q0 100 -17 236q-87 -42 -117 -61zM334 -41q186 265 240 346t163 258l166 266l164 256q40 66 57 97l68 116l45 74q52 -10 72 -10q17 0 69 10q-298 -424 -534 -817 q-151 -249 -154 -254q-58 -89 -117 -180q-49 -76 -96 -162q-47 12 -71 12q-22 0 -72 -12zM895 199q32 53 63 96q41 54 177 233q68 88 198 275q43 -6 66 -6t67 6q-16 -147 -16 -467q0 -26 2 -49q68 5 119 16q-6 -44 -6 -63q0 -22 6 -62q-59 19 -90 19q-15 0 -29 -2 q-2 -16 -2 -39q0 -74 16 -162q-52 6 -80 6q-26 0 -81 -6q7 52 10 90q1 3 6 96q-80 17 -188 17q-129 0 -224 -17zM1057 299q86 -14 129 -14q42 0 135 14q3 118 8 371q-209 -287 -272 -371z" />
<glyph unicode="&#xbd;" horiz-adv-x="1812" d="M174 1237q179 65 338 141q-16 -240 -16 -508q0 -150 16 -311q-53 6 -80 6t-82 -6q17 163 17 442q0 100 -17 236q-87 -42 -117 -61zM307 -41q26 38 74.5 107t62 89t46.5 67.5t41.5 60t32.5 48.5t33.5 51t31.5 49t39 61.5t43 70.5q97 158 166 266l163 256q8 14 28.5 47.5 t29.5 49.5l67 116q8 14 24.5 40.5t20.5 33.5q52 -10 72 -10q18 0 70 10q-291 -412 -535 -817q-98 -166 -153 -254q-58 -89 -117 -180q-26 -40 -96 -162q-47 12 -72 12q-23 0 -72 -12zM971 2q35 35 55 53q216 203 289.5 311.5t73.5 223.5q0 74 -30 112.5t-87 38.5t-88.5 -33 t-46.5 -108l-101 84q57 74 111 101.5t141 27.5q117 0 186.5 -59.5t69.5 -159.5q0 -93 -63 -184q-25 -36 -52 -64t-110 -104q-67 -64 -135 -140q236 2 387 15q-12 -43 -12 -66q0 -19 12 -63q-102 12 -275 12q-218 0 -309 -12z" />
<glyph unicode="&#xbe;" horiz-adv-x="1812" d="M233 590q19 62 27 110q41 -44 80 -63t90 -19q81 0 130.5 51.5t49.5 135.5q0 68 -40 104.5t-115 36.5q-43 0 -80 -12q12 30 12 49q0 17 -12 47q40 -12 69 -12q55 0 87 40t32 109q0 64 -27 102t-73 38q-41 0 -71 -23.5t-56 -77.5q-24 35 -35 48t-41 40q43 44 93 64t120 20 q114 0 180 -53t66 -145q0 -121 -105 -181q72 -19 112 -68.5t40 -119.5q0 -114 -93.5 -189t-234.5 -75q-85 0 -205 43zM442 -41q34 50 179 256q91 134 223 348q154 244 168 266l162 256q12 17 59 97l67 116q28 48 43 74q55 -10 74 -10q18 0 70 10q-301 -423 -535 -817 q-30 -49 -68 -112t-57.5 -95t-29.5 -47q-17 -26 -36.5 -56t-42.5 -66.5t-36 -57.5q-53 -82 -96 -162q-46 12 -72 12t-72 -12zM975 199q28 49 61 96q103 138 178 233q98 129 199 275q43 -6 64 -6q23 0 69 6q-9 -66 -11 -138.5t-5 -377.5q68 5 119 16q-7 -51 -7 -63 q0 -15 7 -62q-59 19 -90 19q-15 0 -29 -2q-2 -16 -2 -39q0 -68 18 -162q-56 6 -82 6q-28 0 -80 -6q11 93 15 186q-80 17 -189 17q-126 0 -223 -17zM1135 299q89 -14 129 -14q42 0 135 14l2 80l4 100q0 68 2 191l-135 -189q-38 -45 -137 -182z" />
<glyph unicode="&#xbf;" horiz-adv-x="792" d="M123 -145q0 91 49 176q21 40 129 162q95 106 124.5 152.5t29.5 92.5t-32 76.5t-79 30.5q-29 0 -72 -21l41 105q83 0 131 -13q70 -19 112 -79t42 -142q0 -78 -37.5 -145.5t-138.5 -173.5q-88 -91 -122 -146.5t-34 -109.5q0 -63 52 -109.5t122 -46.5q47 0 86 23.5t88 81.5 l17 -123q-73 -39 -117 -52.5t-98 -13.5q-129 0 -211 77t-82 198zM291 850q0 50 34.5 84.5t84.5 34.5q51 0 84.5 -35t33.5 -86q0 -48 -34.5 -82.5t-83.5 -34.5q-50 0 -84.5 34.5t-34.5 84.5z" />
<glyph unicode="&#xc0;" horiz-adv-x="1359" d="M27 -6q89 162 230 471.5t411 935.5h37q15 -35 30 -70.5t23.5 -57t11.5 -28.5l104 -241q11 -23 203 -474q161 -371 248 -536q-73 6 -111 6t-112 -6q-1 2 -12 29.5t-19 50.5q-17 42 -70 182q-32 84 -114 268q-132 17 -269 17q-111 0 -235 -17q-129 -311 -199 -530 q-52 6 -78 6t-79 -6zM324 1796l18 51q74 -12 115 -12q37 0 114 12q51 -113 77 -162.5t95 -164.5h-96q-113 109 -162 151t-161 125zM442 657q148 -14 215 -14q66 0 170 14q-52 138 -141 338q-18 40 -45 103q-185 -406 -199 -441z" />
<glyph unicode="&#xc1;" horiz-adv-x="1359" d="M27 -6q89 162 230 471.5t411 935.5h37q15 -35 30 -70.5t23.5 -57t11.5 -28.5l104 -241q11 -23 203 -474q161 -371 248 -536q-73 6 -111 6t-112 -6q-1 2 -12 29.5t-19 50.5q-17 42 -70 182q-32 84 -114 268q-132 17 -269 17q-111 0 -235 -17q-129 -311 -199 -530 q-52 6 -78 6t-79 -6zM442 657q148 -14 215 -14q66 0 170 14q-52 138 -141 338q-18 40 -45 103q-185 -406 -199 -441zM639 1520q69 115 95 164.5t77 162.5q77 -12 115 -12q40 0 114 12l19 -51q-113 -84 -162.5 -126t-161.5 -150h-96z" />
<glyph unicode="&#xc2;" horiz-adv-x="1359" d="M27 -6q89 162 230 471.5t411 935.5h37q15 -35 30 -70.5t23.5 -57t11.5 -28.5l104 -241q11 -23 203 -474q161 -371 248 -536q-73 6 -111 6t-112 -6q-1 2 -12 29.5t-19 50.5q-17 42 -70 182q-32 84 -114 268q-132 17 -269 17q-111 0 -235 -17q-129 -311 -199 -530 q-52 6 -78 6t-79 -6zM352 1595q102 86 143.5 124t129.5 130h118q88 -92 129.5 -130t143.5 -124q-61 -22 -86 -33.5t-78 -41.5q-57 83 -82.5 117t-85.5 108q-60 -74 -85.5 -108t-82.5 -117q-53 30 -78 41.5t-86 33.5zM442 657q148 -14 215 -14q66 0 170 14q-52 138 -141 338 q-18 40 -45 103q-185 -406 -199 -441z" />
<glyph unicode="&#xc3;" horiz-adv-x="1359" d="M27 -6q89 162 230 471.5t411 935.5h37q15 -35 30 -70.5t23.5 -57t11.5 -28.5l104 -241q11 -23 203 -474q161 -371 248 -536q-73 6 -111 6t-112 -6q-1 2 -12 29.5t-19 50.5q-17 42 -70 182q-32 84 -114 268q-132 17 -269 17q-111 0 -235 -17q-129 -311 -199 -530 q-52 6 -78 6t-79 -6zM379 1581q54 186 170 186q33 0 82 -12q183 -43 233 -43q25 0 42.5 10t45.5 41l60 -8q-34 -101 -72 -140.5t-102 -39.5q-46 0 -154 27q-117 28 -160 28q-27 0 -45 -11.5t-41 -43.5zM442 657q148 -14 215 -14q66 0 170 14q-52 138 -141 338 q-18 40 -45 103q-185 -406 -199 -441z" />
<glyph unicode="&#xc4;" horiz-adv-x="1359" d="M27 -6q89 162 230 471.5t411 935.5h37q15 -35 30 -70.5t23.5 -57t11.5 -28.5l104 -241q11 -23 203 -474q161 -371 248 -536q-73 6 -111 6t-112 -6q-1 2 -12 29.5t-19 50.5q-17 42 -70 182q-32 84 -114 268q-132 17 -269 17q-111 0 -235 -17q-129 -311 -199 -530 q-52 6 -78 6t-79 -6zM377 1679q0 41 30.5 72t71.5 31q43 0 74 -31t31 -72q0 -43 -31 -73.5t-74 -30.5t-72.5 30.5t-29.5 73.5zM442 657q148 -14 215 -14q66 0 170 14q-52 138 -141 338q-18 40 -45 103q-185 -406 -199 -441zM811 1679q0 41 30.5 72t71.5 31q43 0 74 -31 t31 -72q0 -43 -31 -73.5t-74 -30.5t-72.5 30.5t-29.5 73.5z" />
<glyph unicode="&#xc5;" horiz-adv-x="1359" d="M27 -6q89 162 230 471.5t411 935.5h37q15 -35 30 -70.5t23.5 -57t11.5 -28.5l104 -241q11 -23 203 -474q161 -371 248 -536q-73 6 -111 6t-112 -6q-1 2 -12 29.5t-19 50.5q-17 42 -70 182q-32 84 -114 268q-132 17 -269 17q-111 0 -235 -17q-129 -311 -199 -530 q-52 6 -78 6t-79 -6zM442 657q148 -14 215 -14q66 0 170 14q-52 138 -141 338q-18 40 -45 103q-185 -406 -199 -441zM512 1694q0 69 51 119.5t121 50.5q72 0 122 -50t50 -122t-51 -122t-123 -50q-70 0 -120 51t-50 123zM604 1694q0 -34 23 -58t57 -24t57 23t23 57t-23 57 t-57 23q-32 0 -56 -23t-24 -55z" />
<glyph unicode="&#xc6;" horiz-adv-x="1662" d="M-59 -6q44 80 104 176q138 227 483 819q130 217 183 309q31 53 49 84l18 35q156 -16 373 -16q240 0 418 16q-4 -62 -4 -67q0 -6 4 -68q-167 16 -391 16q-95 0 -154 -2q-4 -164 -4 -262q0 -107 4 -250h109q278 0 383 15q-1 -11 -2 -26t-2 -25t-1 -17q0 -6 1 -15.5t2 -24 t2 -25.5q-197 16 -433 16q-32 0 -59 -2q-4 -174 -4 -285q0 -24 0.5 -58t1.5 -98.5t2 -136.5h109q165 0 434 17q-4 -62 -4 -70q0 -7 4 -65q-278 16 -377 16q-169 0 -359 -16q9 166 11 309q2 94 2 168l2 65q-139 17 -273 17q-89 0 -198 -17q-194 -340 -271 -532q-52 6 -81 6 q-27 0 -82 -6zM453 659q52 -14 133 -14q159 0 258 17v122q0 372 -13 502q-154 -230 -378 -627z" />
<glyph unicode="&#xc7;" horiz-adv-x="1359" d="M88 688q0 357 244 569q106 91 229.5 132t290.5 41q138 0 240 -21t219 -74q-29 -85 -47 -164l-33 -2q-113 97 -197 133.5t-194 36.5q-119 0 -224.5 -48t-177.5 -134q-141 -170 -141 -467q0 -264 127 -428q75 -98 183 -150.5t235 -52.5q118 0 216 39t212 131l14 -22 q-13 -72 -18 -121q-173 -106 -414 -115l-76 -104h33q77 0 123.5 -41.5t46.5 -108.5q0 -77 -66 -133q-60 -49 -165 -49q-65 0 -114.5 15.5t-137.5 62.5l43 76q68 -41 111.5 -56.5t88.5 -15.5q46 0 75.5 23.5t29.5 60.5q0 35 -25.5 59.5t-62.5 24.5q-30 0 -74 -12l-27 37 l103 161q-126 8 -216.5 36.5t-172.5 86.5q-135 94 -208 248t-73 346z" />
<glyph unicode="&#xc8;" horiz-adv-x="1019" d="M168 -16q16 235 16 690q0 232 -2 459q-2 147 -3.5 182.5t-10.5 101.5q136 -16 373 -16q196 0 368 16q-6 -47 -6 -67q0 -22 6 -68q-169 16 -397 16q-67 0 -147 -6q-5 -166 -5 -262l-2 -248q61 -2 140 -2q208 0 358 17q-6 -43 -6 -68q0 -21 6 -65q-114 13 -498 16v-287 q0 -93 7 -291h106q168 0 440 17q-6 -46 -6 -70q0 -21 6 -65q-292 16 -417 16q-126 0 -326 -16zM246 1796l18 51q74 -12 115 -12q39 0 115 12q51 -113 77 -162.5t95 -164.5h-97q-113 109 -162 151t-161 125z" />
<glyph unicode="&#xc9;" horiz-adv-x="1019" d="M168 -16q16 235 16 690q0 232 -2 459q-2 147 -3.5 182.5t-10.5 101.5q136 -16 373 -16q196 0 368 16q-6 -47 -6 -67q0 -22 6 -68q-169 16 -397 16q-67 0 -147 -6q-5 -166 -5 -262l-2 -248q61 -2 140 -2q208 0 358 17q-6 -43 -6 -68q0 -21 6 -65q-114 13 -498 16v-287 q0 -93 7 -291h106q168 0 440 17q-6 -46 -6 -70q0 -21 6 -65q-292 16 -417 16q-126 0 -326 -16zM420 1520q69 115 95 164.5t77 162.5q77 -12 115 -12q41 0 114 12l19 -51q-113 -84 -162.5 -126t-161.5 -150h-96z" />
<glyph unicode="&#xca;" horiz-adv-x="1019" d="M170 -16q16 235 16 690q0 232 -2 459q-2 147 -3.5 182.5t-10.5 101.5q136 -16 373 -16q196 0 368 16q-6 -47 -6 -67q0 -22 6 -68q-169 16 -397 16q-68 0 -147 -6q-5 -166 -5 -262l-2 -248q61 -2 140 -2q208 0 358 17q-6 -43 -6 -68q0 -21 6 -65q-114 13 -498 16v-287 q0 -93 7 -291h106q168 0 440 17q-6 -46 -6 -70q0 -21 6 -65q-292 16 -417 16q-126 0 -326 -16zM207 1595q100 84 140.5 122t131.5 132h119q91 -94 131.5 -132t140.5 -122q-60 -22 -84.5 -33t-78.5 -42q-57 83 -82.5 117t-85.5 108q-60 -74 -85.5 -108t-82.5 -117 q-53 30 -78 41.5t-86 33.5z" />
<glyph unicode="&#xcb;" horiz-adv-x="1019" d="M168 -16q16 235 16 690q0 232 -2 459q-2 147 -3.5 182.5t-10.5 101.5q136 -16 373 -16q196 0 368 16q-6 -47 -6 -67q0 -22 6 -68q-169 16 -397 16q-67 0 -147 -6q-5 -166 -5 -262l-2 -248q61 -2 140 -2q208 0 358 17q-6 -43 -6 -68q0 -21 6 -65q-114 13 -498 16v-287 q0 -93 7 -291h106q168 0 440 17q-6 -46 -6 -70q0 -21 6 -65q-292 16 -417 16q-126 0 -326 -16zM229 1679q0 41 31 72t72 31q42 0 73 -31t31 -72q0 -43 -30.5 -73.5t-73.5 -30.5t-73 30.5t-30 73.5zM664 1679q0 41 30.5 72t71.5 31q42 0 73 -31t31 -72q0 -43 -30.5 -73.5 t-73.5 -30.5t-72.5 30.5t-29.5 73.5z" />
<glyph unicode="&#xcc;" horiz-adv-x="565" d="M-4 1796l18 51q74 -12 115 -12q38 0 115 12q51 -113 77 -162.5t95 -164.5h-97q-113 109 -162 151t-161 125zM180 -6q17 352 17 842q0 338 -17 571q70 -6 105 -6t102 6q-16 -243 -16 -619q0 -603 16 -794q-67 6 -102 6q-37 0 -105 -6z" />
<glyph unicode="&#xcd;" horiz-adv-x="565" d="M170 1520q69 115 95 164.5t77 162.5q77 -12 115 -12q41 0 114 12l19 -51q-113 -84 -162.5 -126t-161.5 -150h-96zM180 -6q17 309 17 835q0 283 -17 578q68 -6 103 -6t102 6q-14 -248 -14 -639q0 -579 14 -774q-67 6 -102 6t-103 -6z" />
<glyph unicode="&#xce;" horiz-adv-x="565" d="M-45 1595q100 84 140.5 122t131.5 132h119q91 -94 131.5 -132t140.5 -122q-60 -22 -84.5 -33t-78.5 -42q-57 83 -82.5 117t-85.5 108q-60 -74 -85.5 -108t-82.5 -117q-53 30 -78 41.5t-86 33.5zM180 -6q17 355 17 842q0 276 -17 571q68 -6 103 -6t102 6 q-14 -258 -14 -619q0 -588 14 -794q-67 6 -102 6t-103 -6z" />
<glyph unicode="&#xcf;" horiz-adv-x="565" d="M-20 1679q0 41 30.5 72t71.5 31q42 0 73 -31t31 -72q0 -43 -30.5 -73.5t-73.5 -30.5t-72.5 30.5t-29.5 73.5zM180 -6q17 387 17 835q0 283 -17 578q68 -6 103 -6t102 6q-14 -246 -14 -619q0 -599 14 -794q-67 6 -102 6t-103 -6zM414 1679q0 41 30.5 72t71.5 31 q43 0 74 -31t31 -72q0 -43 -31 -73.5t-74 -30.5t-72.5 30.5t-29.5 73.5z" />
<glyph unicode="&#xd0;" horiz-adv-x="1585" d="M61 662v102h156q-2 357 -3.5 442.5t-10.5 200.5q86 -6 180 -6q119 0 213 2q192 4 211 4q160 0 264 -29.5t193 -101.5q107 -86 166 -222.5t59 -299.5q0 -193 -78.5 -359.5t-218.5 -267.5q-100 -72 -227 -102.5t-330 -30.5q-6 0 -30 0.5t-71.5 1.5t-93.5 2q-33 2 -86 2 q-49 0 -151 -6q12 206 14 668h-156zM391 662q2 -193 2 -330q0 -59 4 -215q167 -15 267 -15q176 0 291 43.5t192 137.5q133 168 133 448q0 316 -158 453q-70 61 -182.5 87.5t-302.5 26.5q-81 0 -240 -6v-96q-1 -36 -2 -103t-2 -100l-2 -229h168v-102h-168z" />
<glyph unicode="&#xd1;" horiz-adv-x="1585" d="M197 -6q16 301 16 754q0 222 -16 653h53q826 -877 1012 -1069v121v284q0 328 -17 670q46 -6 70 -6q23 0 69 6q-16 -291 -16 -789q0 -239 16 -647h-55q-247 281 -436 483t-578 597q3 -277 4 -306v-280q8 -352 15 -471q-44 6 -68 6q-22 0 -69 -6zM492 1581q54 186 170 186 q32 0 81 -12q183 -43 234 -43q25 0 42.5 10t45.5 41l59 -8q-34 -101 -72 -140.5t-102 -39.5q-45 0 -153 27q-117 28 -160 28q-27 0 -45 -11.5t-41 -43.5z" />
<glyph unicode="&#xd2;" horiz-adv-x="1699" d="M88 698q0 150 54.5 284.5t154.5 234.5q113 109 248.5 161t308.5 52q343 0 551.5 -194.5t208.5 -512.5q0 -323 -217 -537q-215 -215 -557 -215q-344 0 -548 197t-204 530zM297 698q0 -302 164 -475q152 -162 385 -162q252 0 405.5 180t153.5 474q0 301 -152 465 q-72 77 -174.5 118t-222.5 41q-255 0 -407 -174.5t-152 -466.5zM561 1796l19 51q73 -12 114 -12q38 0 115 12q51 -113 77 -162.5t95 -164.5h-96q-112 108 -161.5 150t-162.5 126z" />
<glyph unicode="&#xd3;" horiz-adv-x="1699" d="M88 698q0 150 54.5 284.5t154.5 234.5q113 109 248.5 161t308.5 52q343 0 551.5 -194.5t208.5 -512.5q0 -323 -217 -537q-215 -215 -557 -215q-344 0 -548 197t-204 530zM297 698q0 -302 164 -475q152 -162 385 -162q252 0 405.5 180t153.5 474q0 301 -152 465 q-72 77 -174.5 118t-222.5 41q-255 0 -407 -174.5t-152 -466.5zM737 1520q69 115 95 164.5t77 162.5q77 -12 115 -12q42 0 115 12l18 -51q-112 -83 -161 -125t-162 -151h-97z" />
<glyph unicode="&#xd4;" horiz-adv-x="1699" d="M88 698q0 150 54.5 284.5t154.5 234.5q113 109 248.5 161t308.5 52q343 0 551.5 -194.5t208.5 -512.5q0 -323 -217 -537q-215 -215 -557 -215q-344 0 -548 197t-204 530zM297 698q0 -302 164 -475q152 -162 385 -162q252 0 405.5 180t153.5 474q0 301 -152 465 q-72 77 -174.5 118t-222.5 41q-255 0 -407 -174.5t-152 -466.5zM522 1595q102 86 143.5 124t129.5 130h118q88 -92 129.5 -130t143.5 -124q-61 -22 -86 -33.5t-78 -41.5q-57 83 -82.5 117t-85.5 108q-60 -74 -85.5 -108t-82.5 -117q-53 30 -78 41.5t-86 33.5z" />
<glyph unicode="&#xd5;" horiz-adv-x="1699" d="M88 698q0 150 54.5 284.5t154.5 234.5q113 109 248.5 161t308.5 52q343 0 551.5 -194.5t208.5 -512.5q0 -323 -217 -537q-215 -215 -557 -215q-344 0 -548 197t-204 530zM297 698q0 -302 164 -475q152 -162 385 -162q252 0 405.5 180t153.5 474q0 301 -152 465 q-72 77 -174.5 118t-222.5 41q-255 0 -407 -174.5t-152 -466.5zM549 1581q54 186 170 186q33 0 82 -12q183 -43 233 -43q25 0 42.5 10t45.5 41l60 -8q-34 -101 -72 -140.5t-102 -39.5q-46 0 -154 27q-117 28 -160 28q-27 0 -45 -11.5t-41 -43.5z" />
<glyph unicode="&#xd6;" horiz-adv-x="1699" d="M88 698q0 150 54.5 284.5t154.5 234.5q113 109 248.5 161t308.5 52q343 0 551.5 -194.5t208.5 -512.5q0 -323 -217 -537q-215 -215 -557 -215q-344 0 -548 197t-204 530zM297 698q0 -302 164 -475q152 -162 385 -162q252 0 405.5 180t153.5 474q0 301 -152 465 q-72 77 -174.5 118t-222.5 41q-255 0 -407 -174.5t-152 -466.5zM547 1679q0 41 30.5 72t71.5 31q43 0 74 -31t31 -72q0 -43 -31 -73.5t-74 -30.5t-72.5 30.5t-29.5 73.5zM981 1679q0 41 30.5 72t71.5 31q43 0 74 -31t31 -72q0 -43 -31 -73.5t-74 -30.5t-72.5 30.5 t-29.5 73.5z" />
<glyph unicode="&#xd7;" horiz-adv-x="1812" d="M377 25l461 464l-461 465l67 68l465 -457l465 457l68 -68l-461 -465l461 -464l-68 -68l-465 457l-465 -457z" />
<glyph unicode="&#xd8;" horiz-adv-x="1699" d="M76 90q91 73 162 139q-80 109 -115 215.5t-35 239.5q0 321 209 533q213 213 553 213q296 0 514 -154q81 81 147 151l103 -106q-70 -49 -164 -131q86 -104 125 -215.5t39 -253.5q0 -321 -217 -535q-215 -215 -568 -215q-152 0 -266 38.5t-231 129.5l-152 -151zM297 684 q0 -106 16.5 -178t59.5 -154q66 58 190 172l344 322q306 285 353 328q-88 86 -183.5 125.5t-218.5 39.5q-261 0 -411 -175t-150 -480zM442 242q84 -93 181 -137t221 -44q247 0 403 179q158 180 158 479q0 118 -17 192t-65 164q-625 -581 -881 -833z" />
<glyph unicode="&#xd9;" horiz-adv-x="1585" d="M207 1407q68 -6 104 -6q35 0 103 6q-17 -173 -17 -807q0 -224 68 -340q107 -180 362 -180q288 0 383 213q35 75 48.5 180.5t13.5 304.5q0 367 -12 557l-3 72q47 -6 70 -6q25 0 72 6q-14 -289 -17 -653q0 -190 -8 -272t-35 -169q-53 -164 -199 -253t-364 -89 q-251 0 -399 127q-160 138 -160 412l6 307q0 104 -4 221q-2 88 -2 211q0 88 -10 158zM506 1796l18 51q74 -12 115 -12q39 0 115 12q51 -113 77 -162.5t95 -164.5h-97q-113 109 -162 151t-161 125z" />
<glyph unicode="&#xda;" horiz-adv-x="1585" d="M207 1407q68 -6 104 -6q35 0 103 6q-17 -173 -17 -807q0 -224 68 -340q107 -180 362 -180q288 0 383 213q35 75 48.5 180.5t13.5 304.5q0 367 -12 557l-3 72q47 -6 70 -6q25 0 72 6q-14 -289 -17 -653q0 -190 -8 -272t-35 -169q-53 -164 -199 -253t-364 -89 q-251 0 -399 127q-160 138 -160 412l6 307q0 104 -4 221q-2 88 -2 211q0 88 -10 158zM680 1520q69 115 95 164.5t77 162.5q77 -12 115 -12q41 0 114 12l19 -51q-113 -84 -162.5 -126t-161.5 -150h-96z" />
<glyph unicode="&#xdb;" horiz-adv-x="1585" d="M207 1407q68 -6 104 -6q35 0 103 6q-17 -173 -17 -807q0 -224 68 -340q107 -180 362 -180q288 0 383 213q35 75 48.5 180.5t13.5 304.5q0 367 -12 557l-3 72q47 -6 70 -6q25 0 72 6q-14 -289 -17 -653q0 -190 -8 -272t-35 -169q-53 -164 -199 -253t-364 -89 q-251 0 -399 127q-160 138 -160 412l6 307q0 104 -4 221q-2 88 -2 211q0 88 -10 158zM465 1595q100 84 140.5 122t131.5 132h119q91 -94 131.5 -132t140.5 -122q-60 -22 -84.5 -33t-78.5 -42q-57 83 -82.5 117t-85.5 108q-60 -74 -85.5 -108t-82.5 -117q-53 30 -78 41.5 t-86 33.5z" />
<glyph unicode="&#xdc;" horiz-adv-x="1585" d="M207 1407q68 -6 104 -6q35 0 103 6q-17 -173 -17 -807q0 -224 68 -340q107 -180 362 -180q288 0 383 213q35 75 48.5 180.5t13.5 304.5q0 367 -12 557l-3 72q47 -6 70 -6q25 0 72 6q-14 -289 -17 -653q0 -190 -8 -272t-35 -169q-53 -164 -199 -253t-364 -89 q-251 0 -399 127q-160 138 -160 412l6 307q0 104 -4 221q-2 88 -2 211q0 88 -10 158zM489 1679q0 41 31 72t72 31q42 0 73 -31t31 -72q0 -43 -30.5 -73.5t-73.5 -30.5t-73 30.5t-30 73.5zM924 1679q0 41 30.5 72t71.5 31q42 0 73 -31t31 -72q0 -43 -30.5 -73.5t-73.5 -30.5 t-72.5 30.5t-29.5 73.5z" />
<glyph unicode="&#xdd;" horiz-adv-x="1245" d="M29 1407q83 -6 125 -6q44 0 127 6q169 -352 376 -692q115 185 230.5 397.5t146.5 294.5q62 -6 90 -6t90 6q-98 -142 -127 -188q-40 -61 -71 -115q-74 -118 -197 -322q-24 -38 -104 -168q0 -250 4 -350q0 -12 1 -37t4.5 -94t6.5 -139q-67 6 -102 6q-37 0 -105 -6 q17 233 17 440q0 74 -2 137q-152 266 -299 506.5t-211 329.5zM582 1520q69 115 95 164.5t77 162.5q76 -12 114 -12q42 0 115 12l18 -51q-112 -83 -161 -125t-162 -151h-96z" />
<glyph unicode="&#xde;" d="M174 -6q16 246 16 794q0 427 -16 619q68 -6 105 -6q35 0 102 6q-14 -119 -14 -225q0 -8 4 -70l207 2q175 -6 214 -11.5t99 -31.5q91 -38 138.5 -117.5t47.5 -193.5q0 -191 -139.5 -301.5t-380.5 -110.5q-75 0 -186 12q-2 -29 -2 -51q0 -239 12 -315q-67 6 -102 6 q-37 0 -105 -6zM358 463q79 -12 119 -12q188 0 295 82t107 227q0 128 -85.5 189t-263.5 61q-71 0 -159 -4q-6 -123 -6 -254q0 -149 -7 -289z" />
<glyph unicode="&#xdf;" d="M158 -6q16 177 16 715l-2 233q0 188 17 279.5t65 160.5q51 72 138 112t194 40q128 0 207 -59t79 -154q0 -77 -34 -144t-131 -178q-68 -79 -68 -137q0 -47 25.5 -79t105.5 -85q272 -180 272 -356q0 -146 -114.5 -257.5t-265.5 -111.5q-58 0 -102.5 15.5t-94.5 52.5 q20 46 26 68t15 79q44 -63 88 -88.5t104 -25.5q83 0 139 55t56 135q0 66 -43 123t-154 139q-125 94 -166 145.5t-41 114.5q0 57 41 123q6 9 117 154q82 105 82 225q0 79 -43.5 124.5t-120.5 45.5q-80 0 -142 -50t-75 -128q-16 -81 -16 -793q0 -247 16 -493q-64 6 -96 6 t-94 -6z" />
<glyph unicode="&#xe0;" horiz-adv-x="980" d="M72 227q0 122 75 191q38 36 97 58.5t168 43.5q201 37 234.5 52t33.5 69q0 102 -31 156q-58 104 -207 104q-95 0 -166 -41q-35 -20 -54.5 -42.5t-39.5 -67.5h-24v127q145 118 336 118q173 0 268 -106q43 -45 59.5 -105t16.5 -163q0 -88 -9 -369v-62q0 -80 17 -110.5 t61 -30.5q7 0 31 4l12 -49q-73 -31 -141 -31q-63 0 -94 45q-16 20 -35 82q-157 -127 -315 -127q-135 0 -214 68.5t-79 185.5zM217 1386l10 29q73 -12 111 -12q40 0 113 12q49 -107 74.5 -155.5t97.5 -169.5h-74q-113 113 -162.5 157t-169.5 139zM256 246q0 -80 49.5 -129 t132.5 -49q72 0 126 30t110 99l2 86l2 139q0 33 2 70q-233 -38 -309 -74q-115 -53 -115 -172z" />
<glyph unicode="&#xe1;" horiz-adv-x="980" d="M72 227q0 122 75 191q38 36 97 58.5t168 43.5q201 37 234.5 52t33.5 69q0 102 -31 156q-58 104 -207 104q-95 0 -166 -41q-35 -20 -54.5 -42.5t-39.5 -67.5h-24v127q145 118 336 118q173 0 268 -106q43 -45 59.5 -105t16.5 -163q0 -88 -9 -369v-62q0 -80 17 -110.5 t61 -30.5q7 0 31 4l12 -49q-73 -31 -141 -31q-63 0 -94 45q-16 20 -35 82q-157 -127 -315 -127q-135 0 -214 68.5t-79 185.5zM256 246q0 -80 49.5 -129t132.5 -49q72 0 126 30t110 99l2 86l2 139q0 33 2 70q-233 -38 -309 -74q-115 -53 -115 -172zM395 1090q68 113 94.5 162 t79.5 163q73 -12 111 -12q40 0 111 12l10 -29q-124 -99 -173.5 -143t-158.5 -153h-74z" />
<glyph unicode="&#xe2;" horiz-adv-x="980" d="M72 227q0 122 75 191q38 36 97 58.5t168 43.5q201 37 234.5 52t33.5 69q0 102 -31 156q-58 104 -207 104q-95 0 -166 -41q-35 -20 -54.5 -42.5t-39.5 -67.5h-24v127q145 118 336 118q173 0 268 -106q43 -45 59.5 -105t16.5 -163q0 -88 -9 -369v-62q0 -80 17 -110.5 t61 -30.5q7 0 31 4l12 -49q-73 -31 -141 -31q-63 0 -94 45q-16 20 -35 82q-157 -127 -315 -127q-135 0 -214 68.5t-79 185.5zM207 1139q88 90 123 129.5t108 132.5h111q74 -94 109 -133.5t124 -128.5q-66 -32 -120 -62q-57 85 -82.5 119t-85.5 104q-60 -70 -85.5 -104 t-82.5 -119q-46 26 -119 62zM256 246q0 -80 49.5 -129t132.5 -49q72 0 126 30t110 99l2 86l2 139q0 33 2 70q-233 -38 -309 -74q-115 -53 -115 -172z" />
<glyph unicode="&#xe3;" horiz-adv-x="980" d="M72 227q0 122 75 191q38 36 97 58.5t168 43.5q201 37 234.5 52t33.5 69q0 102 -31 156q-58 104 -207 104q-95 0 -166 -41q-35 -20 -54.5 -42.5t-39.5 -67.5h-24v127q145 118 336 118q173 0 268 -106q43 -45 59.5 -105t16.5 -163q0 -88 -9 -369v-62q0 -80 17 -110.5 t61 -30.5q7 0 31 4l12 -49q-73 -31 -141 -31q-63 0 -94 45q-16 20 -35 82q-157 -127 -315 -127q-135 0 -214 68.5t-79 185.5zM211 1143q17 78 62.5 128t99.5 50q25 0 112 -18q131 -31 158 -31q47 0 94 47h56q-53 -176 -166 -176q-44 0 -154 28q-82 21 -111 21q-50 0 -96 -49 h-55zM256 246q0 -80 49.5 -129t132.5 -49q72 0 126 30t110 99l2 86l2 139q0 33 2 70q-233 -38 -309 -74q-115 -53 -115 -172z" />
<glyph unicode="&#xe4;" horiz-adv-x="980" d="M72 227q0 122 75 191q38 36 97 58.5t168 43.5q201 37 234.5 52t33.5 69q0 102 -31 156q-58 104 -207 104q-95 0 -166 -41q-35 -20 -54.5 -42.5t-39.5 -67.5h-24v127q145 118 336 118q173 0 268 -106q43 -45 59.5 -105t16.5 -163q0 -88 -9 -369v-62q0 -80 17 -110.5 t61 -30.5q7 0 31 4l12 -49q-73 -31 -141 -31q-63 0 -94 45q-16 20 -35 82q-157 -127 -315 -127q-135 0 -214 68.5t-79 185.5zM190 1243q0 38 29.5 67t69.5 29q41 0 69.5 -28.5t28.5 -69.5t-28.5 -69.5t-69.5 -28.5t-70 29.5t-29 70.5zM256 246q0 -80 49.5 -129t132.5 -49 q72 0 126 30t110 99l2 86l2 139q0 33 2 70q-233 -38 -309 -74q-115 -53 -115 -172zM602 1243q0 38 29 67t69 29q41 0 70 -28.5t29 -69.5t-29 -69.5t-70 -28.5t-69.5 29.5t-28.5 70.5z" />
<glyph unicode="&#xe5;" horiz-adv-x="980" d="M72 227q0 122 75 191q38 36 97 58.5t168 43.5q201 37 234.5 52t33.5 69q0 102 -31 156q-58 104 -207 104q-95 0 -166 -41q-35 -20 -54.5 -42.5t-39.5 -67.5h-24v127q145 118 336 118q173 0 268 -106q43 -45 59.5 -105t16.5 -163q0 -88 -9 -369v-62q0 -80 17 -110.5 t61 -30.5q7 0 31 4l12 -49q-73 -31 -141 -31q-63 0 -94 45q-16 20 -35 82q-157 -127 -315 -127q-135 0 -214 68.5t-79 185.5zM256 246q0 -80 49.5 -129t132.5 -49q72 0 126 30t110 99l2 86l2 139q0 33 2 70q-233 -38 -309 -74q-115 -53 -115 -172zM338 1249q0 64 46.5 110 t111.5 46q66 0 111.5 -46t45.5 -112t-46 -111.5t-113 -45.5q-65 0 -110.5 46.5t-45.5 112.5zM424 1249q0 -32 20.5 -55t51.5 -23t51 22t20 54t-21 54t-50 22t-50.5 -22.5t-21.5 -51.5z" />
<glyph unicode="&#xe6;" horiz-adv-x="1585" d="M78 231q0 197 194 263q46 16 275 57q74 12 94.5 31t20.5 77q0 126 -58 193.5t-164 67.5q-92 0 -166 -52q-31 -21 -49 -46t-37 -74h-24v126q68 57 151.5 89t167.5 32q86 0 149.5 -29.5t135.5 -103.5q97 75 172.5 103t181.5 28q194 0 305 -117.5t111 -322.5l-2 -84 q-170 16 -301 16q-278 0 -406 -16q-2 -8 -2 -18q0 -158 91 -283q87 -119 253 -119q100 0 172 36t158 128l-14 -129q-97 -62 -175 -86.5t-177 -24.5q-154 0 -265 60q-31 17 -54.5 37.5t-61.5 62.5q-123 -87 -211 -123.5t-178 -36.5q-135 0 -211 68.5t-76 189.5zM262 256 q0 -78 45.5 -125t120.5 -47q145 0 262 123q-29 87 -38 139.5t-9 142.5q-194 -28 -272 -65q-109 -48 -109 -168zM838 588q122 -15 262 -15q132 0 252 15q2 20 2 45q0 104 -56 184q-64 101 -186 101q-69 0 -126.5 -35t-94.5 -99q-19 -32 -29.5 -70.5t-23.5 -125.5z" />
<glyph unicode="&#xe7;" horiz-adv-x="980" d="M78 483q0 230 144 371t380 141q90 0 166.5 -19.5t171.5 -66.5l-53 -155l-13 -2q-101 168 -274 168q-151 0 -244.5 -120.5t-93.5 -312.5t102 -315t259 -123q80 0 147.5 31.5t140.5 103.5v-108q-65 -45 -122 -67t-146 -32l-55 -96q16 2 43 2q75 0 120.5 -39.5t45.5 -105.5 q0 -75 -63 -127.5t-154 -52.5q-58 0 -112.5 17t-145.5 63l40 73q74 -44 115.5 -60t85.5 -16q49 0 80 24t31 62t-29 61t-78 23q-24 0 -67 -14l-27 31l88 151q-221 10 -352 148.5t-131 361.5z" />
<glyph unicode="&#xe8;" horiz-adv-x="1019" d="M66 475q0 244 127.5 382t351.5 138q192 0 304 -114t112 -310l-3 -82q-220 5 -301 5q-238 0 -407 -5q6 -114 22 -175t56 -121q95 -144 270 -144q97 0 169 37t155 131l-13 -131q-100 -64 -177 -88.5t-181 -24.5q-224 0 -354.5 135t-130.5 367zM236 1386l10 29 q73 -12 110 -12q40 0 113 12q49 -107 74.5 -155.5t97.5 -169.5h-74q-114 114 -163.5 158.5t-167.5 137.5zM250 575q94 -6 250 -6q190 0 274 6l2 46q0 108 -55 194q-63 105 -193 105q-137 0 -221 -140q-27 -43 -39 -87.5t-18 -117.5z" />
<glyph unicode="&#xe9;" horiz-adv-x="1019" d="M66 475q0 244 127.5 382t351.5 138q192 0 304 -114t112 -310l-3 -82q-220 5 -301 5q-238 0 -407 -5q6 -114 22 -175t56 -121q95 -144 270 -144q97 0 169 37t155 131l-13 -131q-100 -64 -177 -88.5t-181 -24.5q-224 0 -354.5 135t-130.5 367zM250 575q94 -6 250 -6 q190 0 274 6l2 46q0 108 -55 194q-63 105 -193 105q-137 0 -221 -140q-27 -43 -39 -87.5t-18 -117.5zM414 1090q68 113 94.5 162t79.5 163q74 -12 110 -12q40 0 111 12l10 -29q-124 -99 -173.5 -143t-158.5 -153h-73z" />
<glyph unicode="&#xea;" horiz-adv-x="1019" d="M66 475q0 244 127.5 382t351.5 138q192 0 304 -114t112 -310l-3 -82q-220 5 -301 5q-238 0 -407 -5q6 -114 22 -175t56 -121q95 -144 270 -144q97 0 169 37t155 131l-13 -131q-100 -64 -177 -88.5t-181 -24.5q-224 0 -354.5 135t-130.5 367zM225 1139q90 92 125 131.5 t107 130.5h110q72 -92 107.5 -131.5t126.5 -130.5q-76 -37 -121 -62q-57 85 -82.5 119t-85.5 104q-60 -70 -85.5 -104t-82.5 -119q-46 26 -119 62zM250 575q94 -6 250 -6q190 0 274 6l2 46q0 108 -55 194q-63 105 -193 105q-137 0 -221 -140q-27 -43 -39 -87.5t-18 -117.5z " />
<glyph unicode="&#xeb;" horiz-adv-x="1019" d="M66 475q0 244 127.5 382t351.5 138q192 0 304 -114t112 -310l-3 -82q-220 5 -301 5q-238 0 -407 -5q6 -114 22 -175t56 -121q95 -144 270 -144q97 0 169 37t155 131l-13 -131q-100 -64 -177 -88.5t-181 -24.5q-224 0 -354.5 135t-130.5 367zM209 1243q0 38 29 67t69 29 q41 0 70 -28.5t29 -69.5t-29 -69.5t-70 -28.5t-69.5 29.5t-28.5 70.5zM250 575q94 -6 250 -6q190 0 274 6l2 46q0 108 -55 194q-63 105 -193 105q-137 0 -221 -140q-27 -43 -39 -87.5t-18 -117.5zM621 1243q0 38 29 67t69 29q41 0 69.5 -28.5t28.5 -69.5t-28.5 -69.5 t-69.5 -28.5t-69.5 29.5t-28.5 70.5z" />
<glyph unicode="&#xec;" horiz-adv-x="565" d="M8 1386l10 29q74 -12 111 -12q39 0 113 12q49 -107 74.5 -155.5t97.5 -169.5h-74q-113 113 -162.5 157t-169.5 139zM188 -6q11 72 13 170q0 82 2 145q2 96 2 228q0 111 -2 172q-2 96 -2 129q-2 74 -13 137q62 -6 95 -6t94 6q-15 -150 -15 -502q0 -341 15 -479 q-61 6 -94 6t-95 -6z" />
<glyph unicode="&#xed;" horiz-adv-x="565" d="M188 -6q11 72 13 170q0 75 2 145q2 98 2 226q0 106 -2 174t-2 129q0 63 -13 137q65 -6 97 -6q29 0 94 6q-17 -139 -17 -518q0 -335 17 -463q-61 6 -94 6q-32 0 -97 -6zM188 1090q68 113 94.5 162t79.5 163q74 -12 111 -12q41 0 111 12l10 -29q-124 -99 -173.5 -143 t-158.5 -153h-74z" />
<glyph unicode="&#xee;" horiz-adv-x="565" d="M-2 1139q88 90 123 129.5t108 132.5h111q74 -94 109 -133.5t124 -128.5q-66 -32 -120 -62q-57 85 -82.5 119t-85.5 104q-60 -70 -85.5 -104t-82.5 -119q-46 26 -119 62zM186 -6q11 72 13 170q0 73 2 145q2 90 2 221q0 111 -2 179l-2 129q0 63 -13 137q64 -6 97 -6t94 6 q-17 -139 -17 -510q0 -341 17 -471q-61 6 -94 6t-97 -6z" />
<glyph unicode="&#xef;" horiz-adv-x="565" d="M-16 1243q0 38 29 67t69 29q41 0 69.5 -28.5t28.5 -69.5t-28.5 -69.5t-69.5 -28.5t-69.5 29.5t-28.5 70.5zM188 -6q11 72 13 170q0 77 2 145q2 98 2 226q0 108 -2 174q-2 68 -2 129q0 63 -13 137q62 -6 95 -6q31 0 96 6q-17 -116 -17 -500q0 -353 17 -481q-65 6 -94 6 q-32 0 -97 -6zM395 1243q0 38 29.5 67t69.5 29q41 0 69.5 -28.5t28.5 -69.5t-28.5 -69.5t-69.5 -28.5t-70 29.5t-29 70.5z" />
<glyph unicode="&#xf0;" d="M78 469q0 250 155 393q68 62 155.5 97.5t170.5 35.5q58 0 135 -14q-121 156 -192 244q-72 -72 -140 -144q-20 28 -30 38.5t-39 31.5q76 66 145 141q-30 33 -67 76q-16 17 -50.5 54.5t-52.5 56.5l17 43q55 -6 86 -6q27 0 82 6q18 -17 108 -111q37 39 113 115q2 -3 7 -9 t6.5 -8t5.5 -6.5t6 -6t5.5 -5.5t6 -6t6.5 -5l8 -6t9 -6.5t11 -7.5q-75 -65 -127 -114q239 -284 342 -483.5t103 -379.5q0 -223 -140.5 -366.5t-359.5 -143.5q-218 0 -351.5 136.5t-133.5 359.5zM262 479q0 -201 80 -315.5t221 -114.5t228.5 124t87.5 323q0 198 -79.5 311 t-217.5 113q-147 0 -230 -121q-90 -133 -90 -320z" />
<glyph unicode="&#xf1;" d="M145 -6q17 133 17 467q0 249 -3.5 348t-13.5 166q62 -6 91 -6q30 0 92 6q-12 -68 -17 -166q66 97 144.5 141.5t181.5 44.5q192 0 287 -137q28 -41 38.5 -89t10.5 -134q0 -38 -4 -152q-2 -61 -2 -116l2 -123q2 -143 3.5 -174.5t10.5 -75.5q-61 6 -94 6q-31 0 -96 -6 q16 88 16 346q0 234 -3 293.5t-15 101.5q-22 68 -83 108t-143 40q-93 0 -152.5 -51.5t-78.5 -147.5q-9 -56 -12 -114t-3 -212q0 -185 2.5 -238.5t14.5 -125.5q-64 6 -96 6q-34 0 -95 -6zM287 1143q17 78 62.5 128t99.5 50q25 0 112 -18q131 -31 158 -31q47 0 94 47h55 q-53 -176 -166 -176q-43 0 -153 28q-82 21 -111 21q-50 0 -96 -49h-55z" />
<glyph unicode="&#xf2;" d="M78 475q0 229 142.5 374.5t367.5 145.5q214 0 344.5 -138.5t130.5 -364.5q0 -229 -138.5 -374t-359.5 -145t-354 136.5t-133 365.5zM262 473q0 -197 81 -310.5t220 -113.5q141 0 228.5 124.5t87.5 324.5q0 196 -79.5 309t-217.5 113q-143 0 -231.5 -123t-88.5 -324z M291 1386l10 29q73 -12 111 -12t112 12q49 -107 74.5 -155.5t97.5 -169.5h-73q-113 113 -162.5 157t-169.5 139z" />
<glyph unicode="&#xf3;" d="M78 475q0 229 142.5 374.5t367.5 145.5q214 0 344.5 -138.5t130.5 -364.5q0 -229 -138.5 -374t-359.5 -145t-354 136.5t-133 365.5zM262 473q0 -197 81 -310.5t220 -113.5q141 0 228.5 124.5t87.5 324.5q0 196 -79.5 309t-217.5 113q-143 0 -231.5 -123t-88.5 -324z M471 1090q68 113 94.5 162t79.5 163q73 -12 111 -12q40 0 110 12l11 -29q-124 -99 -173.5 -143t-158.5 -153h-74z" />
<glyph unicode="&#xf4;" d="M78 475q0 229 142.5 374.5t367.5 145.5q214 0 344.5 -138.5t130.5 -364.5q0 -229 -138.5 -374t-359.5 -145t-354 136.5t-133 365.5zM262 473q0 -197 81 -310.5t220 -113.5q141 0 228.5 124.5t87.5 324.5q0 196 -79.5 309t-217.5 113q-143 0 -231.5 -123t-88.5 -324z M281 1139q88 90 123 129.5t108 132.5h111q74 -94 109 -133.5t124 -128.5q-76 -37 -121 -62q-57 85 -82.5 119t-85.5 104q-60 -70 -85.5 -104t-82.5 -119q-52 29 -118 62z" />
<glyph unicode="&#xf5;" d="M78 475q0 229 142.5 374.5t367.5 145.5q214 0 344.5 -138.5t130.5 -364.5q0 -229 -138.5 -374t-359.5 -145t-354 136.5t-133 365.5zM262 473q0 -197 81 -310.5t220 -113.5q141 0 228.5 124.5t87.5 324.5q0 196 -79.5 309t-217.5 113q-143 0 -231.5 -123t-88.5 -324z M287 1143q17 78 62.5 128t99.5 50q25 0 112 -18q131 -31 158 -31q47 0 94 47h55q-53 -176 -166 -176q-43 0 -153 28q-82 21 -111 21q-50 0 -96 -49h-55z" />
<glyph unicode="&#xf6;" d="M78 475q0 229 142.5 374.5t367.5 145.5q214 0 344.5 -138.5t130.5 -364.5q0 -229 -138.5 -374t-359.5 -145t-354 136.5t-133 365.5zM262 473q0 -197 81 -310.5t220 -113.5q141 0 228.5 124.5t87.5 324.5q0 196 -79.5 309t-217.5 113q-143 0 -231.5 -123t-88.5 -324z M266 1243q0 38 29.5 67t69.5 29q41 0 69.5 -28.5t28.5 -69.5t-28.5 -69.5t-69.5 -28.5t-70 29.5t-29 70.5zM678 1243q0 38 29 67t69 29q41 0 69.5 -28.5t28.5 -69.5t-28.5 -69.5t-69.5 -28.5t-69.5 29.5t-28.5 70.5z" />
<glyph unicode="&#xf7;" horiz-adv-x="1812" d="M375 446v107h1063v-107h-1063zM811 231q0 38 28 66.5t66 28.5q39 0 67.5 -28t28.5 -67q0 -40 -28 -68t-68 -28t-67 28t-27 68zM811 772q0 38 28 66t66 28q40 0 68 -28t28 -66q0 -40 -28 -68t-68 -28q-38 0 -66 28t-28 68z" />
<glyph unicode="&#xf8;" d="M68 51l104 105q-94 142 -94 323q0 226 142.5 371t363.5 145q185 0 307 -104l108 110q24 -29 35.5 -38.5t42.5 -30.5l-116 -113q102 -131 102 -330q0 -226 -138.5 -371t-353.5 -145q-174 0 -329 111l-103 -109q-22 32 -32 42.5t-39 33.5zM262 467q0 -93 27 -188 q205 194 514 518q-79 123 -228 123q-140 0 -226.5 -125.5t-86.5 -327.5zM332 178q76 -129 229 -129q145 0 231.5 125t86.5 334q0 112 -33 197l-195 -195q-155 -155 -319 -332z" />
<glyph unicode="&#xf9;" d="M162 975q61 -6 94 -6q32 0 96 6q-16 -99 -16 -563q0 -99 8 -146t31 -84q29 -46 81.5 -72t116.5 -26q82 0 143.5 43t84.5 117q15 45 19.5 118.5t4.5 262.5q0 167 -3 232t-13 118q65 -6 96 -6q33 0 94 6q-16 -115 -16 -440q0 -440 16 -541q-59 6 -88 6t-88 -6 q12 113 15 180q-66 -107 -143 -154t-187 -47q-69 0 -133 20.5t-107 57.5q-52 46 -74 117.5t-22 196.5q0 52 6 245q0 50 -2 111v141q0 58 -14 113zM291 1386l10 29q73 -12 111 -12t112 12q49 -107 74.5 -155.5t97.5 -169.5h-73q-113 113 -162.5 157t-169.5 139z" />
<glyph unicode="&#xfa;" d="M162 975q61 -6 94 -6q32 0 96 6q-16 -99 -16 -563q0 -99 8 -146t31 -84q29 -46 81.5 -72t116.5 -26q82 0 143.5 43t84.5 117q15 45 19.5 118.5t4.5 262.5q0 167 -3 232t-13 118q65 -6 96 -6q33 0 94 6q-16 -115 -16 -440q0 -440 16 -541q-59 6 -88 6t-88 -6 q12 113 15 180q-66 -107 -143 -154t-187 -47q-69 0 -133 20.5t-107 57.5q-52 46 -74 117.5t-22 196.5q0 52 6 245q0 50 -2 111v141q0 58 -14 113zM471 1090q68 113 94.5 162t79.5 163q73 -12 111 -12q40 0 110 12l11 -29q-124 -99 -173.5 -143t-158.5 -153h-74z" />
<glyph unicode="&#xfb;" d="M162 975q61 -6 94 -6q32 0 96 6q-16 -99 -16 -563q0 -99 8 -146t31 -84q29 -46 81.5 -72t116.5 -26q82 0 143.5 43t84.5 117q15 45 19.5 118.5t4.5 262.5q0 167 -3 232t-13 118q65 -6 96 -6q33 0 94 6q-16 -115 -16 -440q0 -440 16 -541q-59 6 -88 6t-88 -6 q12 113 15 180q-66 -107 -143 -154t-187 -47q-69 0 -133 20.5t-107 57.5q-52 46 -74 117.5t-22 196.5q0 52 6 245q0 50 -2 111v141q0 58 -14 113zM283 1139q88 90 123 129.5t108 132.5h111q74 -94 109 -133.5t124 -128.5q-76 -37 -121 -62q-57 85 -82.5 119t-85.5 104 q-60 -70 -85.5 -104t-82.5 -119q-52 29 -118 62z" />
<glyph unicode="&#xfc;" d="M162 975q61 -6 94 -6q32 0 96 6q-16 -99 -16 -563q0 -99 8 -146t31 -84q29 -46 81.5 -72t116.5 -26q82 0 143.5 43t84.5 117q15 45 19.5 118.5t4.5 262.5q0 167 -3 232t-13 118q65 -6 96 -6q33 0 94 6q-16 -115 -16 -440q0 -440 16 -541q-59 6 -88 6t-88 -6 q12 113 15 180q-66 -107 -143 -154t-187 -47q-69 0 -133 20.5t-107 57.5q-52 46 -74 117.5t-22 196.5q0 52 6 245q0 50 -2 111v141q0 58 -14 113zM266 1243q0 38 29.5 67t69.5 29q41 0 69.5 -28.5t28.5 -69.5t-28.5 -69.5t-69.5 -28.5t-70 29.5t-29 70.5zM678 1243 q0 38 29 67t69 29q41 0 69.5 -28.5t28.5 -69.5t-28.5 -69.5t-69.5 -28.5t-69.5 29.5t-28.5 70.5z" />
<glyph unicode="&#xfd;" horiz-adv-x="1019" d="M29 975q77 -6 116 -6t115 6q11 -158 289 -768q30 59 44 94t62 164q6 14 29 73.5t39 96.5q88 217 104 340q59 -6 88 -6q31 0 89 6q-24 -50 -31 -57q-19 -38 -41 -76q-52 -94 -365 -805q-157 -385 -168 -463q-78 4 -88 4q-12 0 -90 -4q21 35 25 41t21.5 31.5t25.5 40.5 q28 40 54 90t110 221q-147 360 -265 629t-163 348zM416 1090q68 113 94.5 162t79.5 163q74 -12 110 -12q40 0 111 12l10 -29q-124 -99 -173.5 -143t-158.5 -153h-73z" />
<glyph unicode="&#xfe;" d="M143 -426q9 47 11 79.5t2 166.5l2 356v201l2 192l-2 484q0 79 2 327q0 62 -17 142q61 -6 95 -6q32 0 96 6q-12 -136 -12 -297q0 -31 -5 -420q72 105 146 147.5t184 42.5q185 0 303 -127q121 -130 121 -360q0 -245 -124 -390t-333 -145q-92 0 -159 32.5t-136 109.5 q0 -246 3 -339t14 -202q-65 6 -96 6q-32 0 -97 -6zM313 475q0 -205 73 -315.5t210 -110.5q138 0 214.5 114.5t76.5 321.5q0 204 -76 319.5t-211 115.5q-134 0 -210.5 -119t-76.5 -326z" />
<glyph unicode="&#xff;" horiz-adv-x="1019" d="M29 975q77 -6 116 -6t115 6q11 -158 289 -768q30 59 44 94t62 164q6 14 29 73.5t39 96.5q88 217 104 340q59 -6 88 -6q31 0 89 6q-24 -50 -31 -57q-19 -38 -41 -76q-52 -94 -365 -805q-157 -385 -168 -463q-78 4 -88 4q-12 0 -90 -4q21 35 25 41t21.5 31.5t25.5 40.5 q28 40 54 90t110 221q-147 360 -265 629t-163 348zM211 1243q0 38 29 67t69 29q41 0 70 -28.5t29 -69.5t-29 -69.5t-70 -28.5t-69.5 29.5t-28.5 70.5zM623 1243q0 38 29 67t69 29q41 0 69.5 -28.5t28.5 -69.5t-28.5 -69.5t-69.5 -28.5t-69.5 29.5t-28.5 70.5z" />
<glyph unicode="&#x152;" horiz-adv-x="1888" d="M84 688q0 157 55 294.5t149.5 236t228 155t284.5 56.5q62 0 231 -15q155 -14 494 -14q84 0 280 16q-6 -46 -6 -67q0 -22 6 -68q-169 16 -397 16q-88 0 -143 -4q-6 -223 -6 -346v-166h106q262 0 387 17q-6 -43 -6 -68q0 -21 6 -65q-183 16 -420 16q-40 0 -73 -2 q6 -246 6 -578h108q167 0 432 17q-6 -46 -6 -68q0 -20 6 -67q-31 2 -127 4q-235 5 -354 10q-76 2 -111 2q-74 0 -217 -16q-114 -13 -192 -13q-141 0 -275 50.5t-233 140.5q-104 94 -158.5 228.5t-54.5 297.5zM293 698q0 -140 30 -242.5t97 -189.5q152 -205 409 -205 q95 0 161.5 25.5t80.5 65.5q14 47 14 405q0 630 -4 684q-3 29 -13.5 44t-33.5 26q-65 28 -182 28q-256 0 -407.5 -174t-151.5 -467z" />
<glyph unicode="&#x153;" horiz-adv-x="1812" d="M70 469q0 235 140.5 380.5t367.5 145.5q125 0 216.5 -42t166.5 -134q82 94 170 134t212 40q192 0 303 -117.5t111 -320.5q0 -20 -4 -86q-132 14 -297 14q-186 0 -252.5 -2.5t-156.5 -11.5q4 -94 16 -147t39 -101q94 -172 289 -172q99 0 170.5 36t156.5 128l-12 -127 q-100 -64 -177 -88.5t-181 -24.5q-134 0 -215 39.5t-179 151.5q-88 -102 -181 -146.5t-218 -44.5q-218 0 -351.5 136.5t-133.5 359.5zM254 475q0 -199 79.5 -312.5t219.5 -113.5q137 0 223 125t86 324q0 196 -79.5 309t-217.5 113t-224.5 -124t-86.5 -321zM1057 588 q68 -11 119 -14t196 -3q102 0 199 17q2 8 2 18q6 137 -62 224.5t-180 87.5q-138 0 -221 -136q-25 -42 -37 -84t-16 -110z" />
<glyph unicode="&#x178;" horiz-adv-x="1245" d="M29 1407q83 -6 125 -6q44 0 127 6q169 -352 376 -692q115 185 230.5 397.5t146.5 294.5q62 -6 90 -6t90 6q-98 -142 -127 -188q-40 -61 -71 -115q-74 -118 -197 -322q-24 -38 -104 -168q0 -250 4 -350q0 -12 1 -37t4.5 -94t6.5 -139q-67 6 -102 6q-37 0 -105 -6 q17 233 17 440q0 74 -2 137q-152 266 -299 506.5t-211 329.5zM356 1679q0 41 31 72t72 31q43 0 73.5 -31t30.5 -72q0 -43 -30.5 -73.5t-73.5 -30.5t-73 30.5t-30 73.5zM791 1679q0 41 30.5 72t71.5 31q43 0 73.5 -31t30.5 -72q0 -43 -30.5 -73.5t-73.5 -30.5t-72.5 30.5 t-29.5 73.5z" />
<glyph unicode="&#x2c6;" d="M283 1139q88 90 123 129.5t108 132.5h111q74 -94 109 -133.5t124 -128.5q-76 -37 -121 -62q-57 85 -82.5 119t-85.5 104q-60 -70 -85.5 -104t-82.5 -119q-52 29 -118 62z" />
<glyph unicode="&#x2dc;" d="M287 1143q17 78 62.5 128t99.5 50q25 0 112 -18q131 -31 158 -31q47 0 94 47h55q-53 -176 -166 -176q-43 0 -153 28q-82 21 -111 21q-50 0 -96 -49h-55z" />
<glyph unicode="&#x2000;" horiz-adv-x="932" />
<glyph unicode="&#x2001;" horiz-adv-x="1864" />
<glyph unicode="&#x2002;" horiz-adv-x="932" />
<glyph unicode="&#x2003;" horiz-adv-x="1864" />
<glyph unicode="&#x2004;" horiz-adv-x="621" />
<glyph unicode="&#x2005;" horiz-adv-x="466" />
<glyph unicode="&#x2006;" horiz-adv-x="310" />
<glyph unicode="&#x2007;" horiz-adv-x="310" />
<glyph unicode="&#x2008;" horiz-adv-x="233" />
<glyph unicode="&#x2009;" horiz-adv-x="372" />
<glyph unicode="&#x200a;" horiz-adv-x="103" />
<glyph unicode="&#x2010;" horiz-adv-x="565" d="M29 420v145h514v-145h-514z" />
<glyph unicode="&#x2011;" horiz-adv-x="565" d="M29 420v145h514v-145h-514z" />
<glyph unicode="&#x2012;" horiz-adv-x="565" d="M29 420v145h514v-145h-514z" />
<glyph unicode="&#x2013;" d="M59 420v115h1024v-115h-1024z" />
<glyph unicode="&#x2014;" horiz-adv-x="1812" d="M57 420v115h1700v-115h-1700z" />
<glyph unicode="&#x2018;" horiz-adv-x="565" d="M143 940q0 52 58 150l207 340l49 -19l-131 -428q-20 -65 -42.5 -90t-60.5 -25q-32 0 -56 21.5t-24 50.5z" />
<glyph unicode="&#x2019;" horiz-adv-x="565" d="M154 887l131 430q21 62 43.5 87.5t60.5 25.5q32 0 55 -21.5t23 -50.5q0 -54 -59 -148l-205 -342z" />
<glyph unicode="&#x201a;" horiz-adv-x="565" d="M80 -332l131 426q21 62 44 89.5t58 27.5q31 0 55.5 -23.5t24.5 -52.5q0 -50 -57 -147l-207 -340z" />
<glyph unicode="&#x201c;" horiz-adv-x="868" d="M127 940q0 52 61 150l220 340l47 -19l-138 -428q-22 -65 -44.5 -90t-61.5 -25q-34 0 -59 21.5t-25 50.5zM428 940q0 59 61 150l218 340l49 -19l-138 -428q-22 -65 -45 -90t-61 -25q-34 0 -59 21.5t-25 50.5z" />
<glyph unicode="&#x201d;" horiz-adv-x="868" d="M143 887l131 428q20 64 43 89.5t60 25.5q32 0 56 -21.5t24 -50.5q0 -56 -58 -150l-206 -340zM428 887l131 428q20 64 43 89.5t60 25.5q32 0 55.5 -21.5t23.5 -50.5q0 -53 -57 -150l-207 -340z" />
<glyph unicode="&#x201e;" horiz-adv-x="868" d="M96 -332l131 426q20 65 43 91t60 26q32 0 56 -21.5t24 -50.5q0 -57 -58 -151l-207 -340zM381 -332l131 426q22 66 44 91.5t58 25.5q32 0 56 -21.5t24 -50.5q0 -54 -57 -151l-207 -340z" />
<glyph unicode="&#x2022;" horiz-adv-x="1398" d="M412 709q0 120 85 205t205 85q122 0 206.5 -84.5t84.5 -205.5q0 -120 -84 -205.5t-204 -85.5q-122 0 -207.5 85t-85.5 206z" />
<glyph unicode="&#x2026;" horiz-adv-x="1812" d="M193 104q0 41 30.5 72t71.5 31q44 0 74 -30t30 -73q0 -44 -30.5 -74t-73.5 -30t-72.5 30.5t-29.5 73.5zM805 104q0 41 30.5 72t71.5 31q44 0 74.5 -30t30.5 -73q0 -44 -30.5 -74t-74.5 -30q-43 0 -72.5 30.5t-29.5 73.5zM1417 104q0 41 31 72t72 31q44 0 74 -30t30 -73 q0 -44 -30.5 -74t-73.5 -30t-73 30.5t-30 73.5z" />
<glyph unicode="&#x202f;" horiz-adv-x="372" />
<glyph unicode="&#x2039;" horiz-adv-x="452" d="M80 489q16 22 57.5 81t63.5 89q10 15 110 183q28 -36 44.5 -47t60.5 -21q-78 -110 -193 -285q98 -151 189 -272q-46 -12 -61 -23.5t-40 -54.5q-7 12 -28.5 47t-25.5 41.5l-20 32.5t-20 32t-17 26.5t-19.5 29.5t-18.5 27t-23.5 33.5t-26 35.5t-32.5 45z" />
<glyph unicode="&#x203a;" horiz-adv-x="452" d="M43 207q85 116 193 282q-114 177 -189 275q45 10 60 22t40 56q92 -153 119 -189q9 -15 113 -164q-8 -13 -119 -170q-24 -32 -113 -180q-28 36 -43.5 46t-60.5 22z" />
<glyph unicode="&#x205f;" horiz-adv-x="466" />
<glyph unicode="&#x20ac;" d="M-6 457l37 110q44 0 67 -2h21q-2 43 -2 84q0 33 2 66q-6 0 -21.5 -0.5t-44.5 -1.5t-57 -2l43 110h65l27 -2q44 257 203 395t409 138q199 0 340 -80q-27 -83 -32 -150l-13 -4q-127 158 -307 158q-127 0 -231 -80.5t-150 -214.5q-28 -79 -39 -166h107h22q53 0 178 4 q90 0 162 2l-37 -110q-144 8 -358 8h-68h-16v-68l2 -90h8h13h20h23q53 0 178 4q90 0 162 2l-39 -110q-107 4 -351 8q37 -197 145.5 -303.5t272.5 -106.5q182 0 338 162l8 -6l-22 -117q-135 -117 -352 -117q-225 0 -375.5 127.5t-196.5 356.5h-33z" />
<glyph unicode="&#x2122;" horiz-adv-x="1245" d="M80 1313v88h391v-88h-152v-520h-88v520h-151zM541 793v608h164l110 -479l107 479h163v-608h-88v548h-8l-121 -548h-110l-121 548h-8v-548h-88z" />
<glyph unicode="&#x25fc;" horiz-adv-x="972" d="M0 0v973h973v-973h-973z" />
<glyph unicode="&#xfb01;" horiz-adv-x="1095" d="M51 872q6 34 6 54q0 16 -6 53q44 -10 135 -10q13 136 35.5 214.5t67.5 151.5q57 89 132.5 144t141.5 55q19 0 53 -6q-6 -58 -6 -90q0 -28 6 -90q-66 30 -118 30q-78 0 -125 -47t-47 -125q0 -63 20 -237q130 3 213 10q-4 -50 -4 -53q0 -8 4 -54q-113 11 -156 11 q-32 0 -57 -2q-2 -33 -2 -60l2 -311q0 -271 2.5 -352.5t11.5 -163.5q-64 6 -94 6q-32 0 -96 -6q13 126 16 887q-10 2 -22 2q-38 0 -113 -11zM733 1325q0 41 31 71.5t74 30.5t73.5 -30.5t30.5 -73.5t-30.5 -73.5t-73.5 -30.5q-44 0 -74.5 31t-30.5 75zM739 -6q11 72 13 170 q0 79 2 145q2 100 2 219q0 105 -2 181q-2 63 -2 129q0 63 -13 137q61 -6 95 -6q32 0 96 6q-17 -119 -17 -516q0 -337 17 -465q-64 6 -96 6q-34 0 -95 -6z" />
<glyph unicode="&#xfb02;" horiz-adv-x="1095" d="M57 872q6 34 6 54q0 16 -6 53q44 -10 136 -10q13 137 35 215t67 151q57 89 132.5 144t141.5 55q19 0 54 -6q-7 -68 -7 -90q0 -18 7 -90q-66 30 -119 30q-78 0 -125 -47t-47 -125q0 -63 20 -237q130 3 213 10q-4 -50 -4 -53q0 -8 4 -54q-113 11 -155 11q-33 0 -58 -2 q-2 -33 -2 -60l2 -311q0 -265 2.5 -348t12.5 -168q-65 6 -95 6q-32 0 -96 -6q14 136 17 887q-10 2 -23 2q-38 0 -113 -11zM752 -6q14 139 14 295l-2 219l4 299q0 535 -16 715q86 -4 96 -4q8 0 94 4q-14 -129 -14 -256l-2 -455l2 -518q0 -180 14 -299q-64 6 -94 6 q-31 0 -96 -6z" />
<glyph unicode="&#xfb03;" horiz-adv-x="1662" d="M49 862q6 44 6 62q0 21 -6 61q39 -4 45 -6q62 -10 74 -10q10 0 22 2q15 139 36.5 215t66.5 149q59 91 133.5 145t144.5 54q13 0 47 -6q-6 -58 -6 -90q0 -29 6 -88q-72 30 -116 30q-75 0 -121.5 -44.5t-46.5 -116.5q0 -33 18 -234q92 -14 191 -14q160 0 217 14 q15 139 36.5 213t65.5 143q57 88 132.5 140.5t144.5 52.5q15 0 49 -6q-6 -58 -6 -90q0 -29 6 -88q-72 30 -117 30q-75 0 -121.5 -46.5t-46.5 -121.5q0 -50 6 -114l13 -127q94 0 208 14q-6 -41 -6 -61q0 -18 6 -62q-106 19 -153 19q-30 0 -53 -2q-4 -147 -4 -224 q0 -201 4 -471q2 -102 12 -190q-64 6 -94 6q-33 0 -97 -6q9 108 11.5 242.5t5.5 631.5q-89 15 -203 15q-119 0 -207 -15q-4 -61 -4 -143q0 -24 2 -223l2 -273q2 -143 13 -235q-61 6 -95 6q-32 0 -96 -6q16 166 16 639l-2 246h-32q-38 0 -107 -17zM1307 1325q0 41 30.5 71.5 t73.5 30.5t74 -30.5t31 -73.5t-31 -73.5t-74 -30.5q-44 0 -74 31t-30 75zM1313 -6q10 64 12 170q0 75 2 145q2 98 2 226q0 108 -2 174q-2 68 -2 129q0 69 -12 137q64 -6 96 -6q29 0 94 6q-16 -134 -16 -516q0 -342 16 -465q-61 6 -94 6q-32 0 -96 -6z" />
<glyph unicode="&#xfb04;" horiz-adv-x="1662" d="M82 862q6 44 6 62q0 21 -6 61q39 -4 45 -6q62 -10 74 -10q10 0 22 2q15 139 36.5 215t66.5 149q59 91 133.5 145t144.5 54q12 0 47 -6q-6 -58 -6 -90q0 -29 6 -88q-72 30 -116 30q-75 0 -121.5 -44.5t-46.5 -116.5q0 -33 18 -234q92 -14 190 -14q161 0 218 14 q15 139 36.5 213t65.5 143q57 88 132 140.5t144 52.5q15 0 50 -6q-7 -68 -7 -90q0 -20 7 -88q-72 30 -117 30q-75 0 -121.5 -46.5t-46.5 -121.5q0 -50 6 -114l12 -127q95 0 209 14q-6 -41 -6 -61q0 -18 6 -62q-106 19 -153 19q-31 0 -54 -2q-4 -147 -4 -224q0 -201 4 -471 q2 -90 13 -190q-65 6 -95 6q-32 0 -96 -6q9 108 11.5 242.5t5.5 631.5q-88 15 -203 15q-118 0 -207 -15q-4 -61 -4 -143q0 -24 2 -223l2 -273q2 -153 12 -235q-61 6 -94 6q-31 0 -96 -6q16 166 16 639l-2 246h-33q-37 0 -106 -17zM1346 -6q14 141 14 295l-2 219l4 299 q0 535 -16 715q86 -4 96 -4q8 0 94 4q-14 -132 -14 -256l-2 -455l2 -518q0 -178 14 -299q-64 6 -94 6q-32 0 -96 -6z" />
</font>
</defs>
</svg>
