<?xml version="1.0" encoding="UTF-8" standalone="no"?>
<svg
   xmlns:dc="http://purl.org/dc/elements/1.1/"
   xmlns:cc="http://creativecommons.org/ns#"
   xmlns:rdf="http://www.w3.org/1999/02/22-rdf-syntax-ns#"
   xmlns:svg="http://www.w3.org/2000/svg"
   xmlns="http://www.w3.org/2000/svg"
   xmlns:sodipodi="http://sodipodi.sourceforge.net/DTD/sodipodi-0.dtd"
   xmlns:inkscape="http://www.inkscape.org/namespaces/inkscape"
   viewBox="0 0 428.30984 130"
   height="130"
   width="428.30984"
   xml:space="preserve"
   version="1.1"
   id="svg3723"
   inkscape:version="0.91 r13725"
   sodipodi:docname="sub-logo-centered.svg"><sodipodi:namedview
     pagecolor="#ffffff"
     bordercolor="#666666"
     borderopacity="1"
     objecttolerance="10"
     gridtolerance="10"
     guidetolerance="10"
     inkscape:pageopacity="0"
     inkscape:pageshadow="2"
     inkscape:window-width="2495"
     inkscape:window-height="1416"
     id="namedview125"
     showgrid="false"
     fit-margin-top="0"
     fit-margin-left="0"
     fit-margin-right="0"
     fit-margin-bottom="0"
     inkscape:zoom="0.067050361"
     inkscape:cx="-106.49954"
     inkscape:cy="65.00005"
     inkscape:window-x="65"
     inkscape:window-y="24"
     inkscape:window-maximized="1"
     inkscape:current-layer="svg3723" /><metadata
     id="metadata3729"><rdf:RDF><cc:Work
         rdf:about=""><dc:format>image/svg+xml</dc:format><dc:type
           rdf:resource="http://purl.org/dc/dcmitype/StillImage" /><dc:title></dc:title></cc:Work></rdf:RDF></metadata><defs
     id="defs3727"><clipPath
       id="clipPath3737"
       clipPathUnits="userSpaceOnUse"><path
         id="path3739"
         d="m 0,1800 4313.333,0 0,-1800 L 0,0 0,1800 Z"
         inkscape:connector-curvature="0" /></clipPath></defs><g
     transform="matrix(0.12086839,0,0,-0.12086839,-45.651314,173.00843)"
     id="g3731"><g
       id="g3733"><g
         clip-path="url(#clipPath3737)"
         id="g3735"><g
           transform="translate(681.5952,646.3154)"
           id="g3741"><path
             id="path3743"
             style="fill:#ffffff;fill-opacity:1;fill-rule:nonzero;stroke:none"
             d="m 0,0 c -16.8,18.035 -33.624,35.979 -50.424,53.813 -0.136,-3.613 -0.269,-8.459 -0.381,-14.538 -0.146,-6.079 -0.202,-14.354 -0.202,-24.829 0,-2.714 0.022,-6.079 0.101,-10.082 0.056,-4.005 0.123,-8.21 0.189,-12.607 0.069,-4.397 0.157,-8.849 0.293,-13.38 0.123,-4.53 0.246,-8.726 0.392,-12.606 0.124,-3.881 0.247,-7.267 0.394,-10.184 0.111,-2.914 0.245,-4.878 0.38,-5.92 -2.087,0.269 -4.329,0.403 -6.796,0.403 -2.579,0 -4.968,-0.134 -7.167,-0.403 0.258,1.301 0.55,3.7 0.875,7.177 0.325,3.5 0.605,7.671 0.863,12.516 0.258,4.846 0.538,10.116 0.876,15.814 0.314,5.676 0.584,11.373 0.784,17.058 0.18,5.687 0.359,11.249 0.483,16.677 0.123,5.429 0.19,10.274 0.19,14.546 0,12.415 -0.035,23.07 -0.112,31.998 -0.045,8.927 -0.202,15.589 -0.471,19.985 l 3.107,0 c 7.873,-8.545 16.318,-17.687 25.313,-27.456 8.972,-9.755 17.898,-19.39 26.747,-28.889 8.873,-9.511 17.273,-18.483 25.224,-26.961 7.94,-8.458 14.894,-15.68 20.849,-21.624 l 0,26.38 c 0,13.568 -0.101,26.792 -0.291,39.656 -0.202,12.863 -0.617,24.987 -1.267,36.36 2.591,-0.639 4.788,-0.964 6.593,-0.964 1.56,0 3.635,0.325 6.215,0.964 C 52.486,80.066 52.195,75.794 51.881,70.107 51.545,64.421 51.231,58.343 50.906,51.882 50.58,45.41 50.3,39.074 50.042,32.873 49.784,26.671 49.661,21.69 49.661,17.945 l 0,-11.642 c 0,-4.397 0.023,-8.994 0.079,-13.772 0.078,-4.777 0.123,-9.599 0.201,-14.445 0.056,-4.845 0.124,-9.376 0.191,-13.571 0.067,-4.204 0.09,-7.851 0.09,-10.969 l 0,-6.392 -2.716,0 C 32.637,-35.653 16.8,-18.033 0,0"
             inkscape:connector-curvature="0" /></g><g
           transform="translate(771.2949,704.1074)"
           id="g3745"><path
             id="path3747"
             style="fill:#ffffff;fill-opacity:1;fill-rule:nonzero;stroke:none"
             d="m 0,0 c -0.336,8.209 -0.695,16.588 -1.076,25.112 1.68,-0.246 3.297,-0.482 4.855,-0.674 1.56,-0.202 3.107,-0.29 4.655,-0.29 1.546,0 3.107,0.088 4.665,0.29 1.526,0.192 3.152,0.428 4.833,0.674 C 17.54,16.588 17.181,8.209 16.867,0 16.542,-8.219 16.385,-16.574 16.385,-25.109 l 0,-33.356 c 0,-8.545 0.157,-16.945 0.482,-25.211 0.314,-8.277 0.673,-16.42 1.065,-24.449 -2.972,0.269 -6.146,0.403 -9.498,0.403 -3.365,0 -6.527,-0.134 -9.51,-0.403 0.381,8.029 0.74,16.172 1.076,24.449 0.314,8.266 0.471,16.666 0.471,25.211 l 0,33.356 C 0.471,-16.574 0.314,-8.219 0,0"
             inkscape:connector-curvature="0" /></g><g
           transform="translate(826.1816,704.4004)"
           id="g3749"><path
             id="path3751"
             style="fill:#ffffff;fill-opacity:1;fill-rule:nonzero;stroke:none"
             d="m 0,0 c -0.335,8.265 -0.684,16.541 -1.076,24.819 5.832,-0.246 11.597,-0.482 17.36,-0.673 5.743,-0.203 11.541,-0.291 17.362,-0.291 5.821,0 11.575,0.088 17.261,0.291 5.685,0.191 11.428,0.427 17.26,0.673 -0.393,-1.929 -0.594,-3.881 -0.594,-5.809 0,-1.953 0.201,-3.881 0.594,-5.832 -4.151,0.268 -7.918,0.525 -11.351,0.784 -3.431,0.258 -7.042,0.517 -10.855,0.773 -3.825,0.259 -7.985,0.484 -12.517,0.686 -4.53,0.201 -9.96,0.291 -16.295,0.291 C 17.024,11.563 16.867,7.626 16.678,3.879 16.476,0.124 16.375,-4.139 16.375,-8.917 c 0,-5.047 0.045,-9.96 0.101,-14.735 0.077,-4.79 0.101,-8.414 0.101,-10.869 5.686,0 10.789,0.055 15.319,0.19 4.52,0.136 8.659,0.293 12.405,0.494 3.757,0.191 7.199,0.381 10.385,0.584 3.163,0.19 6.168,0.414 9.016,0.672 -0.381,-1.94 -0.582,-3.948 -0.582,-6.011 0,-1.952 0.201,-3.881 0.582,-5.81 -3.363,0.381 -7.278,0.696 -11.73,0.964 -4.464,0.248 -8.926,0.417 -13.391,0.482 -4.464,0.057 -8.658,0.124 -12.596,0.191 -3.958,0.068 -7.075,0.101 -9.408,0.101 0,-1.154 -0.024,-2.433 -0.101,-3.779 -0.056,-1.369 -0.101,-3.073 -0.101,-5.137 l 0,-7.569 0,-11.631 c 0,-7.38 0.045,-13.458 0.101,-18.237 0.077,-4.788 0.157,-8.411 0.28,-10.856 l 13.593,0 c 4.913,0 9.713,0.091 14.445,0.292 4.71,0.179 9.174,0.448 13.38,0.764 4.194,0.336 7.863,0.806 10.957,1.456 -0.269,-0.898 -0.425,-1.906 -0.482,-3.004 -0.079,-1.1 -0.101,-2.098 -0.101,-3.007 0,-2.063 0.191,-3.745 0.583,-5.046 -5.81,0.269 -11.597,0.403 -17.35,0.403 l -17.563,0 -17.641,0 c -5.821,0 -11.698,-0.134 -17.653,-0.403 0.392,8.275 0.741,16.531 1.076,24.74 0.314,8.21 0.482,16.576 0.482,25.1 l 0,33.366 C 0.482,-16.679 0.314,-8.278 0,0"
             inkscape:connector-curvature="0" /></g><g
           transform="translate(941.6548,604.5273)"
           id="g3753"><path
             id="path3755"
             style="fill:#ffffff;fill-opacity:1;fill-rule:nonzero;stroke:none"
             d="m 0,0 c 2.725,-0.649 6.415,-1.144 11.057,-1.458 4.655,-0.324 9.444,-0.481 14.356,-0.481 7.111,0 14.222,0.84 21.332,2.522 7.122,1.672 13.481,4.846 19.111,9.489 5.629,4.665 10.206,11.035 13.762,19.111 3.554,8.075 5.349,18.528 5.349,31.311 0,11.261 -1.403,20.502 -4.196,27.747 -2.758,7.235 -6.572,12.954 -11.427,17.159 -4.846,4.196 -10.643,7.112 -17.362,8.727 -6.718,1.614 -14.097,2.424 -22.105,2.424 -5.81,0 -11.249,-0.203 -16.285,-0.584 C 8.546,115.585 4.014,115.137 0,114.608 -0.381,108.406 -0.673,101.902 -0.876,95.128 -1.054,88.332 -1.155,81.445 -1.155,74.471 l 0,-33.356 C -1.155,27.141 -0.764,13.437 0,0 m -17.541,99.58 c -0.326,8.209 -0.673,16.588 -1.054,25.112 4.89,-0.246 9.779,-0.482 14.636,-0.673 4.844,-0.203 9.711,-0.29 14.635,-0.29 4.913,0 9.791,0.155 14.637,0.481 4.855,0.324 9.723,0.482 14.636,0.482 11.394,0 21.117,-1.481 29.204,-4.464 8.076,-2.96 14.704,-7.2 19.873,-12.697 5.182,-5.493 8.95,-12.213 11.349,-20.164 2.391,-7.964 3.59,-16.913 3.59,-26.873 0,-12.918 -2.242,-23.807 -6.684,-32.669 C 92.807,18.965 87.12,11.821 80.211,6.394 73.28,0.965 65.665,-2.882 57.31,-5.147 48.976,-7.402 40.991,-8.545 33.376,-8.545 c -4.396,0 -8.736,0.066 -13.01,0.201 -4.261,0.135 -8.59,0.202 -12.987,0.202 l -12.987,0 c -4.273,0 -8.614,-0.134 -12.987,-0.403 0.381,8.029 0.728,16.172 1.054,24.449 0.315,8.266 0.494,16.666 0.494,25.211 l 0,33.356 c 0,8.535 -0.179,16.89 -0.494,25.109"
             inkscape:connector-curvature="0" /></g><g
           transform="translate(1075.9688,704.4004)"
           id="g3757"><path
             id="path3759"
             style="fill:#ffffff;fill-opacity:1;fill-rule:nonzero;stroke:none"
             d="m 0,0 c -0.326,8.265 -0.685,16.541 -1.076,24.819 5.831,-0.246 11.618,-0.482 17.361,-0.673 5.753,-0.203 11.539,-0.291 17.361,-0.291 5.82,0 11.574,0.088 17.26,0.291 5.685,0.191 11.428,0.427 17.26,0.673 -0.393,-1.929 -0.583,-3.881 -0.583,-5.809 0,-1.953 0.19,-3.881 0.583,-5.832 -4.149,0.268 -7.919,0.525 -11.349,0.784 -3.433,0.258 -7.043,0.517 -10.857,0.773 -3.813,0.259 -7.985,0.484 -12.517,0.686 -4.53,0.201 -9.959,0.291 -16.284,0.291 -0.123,-4.149 -0.291,-8.086 -0.482,-11.833 -0.202,-3.755 -0.28,-8.018 -0.28,-12.796 0,-5.047 0.022,-9.96 0.078,-14.735 0.079,-4.79 0.101,-8.414 0.101,-10.869 5.697,0 10.789,0.055 15.32,0.19 4.531,0.136 8.659,0.293 12.404,0.494 3.757,0.191 7.223,0.381 10.385,0.584 3.173,0.19 6.18,0.414 9.018,0.672 -0.383,-1.94 -0.583,-3.948 -0.583,-6.011 0,-1.952 0.2,-3.881 0.583,-5.81 -3.366,0.381 -7.269,0.696 -11.732,0.964 -4.463,0.248 -8.927,0.417 -13.379,0.482 -4.452,0.057 -8.67,0.124 -12.606,0.191 -3.948,0.068 -7.077,0.101 -9.41,0.101 0,-1.154 -0.022,-2.433 -0.101,-3.779 -0.056,-1.369 -0.078,-3.073 -0.078,-5.137 l 0,-7.569 0,-11.631 c 0,-7.38 0.022,-13.458 0.078,-18.237 0.079,-4.788 0.168,-8.411 0.303,-10.856 l 13.571,0 c 4.912,0 9.724,0.091 14.445,0.292 4.71,0.179 9.185,0.448 13.379,0.764 4.206,0.336 7.863,0.806 10.968,1.456 -0.258,-0.898 -0.437,-1.906 -0.493,-3.004 -0.067,-1.1 -0.101,-2.098 -0.101,-3.007 0,-2.063 0.202,-3.745 0.594,-5.046 -5.821,0.269 -11.607,0.403 -17.36,0.403 l -17.552,0 -17.653,0 c -5.821,0 -11.698,-0.134 -17.652,-0.403 0.391,8.275 0.75,16.531 1.076,24.74 0.325,8.21 0.482,16.576 0.482,25.1 l 0,33.366 C 0.482,-16.679 0.325,-8.278 0,0"
             inkscape:connector-curvature="0" /></g><g
           transform="translate(1196.208,667.1543)"
           id="g3761"><path
             id="path3763"
             style="fill:#ffffff;fill-opacity:1;fill-rule:nonzero;stroke:none"
             d="m 0,0 c 2.142,-0.111 4.497,-0.18 7.076,-0.18 4.004,0 8.187,0.449 12.505,1.346 4.339,0.92 8.31,2.501 11.923,4.755 3.632,2.266 6.639,5.306 9.038,9.119 2.378,3.813 3.59,8.623 3.59,14.455 0,5.036 -0.954,9.197 -2.827,12.494 -1.884,3.298 -4.283,5.923 -7.268,7.863 -2.972,1.94 -6.213,3.262 -9.69,3.981 -3.499,0.695 -6.93,1.054 -10.284,1.054 -4.519,0 -8.277,-0.089 -11.249,-0.281 -2.971,-0.19 -5.495,-0.425 -7.57,-0.682 C -5.014,46.812 -5.283,39.768 -5.531,32.793 -5.8,25.795 -5.923,18.818 -5.923,11.844 l 0,-11.059 C -4.117,0.402 -2.12,0.134 0,0 m -22.308,36.953 c -0.324,8.209 -0.673,16.588 -1.054,25.112 3.747,-0.246 7.424,-0.482 11.046,-0.673 3.623,-0.203 7.302,-0.29 11.048,-0.29 3.747,0 7.446,0.155 11.059,0.481 3.611,0.324 7.313,0.482 11.057,0.482 5.429,0 10.61,-0.517 15.522,-1.547 4.891,-1.033 9.208,-2.749 12.887,-5.138 3.689,-2.399 6.594,-5.528 8.737,-9.399 2.131,-3.879 3.185,-8.735 3.185,-14.556 0,-6.213 -1.392,-11.529 -4.162,-15.994 -2.792,-4.463 -6.18,-8.141 -10.194,-11.058 -4.004,-2.904 -8.3,-5.17 -12.887,-6.785 -4.597,-1.625 -8.759,-2.68 -12.516,-3.195 1.56,-1.941 3.69,-4.667 6.404,-8.143 2.726,-3.5 5.754,-7.357 9.118,-11.553 3.365,-4.194 6.853,-8.591 10.475,-13.188 3.623,-4.588 7.121,-8.985 10.477,-13.19 3.363,-4.194 6.526,-8.029 9.498,-11.529 2.972,-3.5 5.36,-6.145 7.176,-7.962 -1.949,0.269 -3.88,0.403 -5.807,0.403 l -5.822,0 -5.642,0 c -1.928,0 -3.8,-0.134 -5.606,-0.403 -1.951,2.726 -4.891,6.796 -8.827,12.223 -3.959,5.428 -8.311,11.25 -13.088,17.452 -4.789,6.214 -9.669,12.382 -14.648,18.527 -4.98,6.135 -9.532,11.351 -13.682,15.613 l -7.369,0 0,-14.155 c 0,-8.545 0.168,-16.945 0.483,-25.211 0.336,-8.277 0.684,-16.42 1.076,-24.449 -2.983,0.269 -6.147,0.403 -9.51,0.403 -3.365,0 -6.516,-0.134 -9.488,-0.403 0.381,8.029 0.73,16.172 1.054,24.449 0.315,8.266 0.494,16.666 0.494,25.211 l 0,33.356 c 0,8.535 -0.179,16.89 -0.494,25.109"
             inkscape:connector-curvature="0" /></g><g
           transform="translate(1293.7681,614.1289)"
           id="g3765"><path
             id="path3767"
             style="fill:#ffffff;fill-opacity:1;fill-rule:nonzero;stroke:none"
             d="m 0,0 c 1.727,-2.401 3.858,-4.564 6.394,-6.506 2.512,-1.929 5.45,-3.521 8.815,-4.755 3.365,-1.222 7.111,-1.84 11.26,-1.84 4.262,0 8.097,0.741 11.53,2.234 3.419,1.491 6.348,3.486 8.724,6.02 2.401,2.514 4.239,5.496 5.541,8.918 1.278,3.42 1.928,7.076 1.928,10.956 0,5.945 -1.524,10.655 -4.553,14.154 -3.049,3.5 -6.818,6.392 -11.349,8.726 -4.531,2.332 -9.421,4.465 -14.647,6.404 -5.226,1.94 -10.116,4.364 -14.648,7.278 -4.519,2.905 -8.299,6.616 -11.328,11.148 -3.049,4.533 -4.575,10.587 -4.575,18.226 0,5.438 0.987,10.373 2.917,14.836 1.951,4.465 4.754,8.302 8.433,11.529 3.679,3.242 8.109,5.767 13.279,7.582 5.181,1.795 10.99,2.715 17.462,2.715 6.203,0 11.564,-0.762 16.093,-2.243 4.532,-1.482 8.737,-3.779 12.619,-6.887 -1.156,-2.197 -2.143,-4.52 -2.916,-6.974 -0.774,-2.468 -1.56,-5.564 -2.322,-9.31 l -2.333,0 c -0.651,1.817 -1.526,3.779 -2.624,5.922 -1.1,2.131 -2.581,4.095 -4.442,5.897 -1.883,1.82 -4.115,3.344 -6.706,4.577 -2.579,1.222 -5.687,1.84 -9.309,1.84 -3.611,0 -6.953,-0.583 -9.981,-1.749 -3.03,-1.167 -5.698,-2.804 -7.953,-4.946 -2.277,-2.142 -4.003,-4.699 -5.236,-7.659 -1.235,-2.975 -1.84,-6.214 -1.84,-9.692 0,-6.078 1.526,-10.879 4.554,-14.354 3.049,-3.5 6.818,-6.439 11.349,-8.838 4.532,-2.379 9.398,-4.521 14.648,-6.394 5.225,-1.873 10.116,-4.172 14.635,-6.885 4.519,-2.715 8.311,-6.201 11.339,-10.476 3.05,-4.261 4.553,-9.959 4.553,-17.069 0,-5.944 -1.054,-11.564 -3.184,-16.867 -2.143,-5.294 -5.25,-9.915 -9.31,-13.864 -4.071,-3.947 -9.062,-6.975 -14.939,-9.117 -5.887,-2.119 -12.571,-3.196 -20.075,-3.196 -8.007,0 -14.512,1.077 -19.492,3.196 -4.979,2.142 -9.139,4.564 -12.505,7.278 1.156,2.96 1.962,5.653 2.434,8.053 0.437,2.378 0.852,5.45 1.244,9.197 l 2.322,0 C -3.15,4.743 -1.76,2.388 0,0"
             inkscape:connector-curvature="0" /></g><g
           transform="translate(1449.5938,760.2637)"
           id="g3769"><path
             id="path3771"
             style="fill:#ffffff;fill-opacity:1;fill-rule:nonzero;stroke:none"
             d="m 0,0 c 1.929,1.929 4.261,2.904 6.976,2.904 2.715,0 5.047,-0.975 6.976,-2.904 1.951,-1.953 2.915,-4.274 2.915,-6.999 0,-2.714 -0.964,-5.036 -2.915,-6.976 -1.929,-1.941 -4.261,-2.917 -6.976,-2.917 -2.715,0 -5.047,0.976 -6.976,2.917 -1.951,1.94 -2.926,4.262 -2.926,6.976 0,2.725 0.975,5.046 2.926,6.999 m -36.663,-103.955 c 3.353,0 6.852,-0.08 10.475,-0.191 3.623,-0.133 7.111,-0.202 10.475,-0.202 3.623,0 7.234,0.023 10.867,0.09 3.6,0.067 7.224,0.181 10.846,0.303 l -21.522,49.258 -21.141,-49.258 z M -38.223,0 c 1.952,1.929 4.274,2.904 6.988,2.904 2.726,0 5.047,-0.975 6.987,-2.904 1.941,-1.953 2.894,-4.274 2.894,-6.999 0,-2.714 -0.953,-5.036 -2.894,-6.976 -1.94,-1.941 -4.261,-2.917 -6.987,-2.917 -2.714,0 -5.036,0.976 -6.988,2.917 -1.927,1.94 -2.891,4.262 -2.891,6.976 0,2.725 0.964,5.046 2.891,6.999 M 0.953,-52.859 c 3.622,-8.713 7.323,-17.551 11.07,-26.468 3.747,-8.915 7.491,-17.777 11.248,-26.569 3.758,-8.792 7.267,-16.979 10.553,-24.538 3.321,-7.56 6.282,-14.31 8.928,-20.265 2.669,-5.945 4.823,-10.465 6.506,-13.582 -1.819,0.268 -3.523,0.403 -5.137,0.403 l -5.136,0 -5.161,0 c -1.603,0 -3.318,-0.135 -5.124,-0.403 -0.908,2.983 -2.143,6.571 -3.69,10.765 -1.548,4.207 -3.264,8.614 -5.137,13.19 -1.883,4.597 -3.79,9.241 -5.72,13.974 -1.928,4.71 -3.757,9.198 -5.44,13.469 -4.138,0.125 -8.332,0.226 -12.593,0.303 -4.273,0.045 -8.547,0.091 -12.808,0.091 -4.015,0 -7.951,-0.046 -11.821,-0.091 -3.88,-0.077 -7.839,-0.178 -11.833,-0.303 -4.138,-10.082 -7.883,-19.682 -11.248,-28.79 -3.364,-9.128 -5.899,-16.653 -7.56,-22.608 -2.221,0.268 -4.597,0.403 -7.188,0.403 -2.59,0 -4.969,-0.135 -7.168,-0.403 10.476,22.632 20.683,45.13 30.642,67.492 9.948,22.363 19.963,45.132 30.055,68.279 l 3.691,0 c 3.106,-7.514 6.449,-15.612 10.071,-24.349"
             inkscape:connector-curvature="0" /></g><g
           transform="translate(1616.8472,600.5459)"
           id="g3773"><path
             id="path3775"
             style="fill:#ffffff;fill-opacity:1;fill-rule:nonzero;stroke:none"
             d="m 0,0 c -2.512,-1.222 -5.552,-2.322 -9.108,-3.297 -3.565,-0.965 -7.524,-1.839 -11.921,-2.613 -4.396,-0.785 -8.995,-1.166 -13.772,-1.166 -10.218,0 -19.66,1.457 -28.33,4.35 -8.659,2.916 -16.117,7.359 -22.396,13.303 -6.27,5.944 -11.182,13.211 -14.726,21.814 -3.567,8.602 -5.339,18.392 -5.339,29.372 0,10.991 1.772,20.794 5.339,29.383 3.544,8.593 8.535,15.881 14.926,21.827 6.393,5.944 14.055,10.474 22.981,13.569 8.928,3.107 18.752,4.666 29.485,4.666 8.535,0 16.319,-0.875 23.362,-2.624 7.043,-1.749 13.301,-3.848 18.707,-6.303 -1.033,-1.817 -1.862,-4.273 -2.512,-7.381 -0.652,-3.094 -1.168,-5.686 -1.549,-7.737 l -1.166,-0.404 c -1.301,1.558 -3.095,3.297 -5.427,5.249 -2.333,1.929 -5.047,3.803 -8.155,5.605 -3.107,1.82 -6.595,3.344 -10.475,4.577 -3.869,1.222 -8.13,1.84 -12.785,1.84 -7.637,0 -14.715,-1.233 -21.241,-3.701 -6.539,-2.444 -12.215,-6.236 -17.07,-11.327 -4.834,-5.114 -8.624,-11.575 -11.338,-19.402 -2.716,-7.829 -4.082,-17.091 -4.082,-27.837 0,-10.721 1.366,-19.996 4.082,-27.814 2.714,-7.829 6.504,-14.3 11.338,-19.402 4.855,-5.113 10.531,-8.894 17.07,-11.351 6.526,-2.443 13.604,-3.677 21.241,-3.677 4.655,0 8.95,0.583 12.886,1.75 3.949,1.165 7.582,2.544 10.867,4.16 3.287,1.626 6.271,3.364 8.918,5.237 2.645,1.884 4.878,3.522 6.684,4.946 L 7.279,14.838 5.528,3.398 C 4.362,2.355 2.523,1.223 0,0"
             inkscape:connector-curvature="0" /></g><g
           transform="translate(1748.918,704.1074)"
           id="g3777"><path
             id="path3779"
             style="fill:#ffffff;fill-opacity:1;fill-rule:nonzero;stroke:none"
             d="m 0,0 c -0.314,8.209 -0.674,16.588 -1.065,25.112 1.682,-0.246 3.309,-0.482 4.845,-0.674 1.548,-0.202 3.106,-0.29 4.653,-0.29 1.56,0 3.108,0.088 4.655,0.29 1.559,0.192 3.185,0.428 4.867,0.674 C 17.563,16.588 17.205,8.209 16.88,0 16.555,-8.219 16.397,-16.574 16.397,-25.109 l 0,-33.356 c 0,-8.545 0.158,-16.945 0.483,-25.211 0.325,-8.277 0.683,-16.42 1.075,-24.449 -2.982,0.269 -6.156,0.403 -9.522,0.403 -3.352,0 -6.516,-0.134 -9.498,-0.403 0.391,8.029 0.751,16.172 1.065,24.449 0.325,8.266 0.481,16.666 0.481,25.211 l 0,17.452 c -6.974,0.123 -13.727,0.223 -20.253,0.291 -6.538,0.067 -13.291,0.089 -20.278,0.089 -6.977,0 -13.727,-0.022 -20.254,-0.089 -6.527,-0.068 -13.301,-0.168 -20.267,-0.291 l 0,-17.452 c 0,-8.545 0.157,-16.945 0.483,-25.211 0.325,-8.277 0.684,-16.42 1.076,-24.449 -2.995,0.269 -6.157,0.403 -9.51,0.403 -3.365,0 -6.527,-0.134 -9.51,-0.403 0.392,8.029 0.751,16.172 1.065,24.449 0.325,8.266 0.494,16.666 0.494,25.211 l 0,33.356 c 0,8.535 -0.169,16.89 -0.494,25.109 -0.314,8.209 -0.673,16.588 -1.065,25.112 1.681,-0.246 3.297,-0.482 4.844,-0.674 1.548,-0.202 3.108,-0.29 4.666,-0.29 1.547,0 3.095,0.088 4.643,0.29 1.559,0.192 3.186,0.428 4.867,0.674 C -79.404,16.588 -79.763,8.209 -80.088,0 c -0.326,-8.219 -0.483,-16.574 -0.483,-25.109 l 0,-6.798 c 6.966,-0.122 13.74,-0.246 20.267,-0.381 6.527,-0.135 13.277,-0.202 20.254,-0.202 6.987,0 13.74,0.067 20.278,0.202 6.526,0.135 13.279,0.259 20.253,0.381 l 0,6.798 C 0.481,-16.574 0.325,-8.219 0,0"
             inkscape:connector-curvature="0" /></g><g
           transform="translate(1804.1982,614.1289)"
           id="g3781"><path
             id="path3783"
             style="fill:#ffffff;fill-opacity:1;fill-rule:nonzero;stroke:none"
             d="m 0,0 c 1.737,-2.401 3.88,-4.564 6.392,-6.506 2.513,-1.929 5.462,-3.521 8.827,-4.755 3.364,-1.222 7.11,-1.84 11.248,-1.84 4.274,0 8.109,0.741 11.541,2.234 3.421,1.491 6.337,3.486 8.726,6.02 2.4,2.514 4.239,5.496 5.529,8.918 1.301,3.42 1.941,7.076 1.941,10.956 0,5.945 -1.526,10.655 -4.554,14.154 -3.039,3.5 -6.83,6.392 -11.362,8.726 -4.518,2.332 -9.387,4.465 -14.636,6.404 -5.238,1.94 -10.116,4.364 -14.635,7.278 -4.532,2.905 -8.311,6.616 -11.349,11.148 -3.041,4.533 -4.554,10.587 -4.554,18.226 0,5.438 0.964,10.373 2.905,14.836 1.939,4.465 4.765,8.302 8.445,11.529 3.678,3.242 8.108,5.767 13.279,7.582 5.158,1.795 10.99,2.715 17.45,2.715 6.213,0 11.574,-0.762 16.094,-2.243 4.52,-1.482 8.737,-3.779 12.618,-6.887 -1.167,-2.197 -2.142,-4.52 -2.917,-6.974 -0.785,-2.468 -1.547,-5.564 -2.333,-9.31 l -2.332,0 c -0.639,1.817 -1.514,3.779 -2.602,5.922 -1.099,2.131 -2.591,4.095 -4.465,5.897 -1.882,1.82 -4.104,3.344 -6.694,4.577 -2.591,1.222 -5.686,1.84 -9.31,1.84 -3.622,0 -6.942,-0.583 -9.992,-1.749 -3.027,-1.167 -5.687,-2.804 -7.94,-4.946 -2.265,-2.142 -4.015,-4.699 -5.249,-7.659 -1.212,-2.975 -1.84,-6.214 -1.84,-9.692 0,-6.078 1.526,-10.879 4.554,-14.354 3.051,-3.5 6.83,-6.439 11.35,-8.838 4.531,-2.379 9.42,-4.521 14.648,-6.394 5.225,-1.873 10.116,-4.172 14.646,-6.885 4.531,-2.715 8.3,-6.201 11.339,-10.476 3.04,-4.261 4.564,-9.959 4.564,-17.069 0,-5.944 -1.076,-11.564 -3.207,-16.867 -2.131,-5.294 -5.238,-9.915 -9.309,-13.864 -4.058,-3.947 -9.051,-6.975 -14.927,-9.117 -5.889,-2.119 -12.573,-3.196 -20.076,-3.196 -8.019,0 -14.511,1.077 -19.48,3.196 -4.99,2.142 -9.152,4.564 -12.518,7.278 1.167,2.96 1.976,5.653 2.424,8.053 0.449,2.378 0.875,5.45 1.267,9.197 l 2.323,0 C -3.142,4.743 -1.749,2.388 0,0"
             inkscape:connector-curvature="0" /></g><g
           transform="translate(1901.7485,704.1074)"
           id="g3785"><path
             id="path3787"
             style="fill:#ffffff;fill-opacity:1;fill-rule:nonzero;stroke:none"
             d="m 0,0 c -0.325,8.209 -0.685,16.588 -1.076,25.112 1.682,-0.246 3.308,-0.482 4.868,-0.674 1.546,-0.202 3.094,-0.29 4.642,-0.29 1.559,0 3.117,0.088 4.664,0.29 1.55,0.192 3.164,0.428 4.847,0.674 C 17.551,16.588 17.194,8.209 16.879,0 16.554,-8.219 16.385,-16.574 16.385,-25.109 l 0,-33.356 c 0,-8.545 0.169,-16.945 0.494,-25.211 0.315,-8.277 0.672,-16.42 1.066,-24.449 -2.983,0.269 -6.147,0.403 -9.511,0.403 -3.354,0 -6.527,-0.134 -9.51,-0.403 0.391,8.029 0.751,16.172 1.076,24.449 0.325,8.266 0.482,16.666 0.482,25.211 l 0,33.356 C 0.482,-16.574 0.325,-8.219 0,0"
             inkscape:connector-curvature="0" /></g><g
           transform="translate(1957.0166,614.1289)"
           id="g3789"><path
             id="path3791"
             style="fill:#ffffff;fill-opacity:1;fill-rule:nonzero;stroke:none"
             d="m 0,0 c 1.75,-2.401 3.881,-4.564 6.415,-6.506 2.513,-1.929 5.451,-3.521 8.816,-4.755 3.353,-1.222 7.11,-1.84 11.238,-1.84 4.273,0 8.119,0.741 11.54,2.234 3.444,1.491 6.336,3.486 8.737,6.02 2.389,2.514 4.228,5.496 5.518,8.918 1.301,3.42 1.94,7.076 1.94,10.956 0,5.945 -1.514,10.655 -4.553,14.154 -3.04,3.5 -6.809,6.392 -11.338,8.726 -4.532,2.332 -9.41,4.465 -14.648,6.404 -5.238,1.94 -10.117,4.364 -14.636,7.278 -4.519,2.905 -8.321,6.616 -11.349,11.148 -3.041,4.533 -4.566,10.587 -4.566,18.226 0,5.438 0.987,10.373 2.916,14.836 1.929,4.465 4.755,8.302 8.446,11.529 3.677,3.242 8.108,5.767 13.267,7.582 5.181,1.795 11.003,2.715 17.473,2.715 6.202,0 11.562,-0.762 16.084,-2.243 4.53,-1.482 8.72,-3.779 12.599,-6.887 -1.166,-2.197 -2.13,-4.52 -2.905,-6.974 -0.772,-2.468 -1.541,-5.564 -2.315,-9.31 l -2.333,0 c -0.65,1.817 -1.526,3.779 -2.613,5.922 -1.11,2.131 -2.59,4.095 -4.476,5.897 -1.861,1.82 -4.103,3.344 -6.684,4.577 -2.59,1.222 -5.675,1.84 -9.308,1.84 -3.611,0 -6.953,-0.583 -9.981,-1.749 -3.052,-1.167 -5.698,-2.804 -7.963,-4.946 -2.255,-2.142 -4.015,-4.699 -5.227,-7.659 -1.233,-2.975 -1.839,-6.214 -1.839,-9.692 0,-6.078 1.503,-10.879 4.553,-14.354 3.028,-3.5 6.809,-6.439 11.339,-8.838 4.521,-2.379 9.41,-4.521 14.635,-6.394 5.25,-1.873 10.116,-4.172 14.648,-6.885 4.532,-2.715 8.294,-6.201 11.345,-10.476 3.028,-4.261 4.553,-9.959 4.553,-17.069 0,-5.944 -1.054,-11.564 -3.207,-16.867 C 64,0.224 60.893,-4.397 56.84,-8.346 c -4.083,-3.947 -9.063,-6.975 -14.95,-9.117 -5.877,-2.119 -12.573,-3.196 -20.065,-3.196 -8.029,0 -14.523,1.077 -19.493,3.196 -4.979,2.142 -9.15,4.564 -12.504,7.278 1.166,2.96 1.962,5.653 2.412,8.053 0.471,2.378 0.874,5.45 1.267,9.197 l 2.333,0 C -3.129,4.743 -1.727,2.388 0,0"
             inkscape:connector-curvature="0" /></g><g
           transform="translate(2149.7798,600.5459)"
           id="g3793"><path
             id="path3795"
             style="fill:#ffffff;fill-opacity:1;fill-rule:nonzero;stroke:none"
             d="m 0,0 c -2.513,-1.222 -5.562,-2.322 -9.107,-3.297 -3.567,-0.965 -7.538,-1.839 -11.935,-2.613 -4.395,-0.785 -8.97,-1.166 -13.759,-1.166 -10.217,0 -19.66,1.457 -28.32,4.35 -8.669,2.916 -16.127,7.359 -22.406,13.303 -6.259,5.944 -11.172,13.211 -14.726,21.814 -3.556,8.602 -5.327,18.392 -5.327,29.372 0,10.991 1.771,20.794 5.327,29.383 3.554,8.593 8.534,15.881 14.927,21.827 6.393,5.944 14.064,10.474 22.981,13.569 8.916,3.107 18.752,4.666 29.484,4.666 8.534,0 16.33,-0.875 23.374,-2.624 7.041,-1.749 13.278,-3.848 18.706,-6.303 C 8.186,120.464 7.346,118.008 6.707,114.9 6.055,111.806 5.54,109.214 5.148,107.163 l -1.155,-0.404 c -1.302,1.558 -3.118,3.297 -5.441,5.249 -2.321,1.929 -5.046,3.803 -8.153,5.605 -3.095,1.82 -6.594,3.344 -10.474,4.577 -3.859,1.222 -8.122,1.84 -12.786,1.84 -7.628,0 -14.714,-1.233 -21.242,-3.701 -6.527,-2.444 -12.202,-6.236 -17.069,-11.327 -4.845,-5.114 -8.613,-11.575 -11.328,-19.402 -2.725,-7.829 -4.083,-17.091 -4.083,-27.837 0,-10.721 1.358,-19.996 4.083,-27.814 2.715,-7.829 6.483,-14.3 11.328,-19.402 4.867,-5.113 10.542,-8.894 17.069,-11.351 6.528,-2.443 13.614,-3.677 21.242,-3.677 4.664,0 8.949,0.583 12.898,1.75 3.948,1.165 7.557,2.544 10.856,4.16 3.297,1.626 6.259,3.364 8.928,5.237 2.646,1.884 4.866,3.522 6.682,4.946 L 7.268,14.838 5.54,3.398 C 4.374,2.355 2.533,1.223 0,0"
             inkscape:connector-curvature="0" /></g><g
           transform="translate(2281.8623,704.1074)"
           id="g3797"><path
             id="path3799"
             style="fill:#ffffff;fill-opacity:1;fill-rule:nonzero;stroke:none"
             d="m 0,0 c -0.326,8.209 -0.686,16.588 -1.065,25.112 1.681,-0.246 3.307,-0.482 4.844,-0.674 1.547,-0.202 3.096,-0.29 4.656,-0.29 1.558,0 3.106,0.088 4.654,0.29 1.547,0.192 3.184,0.428 4.854,0.674 C 17.551,16.588 17.191,8.209 16.867,0 16.553,-8.219 16.396,-16.574 16.396,-25.109 l 0,-33.356 c 0,-8.545 0.157,-16.945 0.471,-25.211 0.324,-8.277 0.684,-16.42 1.076,-24.449 -2.97,0.269 -6.144,0.403 -9.508,0.403 -3.365,0 -6.517,-0.134 -9.5,-0.403 0.379,8.029 0.739,16.172 1.065,24.449 0.325,8.266 0.481,16.666 0.481,25.211 l 0,17.452 c -6.975,0.123 -13.727,0.223 -20.253,0.291 -6.54,0.067 -13.302,0.089 -20.279,0.089 -6.974,0 -13.75,-0.022 -20.254,-0.089 -6.529,-0.068 -13.302,-0.168 -20.277,-0.291 l 0,-17.452 c 0,-8.545 0.157,-16.945 0.472,-25.211 0.335,-8.277 0.694,-16.42 1.097,-24.449 -3.004,0.269 -6.168,0.403 -9.534,0.403 -3.342,0 -6.514,-0.134 -9.486,-0.403 0.382,8.029 0.74,16.172 1.054,24.449 0.336,8.266 0.495,16.666 0.495,25.211 l 0,33.356 c 0,8.535 -0.159,16.89 -0.495,25.109 -0.314,8.209 -0.672,16.588 -1.054,25.112 1.681,-0.246 3.285,-0.482 4.845,-0.674 1.548,-0.202 3.094,-0.29 4.641,-0.29 1.572,0 3.119,0.088 4.668,0.29 1.548,0.192 3.185,0.428 4.866,0.674 C -79.416,16.588 -79.775,8.209 -80.11,0 c -0.315,-8.219 -0.472,-16.574 -0.472,-25.109 l 0,-6.798 c 6.975,-0.122 13.748,-0.246 20.277,-0.381 6.504,-0.135 13.28,-0.202 20.254,-0.202 6.977,0 13.739,0.067 20.279,0.202 6.526,0.135 13.278,0.259 20.253,0.381 l 0,6.798 C 0.481,-16.574 0.325,-8.219 0,0"
             inkscape:connector-curvature="0" /></g><g
           transform="translate(2336.7607,704.4004)"
           id="g3801"><path
             id="path3803"
             style="fill:#ffffff;fill-opacity:1;fill-rule:nonzero;stroke:none"
             d="m 0,0 c -0.336,8.265 -0.696,16.541 -1.09,24.819 5.822,-0.246 11.611,-0.482 17.361,-0.673 5.755,-0.203 11.542,-0.291 17.352,-0.291 5.832,0 11.574,0.088 17.272,0.291 5.685,0.191 11.439,0.427 17.271,0.673 -0.391,-1.929 -0.594,-3.881 -0.594,-5.809 0,-1.953 0.203,-3.881 0.594,-5.832 -4.149,0.268 -7.939,0.525 -11.349,0.784 -3.432,0.258 -7.044,0.517 -10.868,0.773 -3.813,0.259 -7.974,0.484 -12.504,0.686 -4.533,0.201 -9.96,0.291 -16.297,0.291 C 17.025,11.563 16.869,7.626 16.666,3.879 16.475,0.124 16.374,-4.139 16.374,-8.917 c 0,-5.047 0.023,-9.96 0.101,-14.735 0.055,-4.79 0.101,-8.414 0.101,-10.869 5.676,0 10.789,0.055 15.32,0.19 4.532,0.136 8.647,0.293 12.403,0.494 3.747,0.191 7.201,0.381 10.385,0.584 3.164,0.19 6.17,0.414 9.007,0.672 -0.392,-1.94 -0.571,-3.948 -0.571,-6.011 0,-1.952 0.179,-3.881 0.571,-5.81 -3.353,0.381 -7.267,0.696 -11.72,0.964 -4.475,0.248 -8.926,0.417 -13.391,0.482 -4.464,0.057 -8.657,0.124 -12.605,0.191 -3.949,0.068 -7.067,0.101 -9.399,0.101 0,-1.154 -0.046,-2.433 -0.101,-3.779 -0.078,-1.369 -0.101,-3.073 -0.101,-5.137 l 0,-7.569 0,-11.631 c 0,-7.38 0.023,-13.458 0.101,-18.237 0.055,-4.788 0.157,-8.411 0.279,-10.856 l 13.595,0 c 4.912,0 9.712,0.091 14.434,0.292 4.721,0.179 9.185,0.448 13.391,0.764 4.194,0.336 7.839,0.806 10.956,1.456 -0.269,-0.898 -0.427,-1.906 -0.492,-3.004 -0.068,-1.1 -0.091,-2.098 -0.091,-3.007 0,-2.063 0.191,-3.745 0.583,-5.046 -5.831,0.269 -11.617,0.403 -17.361,0.403 l -17.54,0 -17.653,0 c -5.82,0 -11.709,-0.134 -17.666,-0.403 0.394,8.275 0.754,16.531 1.09,24.74 0.314,8.21 0.472,16.576 0.472,25.1 l 0,33.366 C 0.472,-16.679 0.314,-8.278 0,0"
             inkscape:connector-curvature="0" /></g><g
           transform="translate(2489.96,614.1289)"
           id="g3805"><path
             id="path3807"
             style="fill:#ffffff;fill-opacity:1;fill-rule:nonzero;stroke:none"
             d="m 0,0 c 1.74,-2.401 3.881,-4.564 6.395,-6.506 2.51,-1.929 5.46,-3.521 8.826,-4.755 3.353,-1.222 7.109,-1.84 11.248,-1.84 4.261,0 8.108,0.741 11.541,2.234 3.42,1.491 6.336,3.486 8.714,6.02 2.399,2.514 4.239,5.496 5.54,8.918 1.301,3.42 1.94,7.076 1.94,10.956 0,5.945 -1.524,10.655 -4.554,14.154 -3.048,3.5 -6.83,6.392 -11.36,8.726 -4.519,2.332 -9.399,4.465 -14.636,6.404 -5.238,1.94 -10.117,4.364 -14.636,7.278 -4.531,2.905 -8.311,6.616 -11.351,11.148 -3.038,4.533 -4.553,10.587 -4.553,18.226 0,5.438 0.965,10.373 2.906,14.836 1.941,4.465 4.765,8.302 8.444,11.529 3.681,3.242 8.108,5.767 13.281,7.582 5.156,1.795 10.99,2.715 17.449,2.715 6.214,0 11.576,-0.762 16.095,-2.243 4.521,-1.482 8.736,-3.779 12.617,-6.887 -1.167,-2.197 -2.143,-4.52 -2.918,-6.974 -0.782,-2.468 -1.547,-5.564 -2.332,-9.31 l -2.332,0 c -0.64,1.817 -1.512,3.779 -2.601,5.922 -1.101,2.131 -2.591,4.095 -4.465,5.897 -1.885,1.82 -4.104,3.344 -6.695,4.577 -2.59,1.222 -5.686,1.84 -9.307,1.84 -3.624,0 -6.944,-0.583 -9.994,-1.749 -3.029,-1.167 -5.687,-2.804 -7.941,-4.946 -2.264,-2.142 -4.014,-4.699 -5.25,-7.659 -1.21,-2.975 -1.838,-6.214 -1.838,-9.692 0,-6.078 1.525,-10.879 4.553,-14.354 3.051,-3.5 6.829,-6.439 11.35,-8.838 4.53,-2.379 9.422,-4.521 14.646,-6.394 5.228,-1.873 10.117,-4.172 14.65,-6.885 4.53,-2.715 8.297,-6.201 11.327,-10.476 3.049,-4.261 4.574,-9.959 4.574,-17.069 0,-5.944 -1.075,-11.564 -3.208,-16.867 -2.13,-5.294 -5.247,-9.915 -9.307,-13.864 -4.06,-3.947 -9.051,-6.975 -14.927,-9.117 -5.889,-2.119 -12.574,-3.196 -20.077,-3.196 -8.018,0 -14.51,1.077 -19.48,3.196 -4.99,2.142 -9.154,4.564 -12.517,7.278 1.167,2.96 1.962,5.653 2.423,8.053 0.449,2.378 0.874,5.45 1.268,9.197 l 2.308,0 C -3.14,4.743 -1.748,2.388 0,0"
             inkscape:connector-curvature="0" /></g><g
           transform="translate(2614.3604,719.1357)"
           id="g3809"><path
             id="path3811"
             style="fill:#ffffff;fill-opacity:1;fill-rule:nonzero;stroke:none"
             d="m 0,0 c -3.363,0 -6.887,-0.033 -10.563,-0.1 -3.693,-0.056 -7.369,-0.178 -11.048,-0.381 -3.691,-0.192 -7.245,-0.425 -10.678,-0.673 -3.42,-0.269 -6.494,-0.583 -9.208,-0.976 0.651,2.322 0.966,4.397 0.966,6.202 0,1.425 -0.315,3.432 -0.966,6.012 C -32.973,9.838 -24.629,9.602 -16.486,9.41 -8.332,9.208 0,9.12 8.535,9.12 c 8.535,0 16.867,0.088 25.022,0.29 8.141,0.192 16.487,0.428 25.01,0.674 -0.651,-2.58 -0.964,-4.644 -0.964,-6.203 0,-1.682 0.313,-3.689 0.964,-6.011 -2.714,0.393 -5.787,0.707 -9.209,0.976 -3.419,0.248 -6.986,0.481 -10.665,0.673 C 35.004,-0.278 31.325,-0.156 27.646,-0.1 23.957,-0.033 20.435,0 17.07,0 16.688,-13.312 16.498,-26.702 16.498,-40.138 l 0,-33.355 c 0,-8.545 0.157,-16.945 0.472,-25.211 0.325,-8.277 0.682,-16.42 1.076,-24.449 -2.996,0.268 -6.147,0.403 -9.511,0.403 -3.364,0 -6.516,-0.135 -9.5,-0.403 0.382,8.029 0.741,16.172 1.066,24.449 0.314,8.266 0.482,16.666 0.482,25.211 l 0,33.355 C 0.583,-26.702 0.383,-13.312 0,0"
             inkscape:connector-curvature="0" /></g><g
           transform="translate(2703.5791,656.3086)"
           id="g3813"><path
             id="path3815"
             style="fill:#ffffff;fill-opacity:1;fill-rule:nonzero;stroke:none"
             d="m 0,0 c 3.364,0 6.852,-0.08 10.485,-0.191 3.613,-0.133 7.112,-0.202 10.475,-0.202 3.601,0 7.224,0.023 10.835,0.09 3.633,0.067 7.244,0.181 10.877,0.303 L 21.142,49.258 0,0 Z m 85.919,-60.326 c -1.817,0.268 -3.522,0.403 -5.148,0.403 l -5.126,0 -5.147,0 c -1.626,0 -3.332,-0.135 -5.148,-0.403 -0.897,2.983 -2.13,6.571 -3.677,10.765 -1.55,4.207 -3.276,8.614 -5.138,13.19 -1.873,4.598 -3.791,9.241 -5.72,13.975 -1.941,4.709 -3.747,9.197 -5.428,13.468 -4.149,0.125 -8.343,0.226 -12.606,0.303 -4.261,0.045 -8.545,0.091 -12.806,0.091 -4.016,0 -7.941,-0.046 -11.823,-0.091 -3.881,-0.077 -7.828,-0.178 -11.832,-0.303 -4.149,-10.082 -7.884,-19.682 -11.249,-28.79 -3.364,-9.128 -5.899,-16.653 -7.569,-22.608 -2.211,0.268 -4.589,0.403 -7.167,0.403 -2.591,0 -4.979,-0.135 -7.178,-0.403 10.465,22.632 20.68,45.13 30.641,67.492 9.958,22.363 19.963,45.132 30.056,68.279 l 3.677,0 C 30.64,67.931 33.992,59.833 37.627,51.096 41.238,42.383 44.916,33.545 48.686,24.628 52.43,15.713 56.177,6.852 59.923,-1.94 c 3.744,-8.793 7.267,-16.98 10.575,-24.539 3.285,-7.56 6.27,-14.31 8.916,-20.265 2.649,-5.944 4.823,-10.465 6.505,-13.582"
             inkscape:connector-curvature="0" /></g><g
           transform="translate(2833.9004,656.3086)"
           id="g3817"><path
             id="path3819"
             style="fill:#ffffff;fill-opacity:1;fill-rule:nonzero;stroke:none"
             d="m 0,0 c 3.353,0 6.852,-0.08 10.474,-0.191 3.624,-0.133 7.111,-0.202 10.475,-0.202 3.621,0 7.245,0.023 10.868,0.09 3.61,0.067 7.245,0.181 10.855,0.303 L 21.151,49.258 0,0 Z m 85.919,-60.326 c -1.817,0.268 -3.521,0.403 -5.137,0.403 l -5.136,0 -5.147,0 c -1.604,0 -3.318,-0.135 -5.126,-0.403 -0.92,2.983 -2.153,6.571 -3.7,10.765 -1.547,4.207 -3.255,8.614 -5.138,13.19 -1.873,4.598 -3.791,9.241 -5.72,13.975 -1.928,4.709 -3.757,9.197 -5.429,13.468 -4.127,0.125 -8.343,0.226 -12.606,0.303 -4.271,0.045 -8.524,0.091 -12.796,0.091 -4.004,0 -7.95,-0.046 -11.833,-0.091 -3.88,-0.077 -7.826,-0.178 -11.83,-0.303 -4.138,-10.082 -7.886,-19.682 -11.25,-28.79 -3.365,-9.128 -5.876,-16.653 -7.558,-22.608 -2.198,0.268 -4.6,0.403 -7.178,0.403 -2.603,0 -4.979,-0.135 -7.178,-0.403 10.477,22.632 20.693,45.13 30.639,67.492 9.959,22.363 19.987,45.132 30.069,68.279 l 3.678,0 c 3.106,-7.514 6.473,-15.612 10.083,-24.349 3.633,-8.713 7.313,-17.551 11.06,-26.468 3.744,-8.915 7.491,-17.776 11.249,-26.568 3.756,-8.793 7.277,-16.98 10.564,-24.539 3.309,-7.56 6.27,-14.31 8.916,-20.265 2.669,-5.944 4.824,-10.465 6.504,-13.582"
             inkscape:connector-curvature="0" /></g><g
           transform="translate(2955.1025,719.1357)"
           id="g3821"><path
             id="path3823"
             style="fill:#ffffff;fill-opacity:1;fill-rule:nonzero;stroke:none"
             d="m 0,0 c -3.363,0 -6.887,-0.033 -10.564,-0.1 -3.678,-0.056 -7.358,-0.178 -11.035,-0.381 -3.702,-0.192 -7.247,-0.425 -10.678,-0.673 -3.432,-0.269 -6.505,-0.583 -9.22,-0.976 0.651,2.322 0.977,4.397 0.977,6.202 0,1.425 -0.326,3.432 -0.977,6.012 C -32.963,9.838 -24.628,9.602 -16.486,9.41 -8.332,9.208 0,9.12 8.547,9.12 c 8.523,0 16.867,0.088 25.01,0.29 8.141,0.192 16.487,0.428 25.01,0.674 -0.641,-2.58 -0.956,-4.644 -0.956,-6.203 0,-1.682 0.315,-3.689 0.956,-6.011 -2.716,0.393 -5.789,0.707 -9.198,0.976 -3.431,0.248 -6.984,0.481 -10.665,0.673 C 35.016,-0.278 31.337,-0.156 27.656,-0.1 23.956,-0.033 20.435,0 17.07,0 16.69,-13.312 16.497,-26.702 16.497,-40.138 l 0,-33.355 c 0,-8.545 0.171,-16.945 0.482,-25.211 0.327,-8.277 0.684,-16.42 1.08,-24.449 -2.996,0.268 -6.16,0.403 -9.512,0.403 -3.365,0 -6.526,-0.135 -9.512,-0.403 0.393,8.029 0.752,16.172 1.078,24.449 0.315,8.266 0.483,16.666 0.483,25.211 l 0,33.355 C 0.596,-26.702 0.393,-13.312 0,0"
             inkscape:connector-curvature="0" /></g><g
           transform="translate(3037.4443,614.1289)"
           id="g3825"><path
             id="path3827"
             style="fill:#ffffff;fill-opacity:1;fill-rule:nonzero;stroke:none"
             d="m 0,0 c 1.737,-2.401 3.881,-4.564 6.395,-6.506 2.509,-1.929 5.461,-3.521 8.828,-4.755 3.352,-1.222 7.109,-1.84 11.246,-1.84 4.26,0 8.099,0.741 11.542,2.234 3.418,1.491 6.336,3.486 8.712,6.02 2.401,2.514 4.239,5.496 5.541,8.918 1.289,3.42 1.938,7.076 1.938,10.956 0,5.945 -1.522,10.655 -4.562,14.154 -3.038,3.5 -6.818,6.392 -11.35,8.726 -4.519,2.332 -9.398,4.465 -14.636,6.404 -5.239,1.94 -10.115,4.364 -14.634,7.278 -4.532,2.905 -8.324,6.616 -11.353,11.148 -3.048,4.533 -4.554,10.587 -4.554,18.226 0,5.438 0.968,10.373 2.907,14.836 1.939,4.465 4.754,8.302 8.434,11.529 3.679,3.242 8.12,5.767 13.29,7.582 5.159,1.795 10.979,2.715 17.452,2.715 6.211,0 11.56,-0.762 16.08,-2.243 4.532,-1.482 8.749,-3.779 12.63,-6.887 -1.166,-2.197 -2.142,-4.52 -2.915,-6.974 -0.786,-2.468 -1.56,-5.564 -2.335,-9.31 l -2.332,0 c -0.639,1.817 -1.523,3.779 -2.603,5.922 -1.098,2.131 -2.6,4.095 -4.463,5.897 -1.881,1.82 -4.104,3.344 -6.694,4.577 -2.591,1.222 -5.688,1.84 -9.309,1.84 -3.624,0 -6.943,-0.583 -9.993,-1.749 -3.031,-1.167 -5.686,-2.804 -7.941,-4.946 -2.263,-2.142 -4.016,-4.699 -5.251,-7.659 -1.222,-2.975 -1.837,-6.214 -1.837,-9.692 0,-6.078 1.523,-10.879 4.553,-14.354 3.052,-3.5 6.831,-6.439 11.35,-8.838 4.531,-2.379 9.421,-4.521 14.647,-6.394 5.229,-1.873 10.117,-4.172 14.648,-6.885 4.529,-2.715 8.299,-6.201 11.328,-10.476 3.05,-4.261 4.575,-9.959 4.575,-17.069 0,-5.944 -1.075,-11.564 -3.205,-16.867 -2.135,-5.294 -5.251,-9.915 -9.311,-13.864 -4.061,-3.947 -9.049,-6.975 -14.928,-9.117 -5.888,-2.119 -12.573,-3.196 -20.074,-3.196 -8.019,0 -14.513,1.077 -19.484,3.196 -4.989,2.142 -9.148,4.564 -12.515,7.278 1.165,2.96 1.962,5.653 2.423,8.053 0.447,2.378 0.873,5.45 1.268,9.197 l 2.309,0 C -3.139,4.743 -1.749,2.388 0,0"
             inkscape:connector-curvature="0" /></g><path
           id="path3829"
           style="fill:#ffffff;fill-opacity:1;fill-rule:nonzero;stroke:none"
           d="m 3172.903,635.168 -48.271,0 0,12.023 48.271,0 0,-12.023 z"
           inkscape:connector-curvature="0" /><g
           transform="translate(3356.7451,708.6719)"
           id="g3831"><path
             id="path3833"
             style="fill:#ffffff;fill-opacity:1;fill-rule:nonzero;stroke:none"
             d="m 0,0 c -0.113,9.948 -0.428,16.803 -0.965,20.548 1.436,-0.246 2.781,-0.483 4.08,-0.674 1.283,-0.202 2.581,-0.29 3.882,-0.29 1.683,0 3.611,0.324 5.81,0.964 C 12.424,16.027 12.046,10.634 11.641,4.353 11.258,-1.906 10.943,-8.635 10.677,-15.813 10.43,-22.991 10.16,-30.358 9.914,-37.918 9.644,-45.488 9.441,-52.822 9.329,-59.934 9.196,-68.591 7.871,-76.353 5.361,-83.194 c -2.535,-6.864 -6.124,-12.684 -10.768,-17.463 -4.665,-4.788 -10.385,-8.399 -17.182,-10.867 -6.772,-2.444 -14.558,-3.678 -23.351,-3.678 -19.402,0 -33.51,4.396 -42.283,13.189 -8.792,8.792 -13.186,22.688 -13.186,41.698 0,6.08 0.155,11.463 0.494,16.194 0.314,4.711 0.471,9.534 0.471,14.447 0,10.856 -0.134,20.489 -0.406,28.89 -0.245,8.411 -0.516,15.522 -0.761,21.332 1.548,-0.246 3.23,-0.483 5.047,-0.674 1.794,-0.202 3.474,-0.29 5.045,-0.29 1.415,0 2.806,0.088 4.15,0.29 1.368,0.191 2.758,0.428 4.194,0.674 -0.266,-2.838 -0.536,-6.563 -0.783,-11.149 -0.27,-4.586 -0.517,-9.792 -0.764,-15.611 -0.29,-5.81 -0.471,-12.09 -0.604,-18.808 -0.112,-6.718 -0.18,-13.717 -0.18,-20.951 0,-4.384 0.068,-8.961 0.18,-13.671 0.133,-4.722 0.604,-9.309 1.368,-13.772 0.783,-4.464 2.04,-8.726 3.789,-12.785 1.73,-4.083 4.218,-7.638 7.449,-10.677 3.23,-3.039 7.312,-5.429 12.224,-7.178 4.91,-1.75 10.991,-2.614 18.235,-2.614 7.111,0 13.079,1.032 17.947,3.106 4.842,2.065 8.815,4.778 11.93,8.144 3.095,3.364 5.518,7.244 7.271,11.641 1.724,4.374 3.003,8.972 3.764,13.75 0.788,4.799 1.236,9.577 1.349,14.356 0.133,4.776 0.201,9.185 0.201,13.188 C 0.201,-24.123 0.133,-9.959 0,0"
             inkscape:connector-curvature="0" /></g><g
           transform="translate(3469.4365,646.3154)"
           id="g3835"><path
             id="path3837"
             style="fill:#ffffff;fill-opacity:1;fill-rule:nonzero;stroke:none"
             d="m 0,0 c -16.802,18.035 -33.625,35.979 -50.425,53.813 -0.136,-3.613 -0.249,-8.459 -0.382,-14.538 -0.134,-6.079 -0.202,-14.354 -0.202,-24.829 0,-2.714 0.023,-6.079 0.09,-10.082 0.068,-4.005 0.134,-8.21 0.202,-12.607 0.069,-4.397 0.156,-8.849 0.292,-13.38 0.134,-4.53 0.267,-8.726 0.404,-12.606 0.113,-3.881 0.247,-7.267 0.379,-10.184 0.134,-2.914 0.247,-4.878 0.385,-5.92 -2.066,0.269 -4.331,0.403 -6.798,0.403 -2.582,0 -4.978,-0.134 -7.177,-0.403 0.267,1.301 0.559,3.7 0.896,7.177 0.314,3.5 0.584,7.671 0.851,12.516 0.25,4.846 0.563,10.116 0.878,15.814 0.314,5.676 0.581,11.373 0.784,17.058 0.202,5.687 0.356,11.249 0.469,16.677 0.137,5.429 0.202,10.274 0.202,14.546 0,12.415 -0.043,23.07 -0.088,31.998 -0.067,8.927 -0.227,15.589 -0.494,19.985 l 3.095,0 c 7.899,-8.545 16.329,-17.687 25.325,-27.456 8.972,-9.755 17.899,-19.39 26.76,-28.889 C 4.305,19.582 12.718,10.61 20.659,2.132 28.6,-6.326 35.549,-13.548 41.493,-19.492 l 0,26.38 c 0,13.568 -0.09,26.792 -0.266,39.656 -0.203,12.863 -0.629,24.987 -1.28,36.36 2.579,-0.639 4.779,-0.964 6.595,-0.964 1.55,0 3.634,0.325 6.214,0.964 C 52.485,80.066 52.192,75.794 51.88,70.107 51.543,64.421 51.229,58.343 50.916,51.882 50.579,45.41 50.286,39.074 50.041,32.873 49.771,26.671 49.659,21.69 49.659,17.945 l 0,-11.642 c 0,-4.397 0.026,-8.994 0.089,-13.772 0.068,-4.777 0.111,-9.599 0.181,-14.445 0.068,-4.845 0.134,-9.376 0.202,-13.571 0.066,-4.204 0.091,-7.851 0.091,-10.969 l 0,-6.392 -2.716,0 C 32.657,-35.653 16.799,-18.033 0,0"
             inkscape:connector-curvature="0" /></g><g
           transform="translate(3576.6748,604.5273)"
           id="g3839"><path
             id="path3841"
             style="fill:#ffffff;fill-opacity:1;fill-rule:nonzero;stroke:none"
             d="m 0,0 c 2.713,-0.649 6.393,-1.144 11.059,-1.458 4.642,-0.324 9.442,-0.481 14.356,-0.481 7.111,0 14.221,0.84 21.332,2.522 7.108,1.672 13.479,4.846 19.108,9.489 5.609,4.665 10.209,11.035 13.751,19.111 3.566,8.075 5.339,18.528 5.339,31.311 0,11.261 -1.392,20.502 -4.172,27.747 -2.759,7.235 -6.595,12.954 -11.44,17.159 -4.843,4.196 -10.63,7.112 -17.362,8.727 -6.706,1.614 -14.087,2.424 -22.114,2.424 -5.788,0 -11.238,-0.203 -16.264,-0.584 C 8.548,115.585 4.017,115.137 0,114.608 -0.382,108.406 -0.674,101.902 -0.872,95.128 -1.054,88.332 -1.165,81.445 -1.165,74.471 l 0,-33.356 C -1.165,27.141 -0.762,13.437 0,0 m -17.541,99.58 c -0.335,8.209 -0.694,16.588 -1.076,25.112 4.91,-0.246 9.804,-0.482 14.646,-0.673 4.846,-0.203 9.713,-0.29 14.651,-0.29 4.91,0 9.777,0.155 14.624,0.481 4.868,0.324 9.735,0.482 14.646,0.482 11.392,0 21.107,-1.481 29.206,-4.464 8.073,-2.96 14.689,-7.2 19.871,-12.697 5.182,-5.493 8.952,-12.213 11.328,-20.164 2.401,-7.964 3.612,-16.913 3.612,-26.873 0,-12.918 -2.243,-23.807 -6.707,-32.669 C 92.797,18.965 87.121,11.821 80.213,6.394 73.279,0.965 65.656,-2.882 57.313,-5.147 48.967,-7.402 40.981,-8.545 33.357,-8.545 c -4.398,0 -8.728,0.066 -12.991,0.201 -4.259,0.135 -8.59,0.202 -12.987,0.202 l -12.985,0 c -4.287,0 -8.613,-0.134 -13.011,-0.403 0.382,8.029 0.741,16.172 1.076,24.449 0.314,8.266 0.473,16.666 0.473,25.211 l 0,33.356 c 0,8.535 -0.159,16.89 -0.473,25.109"
             inkscape:connector-curvature="0" /></g><g
           transform="translate(479.3154,471.0332)"
           id="g3843"><path
             id="path3845"
             style="fill:#ffffff;fill-opacity:1;fill-rule:nonzero;stroke:none"
             d="m 0,0 c -0.122,9.947 -0.448,16.811 -0.975,20.557 1.425,-0.269 2.793,-0.494 4.082,-0.684 1.29,-0.19 2.591,-0.281 3.88,-0.281 1.683,0 3.624,0.314 5.821,0.965 C 12.428,16.026 12.023,10.631 11.642,4.361 11.261,-1.918 10.924,-8.625 10.667,-15.804 10.409,-22.981 10.151,-30.361 9.893,-37.92 9.624,-45.479 9.445,-52.825 9.31,-59.924 9.187,-68.594 7.851,-76.355 5.339,-83.207 c -2.511,-6.841 -6.111,-12.674 -10.766,-17.452 -4.655,-4.778 -10.375,-8.4 -17.16,-10.855 -6.796,-2.467 -14.58,-3.69 -23.372,-3.69 -19.391,0 -33.488,4.396 -42.281,13.201 -8.794,8.771 -13.19,22.677 -13.19,41.687 0,6.078 0.158,11.473 0.493,16.195 0.315,4.721 0.482,9.532 0.482,14.445 0,10.856 -0.122,20.489 -0.391,28.902 -0.248,8.388 -0.517,15.51 -0.775,21.331 1.558,-0.269 3.241,-0.494 5.047,-0.684 1.805,-0.19 3.488,-0.281 5.035,-0.281 1.414,0 2.805,0.091 4.173,0.281 1.346,0.19 2.748,0.415 4.173,0.684 -0.259,-2.85 -0.517,-6.573 -0.786,-11.148 -0.248,-4.598 -0.517,-9.803 -0.762,-15.612 -0.269,-5.832 -0.471,-12.089 -0.596,-18.818 -0.123,-6.731 -0.189,-13.706 -0.189,-20.951 0,-4.397 0.066,-8.95 0.189,-13.661 0.125,-4.732 0.596,-9.307 1.358,-13.771 0.786,-4.464 2.041,-8.727 3.791,-12.807 1.75,-4.062 4.24,-7.628 7.47,-10.655 3.23,-3.053 7.288,-5.442 12.213,-7.178 4.912,-1.751 10.991,-2.625 18.234,-2.625 7.1,0 13.089,1.03 17.935,3.106 4.844,2.051 8.815,4.779 11.933,8.132 3.096,3.365 5.517,7.244 7.266,11.641 1.75,4.396 3.006,8.996 3.769,13.771 0.785,4.781 1.246,9.579 1.368,14.357 0.136,4.777 0.192,9.174 0.192,13.188 C 0.192,-24.125 0.136,-9.96 0,0"
             inkscape:connector-curvature="0" /></g><g
           transform="translate(591.9844,408.6875)"
           id="g3847"><path
             id="path3849"
             style="fill:#ffffff;fill-opacity:1;fill-rule:nonzero;stroke:none"
             d="m 0,0 c -16.8,18.032 -33.6,35.967 -50.424,53.811 -0.123,-3.623 -0.246,-8.479 -0.381,-14.537 -0.133,-6.078 -0.179,-14.354 -0.179,-24.831 0,-2.713 0.022,-6.078 0.078,-10.091 0.079,-4.005 0.123,-8.211 0.202,-12.607 0.056,-4.396 0.157,-8.849 0.28,-13.368 0.135,-4.531 0.27,-8.737 0.404,-12.618 0.124,-3.871 0.248,-7.28 0.381,-10.184 0.137,-2.905 0.258,-4.879 0.381,-5.909 -2.063,0.258 -4.327,0.381 -6.774,0.381 -2.589,0 -4.99,-0.123 -7.187,-0.381 0.258,1.3 0.548,3.678 0.873,7.177 0.325,3.5 0.618,7.66 0.887,12.517 0.247,4.844 0.538,10.116 0.853,15.79 0.335,5.698 0.593,11.372 0.784,17.07 0.202,5.698 0.36,11.259 0.482,16.678 0.124,5.438 0.203,10.284 0.203,14.545 0,12.405 -0.046,23.081 -0.102,32.009 -0.067,8.905 -0.223,15.567 -0.492,19.963 l 3.105,0 c 7.884,-8.524 16.319,-17.675 25.314,-27.433 8.995,-9.769 17.91,-19.402 26.759,-28.89 8.86,-9.511 17.261,-18.506 25.212,-26.962 7.962,-8.478 14.894,-15.679 20.849,-21.623 l 0,26.38 c 0,13.569 -0.09,26.781 -0.281,39.655 -0.201,12.854 -0.628,24.978 -1.278,36.36 2.591,-0.65 4.79,-0.964 6.595,-0.964 1.559,0 3.633,0.314 6.213,0.964 C 52.499,80.053 52.219,75.791 51.882,70.096 51.569,64.397 51.231,58.341 50.917,51.87 50.582,45.398 50.302,39.073 50.043,32.859 49.785,26.657 49.663,21.679 49.663,17.921 l 0,-11.618 c 0,-4.398 0.021,-8.995 0.088,-13.773 0.069,-4.801 0.135,-9.6 0.191,-14.457 0.078,-4.844 0.123,-9.366 0.203,-13.57 0.056,-4.206 0.101,-7.861 0.101,-10.958 l 0,-6.403 -2.716,0 C 32.66,-35.666 16.824,-18.047 0,0"
             inkscape:connector-curvature="0" /></g><g
           transform="translate(681.6846,466.4678)"
           id="g3851"><path
             id="path3853"
             style="fill:#ffffff;fill-opacity:1;fill-rule:nonzero;stroke:none"
             d="m 0,0 c -0.314,8.21 -0.672,16.577 -1.055,25.122 1.683,-0.268 3.286,-0.494 4.835,-0.684 1.558,-0.19 3.106,-0.281 4.654,-0.281 1.548,0 3.106,0.091 4.666,0.281 1.547,0.19 3.162,0.416 4.845,0.684 C 17.563,16.577 17.204,8.21 16.868,0 16.554,-8.209 16.396,-16.576 16.396,-25.11 l 0,-33.366 c 0,-8.524 0.158,-16.936 0.472,-25.212 0.336,-8.278 0.695,-16.409 1.077,-24.426 -2.962,0.258 -6.147,0.381 -9.511,0.381 -3.365,0 -6.528,-0.123 -9.489,-0.381 0.383,8.017 0.741,16.148 1.055,24.426 0.337,8.276 0.494,16.688 0.494,25.212 l 0,33.366 C 0.494,-16.576 0.337,-8.209 0,0"
             inkscape:connector-curvature="0" /></g><g
           transform="translate(764.5981,385.8984)"
           id="g3855"><path
             id="path3857"
             style="fill:#ffffff;fill-opacity:1;fill-rule:nonzero;stroke:none"
             d="m 0,0 c -4.272,10.72 -8.826,22.035 -13.671,33.936 -4.845,11.887 -9.824,24.045 -14.939,36.449 -5.102,12.428 -9.981,24.181 -14.646,35.306 1.816,-0.268 3.566,-0.494 5.248,-0.683 1.683,-0.191 3.298,-0.281 4.844,-0.281 1.549,0 3.164,0.09 4.857,0.281 1.672,0.189 3.422,0.415 5.238,0.683 2.839,-8.545 5.967,-17.495 9.398,-26.871 3.432,-9.365 7.043,-18.897 10.857,-28.6 3.825,-9.689 7.737,-19.513 11.731,-29.472 4.016,-9.959 8.086,-19.853 12.225,-29.677 2.333,5.293 4.844,11.216 7.559,17.742 2.713,6.529 5.45,13.326 8.243,20.367 2.77,7.044 5.529,14.221 8.243,21.535 2.726,7.289 5.339,14.31 7.852,21.04 2.533,6.718 4.821,12.986 6.885,18.818 2.064,5.809 3.814,10.858 5.249,15.118 2.848,-0.65 5.225,-0.964 7.166,-0.964 1.941,0 4.319,0.314 7.166,0.964 C 69.434,83.192 59.744,60.898 50.425,38.781 41.117,16.664 32.188,-5.44 23.676,-27.545 c -2.075,0.258 -4.216,0.381 -6.415,0.381 -2.592,0 -4.711,-0.123 -6.392,-0.381 C 7.885,-19.919 4.274,-10.746 0,0"
             inkscape:connector-curvature="0" /></g><g
           transform="translate(866.8931,466.7588)"
           id="g3859"><path
             id="path3861"
             style="fill:#ffffff;fill-opacity:1;fill-rule:nonzero;stroke:none"
             d="m 0,0 c -0.326,8.277 -0.672,16.554 -1.053,24.831 5.809,-0.268 11.595,-0.494 17.36,-0.684 5.743,-0.19 11.53,-0.281 17.351,-0.281 5.821,0 11.562,0.091 17.261,0.281 5.685,0.19 11.439,0.416 17.247,0.684 -0.381,-1.95 -0.583,-3.881 -0.583,-5.82 0,-1.941 0.202,-3.881 0.583,-5.822 -4.127,0.259 -7.917,0.517 -11.349,0.774 -3.409,0.259 -7.044,0.528 -10.846,0.774 -3.824,0.27 -7.996,0.494 -12.515,0.684 -4.52,0.191 -9.96,0.281 -16.297,0.281 C 17.025,11.574 16.868,7.628 16.688,3.881 16.487,0.136 16.387,-4.127 16.387,-8.927 c 0,-5.034 0.045,-9.946 0.1,-14.737 0.067,-4.777 0.101,-8.389 0.101,-10.856 5.686,0 10.789,0.068 15.309,0.203 4.53,0.122 8.68,0.292 12.426,0.482 3.746,0.189 7.2,0.392 10.375,0.583 3.15,0.189 6.179,0.414 9.027,0.673 -0.392,-1.941 -0.594,-3.937 -0.594,-6.014 0,-1.938 0.202,-3.869 0.594,-5.818 -3.388,0.404 -7.289,0.719 -11.753,0.975 -4.441,0.258 -8.916,0.415 -13.369,0.484 -4.463,0.064 -8.668,0.134 -12.606,0.2 -3.947,0.057 -7.089,0.091 -9.409,0.091 0,-1.167 -0.034,-2.423 -0.101,-3.793 -0.055,-1.345 -0.1,-3.072 -0.1,-5.136 l 0,-7.558 0,-11.63 c 0,-7.369 0.045,-13.448 0.1,-18.236 0.067,-4.79 0.158,-8.402 0.291,-10.857 l 13.57,0 c 4.913,0 9.735,0.101 14.468,0.279 4.711,0.202 9.152,0.46 13.37,0.786 4.193,0.315 7.861,0.807 10.944,1.457 -0.245,-0.919 -0.402,-1.906 -0.469,-3.005 -0.069,-1.098 -0.101,-2.108 -0.101,-3.005 0,-2.076 0.19,-3.746 0.57,-5.046 -5.797,0.258 -11.594,0.381 -17.338,0.381 l -17.562,0 -17.642,0 c -5.821,0 -11.697,-0.123 -17.641,-0.381 0.381,8.275 0.727,16.509 1.053,24.729 0.314,8.198 0.494,16.574 0.494,25.11 l 0,33.354 C 0.494,-16.665 0.314,-8.276 0,0"
             inkscape:connector-curvature="0" /></g><g
           transform="translate(987.1426,429.5244)"
           id="g3863"><path
             id="path3865"
             style="fill:#ffffff;fill-opacity:1;fill-rule:nonzero;stroke:none"
             d="m 0,0 c 2.133,-0.135 4.487,-0.201 7.067,-0.201 4.016,0 8.186,0.46 12.516,1.368 4.329,0.897 8.311,2.49 11.933,4.756 3.61,2.253 6.617,5.293 9.017,9.105 2.389,3.815 3.588,8.636 3.588,14.446 0,5.047 -0.942,9.219 -2.803,12.517 -1.883,3.297 -4.318,5.909 -7.289,7.85 -2.985,1.939 -6.192,3.274 -9.69,3.981 -3.489,0.707 -6.921,1.066 -10.285,1.066 -4.521,0 -8.278,-0.09 -11.237,-0.29 C -0.179,54.405 -2.69,54.171 -4.754,53.923 -5.022,46.801 -5.271,39.77 -5.539,32.771 -5.787,25.796 -5.92,18.82 -5.92,11.833 l 0,-11.059 C -4.104,0.382 -2.141,0.135 0,0 m -22.294,36.943 c -0.338,8.21 -0.685,16.578 -1.079,25.122 3.748,-0.268 7.438,-0.494 11.06,-0.683 3.61,-0.191 7.291,-0.281 11.045,-0.281 3.758,0 7.438,0.157 11.048,0.47 3.635,0.326 7.313,0.494 11.07,0.494 5.44,0 10.598,-0.515 15.511,-1.547 4.911,-1.043 9.208,-2.758 12.897,-5.137 3.68,-2.399 6.596,-5.54 8.725,-9.419 2.131,-3.87 3.208,-8.728 3.208,-14.535 C 61.191,25.211 59.79,19.874 57.02,15.41 54.238,10.958 50.839,7.278 46.835,4.374 42.821,1.458 38.526,-0.808 33.938,-2.421 29.339,-4.036 25.167,-5.114 21.422,-5.619 c 1.548,-1.942 3.702,-4.653 6.415,-8.152 2.714,-3.476 5.742,-7.335 9.107,-11.53 3.364,-4.206 6.853,-8.603 10.474,-13.19 3.613,-4.597 7.101,-8.993 10.476,-13.189 3.342,-4.205 6.527,-8.051 9.5,-11.539 2.972,-3.489 5.361,-6.135 7.166,-7.952 -1.93,0.258 -3.879,0.381 -5.81,0.381 l -5.831,0 -5.608,0 c -1.953,0 -3.814,-0.123 -5.63,-0.381 -1.928,2.713 -4.878,6.795 -8.815,12.222 -3.948,5.429 -8.323,11.239 -13.1,17.454 -4.778,6.212 -9.666,12.381 -14.636,18.526 -4.99,6.125 -9.544,11.339 -13.671,15.612 l -7.379,0 0,-14.175 c 0,-8.525 0.157,-16.937 0.492,-25.213 0.315,-8.277 0.674,-16.408 1.055,-24.426 -2.972,0.258 -6.124,0.381 -9.487,0.381 -3.366,0 -6.551,-0.123 -9.513,-0.381 0.394,8.018 0.741,16.149 1.079,24.426 0.313,8.276 0.482,16.688 0.482,25.213 l 0,33.365 c 0,8.534 -0.169,16.901 -0.482,25.11"
             inkscape:connector-curvature="0" /></g><g
           transform="translate(1084.6836,376.4873)"
           id="g3867"><path
             id="path3869"
             style="fill:#ffffff;fill-opacity:1;fill-rule:nonzero;stroke:none"
             d="m 0,0 c 1.76,-2.389 3.879,-4.563 6.402,-6.492 2.513,-1.942 5.475,-3.533 8.827,-4.757 3.366,-1.234 7.1,-1.839 11.249,-1.839 4.262,0 8.109,0.741 11.553,2.221 3.408,1.49 6.314,3.499 8.713,6.011 2.389,2.536 4.229,5.496 5.529,8.927 1.28,3.42 1.93,7.077 1.93,10.959 0,5.943 -1.504,10.664 -4.554,14.153 -3.028,3.489 -6.819,6.404 -11.338,8.737 -4.521,2.319 -9.411,4.464 -14.636,6.392 -5.25,1.953 -10.116,4.362 -14.648,7.268 -4.53,2.915 -8.311,6.639 -11.349,11.159 -3.04,4.52 -4.553,10.598 -4.553,18.224 0,5.43 0.964,10.375 2.916,14.839 1.928,4.463 4.731,8.31 8.433,11.54 3.679,3.23 8.097,5.753 13.279,7.559 5.159,1.817 10.99,2.714 17.451,2.714 6.213,0 11.574,-0.74 16.094,-2.22 4.53,-1.503 8.725,-3.791 12.606,-6.887 -1.167,-2.198 -2.131,-4.53 -2.905,-6.987 -0.774,-2.457 -1.548,-5.551 -2.332,-9.296 l -2.323,0 c -0.65,1.793 -1.526,3.768 -2.612,5.899 -1.111,2.141 -2.591,4.104 -4.476,5.92 -1.873,1.817 -4.093,3.32 -6.673,4.554 -2.589,1.234 -5.697,1.84 -9.319,1.84 -3.623,0 -6.954,-0.583 -9.993,-1.74 -3.039,-1.166 -5.674,-2.814 -7.951,-4.945 -2.256,-2.13 -4.005,-4.689 -5.238,-7.649 -1.233,-2.983 -1.84,-6.212 -1.84,-9.711 0,-6.08 1.526,-10.858 4.553,-14.346 3.041,-3.487 6.841,-6.438 11.362,-8.825 4.509,-2.402 9.398,-4.533 14.636,-6.394 5.238,-1.885 10.105,-4.172 14.646,-6.886 4.509,-2.714 8.3,-6.213 11.338,-10.476 3.041,-4.262 4.554,-9.958 4.554,-17.069 0,-5.945 -1.065,-11.575 -3.196,-16.868 -2.13,-5.315 -5.237,-9.925 -9.309,-13.872 -4.082,-3.937 -9.051,-6.989 -14.938,-9.119 -5.877,-2.131 -12.573,-3.196 -20.053,-3.196 -8.031,0 -14.535,1.065 -19.515,3.196 -4.956,2.13 -9.129,4.566 -12.493,7.28 1.167,2.971 1.974,5.663 2.411,8.04 0.46,2.401 0.887,5.474 1.268,9.22 l 2.332,0 C -3.129,4.744 -1.738,2.39 0,0"
             inkscape:connector-curvature="0" /></g><g
           transform="translate(1182.2437,466.4678)"
           id="g3871"><path
             id="path3873"
             style="fill:#ffffff;fill-opacity:1;fill-rule:nonzero;stroke:none"
             d="m 0,0 c -0.335,8.21 -0.671,16.577 -1.077,25.122 1.683,-0.268 3.298,-0.494 4.845,-0.684 1.56,-0.19 3.107,-0.281 4.666,-0.281 1.548,0 3.096,0.091 4.654,0.281 1.549,0.19 3.153,0.416 4.835,0.684 C 17.541,16.577 17.194,8.21 16.869,0 16.555,-8.209 16.375,-16.576 16.375,-25.11 l 0,-33.366 c 0,-8.524 0.18,-16.936 0.494,-25.212 0.325,-8.278 0.672,-16.409 1.054,-24.426 -2.961,0.258 -6.124,0.381 -9.489,0.381 -3.364,0 -6.527,-0.123 -9.511,-0.381 0.406,8.017 0.742,16.148 1.077,24.426 0.314,8.276 0.482,16.688 0.482,25.212 l 0,33.366 C 0.482,-16.576 0.314,-8.209 0,0"
             inkscape:connector-curvature="0" /></g><g
           transform="translate(1263.9805,481.4961)"
           id="g3875"><path
             id="path3877"
             style="fill:#ffffff;fill-opacity:1;fill-rule:nonzero;stroke:none"
             d="m 0,0 c -3.352,0 -6.875,-0.021 -10.563,-0.09 -3.68,-0.066 -7.381,-0.202 -11.06,-0.381 -3.69,-0.202 -7.245,-0.425 -10.653,-0.695 -3.433,-0.247 -6.516,-0.583 -9.22,-0.965 0.628,2.332 0.965,4.397 0.965,6.213 0,1.414 -0.337,3.421 -0.965,6.012 C -32.971,9.825 -24.628,9.6 -16.475,9.41 -8.343,9.22 0,9.129 8.546,9.129 c 8.523,0 16.868,0.091 25.012,0.281 8.141,0.19 16.485,0.415 25.02,0.684 -0.639,-2.591 -0.976,-4.665 -0.976,-6.213 0,-1.682 0.337,-3.68 0.976,-6.012 -2.713,0.382 -5.799,0.718 -9.208,0.965 -3.432,0.27 -6.987,0.493 -10.676,0.695 -3.679,0.179 -7.381,0.315 -11.058,0.381 C 23.956,-0.021 20.424,0 17.069,0 16.678,-13.301 16.486,-26.691 16.486,-40.139 l 0,-33.365 c 0,-8.524 0.158,-16.936 0.495,-25.213 0.314,-8.277 0.671,-16.408 1.055,-24.426 -2.961,0.258 -6.147,0.381 -9.49,0.381 -3.364,0 -6.548,-0.123 -9.51,-0.381 0.381,8.018 0.741,16.149 1.077,24.426 0.314,8.277 0.47,16.689 0.47,25.213 l 0,33.365 C 0.583,-26.691 0.393,-13.301 0,0"
             inkscape:connector-curvature="0" /></g><g
           transform="translate(1404.2051,522.6104)"
           id="g3879"><path
             id="path3881"
             style="fill:#ffffff;fill-opacity:1;fill-rule:nonzero;stroke:none"
             d="m 0,0 c 1.941,1.953 4.274,2.918 6.987,2.918 2.692,0 5.026,-0.965 6.967,-2.918 1.939,-1.928 2.926,-4.261 2.926,-6.975 0,-2.713 -0.987,-5.046 -2.926,-6.975 -1.941,-1.952 -4.275,-2.917 -6.967,-2.917 -2.713,0 -5.046,0.965 -6.987,2.917 -1.939,1.929 -2.916,4.262 -2.916,6.975 0,2.714 0.977,5.047 2.916,6.975 m -36.662,-103.942 c 3.365,0 6.864,-0.068 10.474,-0.203 3.612,-0.124 7.111,-0.178 10.477,-0.178 3.61,0 7.232,0.022 10.855,0.09 3.623,0.067 7.245,0.157 10.856,0.291 l -21.511,49.257 -21.151,-49.257 z M -38.209,0 c 1.938,1.953 4.273,2.918 6.986,2.918 2.714,0 5.035,-0.965 6.988,-2.918 1.928,-1.928 2.892,-4.261 2.892,-6.975 0,-2.713 -0.964,-5.046 -2.892,-6.975 -1.953,-1.952 -4.274,-2.917 -6.988,-2.917 -2.713,0 -5.048,0.965 -6.986,2.917 -1.931,1.929 -2.917,4.262 -2.917,6.975 0,2.714 0.986,5.047 2.917,6.975 M 0.965,-52.845 c 3.623,-8.726 7.301,-17.552 11.048,-26.468 3.746,-8.928 7.503,-17.787 11.258,-26.571 3.747,-8.793 7.269,-16.966 10.566,-24.526 3.297,-7.56 6.269,-14.334 8.927,-20.277 2.647,-5.944 4.822,-10.475 6.494,-13.57 -1.806,0.258 -3.533,0.381 -5.148,0.381 l -5.137,0 -5.136,0 c -1.616,0 -3.331,-0.123 -5.136,-0.381 -0.909,2.971 -2.131,6.56 -3.68,10.766 -1.547,4.194 -3.273,8.59 -5.148,13.188 -1.872,4.577 -3.778,9.241 -5.72,13.954 -1.939,4.73 -3.757,9.218 -5.427,13.48 -4.138,0.134 -8.332,0.223 -12.606,0.293 -4.273,0.065 -8.534,0.098 -12.797,0.098 -4.014,0 -7.951,-0.033 -11.832,-0.098 -3.88,-0.07 -7.828,-0.159 -11.831,-0.293 -4.151,-10.084 -7.885,-19.684 -11.238,-28.801 -3.365,-9.107 -5.9,-16.643 -7.583,-22.587 -2.197,0.258 -4.575,0.381 -7.166,0.381 -2.59,0 -4.989,-0.123 -7.166,-0.381 10.452,22.632 20.67,45.118 30.629,67.493 9.959,22.364 19.974,45.108 30.068,68.256 l 3.678,0 C -6.023,-36 -2.658,-44.12 0.965,-52.845"
             inkscape:connector-curvature="0" /></g><g
           transform="translate(1503.1123,481.4961)"
           id="g3883"><path
             id="path3885"
             style="fill:#ffffff;fill-opacity:1;fill-rule:nonzero;stroke:none"
             d="m 0,0 c -3.363,0 -6.885,-0.021 -10.575,-0.09 -3.679,-0.066 -7.369,-0.202 -11.047,-0.381 -3.679,-0.202 -7.246,-0.425 -10.666,-0.695 -3.432,-0.247 -6.515,-0.583 -9.232,-0.965 0.652,2.332 0.989,4.397 0.989,6.213 0,1.414 -0.337,3.421 -0.989,6.012 C -32.961,9.825 -24.628,9.6 -16.486,9.41 -8.333,9.22 0,9.129 8.535,9.129 c 8.535,0 16.868,0.091 25.023,0.281 8.141,0.19 16.485,0.415 25.009,0.684 -0.651,-2.591 -0.964,-4.665 -0.964,-6.213 0,-1.682 0.313,-3.68 0.964,-6.012 -2.714,0.382 -5.788,0.718 -9.208,0.965 -3.431,0.27 -6.987,0.493 -10.677,0.695 -3.678,0.179 -7.357,0.315 -11.046,0.381 C 23.956,-0.021 20.412,0 17.07,0 16.689,-13.301 16.487,-26.691 16.487,-40.139 l 0,-33.365 c 0,-8.524 0.157,-16.936 0.483,-25.213 0.325,-8.277 0.682,-16.408 1.065,-24.426 -2.983,0.258 -6.135,0.381 -9.5,0.381 -3.364,0 -6.537,-0.123 -9.509,-0.381 0.391,8.018 0.75,16.149 1.076,24.426 0.314,8.277 0.471,16.689 0.471,25.213 l 0,33.365 C 0.573,-26.691 0.382,-13.301 0,0"
             inkscape:connector-curvature="0" /></g><g
           transform="translate(1585.4326,376.4873)"
           id="g3887"><path
             id="path3889"
             style="fill:#ffffff;fill-opacity:1;fill-rule:nonzero;stroke:none"
             d="m 0,0 c 1.75,-2.389 3.88,-4.563 6.394,-6.492 2.511,-1.942 5.472,-3.533 8.825,-4.757 3.365,-1.234 7.122,-1.839 11.25,-1.839 4.272,0 8.108,0.741 11.541,2.221 3.42,1.49 6.335,3.499 8.724,6.011 2.402,2.536 4.239,5.496 5.531,8.927 1.298,3.42 1.939,7.077 1.939,10.959 0,5.943 -1.514,10.664 -4.554,14.153 -3.039,3.489 -6.83,6.404 -11.35,8.737 -4.529,2.319 -9.398,4.464 -14.646,6.392 -5.226,1.953 -10.116,4.362 -14.637,7.268 -4.531,2.915 -8.311,6.639 -11.35,11.159 -3.038,4.52 -4.553,10.598 -4.553,18.224 0,5.43 0.964,10.375 2.916,14.839 1.929,4.463 4.755,8.31 8.434,11.54 3.68,3.23 8.121,5.753 13.279,7.559 5.159,1.817 10.992,2.714 17.451,2.714 6.213,0 11.575,-0.74 16.093,-2.22 4.521,-1.503 8.737,-3.791 12.617,-6.887 -1.166,-2.198 -2.141,-4.53 -2.916,-6.987 -0.773,-2.457 -1.548,-5.551 -2.332,-9.296 l -2.321,0 c -0.651,1.793 -1.525,3.768 -2.614,5.899 -1.099,2.141 -2.591,4.104 -4.463,5.92 -1.885,1.817 -4.106,3.32 -6.684,4.554 -2.591,1.234 -5.699,1.84 -9.32,1.84 -3.624,0 -6.941,-0.583 -9.993,-1.74 -3.029,-1.166 -5.676,-2.814 -7.941,-4.945 -2.264,-2.13 -4.014,-4.689 -5.249,-7.649 -1.211,-2.983 -1.838,-6.212 -1.838,-9.711 0,-6.08 1.524,-10.858 4.553,-14.346 3.05,-3.487 6.829,-6.438 11.361,-8.825 4.519,-2.402 9.411,-4.533 14.635,-6.394 5.239,-1.885 10.117,-4.172 14.648,-6.886 4.53,-2.714 8.299,-6.213 11.339,-10.476 3.039,-4.262 4.564,-9.958 4.564,-17.069 0,-5.945 -1.076,-11.575 -3.208,-16.868 -2.13,-5.315 -5.238,-9.925 -9.308,-13.872 -4.059,-3.937 -9.051,-6.989 -14.927,-9.119 -5.888,-2.131 -12.572,-3.196 -20.077,-3.196 -8.017,0 -14.511,1.065 -19.48,3.196 -4.979,2.13 -9.152,4.566 -12.515,7.28 1.165,2.971 1.973,5.663 2.422,8.04 0.447,2.401 0.874,5.474 1.268,9.22 l 2.32,0 C -3.14,4.744 -1.749,2.39 0,0"
             inkscape:connector-curvature="0" /></g><g
           transform="translate(1699.7607,385.5059)"
           id="g3891"><path
             id="path3893"
             style="fill:#ffffff;fill-opacity:1;fill-rule:nonzero;stroke:none"
             d="m 0,0 c 0.258,-6.473 0.517,-12.999 0.774,-19.595 2.456,-0.258 5.362,-0.482 8.727,-0.673 3.353,-0.201 6.795,-0.292 10.284,-0.292 4.149,0 8.108,0.707 11.933,2.132 3.802,1.413 7.133,3.522 9.981,6.304 2.849,2.78 5.104,6.212 6.784,10.283 1.683,4.071 2.524,8.693 2.524,13.875 0,5.539 -0.998,10.092 -3.006,13.66 -1.995,3.556 -4.878,6.336 -8.635,8.344 -3.745,1.994 -8.242,3.387 -13.47,4.171 -5.248,0.773 -11.091,1.155 -17.562,1.155 l -8.714,0 0,-19.772 C -0.38,12.984 -0.258,6.47 0,0 m 23.564,47.9 c 4.453,0.897 8.444,2.421 11.921,4.553 3.5,2.13 6.315,4.979 8.447,8.535 2.12,3.555 3.196,8.041 3.196,13.481 0,5.303 -0.965,9.532 -2.917,12.706 -1.929,3.163 -4.397,5.63 -7.367,7.369 -2.973,1.739 -6.338,2.905 -10.072,3.488 -3.756,0.584 -7.503,0.874 -11.25,0.874 -3.364,0 -6.212,-0.09 -8.545,-0.29 C 4.655,98.424 2.581,98.189 0.774,97.941 0.517,91.729 0.258,85.583 0,79.504 -0.258,73.427 -0.38,67.292 -0.38,61.089 l 0,-14.547 10.475,0 c 4.518,0 9.006,0.459 13.469,1.358 m -40.33,33.353 c -0.325,8.277 -0.695,16.554 -1.088,24.831 3.366,-0.269 6.797,-0.494 10.296,-0.684 3.499,-0.19 6.908,-0.281 10.272,-0.281 3.365,0 6.787,0.157 10.274,0.471 3.498,0.326 6.93,0.494 10.296,0.494 5.539,0 10.788,-0.426 15.701,-1.257 4.912,-0.851 9.243,-2.332 12.987,-4.462 3.746,-2.132 6.729,-5.025 8.928,-8.636 2.197,-3.612 3.297,-8.144 3.297,-13.571 C 64.197,68.58 61.191,61.089 55.18,55.66 49.157,50.232 41.317,46.419 31.617,44.221 l 0,-0.404 c 11.506,-0.515 20.591,-3.297 27.241,-8.322 6.662,-5.048 9.983,-13.132 9.983,-24.248 0,-7.244 -1.481,-13.323 -4.442,-18.235 -2.983,-4.911 -6.864,-8.884 -11.642,-11.933 -4.788,-3.028 -10.071,-5.158 -15.812,-6.394 -5.743,-1.233 -11.464,-1.837 -17.16,-1.837 -3.097,0 -6.236,0.066 -9.41,0.202 -3.163,0.122 -6.293,0.179 -9.397,0.179 l -9.411,0 c -3.185,0 -6.303,-0.124 -9.421,-0.381 0.393,8.275 0.763,16.508 1.088,24.729 0.314,8.198 0.472,16.574 0.472,25.11 l 0,33.354 c 0,8.547 -0.158,16.936 -0.472,25.212"
             inkscape:connector-curvature="0" /></g><g
           transform="translate(1802.4492,466.4678)"
           id="g3895"><path
             id="path3897"
             style="fill:#ffffff;fill-opacity:1;fill-rule:nonzero;stroke:none"
             d="m 0,0 c -0.314,8.21 -0.673,16.577 -1.065,25.122 1.681,-0.268 3.285,-0.494 4.843,-0.684 1.548,-0.19 3.108,-0.281 4.656,-0.281 1.546,0 3.094,0.091 4.654,0.281 1.558,0.19 3.174,0.416 4.855,0.684 C 17.563,16.577 17.203,8.21 16.867,0 16.553,-8.209 16.396,-16.576 16.396,-25.11 l 0,-33.366 c 0,-8.524 0.157,-16.936 0.471,-25.212 0.336,-8.278 0.696,-16.409 1.076,-24.426 -2.983,0.258 -6.146,0.381 -9.509,0.381 -3.366,0 -6.528,-0.123 -9.499,-0.381 0.392,8.017 0.751,16.148 1.065,24.426 0.336,8.276 0.493,16.688 0.493,25.212 l 0,33.366 C 0.493,-16.576 0.336,-8.209 0,0"
             inkscape:connector-curvature="0" /></g><g
           transform="translate(1874.1138,385.5059)"
           id="g3899"><path
             id="path3901"
             style="fill:#ffffff;fill-opacity:1;fill-rule:nonzero;stroke:none"
             d="m 0,0 c 0.248,-6.473 0.516,-12.999 0.763,-19.595 2.467,-0.258 5.361,-0.482 8.726,-0.673 3.364,-0.201 6.796,-0.292 10.296,-0.292 4.137,0 8.097,0.707 11.921,2.132 3.802,1.413 7.144,3.522 9.993,6.304 2.848,2.78 5.092,6.212 6.773,10.283 1.683,4.071 2.535,8.693 2.535,13.875 0,5.539 -1.009,10.092 -3.017,13.66 -1.995,3.556 -4.879,6.336 -8.623,8.344 -3.747,1.994 -8.255,3.387 -13.482,4.171 -5.248,0.773 -11.092,1.155 -17.562,1.155 l -8.715,0 0,-19.772 C -0.392,12.984 -0.269,6.47 0,0 m 23.552,47.9 c 4.464,0.897 8.445,2.421 11.932,4.553 3.5,2.13 6.304,4.979 8.435,8.535 2.131,3.555 3.207,8.041 3.207,13.481 0,5.303 -0.974,9.532 -2.915,12.706 -1.941,3.163 -4.397,5.63 -7.379,7.369 -2.961,1.739 -6.327,2.905 -10.072,3.488 -3.746,0.584 -7.492,0.874 -11.249,0.874 -3.353,0 -6.202,-0.09 -8.535,-0.29 C 4.643,98.424 2.58,98.189 0.763,97.941 0.516,91.729 0.248,85.583 0,79.504 -0.269,73.427 -0.392,67.292 -0.392,61.089 l 0,-14.547 10.475,0 c 4.519,0 9.006,0.459 13.469,1.358 m -40.329,33.353 c -0.326,8.277 -0.695,16.554 -1.078,24.831 3.365,-0.269 6.797,-0.494 10.296,-0.684 3.488,-0.19 6.909,-0.281 10.274,-0.281 3.364,0 6.774,0.157 10.273,0.471 3.487,0.326 6.929,0.494 10.284,0.494 5.552,0 10.801,-0.426 15.712,-1.257 4.913,-0.851 9.242,-2.332 12.989,-4.462 3.745,-2.132 6.729,-5.025 8.926,-8.636 2.199,-3.612 3.286,-8.144 3.286,-13.571 C 64.185,68.58 61.179,61.089 55.18,55.66 49.146,50.232 41.305,46.419 31.605,44.221 l 0,-0.404 C 43.111,43.302 52.197,40.52 58.859,35.495 65.52,30.447 68.84,22.363 68.84,11.247 c 0,-7.244 -1.481,-13.323 -4.453,-18.235 -2.971,-4.911 -6.852,-8.884 -11.642,-11.933 -4.787,-3.028 -10.059,-5.158 -15.801,-6.394 -5.755,-1.233 -11.474,-1.837 -17.159,-1.837 -3.108,0 -6.237,0.066 -9.422,0.202 -3.164,0.122 -6.28,0.179 -9.398,0.179 l -9.399,0 c -3.185,0 -6.314,-0.124 -9.421,-0.381 0.383,8.275 0.752,16.508 1.078,24.729 0.314,8.198 0.471,16.574 0.471,25.11 l 0,33.354 c 0,8.547 -0.157,16.936 -0.471,25.212"
             inkscape:connector-curvature="0" /></g><g
           transform="translate(1976.8013,466.4678)"
           id="g3903"><path
             id="path3905"
             style="fill:#ffffff;fill-opacity:1;fill-rule:nonzero;stroke:none"
             d="m 0,0 c -0.325,8.21 -0.684,16.577 -1.076,25.122 1.681,-0.268 3.297,-0.494 4.844,-0.684 1.548,-0.19 3.107,-0.281 4.666,-0.281 1.546,0 3.095,0.091 4.643,0.281 1.559,0.19 3.185,0.416 4.867,0.684 C 17.551,16.577 17.192,8.21 16.867,0 c -0.314,-8.209 -0.482,-16.576 -0.482,-25.11 0,-16.296 0.055,-30.429 0.191,-42.384 0.134,-11.955 0.258,-22.655 0.382,-32.086 9.184,0 17.989,0.101 26.382,0.279 8.39,0.202 17.442,0.944 27.142,2.243 -0.639,-2.332 -0.953,-4.261 -0.953,-5.819 0,-1.424 0.314,-3.175 0.953,-5.237 -5.956,0.258 -11.899,0.381 -17.844,0.381 l -17.826,0 -17.945,0 c -5.752,0 -11.731,-0.123 -17.943,-0.381 0.392,8.017 0.751,16.148 1.076,24.426 0.325,8.276 0.482,16.688 0.482,25.212 l 0,33.366 C 0.482,-16.576 0.325,-8.209 0,0"
             inkscape:connector-curvature="0" /></g><g
           transform="translate(2074.7275,466.4678)"
           id="g3907"><path
             id="path3909"
             style="fill:#ffffff;fill-opacity:1;fill-rule:nonzero;stroke:none"
             d="m 0,0 c -0.326,8.21 -0.685,16.577 -1.076,25.122 1.68,-0.268 3.307,-0.494 4.866,-0.684 1.549,-0.19 3.096,-0.281 4.643,-0.281 1.561,0 3.108,0.091 4.666,0.281 1.547,0.19 3.163,0.416 4.845,0.684 C 17.551,16.577 17.191,8.21 16.867,0 16.542,-8.209 16.385,-16.576 16.385,-25.11 l 0,-33.366 c 0,-8.524 0.157,-16.936 0.482,-25.212 0.324,-8.278 0.684,-16.409 1.077,-24.426 -2.984,0.258 -6.146,0.381 -9.511,0.381 -3.364,0 -6.527,-0.123 -9.509,-0.381 0.391,8.017 0.75,16.148 1.076,24.426 0.313,8.276 0.471,16.688 0.471,25.212 l 0,33.366 C 0.471,-16.576 0.313,-8.209 0,0"
             inkscape:connector-curvature="0" /></g><g
           transform="translate(2241.4307,452.5156)"
           id="g3911"><path
             id="path3913"
             style="fill:#ffffff;fill-opacity:1;fill-rule:nonzero;stroke:none"
             d="m 0,0 c -2.715,7.818 -6.504,14.277 -11.351,19.38 -4.844,5.114 -10.542,8.893 -17.07,11.35 -6.525,2.456 -13.614,3.679 -21.241,3.679 -7.49,0 -14.513,-1.223 -21.05,-3.679 C -77.228,28.273 -82.927,24.494 -87.771,19.38 -92.627,14.277 -96.406,7.818 -99.12,0 c -2.715,-7.828 -4.06,-17.114 -4.06,-27.836 0,-10.733 1.345,-20.008 4.06,-27.837 2.714,-7.828 6.493,-14.289 11.349,-19.379 4.844,-5.114 10.543,-8.906 17.059,-11.35 6.537,-2.468 13.56,-3.689 21.05,-3.689 7.627,0 14.716,1.221 21.241,3.689 6.528,2.444 12.226,6.236 17.07,11.35 4.847,5.09 8.636,11.551 11.351,19.379 2.713,7.829 4.06,17.104 4.06,27.837 C 4.06,-17.114 2.713,-7.828 0,0 m -116.863,1.547 c 3.566,8.593 8.535,15.871 14.926,21.827 6.405,5.932 14.077,10.453 22.992,13.569 8.917,3.096 18.674,4.644 29.283,4.644 10.724,0 20.547,-1.548 29.475,-4.644 C -11.262,33.827 -3.6,29.306 2.804,23.374 9.197,17.418 14.175,10.14 17.744,1.547 c 3.543,-8.602 5.325,-18.392 5.325,-29.383 0,-10.992 -1.782,-20.782 -5.325,-29.384 -3.569,-8.601 -8.547,-15.87 -14.94,-21.826 -6.404,-5.942 -14.066,-10.36 -22.991,-13.279 -8.928,-2.904 -18.751,-4.362 -29.475,-4.362 -10.609,0 -20.366,1.458 -29.283,4.362 -8.915,2.919 -16.587,7.337 -22.992,13.279 -6.391,5.956 -11.36,13.225 -14.926,21.826 -3.544,8.602 -5.339,18.392 -5.339,29.384 0,10.991 1.795,20.781 5.339,29.383"
             inkscape:connector-curvature="0" /></g><g
           transform="translate(2311.8174,481.4961)"
           id="g3915"><path
             id="path3917"
             style="fill:#ffffff;fill-opacity:1;fill-rule:nonzero;stroke:none"
             d="m 0,0 c -3.363,0 -6.887,-0.021 -10.563,-0.09 -3.681,-0.066 -7.36,-0.202 -11.037,-0.381 -3.702,-0.202 -7.245,-0.425 -10.678,-0.695 -3.431,-0.247 -6.504,-0.583 -9.218,-0.965 0.649,2.332 0.975,4.397 0.975,6.213 0,1.414 -0.326,3.421 -0.975,6.012 C -32.962,9.825 -24.629,9.6 -16.485,9.41 -8.332,9.22 0,9.129 8.546,9.129 c 8.524,0 16.869,0.091 25.011,0.281 8.14,0.19 16.486,0.415 25.009,0.684 -0.638,-2.591 -0.953,-4.665 -0.953,-6.213 0,-1.682 0.315,-3.68 0.953,-6.012 -2.712,0.382 -5.787,0.718 -9.197,0.965 -3.43,0.27 -6.997,0.493 -10.676,0.695 -3.679,0.179 -7.357,0.315 -11.035,0.381 C 23.957,-0.021 20.434,0 17.07,0 16.688,-13.301 16.499,-26.691 16.499,-40.139 l 0,-33.365 c 0,-8.524 0.167,-16.936 0.481,-25.213 0.326,-8.277 0.685,-16.408 1.077,-24.426 -2.994,0.258 -6.157,0.381 -9.511,0.381 -3.365,0 -6.527,-0.123 -9.51,-0.381 0.394,8.018 0.751,16.149 1.076,24.426 0.313,8.277 0.484,16.689 0.484,25.213 l 0,33.365 C 0.596,-26.691 0.393,-13.301 0,0"
             inkscape:connector-curvature="0" /></g><g
           transform="translate(2490.7256,466.4678)"
           id="g3919"><path
             id="path3921"
             style="fill:#ffffff;fill-opacity:1;fill-rule:nonzero;stroke:none"
             d="m 0,0 c -0.314,8.21 -0.674,16.577 -1.069,25.122 1.682,-0.268 3.309,-0.494 4.848,-0.684 1.557,-0.19 3.107,-0.281 4.654,-0.281 1.546,0 3.105,0.091 4.653,0.281 1.559,0.19 3.173,0.416 4.855,0.684 C 17.562,16.577 17.202,8.21 16.865,0 16.551,-8.209 16.394,-16.576 16.394,-25.11 l 0,-33.366 c 0,-8.524 0.157,-16.936 0.471,-25.212 0.337,-8.278 0.697,-16.409 1.076,-24.426 -2.97,0.258 -6.144,0.381 -9.508,0.381 -3.367,0 -6.528,-0.123 -9.502,-0.381 0.395,8.017 0.755,16.148 1.069,24.426 0.334,8.276 0.491,16.688 0.491,25.212 l 0,17.451 c -6.987,0.132 -13.751,0.247 -20.266,0.302 -6.538,0.068 -13.291,0.102 -20.276,0.102 -6.987,0 -13.74,-0.034 -20.266,-0.102 -6.516,-0.055 -13.281,-0.17 -20.255,-0.302 l 0,-17.451 c 0,-8.524 0.158,-16.936 0.471,-25.212 0.337,-8.278 0.697,-16.409 1.077,-24.426 -2.983,0.258 -6.146,0.381 -9.511,0.381 -3.364,0 -6.528,-0.123 -9.499,-0.381 0.39,8.017 0.751,16.148 1.065,24.426 0.336,8.276 0.492,16.688 0.492,25.212 l 0,33.366 c 0,8.534 -0.156,16.901 -0.492,25.11 -0.314,8.21 -0.675,16.577 -1.065,25.122 1.682,-0.268 3.285,-0.494 4.844,-0.684 1.559,-0.19 3.106,-0.281 4.655,-0.281 1.547,0 3.106,0.091 4.665,0.281 1.549,0.19 3.164,0.416 4.846,0.684 -0.38,-8.545 -0.74,-16.912 -1.077,-25.122 -0.313,-8.209 -0.471,-16.576 -0.471,-25.11 l 0,-6.786 c 6.974,-0.134 13.739,-0.269 20.255,-0.392 6.526,-0.123 13.279,-0.191 20.266,-0.191 6.985,0 13.738,0.068 20.276,0.191 6.515,0.123 13.279,0.258 20.266,0.392 l 0,6.786 C 0.491,-16.576 0.334,-8.209 0,0"
             inkscape:connector-curvature="0" /></g><g
           transform="translate(2545.6113,466.7588)"
           id="g3923"><path
             id="path3925"
             style="fill:#ffffff;fill-opacity:1;fill-rule:nonzero;stroke:none"
             d="m 0,0 c -0.313,8.277 -0.673,16.554 -1.053,24.831 5.808,-0.268 11.597,-0.494 17.359,-0.684 5.744,-0.19 11.529,-0.281 17.351,-0.281 5.821,0 11.563,0.091 17.26,0.281 5.697,0.19 11.439,0.416 17.249,0.684 -0.382,-1.95 -0.561,-3.881 -0.561,-5.82 0,-1.941 0.179,-3.881 0.561,-5.822 -4.126,0.259 -7.917,0.517 -11.327,0.774 -3.432,0.259 -7.066,0.528 -10.869,0.774 -3.824,0.27 -7.995,0.494 -12.515,0.684 -4.52,0.191 -9.959,0.281 -16.273,0.281 C 17.048,11.574 16.867,7.628 16.688,3.881 16.487,0.136 16.396,-4.127 16.396,-8.927 c 0,-5.034 0.035,-9.946 0.091,-14.737 0.066,-4.777 0.102,-8.389 0.102,-10.856 5.685,0 10.787,0.068 15.308,0.203 4.529,0.122 8.68,0.292 12.424,0.482 3.747,0.189 7.213,0.392 10.376,0.583 3.153,0.189 6.179,0.414 9.029,0.673 -0.394,-1.941 -0.596,-3.937 -0.596,-6.014 0,-1.938 0.202,-3.869 0.596,-5.818 -3.367,0.404 -7.28,0.719 -11.754,0.975 -4.442,0.258 -8.916,0.415 -13.368,0.484 -4.466,0.064 -8.67,0.134 -12.608,0.2 -3.946,0.057 -7.087,0.091 -9.407,0.091 0,-1.167 -0.036,-2.423 -0.102,-3.793 -0.056,-1.345 -0.091,-3.072 -0.091,-5.136 l 0,-7.558 0,-11.63 c 0,-7.369 0.035,-13.448 0.091,-18.236 0.066,-4.79 0.178,-8.402 0.303,-10.857 l 13.557,0 c 4.913,0 9.736,0.101 14.47,0.279 4.71,0.202 9.172,0.46 13.369,0.786 4.192,0.315 7.859,0.807 10.967,1.457 -0.268,-0.919 -0.425,-1.906 -0.493,-3.005 -0.068,-1.098 -0.09,-2.108 -0.09,-3.005 0,-2.076 0.191,-3.746 0.583,-5.046 -5.821,0.258 -11.618,0.381 -17.362,0.381 l -17.562,0 -17.64,0 c -5.821,0 -11.698,-0.123 -17.642,-0.381 0.38,8.275 0.74,16.509 1.053,24.729 0.336,8.198 0.494,16.574 0.494,25.11 l 0,33.354 C 0.494,-16.665 0.336,-8.276 0,0"
             inkscape:connector-curvature="0" /></g><g
           transform="translate(2643.5654,382.7793)"
           id="g3927"><path
             id="path3929"
             style="fill:#ffffff;fill-opacity:1;fill-rule:nonzero;stroke:none"
             d="m 0,0 c 0.314,8.276 0.471,16.688 0.471,25.213 l 0,33.365 c 0,8.534 -0.157,16.901 -0.471,25.11 -0.338,8.21 -0.695,16.578 -1.077,25.123 1.671,-0.269 3.299,-0.495 4.846,-0.684 1.547,-0.19 3.106,-0.281 4.666,-0.281 1.546,0 3.094,0.091 4.643,0.281 1.558,0.189 3.161,0.415 4.844,0.684 -0.381,-8.545 -0.74,-16.913 -1.054,-25.123 -0.336,-8.209 -0.495,-16.576 -0.495,-25.11 l 0,-10.666 c 0,-1.032 0.383,-1.548 1.168,-1.548 0.517,0 1.412,0.583 2.714,1.74 4.53,3.879 9.286,8.275 14.254,13.199 4.97,4.901 9.995,10.004 15.029,15.308 5.047,5.306 10.016,10.701 14.929,16.196 4.911,5.496 9.631,10.822 14.152,16.004 1.436,-0.269 2.793,-0.495 4.083,-0.684 1.3,-0.19 2.591,-0.281 3.88,-0.281 1.548,0 3.107,0.091 4.665,0.281 1.548,0.189 3.097,0.415 4.644,0.684 C 91.369,104.93 86.257,100.332 80.571,95.039 74.872,89.732 69.153,84.316 63.412,78.754 57.646,73.19 52.15,67.718 46.924,62.357 41.675,56.996 37.323,52.309 33.836,48.294 44.311,36.539 54.864,24.539 65.531,12.316 c 10.676,-12.204 21.5,-24.463 32.49,-36.742 -1.941,0.258 -3.879,0.381 -5.809,0.381 l -5.832,0 -5.326,0 c -1.74,0 -3.523,-0.123 -5.329,-0.381 -4.665,5.292 -9.802,11.371 -15.42,18.224 -5.618,6.852 -11.127,13.48 -16.476,19.885 -5.384,6.394 -10.227,12.146 -14.558,17.248 -4.33,5.116 -7.537,8.704 -9.599,10.778 -1.044,1.022 -1.817,1.537 -2.322,1.537 -0.662,0 -0.977,-0.381 -0.977,-1.155 l 0,-16.878 c 0,-8.525 0.159,-16.937 0.495,-25.213 0.314,-8.277 0.673,-16.408 1.054,-24.426 -2.973,0.258 -6.125,0.381 -9.487,0.381 -3.367,0 -6.552,-0.123 -9.512,-0.381 C -0.695,-16.408 -0.338,-8.277 0,0"
             inkscape:connector-curvature="0" /></g><g
           transform="translate(2922.2432,474.9121)"
           id="g3931"><path
             id="path3933"
             style="fill:#ffffff;fill-opacity:1;fill-rule:nonzero;stroke:none"
             d="m 0,0 c -2.918,2.322 -6.146,4.363 -9.69,6.113 -3.568,1.739 -7.517,3.162 -11.833,4.262 -4.34,1.099 -8.96,1.638 -13.873,1.638 -8.007,0 -15.489,-1.224 -22.398,-3.679 -6.919,-2.457 -12.931,-6.236 -18.032,-11.351 -5.116,-5.102 -9.119,-11.561 -12.035,-19.379 -2.916,-7.829 -4.363,-17.115 -4.363,-27.836 0,-9.443 1.29,-17.968 3.881,-25.603 2.589,-7.64 6.36,-14.055 11.351,-19.292 4.967,-5.237 11.045,-9.275 18.222,-12.122 7.178,-2.85 15.288,-4.264 24.338,-4.264 2.714,0 5.562,0.123 8.547,0.382 2.96,0.27 5.832,0.649 8.613,1.165 2.781,0.517 5.373,1.167 7.761,1.942 2.4,0.775 4.419,1.67 6.101,2.713 0.135,3.869 0.234,7.748 0.314,11.63 0.046,3.881 0.078,7.83 0.078,11.844 0,4.508 -0.078,9.039 -0.281,13.571 -0.201,4.52 -0.426,8.859 -0.683,12.986 3.241,-0.65 6.336,-0.964 9.32,-0.964 1.412,0 2.836,0.068 4.262,0.203 1.423,0.111 2.782,0.381 4.059,0.761 -0.247,-2.961 -0.436,-7.658 -0.561,-14.064 -0.134,-6.392 -0.2,-14.827 -0.2,-25.3 0,-2.591 0.02,-5.206 0.087,-7.851 0.07,-2.646 0.113,-5.272 0.113,-7.851 -2.725,-1.044 -6.112,-2.109 -10.195,-3.209 -4.07,-1.097 -8.4,-2.006 -12.997,-2.713 -4.597,-0.706 -9.176,-1.358 -13.762,-1.929 -4.597,-0.582 -8.759,-0.886 -12.505,-0.886 -11.519,0 -21.892,1.4 -31.134,4.161 -9.239,2.78 -17.093,7.088 -23.563,12.898 -6.471,5.832 -11.44,13.077 -14.926,21.734 -3.501,8.659 -5.238,18.685 -5.238,30.058 0,10.991 1.805,20.781 5.415,29.382 3.623,8.593 8.739,15.871 15.344,21.828 6.594,5.931 14.556,10.453 23.933,13.569 9.375,3.096 19.76,4.643 31.134,4.643 6.582,0 12.426,-0.359 17.552,-1.066 5.102,-0.705 9.621,-1.647 13.582,-2.814 C -0.336,14.154 3.139,12.932 6.1,11.631 9.084,10.331 11.731,9.107 14.052,7.953 13.021,6.135 12.089,3.803 11.236,0.978 10.407,-1.872 9.856,-4.541 9.6,-6.986 l -2.335,0 C 5.338,-4.653 2.903,-2.32 0,0"
             inkscape:connector-curvature="0" /></g><g
           transform="translate(3044.1279,522.6104)"
           id="g3935"><path
             id="path3937"
             style="fill:#ffffff;fill-opacity:1;fill-rule:nonzero;stroke:none"
             d="m 0,0 c 1.932,1.953 4.265,2.918 6.977,2.918 2.714,0 5.048,-0.965 6.989,-2.918 1.941,-1.928 2.904,-4.261 2.904,-6.975 0,-2.713 -0.963,-5.046 -2.904,-6.975 -1.941,-1.952 -4.275,-2.917 -6.989,-2.917 -2.712,0 -5.045,0.965 -6.977,2.917 -1.95,1.929 -2.902,4.262 -2.902,6.975 0,2.714 0.952,5.047 2.902,6.975 m -38.209,0 c 1.94,1.953 4.272,2.918 6.989,2.918 2.713,0 5.044,-0.965 6.976,-2.918 1.938,-1.928 2.904,-4.261 2.904,-6.975 0,-2.713 -0.966,-5.046 -2.904,-6.975 -1.932,-1.952 -4.263,-2.917 -6.976,-2.917 -2.717,0 -5.049,0.965 -6.989,2.917 -1.939,1.929 -2.905,4.262 -2.905,6.975 0,2.714 0.966,5.047 2.905,6.975 m 75.647,-70.095 c -2.714,7.819 -6.504,14.278 -11.362,19.38 -4.832,5.114 -10.53,8.894 -17.056,11.351 -6.528,2.455 -13.604,3.678 -21.244,3.678 -7.492,0 -14.51,-1.223 -21.038,-3.678 -6.528,-2.457 -12.224,-6.237 -17.059,-11.351 -4.855,-5.102 -8.647,-11.561 -11.363,-19.38 -2.711,-7.828 -4.058,-17.114 -4.058,-27.836 0,-10.733 1.347,-20.007 4.058,-27.837 2.716,-7.828 6.508,-14.289 11.363,-19.378 4.835,-5.115 10.531,-8.907 17.059,-11.351 6.528,-2.468 13.546,-3.689 21.038,-3.689 7.64,0 14.716,1.221 21.244,3.689 6.526,2.444 12.224,6.236 17.056,11.351 4.858,5.089 8.648,11.55 11.362,19.378 2.713,7.83 4.06,17.104 4.06,27.837 0,10.722 -1.347,20.008 -4.06,27.836 m -116.863,1.547 c 3.567,8.593 8.545,15.871 14.939,21.827 6.404,5.932 14.065,10.453 22.992,13.57 8.914,3.095 18.674,4.643 29.27,4.643 10.721,0 20.56,-1.548 29.474,-4.643 8.93,-3.117 16.587,-7.638 22.99,-13.57 6.397,-5.956 11.375,-13.234 14.94,-21.827 3.546,-8.601 5.328,-18.391 5.328,-29.383 0,-10.992 -1.782,-20.782 -5.328,-29.383 -3.565,-8.602 -8.543,-15.871 -14.94,-21.827 -6.403,-5.942 -14.06,-10.36 -22.99,-13.279 -8.914,-2.904 -18.753,-4.361 -29.474,-4.361 -10.596,0 -20.356,1.457 -29.27,4.361 -8.927,2.919 -16.588,7.337 -22.992,13.279 -6.394,5.956 -11.372,13.225 -14.939,21.827 -3.544,8.601 -5.327,18.391 -5.327,29.383 0,10.992 1.783,20.782 5.327,29.383"
             inkscape:connector-curvature="0" /></g><g
           transform="translate(3159.1318,481.4961)"
           id="g3939"><path
             id="path3941"
             style="fill:#ffffff;fill-opacity:1;fill-rule:nonzero;stroke:none"
             d="m 0,0 c -3.366,0 -6.887,-0.021 -10.566,-0.09 -3.702,-0.066 -7.377,-0.202 -11.057,-0.381 -3.68,-0.202 -7.235,-0.425 -10.678,-0.695 -3.408,-0.247 -6.482,-0.583 -9.197,-0.965 0.641,2.332 0.964,4.397 0.964,6.213 0,1.414 -0.323,3.421 -0.964,6.012 C -32.972,9.825 -24.631,9.6 -16.488,9.41 -8.346,9.22 0,9.129 8.522,9.129 c 8.546,0 16.878,0.091 25.035,0.281 8.139,0.19 16.474,0.415 25.009,0.684 -0.65,-2.591 -0.963,-4.665 -0.963,-6.213 0,-1.682 0.313,-3.68 0.963,-6.012 -2.715,0.382 -5.787,0.718 -9.22,0.965 -3.41,0.27 -6.975,0.493 -10.655,0.695 -3.687,0.179 -7.379,0.315 -11.057,0.381 C 23.954,-0.021 20.435,0 17.068,0 16.677,-13.301 16.487,-26.691 16.487,-40.139 l 0,-33.365 c 0,-8.524 0.156,-16.936 0.483,-25.213 0.323,-8.277 0.683,-16.408 1.075,-24.426 -2.994,0.258 -6.158,0.381 -9.523,0.381 -3.353,0 -6.517,-0.123 -9.487,-0.381 0.379,8.018 0.739,16.149 1.055,24.426 0.322,8.277 0.491,16.689 0.491,25.213 l 0,33.365 C 0.581,-26.691 0.381,-13.301 0,0"
             inkscape:connector-curvature="0" /></g><g
           transform="translate(3267.9414,481.4961)"
           id="g3943"><path
             id="path3945"
             style="fill:#ffffff;fill-opacity:1;fill-rule:nonzero;stroke:none"
             d="m 0,0 c -3.366,0 -6.885,-0.021 -10.587,-0.09 -3.679,-0.066 -7.356,-0.202 -11.047,-0.381 -3.68,-0.202 -7.236,-0.425 -10.667,-0.695 -3.429,-0.247 -6.493,-0.583 -9.206,-0.965 0.639,2.332 0.965,4.397 0.965,6.213 0,1.414 -0.326,3.421 -0.965,6.012 C -32.971,9.825 -24.64,9.6 -16.487,9.41 -8.345,9.22 0,9.129 8.523,9.129 c 8.547,0 16.871,0.091 25.035,0.281 8.138,0.19 16.463,0.415 25.008,0.684 -0.649,-2.591 -0.989,-4.665 -0.989,-6.213 0,-1.682 0.34,-3.68 0.989,-6.012 -2.713,0.382 -5.787,0.718 -9.218,0.965 -3.432,0.27 -6.976,0.493 -10.677,0.695 -3.68,0.179 -7.359,0.315 -11.035,0.381 C 23.955,-0.021 20.413,0 17.07,0 16.665,-13.301 16.464,-26.691 16.464,-40.139 l 0,-33.365 c 0,-8.524 0.182,-16.936 0.494,-25.213 0.314,-8.277 0.673,-16.408 1.076,-24.426 -2.982,0.258 -6.146,0.381 -9.511,0.381 -3.364,0 -6.526,-0.123 -9.507,-0.381 0.378,8.018 0.74,16.149 1.075,24.426 0.314,8.277 0.471,16.689 0.471,25.213 l 0,33.365 C 0.562,-26.691 0.383,-13.301 0,0"
             inkscape:connector-curvature="0" /></g><g
           transform="translate(3349.8789,466.4678)"
           id="g3947"><path
             id="path3949"
             style="fill:#ffffff;fill-opacity:1;fill-rule:nonzero;stroke:none"
             d="m 0,0 c -0.336,8.21 -0.692,16.577 -1.076,25.122 1.681,-0.268 3.298,-0.494 4.847,-0.684 1.545,-0.19 3.095,-0.281 4.666,-0.281 1.544,0 3.094,0.091 4.643,0.281 1.545,0.19 3.185,0.416 4.867,0.684 C 17.543,16.577 17.182,8.21 16.868,0 16.557,-8.209 16.375,-16.576 16.375,-25.11 l 0,-33.366 c 0,-8.524 0.182,-16.936 0.493,-25.212 0.314,-8.278 0.675,-16.409 1.079,-24.426 -3.008,0.258 -6.171,0.381 -9.51,0.381 -3.367,0 -6.53,-0.123 -9.513,-0.381 0.384,8.017 0.74,16.148 1.076,24.426 0.314,8.276 0.473,16.688 0.473,25.212 l 0,33.366 C 0.473,-16.576 0.314,-8.209 0,0"
             inkscape:connector-curvature="0" /></g><g
           transform="translate(3466.9014,408.6875)"
           id="g3951"><path
             id="path3953"
             style="fill:#ffffff;fill-opacity:1;fill-rule:nonzero;stroke:none"
             d="m 0,0 c -16.802,18.032 -33.6,35.967 -50.425,53.811 -0.111,-3.623 -0.246,-8.479 -0.382,-14.537 -0.134,-6.078 -0.177,-14.354 -0.177,-24.831 0,-2.713 0.022,-6.078 0.086,-10.091 0.07,-4.005 0.113,-8.211 0.204,-12.607 0.047,-4.396 0.158,-8.849 0.269,-13.368 0.134,-4.531 0.269,-8.737 0.404,-12.618 0.135,-3.871 0.247,-7.28 0.379,-10.184 0.138,-2.905 0.273,-4.879 0.384,-5.909 -2.065,0.258 -4.308,0.381 -6.773,0.381 -2.579,0 -4.981,-0.123 -7.18,-0.381 0.246,1.3 0.561,3.678 0.875,7.177 0.314,3.5 0.606,7.66 0.875,12.517 0.247,4.844 0.539,10.116 0.874,15.79 0.316,5.698 0.583,11.372 0.786,17.07 0.18,5.698 0.338,11.259 0.472,16.678 0.112,5.438 0.202,10.284 0.202,14.545 0,12.405 -0.047,23.081 -0.111,32.009 -0.07,8.905 -0.225,15.567 -0.496,19.963 l 3.117,0 c 7.875,-8.524 16.308,-17.675 25.324,-27.433 8.974,-9.769 17.899,-19.402 26.739,-28.89 8.859,-9.511 17.273,-18.506 25.235,-26.962 7.94,-8.478 14.87,-15.679 20.84,-21.623 l 0,26.38 c 0,13.569 -0.091,26.781 -0.294,39.655 -0.203,12.854 -0.627,24.978 -1.28,36.36 2.602,-0.65 4.8,-0.964 6.595,-0.964 1.571,0 3.634,0.314 6.215,0.964 C 52.509,80.053 52.22,75.791 51.88,70.096 51.565,64.397 51.229,58.341 50.916,51.87 50.579,45.398 50.313,39.073 50.041,32.859 49.796,26.657 49.659,21.679 49.659,17.921 l 0,-11.618 c 0,-4.398 0.025,-8.995 0.091,-13.773 0.066,-4.801 0.137,-9.6 0.201,-14.457 0.069,-4.844 0.112,-9.366 0.202,-13.57 0.046,-4.206 0.09,-7.861 0.09,-10.958 l 0,-6.403 -2.716,0 C 32.657,-35.666 16.824,-18.047 0,0"
             inkscape:connector-curvature="0" /></g><g
           transform="translate(3660.9463,474.9121)"
           id="g3955"><path
             id="path3957"
             style="fill:#ffffff;fill-opacity:1;fill-rule:nonzero;stroke:none"
             d="m 0,0 c -2.915,2.322 -6.146,4.363 -9.711,6.113 -3.545,1.739 -7.491,3.162 -11.821,4.262 -4.33,1.099 -8.948,1.638 -13.863,1.638 -8.005,0 -15.5,-1.224 -22.408,-3.679 -6.91,-2.457 -12.92,-6.236 -18.035,-11.351 -5.092,-5.102 -9.107,-11.561 -12.021,-19.379 -2.893,-7.829 -4.352,-17.115 -4.352,-27.836 0,-9.443 1.299,-17.968 3.882,-25.603 2.578,-7.64 6.37,-14.055 11.324,-19.292 4.98,-5.237 11.061,-9.275 18.239,-12.122 7.174,-2.85 15.295,-4.264 24.357,-4.264 2.716,0 5.542,0.123 8.504,0.382 2.982,0.27 5.854,0.649 8.634,1.165 2.781,0.517 5.362,1.167 7.759,1.942 2.403,0.775 4.443,1.67 6.124,2.713 0.113,3.869 0.224,7.748 0.271,11.63 0.091,3.881 0.113,7.83 0.113,11.844 0,4.508 -0.113,9.039 -0.293,13.571 -0.201,4.52 -0.426,8.859 -0.694,12.986 3.251,-0.65 6.345,-0.964 9.333,-0.964 1.411,0 2.823,0.068 4.26,0.203 1.412,0.111 2.78,0.381 4.08,0.761 -0.268,-2.961 -0.47,-7.658 -0.604,-14.064 -0.111,-6.392 -0.18,-14.827 -0.18,-25.3 0,-2.591 0.022,-5.206 0.09,-7.851 0.067,-2.646 0.09,-5.272 0.09,-7.851 -2.715,-1.044 -6.101,-2.109 -10.16,-3.209 -4.084,-1.097 -8.414,-2.006 -13.012,-2.713 -4.574,-0.706 -9.174,-1.358 -13.771,-1.929 -4.576,-0.582 -8.75,-0.886 -12.495,-0.886 -11.507,0 -21.892,1.4 -31.134,4.161 -9.24,2.78 -17.113,7.088 -23.551,12.898 -6.461,5.832 -11.462,13.077 -14.938,21.734 -3.499,8.659 -5.249,18.685 -5.249,30.058 0,10.991 1.819,20.781 5.451,29.382 3.611,8.593 8.702,15.871 15.297,21.828 6.593,5.931 14.58,10.453 23.956,13.569 9.376,3.096 19.761,4.643 31.133,4.643 6.593,0 12.45,-0.359 17.563,-1.066 5.091,-0.705 9.625,-1.647 13.57,-2.814 3.948,-1.156 7.403,-2.378 10.364,-3.679 2.983,-1.3 5.63,-2.524 7.962,-3.678 C 13.032,6.135 12.09,3.803 11.237,0.978 10.408,-1.872 9.847,-4.541 9.602,-6.986 l -2.333,0 C 5.342,-4.653 2.918,-2.32 0,0"
             inkscape:connector-curvature="0" /></g><g
           transform="translate(3708.457,466.7588)"
           id="g3959"><path
             id="path3961"
             style="fill:#ffffff;fill-opacity:1;fill-rule:nonzero;stroke:none"
             d="m 0,0 c -0.314,8.277 -0.677,16.554 -1.08,24.831 5.834,-0.268 11.62,-0.494 17.362,-0.684 5.765,-0.19 11.551,-0.281 17.362,-0.281 5.831,0 11.572,0.091 17.271,0.281 5.676,0.19 11.439,0.416 17.272,0.684 -0.406,-1.95 -0.607,-3.881 -0.607,-5.82 0,-1.941 0.201,-3.881 0.607,-5.822 -4.151,0.259 -7.942,0.517 -11.372,0.774 -3.408,0.259 -7.02,0.528 -10.858,0.774 -3.813,0.27 -7.963,0.494 -12.495,0.684 -4.528,0.191 -9.959,0.281 -16.303,0.281 C 17.046,11.574 16.866,7.628 16.686,3.881 16.483,0.136 16.393,-4.127 16.393,-8.927 c 0,-5.034 0.026,-9.946 0.09,-14.737 0.07,-4.777 0.114,-8.389 0.114,-10.856 5.675,0 10.788,0.068 15.319,0.203 4.508,0.122 8.636,0.292 12.405,0.482 3.744,0.189 7.2,0.392 10.385,0.583 3.162,0.189 6.147,0.414 8.994,0.673 -0.382,-1.941 -0.559,-3.937 -0.559,-6.014 0,-1.938 0.177,-3.869 0.559,-5.818 -3.364,0.404 -7.268,0.719 -11.71,0.975 -4.483,0.258 -8.925,0.415 -13.41,0.484 -4.442,0.064 -8.639,0.134 -12.585,0.2 -3.948,0.057 -7.089,0.091 -9.398,0.091 0,-1.167 -0.044,-2.423 -0.114,-3.793 -0.064,-1.345 -0.09,-3.072 -0.09,-5.136 l 0,-7.558 0,-11.63 c 0,-7.369 0.026,-13.448 0.09,-18.236 0.07,-4.79 0.16,-8.402 0.293,-10.857 l 13.571,0 c 4.934,0 9.734,0.101 14.443,0.279 4.734,0.202 9.196,0.46 13.393,0.786 4.194,0.315 7.851,0.807 10.945,1.457 -0.245,-0.919 -0.404,-1.906 -0.469,-3.005 -0.068,-1.098 -0.091,-2.108 -0.091,-3.005 0,-2.076 0.181,-3.746 0.56,-5.046 -5.81,0.258 -11.594,0.381 -17.34,0.381 l -17.559,0 -17.632,0 c -5.832,0 -11.709,-0.123 -17.677,-0.381 0.403,8.275 0.766,16.509 1.08,24.729 0.313,8.198 0.49,16.574 0.49,25.11 l 0,33.354 C 0.49,-16.665 0.313,-8.276 0,0"
             inkscape:connector-curvature="0" /></g><g
           transform="translate(3868.5654,408.6875)"
           id="g3963"><path
             id="path3965"
             style="fill:#ffffff;fill-opacity:1;fill-rule:nonzero;stroke:none"
             d="m 0,0 c -16.824,18.032 -33.627,35.967 -50.425,53.811 -0.134,-3.623 -0.27,-8.479 -0.404,-14.537 -0.112,-6.078 -0.202,-14.354 -0.202,-24.831 0,-2.713 0.047,-6.078 0.112,-10.091 0.048,-4.005 0.134,-8.211 0.18,-12.607 0.067,-4.396 0.18,-8.849 0.314,-13.368 0.112,-4.531 0.245,-8.737 0.379,-12.618 0.138,-3.871 0.271,-7.28 0.383,-10.184 0.134,-2.905 0.27,-4.879 0.403,-5.909 -2.086,0.258 -4.35,0.381 -6.795,0.381 -2.603,0 -4.979,-0.123 -7.178,-0.381 0.245,1.3 0.538,3.678 0.874,7.177 0.314,3.5 0.605,7.66 0.851,12.517 0.271,4.844 0.565,10.116 0.877,15.79 0.337,5.698 0.605,11.372 0.783,17.07 0.203,5.698 0.359,11.259 0.496,16.678 0.133,5.438 0.177,10.284 0.177,14.545 0,12.405 -0.02,23.081 -0.09,32.009 -0.065,8.905 -0.224,15.567 -0.469,19.963 l 3.093,0 c 7.898,-8.524 16.33,-17.675 25.305,-27.433 8.973,-9.769 17.898,-19.402 26.781,-28.89 8.836,-9.511 17.25,-18.506 25.191,-26.962 7.94,-8.478 14.914,-15.679 20.857,-21.623 l 0,26.38 c 0,13.569 -0.111,26.781 -0.289,39.655 -0.202,12.854 -0.628,24.978 -1.256,36.36 2.578,-0.65 4.777,-0.964 6.594,-0.964 1.548,0 3.609,0.314 6.192,0.964 C 52.484,80.053 52.172,75.791 51.857,70.096 51.543,64.397 51.207,58.341 50.893,51.87 50.578,45.398 50.287,39.073 50.019,32.859 49.773,26.657 49.637,21.679 49.637,17.921 l 0,-11.618 c 0,-4.398 0.025,-8.995 0.089,-13.773 0.069,-4.801 0.134,-9.6 0.203,-14.457 0.044,-4.844 0.133,-9.366 0.202,-13.57 0.044,-4.206 0.092,-7.861 0.092,-10.958 l 0,-6.403 -2.717,0 C 32.635,-35.666 16.798,-18.047 0,0"
             inkscape:connector-curvature="0" /></g><g
           transform="translate(2299.5039,1133.1816)"
           id="g3967"><path
             id="path3969"
             style="fill:#ffffff;fill-opacity:1;fill-rule:nonzero;stroke:none"
             d="m 0,0 c 0,-30.456 -6.999,-57.523 -20.974,-81.182 -14.018,-23.675 -33.341,-41.984 -58.049,-54.943 -24.472,-12.976 -52.062,-19.458 -82.723,-19.458 -30.45,0 -57.928,6.482 -82.411,19.458 -14.243,7.531 -26.692,16.856 -37.369,28.021 20.457,-8.237 42.831,-12.336 67.1,-12.336 30.653,0 58.242,6.47 82.725,19.441 24.686,12.948 44.042,31.268 58.039,54.943 13.996,23.654 20.995,50.71 20.995,81.177 l 0,263.076 52.667,0 L 0,0 Z m -307.338,298.197 52.684,0 0,-295.106 c 0,-19.751 3.802,-37.056 11.416,-51.855 1.481,-2.854 3.097,-5.557 4.801,-8.165 -9.062,1.93 -17.418,5.047 -25.077,9.331 -13.998,8.025 -24.803,19.341 -32.395,33.943 -7.615,14.827 -11.429,32.121 -11.429,51.871 l 0,259.981 z m -421.448,-394.508 44.188,43.61 c 21.13,-21.045 44.278,-36.18 69.468,-45.393 25.526,-9.056 55.471,-13.582 89.836,-13.582 23.662,0 45.263,2.894 64.822,8.641 13.482,4.128 25.795,9.561 36.921,16.313 -7.469,-12.943 -17.338,-24.264 -29.585,-33.976 -14.603,-11.519 -31.706,-20.278 -51.254,-26.239 -19.538,-5.765 -41.149,-8.619 -64.824,-8.646 -34.364,0 -64.297,4.53 -89.812,13.592 -25.325,9.259 -48.574,24.483 -69.76,45.68 m 251.537,52.79 c 1.458,5.636 2.198,11.714 2.198,18.208 0,20.367 -5.967,35.9 -17.911,46.61 -5.35,5.351 -11.631,9.36 -18.831,12.029 -6.998,2.894 -17.08,5.249 -30.235,7.111 l -53.116,7.402 c -36.629,5.147 -65.139,17.199 -85.505,36.14 -21.804,20.362 -32.716,48.956 -32.716,85.803 0,26.127 6.068,49.179 18.224,69.148 10.287,16.913 24.338,30.584 42.194,41.009 -10.992,-19.291 -16.51,-41.373 -16.51,-66.26 0,-36.837 10.902,-65.441 32.727,-85.82 20.378,-18.919 48.853,-30.97 85.504,-36.107 l 53.093,-7.408 c 13.168,-1.872 23.25,-4.228 30.248,-7.099 7.19,-2.675 13.47,-6.696 18.821,-12.039 11.943,-10.717 17.921,-26.233 17.921,-46.606 -0.034,-21.825 -8.244,-38.804 -24.708,-50.939 -6.245,-4.593 -13.368,-8.333 -21.398,-11.182 m 34.072,310.949 c 6.841,-4.929 13.514,-10.424 19.986,-16.47 l -43.852,-43.201 c -9.039,8.838 -18.718,15.729 -28.991,20.671 -10.308,5.152 -20.995,8.741 -32.11,10.805 -11.115,2.265 -23.372,3.393 -36.742,3.399 -13.2,0 -24.986,-1.796 -35.372,-5.357 1.593,5.429 3.835,10.526 6.74,15.293 6.583,10.704 16.026,19.043 28.387,25.016 12.359,5.961 27.06,8.949 44.164,8.949 13.346,0 25.605,-1.144 36.719,-3.398 11.115,-2.064 21.803,-5.652 32.098,-10.806 3.051,-1.475 6.045,-3.107 8.973,-4.901 M 356.669,8.748 c -2.402,3.292 -4.893,6.415 -7.483,9.336 -5.64,8.261 -13.378,14.877 -23.193,19.885 -6.314,3.747 -11.92,6.483 -17.798,8.76 10.7,4.104 20.681,10.587 29.922,19.436 9.287,9.044 16.665,20.052 22.229,33.034 5.764,13.161 8.657,27.467 8.657,42.899 0,24.914 -5.563,46.61 -16.665,65.126 -10.924,18.735 -26.759,33.042 -47.542,42.933 -20.59,10.071 -44.445,15.101 -71.631,15.101 l -122.649,0 0,32.939 175.338,0 c 27.175,0 51.052,-5.047 71.643,-15.135 20.729,-9.869 36.585,-24.186 47.498,-42.903 11.125,-18.523 16.688,-40.242 16.688,-65.122 0,-15.444 -2.895,-29.754 -8.649,-42.91 -5.55,-12.981 -12.952,-23.983 -22.226,-33.045 -9.244,-8.85 -19.236,-15.338 -29.946,-19.436 19.347,-7.414 35.496,-20.065 48.461,-37.97 12.977,-17.906 19.459,-40.038 19.459,-66.371 0,-27.17 -5.765,-50.318 -17.271,-69.451 -11.351,-18.937 -27.412,-33.343 -48.17,-43.213 -5.463,-2.574 -11.139,-4.81 -17.014,-6.679 4.653,5.176 8.816,10.83 12.494,16.952 11.506,19.162 17.271,42.304 17.271,69.461 0,26.34 -6.472,48.467 -19.423,66.373 m -177.628,195.41 0,-96.105 100.959,0 c 4.937,0 9.679,0.259 14.176,0.808 C 290.99,102.463 286.594,96.872 281.009,92.105 267.854,80.772 249.933,75.103 227.31,75.103 l -100.938,0 0,129.055 52.669,0 z m 0,-190.464 0,-104.139 107.442,0 c 4.442,0 8.702,0.24 12.784,0.717 -6.1,-10.912 -14.535,-19.032 -25.659,-24.993 -11.116,-5.781 -24.384,-8.652 -39.792,-8.652 l -107.444,0 0,137.067 52.669,0 z"
             inkscape:connector-curvature="0" /></g></g></g></g></svg>