<?xml version="1.0" encoding="UTF-8" standalone="no"?>
<svg
   xmlns:dc="http://purl.org/dc/elements/1.1/"
   xmlns:cc="http://creativecommons.org/ns#"
   xmlns:rdf="http://www.w3.org/1999/02/22-rdf-syntax-ns#"
   xmlns:svg="http://www.w3.org/2000/svg"
   xmlns="http://www.w3.org/2000/svg"
   viewBox="0 0 613.88599 51.442749"
   height="51.442749"
   width="613.88599"
   xml:space="preserve"
   version="1.1"
   id="svg3355"><metadata
     id="metadata3361"><rdf:RDF><cc:Work
         rdf:about=""><dc:format>image/svg+xml</dc:format><dc:type
           rdf:resource="http://purl.org/dc/dcmitype/StillImage" /><dc:title></dc:title></cc:Work></rdf:RDF></metadata><defs
     id="defs3359"><clipPath
       id="clipPath3369"
       clipPathUnits="userSpaceOnUse"><path
         id="path3371"
         d="M 0,112 570,112 570,0 0,0 0,112 Z" /></clipPath></defs><g
     transform="matrix(1.25,0,0,-1.25,0,51.44275)"
     id="g3363"><g
       transform="translate(-38.3897,-36.4244)"
       style="fill:#ffffff"
       id="g3365"><g
         style="fill:#ffffff"
         clip-path="url(#clipPath3369)"
         id="g3367"><g
           style="fill:#ffffff"
           transform="translate(179.1162,65.8188)"
           id="g3373"><path
             id="path3375"
             style="fill:#ffffff;fill-opacity:1;fill-rule:nonzero;stroke:none"
             d="M 0,0 C -1.692,1.815 -3.384,3.621 -5.075,5.416 -5.088,5.052 -5.101,4.564 -5.113,3.953 -5.127,3.341 -5.134,2.508 -5.134,1.454 c 0,-0.273 0.004,-0.612 0.009,-1.014 0.007,-0.404 0.014,-0.829 0.021,-1.271 0.007,-0.443 0.016,-0.89 0.029,-1.346 0.014,-0.456 0.027,-0.878 0.039,-1.268 0.013,-0.391 0.027,-0.732 0.04,-1.026 0.013,-0.293 0.025,-0.492 0.038,-0.596 -0.207,0.027 -0.435,0.041 -0.684,0.041 -0.259,0 -0.501,-0.014 -0.722,-0.041 0.027,0.131 0.056,0.373 0.089,0.723 0.033,0.352 0.061,0.772 0.087,1.26 0.027,0.487 0.057,1.018 0.088,1.591 0.032,0.572 0.059,1.145 0.079,1.716 0.019,0.574 0.035,1.133 0.047,1.68 0.014,0.546 0.021,1.034 0.021,1.463 0,1.25 -0.003,2.322 -0.009,3.221 -0.008,0.899 -0.024,1.57 -0.05,2.012 l 0.312,0 C -4.905,7.739 -4.057,6.817 -3.152,5.835 -2.248,4.854 -1.35,3.885 -0.458,2.928 0.433,1.971 1.279,1.067 2.08,0.214 2.878,-0.637 3.579,-1.364 4.177,-1.962 l 0,2.655 C 4.177,2.059 4.168,3.389 4.148,4.684 4.129,5.978 4.086,7.199 4.021,8.344 4.281,8.278 4.502,8.247 4.685,8.247 4.84,8.247 5.05,8.278 5.311,8.344 5.283,8.057 5.254,7.628 5.222,7.055 5.188,6.483 5.157,5.872 5.125,5.222 5.091,4.569 5.062,3.933 5.037,3.309 5.01,2.684 4.997,2.183 4.997,1.806 l 0,-1.172 c 0,-0.442 0.004,-0.905 0.011,-1.386 0.006,-0.481 0.011,-0.966 0.019,-1.454 0.005,-0.488 0.012,-0.944 0.019,-1.366 0.007,-0.425 0.01,-0.79 0.01,-1.104 l 0,-0.643 -0.274,0 C 3.287,-3.59 1.691,-1.815 0,0" /></g><g
           style="fill:#ffffff"
           transform="translate(188.145,71.6343)"
           id="g3377"><path
             id="path3379"
             style="fill:#ffffff;fill-opacity:1;fill-rule:nonzero;stroke:none"
             d="M 0,0 C -0.033,0.829 -0.069,1.67 -0.108,2.528 0.061,2.504 0.223,2.479 0.379,2.461 0.536,2.44 0.693,2.431 0.849,2.431 1.004,2.431 1.16,2.44 1.317,2.461 1.474,2.479 1.636,2.504 1.806,2.528 1.767,1.67 1.73,0.829 1.698,0 1.665,-0.826 1.649,-1.668 1.649,-2.526 l 0,-3.357 c 0,-0.861 0.016,-1.707 0.049,-2.538 0.032,-0.833 0.069,-1.653 0.108,-2.461 -0.3,0.027 -0.618,0.041 -0.957,0.041 -0.339,0 -0.657,-0.014 -0.957,-0.041 0.039,0.808 0.075,1.628 0.108,2.461 0.031,0.831 0.047,1.677 0.047,2.538 l 0,3.357 C 0.047,-1.668 0.031,-0.826 0,0" /></g><g
           style="fill:#ffffff"
           transform="translate(193.6694,71.666)"
           id="g3381"><path
             id="path3383"
             style="fill:#ffffff;fill-opacity:1;fill-rule:nonzero;stroke:none"
             d="m 0,0 c -0.034,0.831 -0.07,1.664 -0.109,2.497 0.587,-0.025 1.168,-0.05 1.748,-0.068 0.579,-0.02 1.16,-0.03 1.747,-0.03 0.585,0 1.164,0.01 1.737,0.03 C 5.696,2.447 6.275,2.472 6.861,2.497 6.821,2.303 6.802,2.106 6.802,1.912 6.802,1.715 6.821,1.521 6.861,1.325 6.444,1.352 6.063,1.376 5.719,1.404 5.373,1.429 5.01,1.456 4.626,1.481 4.242,1.508 3.822,1.53 3.366,1.551 2.91,1.571 2.363,1.58 1.727,1.58 1.713,1.162 1.698,0.765 1.677,0.388 1.658,0.011 1.649,-0.418 1.649,-0.899 c 0,-0.508 0.003,-1.002 0.009,-1.483 0.007,-0.483 0.01,-0.847 0.01,-1.095 0.573,0 1.086,0.007 1.542,0.02 0.457,0.014 0.872,0.03 1.249,0.05 0.376,0.018 0.727,0.039 1.045,0.058 0.318,0.019 0.621,0.041 0.908,0.068 -0.038,-0.196 -0.059,-0.397 -0.059,-0.605 0,-0.196 0.021,-0.39 0.059,-0.585 C 6.073,-4.432 5.68,-4.4 5.231,-4.374 4.782,-4.348 4.332,-4.333 3.883,-4.326 3.435,-4.319 3.012,-4.312 2.614,-4.305 2.218,-4.299 1.903,-4.296 1.668,-4.296 1.668,-4.412 1.665,-4.54 1.658,-4.676 1.652,-4.813 1.649,-4.985 1.649,-5.193 l 0,-0.763 0,-1.169 c 0,-0.743 0.003,-1.355 0.009,-1.836 0.007,-0.483 0.017,-0.847 0.03,-1.092 l 1.367,0 c 0.494,0 0.978,0.009 1.453,0.029 0.474,0.018 0.924,0.045 1.348,0.076 0.422,0.034 0.79,0.082 1.102,0.147 -0.027,-0.09 -0.043,-0.192 -0.05,-0.303 -0.006,-0.11 -0.009,-0.209 -0.009,-0.302 0,-0.207 0.021,-0.377 0.059,-0.508 -0.584,0.027 -1.168,0.041 -1.748,0.041 l -1.765,0 -1.777,0 c -0.585,0 -1.178,-0.014 -1.777,-0.041 0.039,0.833 0.075,1.664 0.109,2.491 0.031,0.826 0.047,1.668 0.047,2.526 l 0,3.359 C 0.047,-1.68 0.031,-0.833 0,0" /></g><g
           style="fill:#ffffff"
           transform="translate(205.293,61.6128)"
           id="g3385"><path
             id="path3387"
             style="fill:#ffffff;fill-opacity:1;fill-rule:nonzero;stroke:none"
             d="m 0,0 c 0.273,-0.066 0.643,-0.116 1.112,-0.147 0.469,-0.034 0.95,-0.05 1.445,-0.05 0.715,0 1.431,0.086 2.147,0.256 0.715,0.166 1.357,0.487 1.923,0.954 0.564,0.47 1.027,1.112 1.385,1.924 C 8.37,3.75 8.548,4.801 8.548,6.089 8.548,7.222 8.41,8.152 8.129,8.881 7.85,9.608 7.466,10.184 6.978,10.608 6.489,11.03 5.907,11.324 5.232,11.486 4.555,11.649 3.812,11.73 3.006,11.73 2.42,11.73 1.874,11.71 1.366,11.671 0.859,11.633 0.403,11.588 0,11.534 -0.04,10.911 -0.069,10.256 -0.088,9.574 -0.107,8.89 -0.118,8.197 -0.118,7.495 l 0,-3.357 C -0.118,2.731 -0.078,1.352 0,0 m -1.767,10.021 c -0.033,0.829 -0.069,1.671 -0.108,2.529 0.494,-0.025 0.987,-0.05 1.474,-0.068 0.488,-0.02 0.98,-0.029 1.474,-0.029 0.494,0 0.986,0.016 1.474,0.047 0.488,0.034 0.978,0.05 1.474,0.05 1.145,0 2.125,-0.149 2.938,-0.449 0.813,-0.298 1.479,-0.725 2,-1.278 0.52,-0.553 0.901,-1.231 1.143,-2.03 0.239,-0.801 0.361,-1.702 0.361,-2.704 0,-1.3 -0.226,-2.398 -0.675,-3.29 C 9.341,1.907 8.768,1.189 8.071,0.643 7.375,0.097 6.607,-0.292 5.767,-0.52 4.929,-0.745 4.125,-0.861 3.357,-0.861 c -0.443,0 -0.878,0.007 -1.308,0.021 -0.429,0.013 -0.865,0.02 -1.308,0.02 l -1.307,0 c -0.43,0 -0.867,-0.013 -1.309,-0.041 0.039,0.809 0.075,1.629 0.108,2.462 0.032,0.83 0.049,1.677 0.049,2.537 l 0,3.357 c 0,0.858 -0.017,1.7 -0.049,2.526" /></g><g
           style="fill:#ffffff"
           transform="translate(218.8105,71.666)"
           id="g3389"><path
             id="path3391"
             style="fill:#ffffff;fill-opacity:1;fill-rule:nonzero;stroke:none"
             d="m 0,0 c -0.032,0.831 -0.068,1.664 -0.107,2.497 0.586,-0.025 1.168,-0.05 1.746,-0.068 0.58,-0.02 1.163,-0.03 1.747,-0.03 0.587,0 1.165,0.01 1.738,0.03 C 5.696,2.447 6.276,2.472 6.861,2.497 6.823,2.303 6.802,2.106 6.802,1.912 6.802,1.715 6.823,1.521 6.861,1.325 6.446,1.352 6.064,1.376 5.72,1.404 5.375,1.429 5.01,1.456 4.626,1.481 4.242,1.508 3.822,1.53 3.368,1.551 2.913,1.571 2.365,1.58 1.727,1.58 1.715,1.162 1.698,0.765 1.679,0.388 1.659,0.011 1.65,-0.418 1.65,-0.899 c 0,-0.508 0.002,-1.002 0.009,-1.483 0.007,-0.483 0.011,-0.847 0.011,-1.095 0.572,0 1.085,0.007 1.54,0.02 0.457,0.014 0.872,0.03 1.251,0.05 0.377,0.018 0.725,0.039 1.043,0.058 0.318,0.019 0.622,0.041 0.908,0.068 -0.038,-0.196 -0.058,-0.397 -0.058,-0.605 0,-0.196 0.02,-0.39 0.058,-0.585 C 6.074,-4.432 5.68,-4.4 5.231,-4.374 4.782,-4.348 4.333,-4.333 3.884,-4.326 3.436,-4.319 3.013,-4.312 2.617,-4.305 2.219,-4.299 1.903,-4.296 1.67,-4.296 1.67,-4.412 1.666,-4.54 1.659,-4.676 1.652,-4.813 1.65,-4.985 1.65,-5.193 l 0,-0.763 0,-1.169 c 0,-0.743 0.002,-1.355 0.009,-1.836 0.007,-0.483 0.016,-0.847 0.029,-1.092 l 1.367,0 c 0.494,0 0.979,0.009 1.453,0.029 0.477,0.018 0.927,0.045 1.348,0.076 0.422,0.034 0.79,0.082 1.103,0.147 -0.025,-0.09 -0.043,-0.192 -0.048,-0.303 -0.007,-0.11 -0.011,-0.209 -0.011,-0.302 0,-0.207 0.02,-0.377 0.059,-0.508 -0.585,0.027 -1.168,0.041 -1.747,0.041 l -1.767,0 -1.775,0 c -0.587,0 -1.179,-0.014 -1.777,-0.041 0.039,0.833 0.075,1.664 0.107,2.491 0.033,0.826 0.048,1.668 0.048,2.526 l 0,3.359 C 0.048,-1.68 0.033,-0.833 0,0" /></g><g
           style="fill:#ffffff"
           transform="translate(230.9126,67.916)"
           id="g3393"><path
             id="path3395"
             style="fill:#ffffff;fill-opacity:1;fill-rule:nonzero;stroke:none"
             d="m 0,0 c 0.215,-0.012 0.453,-0.019 0.712,-0.019 0.404,0 0.823,0.046 1.26,0.136 0.436,0.092 0.835,0.251 1.2,0.479 0.365,0.228 0.667,0.533 0.908,0.917 0.24,0.385 0.361,0.869 0.361,1.456 0,0.506 -0.094,0.925 -0.284,1.257 C 3.969,4.558 3.725,4.822 3.426,5.016 3.125,5.213 2.8,5.346 2.451,5.418 2.098,5.488 1.753,5.524 1.416,5.524 0.96,5.524 0.583,5.515 0.283,5.495 -0.017,5.477 -0.27,5.455 -0.478,5.427 -0.504,4.711 -0.529,4.002 -0.556,3.3 -0.583,2.596 -0.595,1.894 -0.595,1.192 l 0,-1.113 C -0.414,0.04 -0.214,0.014 0,0 m -2.245,3.718 c -0.031,0.829 -0.068,1.671 -0.108,2.529 0.379,-0.025 0.749,-0.05 1.114,-0.068 0.364,-0.02 0.735,-0.03 1.112,-0.03 0.377,0 0.749,0.017 1.113,0.048 0.364,0.034 0.735,0.05 1.112,0.05 0.547,0 1.068,-0.052 1.563,-0.156 C 4.155,5.987 4.586,5.813 4.959,5.574 5.329,5.332 5.623,5.016 5.837,4.628 6.052,4.237 6.158,3.75 6.158,3.163 6.158,2.538 6.019,2.002 5.739,1.553 5.46,1.104 5.117,0.733 4.715,0.44 4.311,0.146 3.877,-0.082 3.417,-0.244 2.954,-0.406 2.534,-0.513 2.157,-0.565 2.313,-0.761 2.527,-1.034 2.8,-1.384 3.074,-1.736 3.381,-2.125 3.72,-2.547 4.057,-2.969 4.408,-3.411 4.774,-3.875 5.137,-4.337 5.489,-4.78 5.826,-5.202 c 0.339,-0.422 0.658,-0.808 0.957,-1.16 0.3,-0.352 0.54,-0.619 0.723,-0.802 -0.194,0.027 -0.391,0.041 -0.585,0.041 l -0.587,0 -0.565,0 c -0.196,0 -0.386,-0.014 -0.567,-0.041 -0.194,0.273 -0.492,0.685 -0.889,1.231 -0.396,0.546 -0.835,1.131 -1.316,1.756 -0.483,0.626 -0.973,1.246 -1.475,1.865 -0.501,0.618 -0.959,1.142 -1.376,1.571 l -0.741,0 0,-1.424 c 0,-0.86 0.016,-1.707 0.049,-2.538 0.032,-0.833 0.068,-1.652 0.107,-2.461 -0.3,0.027 -0.619,0.041 -0.957,0.041 -0.338,0 -0.657,-0.014 -0.957,-0.041 0.04,0.809 0.077,1.628 0.108,2.461 0.034,0.831 0.05,1.678 0.05,2.538 l 0,3.357 c 0,0.858 -0.016,1.7 -0.05,2.526" /></g><g
           style="fill:#ffffff"
           transform="translate(240.731,62.5791)"
           id="g3397"><path
             id="path3399"
             style="fill:#ffffff;fill-opacity:1;fill-rule:nonzero;stroke:none"
             d="m 0,0 c 0.175,-0.242 0.391,-0.461 0.645,-0.655 0.253,-0.194 0.548,-0.355 0.887,-0.479 0.339,-0.124 0.716,-0.185 1.132,-0.185 0.43,0 0.816,0.074 1.162,0.223 0.345,0.152 0.637,0.353 0.878,0.608 0.241,0.253 0.426,0.553 0.557,0.896 0.13,0.346 0.195,0.714 0.195,1.104 0,0.599 -0.153,1.072 -0.458,1.425 C 4.69,3.289 4.311,3.581 3.855,3.815 3.399,4.05 2.909,4.265 2.381,4.458 1.855,4.655 1.363,4.899 0.908,5.192 0.453,5.483 0.071,5.858 -0.233,6.314 c -0.308,0.457 -0.46,1.066 -0.46,1.833 0,0.549 0.099,1.046 0.293,1.495 0.194,0.449 0.478,0.835 0.849,1.16 0.371,0.325 0.817,0.581 1.338,0.764 0.52,0.18 1.105,0.273 1.756,0.273 0.625,0 1.165,-0.077 1.62,-0.226 C 5.618,11.464 6.042,11.234 6.431,10.92 6.315,10.699 6.217,10.463 6.14,10.218 6.061,9.969 5.983,9.658 5.905,9.281 l -0.235,0 C 5.605,9.464 5.517,9.66 5.407,9.877 5.297,10.091 5.147,10.29 4.958,10.47 4.77,10.653 4.544,10.807 4.284,10.931 4.025,11.053 3.713,11.116 3.347,11.116 2.984,11.116 2.648,11.058 2.343,10.94 2.037,10.823 1.769,10.658 1.542,10.441 1.314,10.227 1.14,9.969 1.015,9.671 0.891,9.371 0.83,9.046 0.83,8.696 0.83,8.084 0.982,7.602 1.289,7.251 1.594,6.899 1.975,6.603 2.431,6.362 2.885,6.122 3.376,5.906 3.904,5.719 4.431,5.531 4.922,5.298 5.377,5.025 5.833,4.752 6.213,4.402 6.519,3.971 6.825,3.542 6.979,2.968 6.979,2.253 6.979,1.654 6.871,1.088 6.657,0.555 6.441,0.022 6.129,-0.443 5.72,-0.84 5.31,-1.238 4.808,-1.542 4.217,-1.759 3.624,-1.971 2.95,-2.08 2.196,-2.08 c -0.807,0 -1.461,0.109 -1.962,0.321 -0.501,0.217 -0.922,0.461 -1.259,0.734 0.117,0.297 0.198,0.568 0.244,0.81 0.047,0.239 0.088,0.549 0.128,0.926 l 0.232,0 C -0.316,0.479 -0.174,0.239 0,0" /></g><g
           style="fill:#ffffff"
           transform="translate(256.415,77.2876)"
           id="g3401"><path
             id="path3403"
             style="fill:#ffffff;fill-opacity:1;fill-rule:nonzero;stroke:none"
             d="M 0,0 C 0.195,0.194 0.43,0.291 0.704,0.291 0.977,0.291 1.211,0.194 1.406,0 1.6,-0.197 1.698,-0.432 1.698,-0.705 1.698,-0.978 1.6,-1.213 1.406,-1.407 1.211,-1.604 0.977,-1.7 0.704,-1.7 0.43,-1.7 0.195,-1.604 0,-1.407 c -0.195,0.194 -0.292,0.429 -0.292,0.702 0,0.273 0.097,0.508 0.292,0.705 m -3.69,-10.464 c 0.338,0 0.691,-0.007 1.054,-0.019 0.366,-0.014 0.716,-0.019 1.054,-0.019 0.364,0 0.73,0.002 1.093,0.008 0.366,0.007 0.73,0.018 1.094,0.03 l -2.166,4.957 -2.129,-4.957 z M -3.846,0 c 0.196,0.194 0.429,0.291 0.702,0.291 0.275,0 0.508,-0.097 0.705,-0.291 0.194,-0.197 0.292,-0.432 0.292,-0.705 0,-0.273 -0.098,-0.508 -0.292,-0.702 -0.197,-0.197 -0.43,-0.293 -0.705,-0.293 -0.273,0 -0.506,0.096 -0.702,0.293 -0.194,0.194 -0.292,0.429 -0.292,0.702 0,0.273 0.098,0.508 0.292,0.705 m 3.945,-5.321 c 0.363,-0.876 0.733,-1.766 1.112,-2.664 0.376,-0.897 0.754,-1.789 1.132,-2.674 0.377,-0.884 0.731,-1.709 1.063,-2.469 0.332,-0.761 0.632,-1.441 0.898,-2.041 0.267,-0.599 0.485,-1.052 0.654,-1.367 -0.182,0.028 -0.354,0.041 -0.517,0.041 l -0.517,0 -0.518,0 c -0.163,0 -0.335,-0.013 -0.517,-0.041 -0.091,0.301 -0.215,0.662 -0.371,1.084 -0.157,0.425 -0.329,0.868 -0.517,1.328 -0.189,0.463 -0.381,0.93 -0.575,1.407 -0.197,0.474 -0.38,0.925 -0.547,1.356 -0.417,0.011 -0.839,0.021 -1.27,0.029 -0.43,0.005 -0.859,0.01 -1.287,0.01 -0.405,0 -0.801,-0.005 -1.191,-0.01 -0.391,-0.008 -0.788,-0.018 -1.192,-0.029 -0.416,-1.015 -0.793,-1.982 -1.131,-2.898 -0.338,-0.92 -0.593,-1.676 -0.762,-2.277 -0.221,0.028 -0.461,0.041 -0.721,0.041 -0.262,0 -0.501,-0.013 -0.722,-0.041 1.052,2.279 2.082,4.543 3.084,6.794 1.001,2.251 2.009,4.542 3.025,6.872 l 0.371,0 c 0.311,-0.756 0.649,-1.571 1.016,-2.451" /></g><g
           style="fill:#ffffff"
           transform="translate(273.251,61.2104)"
           id="g3405"><path
             id="path3407"
             style="fill:#ffffff;fill-opacity:1;fill-rule:nonzero;stroke:none"
             d="m 0,0 c -0.255,-0.122 -0.56,-0.232 -0.917,-0.332 -0.359,-0.097 -0.759,-0.185 -1.202,-0.262 -0.442,-0.079 -0.903,-0.117 -1.384,-0.117 -1.03,0 -1.979,0.147 -2.851,0.438 -0.872,0.294 -1.624,0.741 -2.254,1.339 -0.632,0.598 -1.126,1.33 -1.483,2.194 -0.359,0.867 -0.537,1.851 -0.537,2.958 0,1.106 0.178,2.093 0.537,2.957 0.357,0.865 0.858,1.598 1.501,2.197 0.646,0.598 1.416,1.054 2.314,1.366 0.899,0.311 1.888,0.47 2.967,0.47 0.859,0 1.642,-0.088 2.352,-0.265 C -0.248,12.767 0.38,12.555 0.926,12.309 0.822,12.126 0.738,11.88 0.672,11.566 0.607,11.254 0.556,10.993 0.517,10.787 l -0.118,-0.04 c -0.13,0.155 -0.311,0.331 -0.546,0.528 -0.234,0.194 -0.507,0.384 -0.819,0.564 -0.314,0.183 -0.664,0.337 -1.055,0.461 -0.39,0.121 -0.818,0.185 -1.288,0.185 -0.768,0 -1.48,-0.124 -2.137,-0.373 -0.658,-0.246 -1.229,-0.627 -1.717,-1.14 -0.488,-0.514 -0.869,-1.165 -1.142,-1.953 -0.274,-0.787 -0.411,-1.72 -0.411,-2.801 0,-1.079 0.137,-2.014 0.411,-2.8 0.273,-0.788 0.654,-1.44 1.142,-1.953 0.488,-0.514 1.059,-0.896 1.717,-1.142 0.657,-0.246 1.369,-0.37 2.137,-0.37 0.47,0 0.9,0.059 1.298,0.176 0.397,0.118 0.761,0.255 1.094,0.42 0.33,0.162 0.63,0.336 0.897,0.526 0.266,0.19 0.491,0.354 0.673,0.496 L 0.731,1.495 0.556,0.343 C 0.439,0.237 0.252,0.124 0,0" /></g><g
           style="fill:#ffffff"
           transform="translate(286.5439,71.6343)"
           id="g3409"><path
             id="path3411"
             style="fill:#ffffff;fill-opacity:1;fill-rule:nonzero;stroke:none"
             d="M 0,0 C -0.033,0.829 -0.068,1.67 -0.108,2.528 0.062,2.504 0.224,2.479 0.38,2.461 0.535,2.44 0.692,2.431 0.849,2.431 c 0.156,0 0.311,0.009 0.467,0.03 0.158,0.018 0.32,0.043 0.49,0.067 C 1.766,1.67 1.729,0.829 1.697,0 1.665,-0.826 1.648,-1.668 1.648,-2.526 l 0,-3.357 c 0,-0.861 0.017,-1.707 0.049,-2.538 0.032,-0.833 0.069,-1.653 0.109,-2.461 -0.3,0.027 -0.618,0.041 -0.957,0.041 -0.339,0 -0.659,-0.014 -0.957,-0.041 0.04,0.808 0.075,1.628 0.108,2.461 0.032,0.831 0.049,1.677 0.049,2.538 l 0,1.756 c -0.703,0.011 -1.383,0.023 -2.04,0.029 -0.657,0.007 -1.338,0.01 -2.041,0.01 -0.702,0 -1.382,-0.003 -2.039,-0.01 -0.657,-0.006 -1.337,-0.018 -2.041,-0.029 l 0,-1.756 c 0,-0.861 0.017,-1.707 0.05,-2.538 0.032,-0.833 0.068,-1.653 0.107,-2.461 -0.299,0.027 -0.617,0.041 -0.956,0.041 -0.339,0 -0.657,-0.014 -0.957,-0.041 0.038,0.808 0.074,1.628 0.108,2.461 0.032,0.831 0.048,1.677 0.048,2.538 l 0,3.357 c 0,0.858 -0.016,1.7 -0.048,2.526 -0.034,0.829 -0.07,1.67 -0.108,2.528 0.169,-0.024 0.332,-0.049 0.487,-0.067 0.158,-0.021 0.314,-0.03 0.47,-0.03 0.156,0 0.311,0.009 0.467,0.03 0.158,0.018 0.32,0.043 0.489,0.067 C -7.994,1.67 -8.03,0.829 -8.062,0 c -0.033,-0.826 -0.05,-1.668 -0.05,-2.526 l 0,-0.684 c 0.704,-0.014 1.384,-0.025 2.041,-0.039 0.657,-0.013 1.337,-0.02 2.039,-0.02 0.703,0 1.384,0.007 2.041,0.02 0.657,0.014 1.337,0.025 2.04,0.039 l 0,0.684 C 0.049,-1.668 0.032,-0.826 0,0" /></g><g
           style="fill:#ffffff"
           transform="translate(292.1074,62.5791)"
           id="g3413"><path
             id="path3415"
             style="fill:#ffffff;fill-opacity:1;fill-rule:nonzero;stroke:none"
             d="m 0,0 c 0.176,-0.242 0.391,-0.461 0.644,-0.655 0.253,-0.194 0.55,-0.355 0.887,-0.479 0.339,-0.124 0.716,-0.185 1.133,-0.185 0.43,0 0.815,0.074 1.161,0.223 0.346,0.152 0.638,0.353 0.878,0.608 0.242,0.253 0.427,0.553 0.557,0.896 0.13,0.346 0.195,0.714 0.195,1.104 0,0.599 -0.152,1.072 -0.458,1.425 C 4.691,3.289 4.311,3.581 3.854,3.815 3.399,4.05 2.908,4.265 2.382,4.458 1.854,4.655 1.363,4.899 0.907,5.192 0.451,5.483 0.069,5.858 -0.235,6.314 -0.541,6.771 -0.693,7.38 -0.693,8.147 c 0,0.549 0.096,1.046 0.292,1.495 0.195,0.449 0.479,0.835 0.85,1.16 0.37,0.325 0.816,0.581 1.336,0.764 0.521,0.18 1.107,0.273 1.757,0.273 0.625,0 1.165,-0.077 1.619,-0.226 0.456,-0.149 0.88,-0.379 1.27,-0.693 C 6.313,10.699 6.216,10.463 6.139,10.218 6.061,9.969 5.982,9.658 5.904,9.281 l -0.234,0 C 5.605,9.464 5.516,9.66 5.407,9.877 5.296,10.091 5.146,10.29 4.957,10.47 4.769,10.653 4.544,10.807 4.285,10.931 4.022,11.053 3.711,11.116 3.347,11.116 2.982,11.116 2.647,11.058 2.342,10.94 2.036,10.823 1.77,10.658 1.542,10.441 1.313,10.227 1.138,9.969 1.014,9.671 0.891,9.371 0.829,9.046 0.829,8.696 0.829,8.084 0.981,7.602 1.287,7.251 1.594,6.899 1.974,6.603 2.43,6.362 2.885,6.122 3.377,5.906 3.903,5.719 4.43,5.531 4.921,5.298 5.377,5.025 5.832,4.752 6.213,4.402 6.519,3.971 6.824,3.542 6.978,2.968 6.978,2.253 6.978,1.654 6.871,1.088 6.655,0.555 6.44,0.022 6.128,-0.443 5.72,-0.84 5.31,-1.238 4.808,-1.542 4.216,-1.759 3.623,-1.971 2.95,-2.08 2.195,-2.08 c -0.807,0 -1.461,0.109 -1.961,0.321 -0.501,0.217 -0.922,0.461 -1.259,0.734 0.117,0.297 0.198,0.568 0.244,0.81 0.045,0.239 0.088,0.549 0.126,0.926 l 0.234,0 C -0.316,0.479 -0.177,0.239 0,0" /></g><g
           style="fill:#ffffff"
           transform="translate(301.9258,71.6343)"
           id="g3417"><path
             id="path3419"
             style="fill:#ffffff;fill-opacity:1;fill-rule:nonzero;stroke:none"
             d="M 0,0 C -0.033,0.829 -0.069,1.67 -0.107,2.528 0.062,2.504 0.225,2.479 0.38,2.461 0.536,2.44 0.692,2.431 0.85,2.431 1.006,2.431 1.161,2.44 1.317,2.461 1.475,2.479 1.636,2.504 1.806,2.528 1.766,1.67 1.73,0.829 1.699,0 1.664,-0.826 1.648,-1.668 1.648,-2.526 l 0,-3.357 c 0,-0.861 0.016,-1.707 0.051,-2.538 0.031,-0.833 0.067,-1.653 0.107,-2.461 -0.3,0.027 -0.618,0.041 -0.956,0.041 -0.339,0 -0.659,-0.014 -0.957,-0.041 0.038,0.808 0.074,1.628 0.107,2.461 0.032,0.831 0.048,1.677 0.048,2.538 l 0,3.357 C 0.048,-1.668 0.032,-0.826 0,0" /></g><g
           style="fill:#ffffff"
           transform="translate(307.4902,62.5791)"
           id="g3421"><path
             id="path3423"
             style="fill:#ffffff;fill-opacity:1;fill-rule:nonzero;stroke:none"
             d="m 0,0 c 0.174,-0.242 0.39,-0.461 0.643,-0.655 0.253,-0.194 0.549,-0.355 0.887,-0.479 0.338,-0.124 0.716,-0.185 1.133,-0.185 0.429,0 0.816,0.074 1.161,0.223 0.345,0.152 0.639,0.353 0.879,0.608 0.24,0.253 0.426,0.553 0.557,0.896 0.13,0.346 0.194,0.714 0.194,1.104 0,0.599 -0.151,1.072 -0.459,1.425 C 4.69,3.289 4.31,3.581 3.854,3.815 3.398,4.05 2.907,4.265 2.38,4.458 1.853,4.655 1.362,4.899 0.907,5.192 0.45,5.483 0.069,5.858 -0.235,6.314 -0.541,6.771 -0.693,7.38 -0.693,8.147 c 0,0.549 0.096,1.046 0.29,1.495 0.197,0.449 0.479,0.835 0.851,1.16 0.37,0.325 0.816,0.581 1.336,0.764 0.521,0.18 1.107,0.273 1.758,0.273 0.625,0 1.164,-0.077 1.619,-0.226 0.455,-0.149 0.88,-0.379 1.27,-0.693 C 6.313,10.699 6.216,10.463 6.138,10.218 6.059,9.969 5.982,9.658 5.902,9.281 l -0.233,0 C 5.604,9.464 5.516,9.66 5.406,9.877 5.295,10.091 5.146,10.29 4.957,10.47 4.768,10.653 4.543,10.807 4.284,10.931 4.022,11.053 3.711,11.116 3.346,11.116 2.982,11.116 2.647,11.058 2.34,10.94 2.036,10.823 1.768,10.658 1.541,10.441 1.313,10.227 1.138,9.969 1.013,9.671 0.89,9.371 0.828,9.046 0.828,8.696 0.828,8.084 0.981,7.602 1.286,7.251 1.594,6.899 1.973,6.603 2.429,6.362 2.885,6.122 3.376,5.906 3.902,5.719 4.429,5.531 4.921,5.298 5.377,5.025 5.832,4.752 6.212,4.402 6.518,3.971 6.824,3.542 6.978,2.968 6.978,2.253 6.978,1.654 6.869,1.088 6.654,0.555 6.44,0.022 6.128,-0.443 5.718,-0.84 5.308,-1.238 4.807,-1.542 4.214,-1.759 3.623,-1.971 2.949,-2.08 2.193,-2.08 c -0.805,0 -1.461,0.109 -1.961,0.321 -0.501,0.217 -0.92,0.461 -1.257,0.734 0.117,0.297 0.199,0.568 0.244,0.81 0.045,0.239 0.088,0.549 0.126,0.926 l 0.234,0 C -0.317,0.479 -0.177,0.239 0,0" /></g><g
           style="fill:#ffffff"
           transform="translate(326.8916,61.2104)"
           id="g3425"><path
             id="path3427"
             style="fill:#ffffff;fill-opacity:1;fill-rule:nonzero;stroke:none"
             d="m 0,0 c -0.255,-0.122 -0.56,-0.232 -0.916,-0.332 -0.359,-0.097 -0.76,-0.185 -1.203,-0.262 -0.442,-0.079 -0.904,-0.117 -1.384,-0.117 -1.029,0 -1.979,0.147 -2.851,0.438 -0.873,0.294 -1.624,0.741 -2.254,1.339 -0.632,0.598 -1.127,1.33 -1.484,2.194 -0.358,0.867 -0.537,1.851 -0.537,2.958 0,1.106 0.179,2.093 0.537,2.957 0.357,0.865 0.858,1.598 1.503,2.197 0.645,0.598 1.414,1.054 2.313,1.366 0.899,0.311 1.887,0.47 2.966,0.47 0.861,0 1.644,-0.088 2.353,-0.265 0.709,-0.176 1.338,-0.388 1.884,-0.634 C 0.822,12.126 0.738,11.88 0.673,11.566 0.607,11.254 0.556,10.993 0.518,10.787 l -0.119,-0.04 c -0.13,0.155 -0.311,0.331 -0.545,0.528 -0.236,0.194 -0.508,0.384 -0.821,0.564 -0.312,0.183 -0.664,0.337 -1.054,0.461 -0.389,0.121 -0.819,0.185 -1.289,0.185 -0.767,0 -1.478,-0.124 -2.136,-0.373 -0.658,-0.246 -1.23,-0.627 -1.717,-1.14 -0.489,-0.514 -0.869,-1.165 -1.143,-1.953 -0.273,-0.787 -0.41,-1.72 -0.41,-2.801 0,-1.079 0.137,-2.014 0.41,-2.8 0.274,-0.788 0.654,-1.44 1.143,-1.953 0.487,-0.514 1.059,-0.896 1.717,-1.142 0.658,-0.246 1.369,-0.37 2.136,-0.37 0.47,0 0.903,0.059 1.299,0.176 0.398,0.118 0.762,0.255 1.095,0.42 0.329,0.162 0.629,0.336 0.896,0.526 0.267,0.19 0.492,0.354 0.672,0.496 L 0.731,1.495 0.556,0.343 C 0.439,0.237 0.253,0.124 0,0" /></g><g
           style="fill:#ffffff"
           transform="translate(340.1846,71.6343)"
           id="g3429"><path
             id="path3431"
             style="fill:#ffffff;fill-opacity:1;fill-rule:nonzero;stroke:none"
             d="M 0,0 C -0.033,0.829 -0.067,1.67 -0.107,2.528 0.062,2.504 0.226,2.479 0.379,2.461 0.537,2.44 0.693,2.431 0.85,2.431 1.004,2.431 1.16,2.44 1.318,2.461 1.475,2.479 1.637,2.504 1.807,2.528 1.766,1.67 1.73,0.829 1.697,0 1.665,-0.826 1.649,-1.668 1.649,-2.526 l 0,-3.357 c 0,-0.861 0.016,-1.707 0.048,-2.538 0.033,-0.833 0.069,-1.653 0.11,-2.461 -0.301,0.027 -0.619,0.041 -0.957,0.041 -0.339,0 -0.659,-0.014 -0.957,-0.041 0.04,0.808 0.074,1.628 0.107,2.461 0.032,0.831 0.049,1.677 0.049,2.538 l 0,1.756 c -0.703,0.011 -1.383,0.023 -2.039,0.029 -0.658,0.007 -1.337,0.01 -2.041,0.01 -0.702,0 -1.382,-0.003 -2.04,-0.01 -0.657,-0.006 -1.337,-0.018 -2.039,-0.029 l 0,-1.756 c 0,-0.861 0.015,-1.707 0.047,-2.538 0.033,-0.833 0.07,-1.653 0.11,-2.461 -0.301,0.027 -0.618,0.041 -0.957,0.041 -0.339,0 -0.658,-0.014 -0.958,-0.041 0.04,0.808 0.076,1.628 0.108,2.461 0.031,0.831 0.047,1.677 0.047,2.538 l 0,3.357 c 0,0.858 -0.016,1.7 -0.047,2.526 -0.032,0.829 -0.068,1.67 -0.108,2.528 0.169,-0.024 0.332,-0.049 0.488,-0.067 0.157,-0.021 0.314,-0.03 0.47,-0.03 0.155,0 0.311,0.009 0.469,0.03 0.156,0.018 0.318,0.043 0.488,0.067 C -7.993,1.67 -8.03,0.829 -8.063,0 -8.095,-0.826 -8.11,-1.668 -8.11,-2.526 l 0,-0.684 c 0.702,-0.014 1.382,-0.025 2.039,-0.039 0.658,-0.013 1.338,-0.02 2.04,-0.02 0.704,0 1.383,0.007 2.041,0.02 0.656,0.014 1.336,0.025 2.039,0.039 l 0,0.684 C 0.049,-1.668 0.032,-0.826 0,0" /></g><g
           style="fill:#ffffff"
           transform="translate(345.71,71.666)"
           id="g3433"><path
             id="path3435"
             style="fill:#ffffff;fill-opacity:1;fill-rule:nonzero;stroke:none"
             d="m 0,0 c -0.035,0.831 -0.07,1.664 -0.109,2.497 0.586,-0.025 1.167,-0.05 1.748,-0.068 0.579,-0.02 1.16,-0.03 1.747,-0.03 0.585,0 1.164,0.01 1.736,0.03 C 5.696,2.447 6.274,2.472 6.859,2.497 6.821,2.303 6.801,2.106 6.801,1.912 6.801,1.715 6.821,1.521 6.859,1.325 6.442,1.352 6.062,1.376 5.718,1.404 5.373,1.429 5.009,1.456 4.625,1.481 4.241,1.508 3.822,1.53 3.366,1.551 2.909,1.571 2.363,1.58 1.727,1.58 1.713,1.162 1.697,0.765 1.677,0.388 1.657,0.011 1.647,-0.418 1.647,-0.899 c 0,-0.508 0.004,-1.002 0.01,-1.483 0.007,-0.483 0.011,-0.847 0.011,-1.095 0.57,0 1.085,0.007 1.542,0.02 0.456,0.014 0.871,0.03 1.25,0.05 0.375,0.018 0.726,0.039 1.044,0.058 0.317,0.019 0.621,0.041 0.907,0.068 -0.039,-0.196 -0.058,-0.397 -0.058,-0.605 0,-0.196 0.019,-0.39 0.058,-0.585 -0.339,0.039 -0.732,0.071 -1.181,0.097 -0.449,0.026 -0.898,0.041 -1.347,0.048 -0.449,0.007 -0.871,0.014 -1.269,0.021 -0.396,0.006 -0.711,0.009 -0.946,0.009 0,-0.116 -0.004,-0.244 -0.011,-0.38 -0.006,-0.137 -0.01,-0.309 -0.01,-0.517 l 0,-0.763 0,-1.169 c 0,-0.743 0.004,-1.355 0.01,-1.836 0.007,-0.483 0.018,-0.847 0.031,-1.092 l 1.367,0 c 0.493,0 0.977,0.009 1.453,0.029 0.473,0.018 0.924,0.045 1.346,0.076 0.424,0.034 0.792,0.082 1.103,0.147 -0.027,-0.09 -0.043,-0.192 -0.049,-0.303 -0.007,-0.11 -0.01,-0.209 -0.01,-0.302 0,-0.207 0.021,-0.377 0.059,-0.508 -0.585,0.027 -1.168,0.041 -1.747,0.041 l -1.766,0 -1.776,0 c -0.586,0 -1.179,-0.014 -1.777,-0.041 0.039,0.833 0.074,1.664 0.109,2.491 0.031,0.826 0.047,1.668 0.047,2.526 l 0,3.359 C 0.047,-1.68 0.031,-0.833 0,0" /></g><g
           style="fill:#ffffff"
           transform="translate(361.1289,62.5791)"
           id="g3437"><path
             id="path3439"
             style="fill:#ffffff;fill-opacity:1;fill-rule:nonzero;stroke:none"
             d="m 0,0 c 0.176,-0.242 0.391,-0.461 0.645,-0.655 0.252,-0.194 0.549,-0.355 0.888,-0.479 0.338,-0.124 0.714,-0.185 1.131,-0.185 0.431,0 0.817,0.074 1.161,0.223 0.345,0.152 0.639,0.353 0.88,0.608 0.24,0.253 0.426,0.553 0.556,0.896 0.13,0.346 0.195,0.714 0.195,1.104 0,0.599 -0.153,1.072 -0.458,1.425 C 4.691,3.289 4.311,3.581 3.855,3.815 3.4,4.05 2.909,4.265 2.383,4.458 1.854,4.655 1.364,4.899 0.908,5.192 0.452,5.483 0.071,5.858 -0.235,6.314 -0.539,6.771 -0.693,7.38 -0.693,8.147 c 0,0.549 0.098,1.046 0.294,1.495 0.193,0.449 0.478,0.835 0.849,1.16 0.37,0.325 0.817,0.581 1.336,0.764 0.52,0.18 1.106,0.273 1.756,0.273 0.626,0 1.165,-0.077 1.621,-0.226 C 5.618,11.464 6.041,11.234 6.433,10.92 6.314,10.699 6.217,10.463 6.139,10.218 6.063,9.969 5.983,9.658 5.904,9.281 l -0.233,0 C 5.605,9.464 5.518,9.66 5.407,9.877 5.297,10.091 5.147,10.29 4.958,10.47 4.77,10.653 4.545,10.807 4.285,10.931 4.023,11.053 3.712,11.116 3.349,11.116 2.982,11.116 2.648,11.058 2.343,10.94 2.036,10.823 1.77,10.658 1.542,10.441 1.313,10.227 1.138,9.969 1.015,9.671 0.893,9.371 0.829,9.046 0.829,8.696 0.829,8.084 0.982,7.602 1.287,7.251 1.594,6.899 1.975,6.603 2.43,6.362 2.886,6.122 3.378,5.906 3.904,5.719 4.432,5.531 4.922,5.298 5.378,5.025 5.833,4.752 6.213,4.402 6.521,3.971 6.825,3.542 6.979,2.968 6.979,2.253 6.979,1.654 6.871,1.088 6.655,0.555 6.441,0.022 6.129,-0.443 5.72,-0.84 5.311,-1.238 4.809,-1.542 4.217,-1.759 3.624,-1.971 2.951,-2.08 2.195,-2.08 c -0.806,0 -1.46,0.109 -1.961,0.321 -0.501,0.217 -0.92,0.461 -1.258,0.734 0.117,0.297 0.198,0.568 0.243,0.81 0.045,0.239 0.088,0.549 0.128,0.926 l 0.233,0 C -0.315,0.479 -0.177,0.239 0,0" /></g><g
           style="fill:#ffffff"
           transform="translate(373.6494,73.147)"
           id="g3441"><path
             id="path3443"
             style="fill:#ffffff;fill-opacity:1;fill-rule:nonzero;stroke:none"
             d="m 0,0 c -0.337,0 -0.691,-0.002 -1.063,-0.009 -0.371,-0.007 -0.742,-0.018 -1.112,-0.039 -0.371,-0.02 -0.727,-0.043 -1.074,-0.067 -0.345,-0.028 -0.654,-0.059 -0.928,-0.1 0.067,0.235 0.099,0.443 0.099,0.626 0,0.144 -0.032,0.345 -0.099,0.605 0.862,-0.025 1.699,-0.05 2.519,-0.068 0.821,-0.02 1.658,-0.03 2.519,-0.03 0.859,0 1.698,0.01 2.517,0.03 0.821,0.018 1.66,0.043 2.518,0.068 C 5.832,0.756 5.798,0.548 5.798,0.39 5.798,0.224 5.832,0.02 5.896,-0.215 5.623,-0.174 5.313,-0.143 4.97,-0.115 4.625,-0.091 4.266,-0.068 3.895,-0.048 3.524,-0.027 3.154,-0.016 2.783,-0.009 2.412,-0.002 2.058,0 1.72,0 1.68,-1.339 1.661,-2.687 1.661,-4.039 l 0,-3.357 c 0,-0.86 0.016,-1.707 0.048,-2.538 0.032,-0.833 0.068,-1.652 0.109,-2.461 -0.3,0.027 -0.618,0.041 -0.957,0.041 -0.339,0 -0.658,-0.014 -0.958,-0.041 0.038,0.809 0.076,1.628 0.109,2.461 0.031,0.831 0.047,1.678 0.047,2.538 l 0,3.357 C 0.059,-2.687 0.041,-1.339 0,0" /></g><g
           style="fill:#ffffff"
           transform="translate(382.6309,66.8232)"
           id="g3445"><path
             id="path3447"
             style="fill:#ffffff;fill-opacity:1;fill-rule:nonzero;stroke:none"
             d="m 0,0 c 0.338,0 0.688,-0.007 1.054,-0.019 0.364,-0.013 0.717,-0.019 1.055,-0.019 0.363,0 0.727,0.002 1.093,0.009 C 3.564,-0.022 3.93,-0.012 4.294,0 L 2.127,4.958 0,0 Z M 8.647,-6.071 C 8.464,-6.044 8.293,-6.03 8.13,-6.03 l -0.517,0 -0.518,0 C 6.932,-6.03 6.76,-6.044 6.577,-6.071 6.486,-5.771 6.363,-5.409 6.206,-4.987 6.051,-4.563 5.878,-4.12 5.689,-3.66 5.5,-3.197 5.309,-2.729 5.113,-2.253 4.919,-1.779 4.737,-1.328 4.567,-0.896 4.15,-0.885 3.728,-0.876 3.298,-0.867 2.869,-0.862 2.44,-0.858 2.011,-0.858 1.607,-0.858 1.21,-0.862 0.819,-0.867 0.429,-0.876 0.031,-0.885 -0.37,-0.896 -0.788,-1.912 -1.165,-2.878 -1.504,-3.795 -1.842,-4.714 -2.095,-5.47 -2.265,-6.071 c -0.221,0.027 -0.463,0.041 -0.722,0.041 -0.26,0 -0.5,-0.014 -0.722,-0.041 1.054,2.278 2.082,4.543 3.083,6.794 1.003,2.251 2.013,4.542 3.026,6.872 l 0.371,0 C 3.084,6.838 3.423,6.023 3.786,5.143 4.15,4.267 4.521,3.377 4.899,2.479 5.276,1.583 5.653,0.69 6.031,-0.194 6.408,-1.079 6.763,-1.903 7.095,-2.664 7.427,-3.425 7.726,-4.104 7.993,-4.705 8.26,-5.304 8.478,-5.757 8.647,-6.071" /></g><g
           style="fill:#ffffff"
           transform="translate(395.7471,66.8232)"
           id="g3449"><path
             id="path3451"
             style="fill:#ffffff;fill-opacity:1;fill-rule:nonzero;stroke:none"
             d="m 0,0 c 0.339,0 0.69,-0.007 1.056,-0.019 0.362,-0.013 0.715,-0.019 1.053,-0.019 0.364,0 0.729,0.002 1.093,0.009 0.363,0.007 0.73,0.017 1.093,0.029 L 2.129,4.958 0,0 Z M 8.647,-6.071 C 8.466,-6.044 8.293,-6.03 8.131,-6.03 l -0.518,0 -0.516,0 c -0.163,0 -0.336,-0.014 -0.518,-0.041 -0.092,0.3 -0.216,0.662 -0.371,1.084 C 6.051,-4.563 5.88,-4.12 5.691,-3.66 5.503,-3.197 5.31,-2.729 5.115,-2.253 4.921,-1.779 4.737,-1.328 4.568,-0.896 4.153,-0.885 3.729,-0.876 3.3,-0.867 2.87,-0.862 2.441,-0.858 2.013,-0.858 1.608,-0.858 1.211,-0.862 0.82,-0.867 0.43,-0.876 0.033,-0.885 -0.37,-0.896 -0.787,-1.912 -1.164,-2.878 -1.502,-3.795 -1.841,-4.714 -2.095,-5.47 -2.264,-6.071 c -0.221,0.027 -0.462,0.041 -0.722,0.041 -0.26,0 -0.501,-0.014 -0.723,-0.041 1.056,2.278 2.083,4.543 3.085,6.794 1.002,2.251 2.011,4.542 3.025,6.872 l 0.37,0 C 3.084,6.838 3.423,6.023 3.787,5.143 4.153,4.267 4.523,3.377 4.899,2.479 5.277,1.583 5.653,0.69 6.032,-0.194 c 0.379,-0.885 0.733,-1.709 1.065,-2.47 0.332,-0.761 0.631,-1.44 0.897,-2.041 0.268,-0.599 0.485,-1.052 0.653,-1.366" /></g><g
           style="fill:#ffffff"
           transform="translate(407.9473,73.147)"
           id="g3453"><path
             id="path3455"
             style="fill:#ffffff;fill-opacity:1;fill-rule:nonzero;stroke:none"
             d="m 0,0 c -0.338,0 -0.692,-0.002 -1.064,-0.009 -0.371,-0.007 -0.741,-0.018 -1.112,-0.039 -0.371,-0.02 -0.728,-0.043 -1.074,-0.067 -0.346,-0.028 -0.654,-0.059 -0.927,-0.1 0.065,0.235 0.099,0.443 0.099,0.626 0,0.144 -0.034,0.345 -0.099,0.605 0.86,-0.025 1.698,-0.05 2.518,-0.068 0.82,-0.02 1.659,-0.03 2.517,-0.03 0.86,0 1.699,0.01 2.52,0.03 C 4.197,0.966 5.035,0.991 5.896,1.016 5.83,0.756 5.798,0.548 5.798,0.39 5.798,0.224 5.83,0.02 5.896,-0.215 5.623,-0.174 5.313,-0.143 4.968,-0.115 4.622,-0.091 4.266,-0.068 3.895,-0.048 3.522,-0.027 3.152,-0.016 2.782,-0.009 2.411,-0.002 2.056,0 1.718,0 1.679,-1.339 1.66,-2.687 1.66,-4.039 l 0,-3.357 c 0,-0.86 0.016,-1.707 0.047,-2.538 0.034,-0.833 0.069,-1.652 0.109,-2.461 -0.299,0.027 -0.619,0.041 -0.958,0.041 -0.337,0 -0.657,-0.014 -0.957,-0.041 0.04,0.809 0.076,1.628 0.11,2.461 0.031,0.831 0.048,1.678 0.048,2.538 l 0,3.357 C 0.059,-2.687 0.04,-1.339 0,0" /></g><g
           style="fill:#ffffff"
           transform="translate(416.2334,62.5791)"
           id="g3457"><path
             id="path3459"
             style="fill:#ffffff;fill-opacity:1;fill-rule:nonzero;stroke:none"
             d="m 0,0 c 0.177,-0.242 0.392,-0.461 0.646,-0.655 0.251,-0.194 0.548,-0.355 0.887,-0.479 0.337,-0.124 0.714,-0.185 1.132,-0.185 0.429,0 0.816,0.074 1.16,0.223 0.346,0.152 0.639,0.353 0.88,0.608 0.239,0.253 0.425,0.553 0.557,0.896 0.13,0.346 0.194,0.714 0.194,1.104 0,0.599 -0.153,1.072 -0.458,1.425 C 4.691,3.289 4.312,3.581 3.855,3.815 3.4,4.05 2.908,4.265 2.383,4.458 1.854,4.655 1.364,4.899 0.908,5.192 0.452,5.483 0.071,5.858 -0.234,6.314 -0.539,6.771 -0.693,7.38 -0.693,8.147 c 0,0.549 0.098,1.046 0.293,1.495 0.195,0.449 0.478,0.835 0.85,1.16 0.37,0.325 0.816,0.581 1.336,0.764 0.521,0.18 1.107,0.273 1.757,0.273 0.625,0 1.165,-0.077 1.621,-0.226 C 5.619,11.464 6.041,11.234 6.433,10.92 6.315,10.699 6.218,10.463 6.139,10.218 6.062,9.969 5.982,9.658 5.905,9.281 l -0.235,0 C 5.606,9.464 5.519,9.66 5.407,9.877 5.297,10.091 5.148,10.29 4.958,10.47 4.77,10.653 4.545,10.807 4.285,10.931 4.023,11.053 3.712,11.116 3.349,11.116 2.982,11.116 2.649,11.058 2.343,10.94 2.037,10.823 1.771,10.658 1.543,10.441 1.314,10.227 1.138,9.969 1.016,9.671 0.893,9.371 0.83,9.046 0.83,8.696 0.83,8.084 0.982,7.602 1.288,7.251 1.594,6.899 1.975,6.603 2.43,6.362 2.886,6.122 3.378,5.906 3.904,5.719 4.431,5.531 4.923,5.298 5.378,5.025 5.834,4.752 6.214,4.402 6.521,3.971 6.825,3.542 6.979,2.968 6.979,2.253 6.979,1.654 6.871,1.088 6.656,0.555 6.441,0.022 6.13,-0.443 5.721,-0.84 5.311,-1.238 4.81,-1.542 4.217,-1.759 3.624,-1.971 2.951,-2.08 2.196,-2.08 c -0.807,0 -1.461,0.109 -1.961,0.321 -0.502,0.217 -0.921,0.461 -1.259,0.734 0.117,0.297 0.198,0.568 0.243,0.81 0.045,0.239 0.088,0.549 0.128,0.926 l 0.234,0 C -0.315,0.479 -0.176,0.239 0,0" /></g><path
           id="path3461"
           style="fill:#ffffff;fill-opacity:1;fill-rule:nonzero;stroke:none"
           d="m 429.869,64.697 -4.859,0 0,1.21 4.859,0 0,-1.21 z" /><g
           style="fill:#ffffff"
           transform="translate(448.373,72.0947)"
           id="g3463"><path
             id="path3465"
             style="fill:#ffffff;fill-opacity:1;fill-rule:nonzero;stroke:none"
             d="M 0,0 C -0.014,1 -0.045,1.691 -0.096,2.068 0.045,2.043 0.182,2.018 0.313,2 0.442,1.98 0.572,1.971 0.703,1.971 0.872,1.971 1.068,2.002 1.29,2.068 1.249,1.612 1.21,1.07 1.173,0.438 1.132,-0.192 1.101,-0.869 1.073,-1.592 1.048,-2.314 1.021,-3.057 0.996,-3.817 0.969,-4.578 0.951,-5.316 0.938,-6.032 0.924,-6.904 0.791,-7.685 0.538,-8.374 c -0.255,-0.69 -0.616,-1.275 -1.084,-1.756 -0.469,-0.483 -1.045,-0.847 -1.727,-1.095 -0.684,-0.246 -1.467,-0.37 -2.352,-0.37 -1.953,0 -3.37,0.442 -4.256,1.327 -0.885,0.885 -1.327,2.285 -1.327,4.197 0,0.612 0.016,1.154 0.049,1.63 0.031,0.475 0.048,0.96 0.048,1.454 0,1.092 -0.013,2.062 -0.038,2.908 -0.028,0.847 -0.053,1.562 -0.08,2.147 0.156,-0.025 0.325,-0.05 0.508,-0.068 0.183,-0.02 0.353,-0.029 0.508,-0.029 0.143,0 0.282,0.009 0.42,0.029 0.136,0.018 0.275,0.043 0.42,0.068 C -8.4,1.781 -8.428,1.407 -8.452,0.946 -8.479,0.483 -8.504,-0.041 -8.528,-0.625 -8.556,-1.21 -8.576,-1.842 -8.587,-2.52 c -0.014,-0.675 -0.021,-1.379 -0.021,-2.108 0,-0.44 0.007,-0.901 0.021,-1.375 0.011,-0.476 0.059,-0.937 0.135,-1.386 0.079,-0.449 0.206,-0.879 0.382,-1.287 0.176,-0.411 0.424,-0.77 0.752,-1.075 0.325,-0.307 0.733,-0.546 1.228,-0.722 0.493,-0.176 1.106,-0.264 1.835,-0.264 0.716,0 1.318,0.106 1.806,0.314 0.488,0.207 0.887,0.48 1.201,0.819 0.311,0.339 0.555,0.729 0.731,1.172 0.176,0.44 0.303,0.903 0.382,1.384 0.076,0.483 0.121,0.964 0.135,1.444 0.014,0.481 0.02,0.924 0.02,1.328 C 0.02,-2.429 0.014,-1.002 0,0" /></g><g
           style="fill:#ffffff"
           transform="translate(459.7148,65.8188)"
           id="g3467"><path
             id="path3469"
             style="fill:#ffffff;fill-opacity:1;fill-rule:nonzero;stroke:none"
             d="M 0,0 C -1.692,1.815 -3.386,3.621 -5.076,5.416 -5.088,5.052 -5.102,4.564 -5.114,3.953 -5.128,3.341 -5.135,2.508 -5.135,1.454 c 0,-0.273 0.004,-0.612 0.009,-1.014 0.007,-0.404 0.014,-0.829 0.021,-1.271 0.006,-0.443 0.017,-0.89 0.029,-1.346 0.013,-0.456 0.027,-0.878 0.041,-1.268 0.011,-0.391 0.024,-0.732 0.038,-1.026 0.014,-0.293 0.025,-0.492 0.039,-0.596 -0.208,0.027 -0.437,0.041 -0.686,0.041 -0.258,0 -0.5,-0.014 -0.721,-0.041 0.026,0.131 0.055,0.373 0.091,0.723 0.031,0.352 0.06,0.772 0.085,1.26 0.027,0.487 0.056,1.018 0.087,1.591 0.033,0.572 0.059,1.145 0.081,1.716 0.019,0.574 0.035,1.133 0.046,1.68 0.014,0.546 0.02,1.034 0.02,1.463 0,1.25 -0.002,2.322 -0.008,3.221 -0.008,0.899 -0.023,1.57 -0.051,2.012 l 0.315,0 c 0.792,-0.86 1.641,-1.782 2.547,-2.764 0.902,-0.981 1.8,-1.95 2.693,-2.907 0.892,-0.957 1.738,-1.861 2.537,-2.714 0.8,-0.851 1.499,-1.578 2.098,-2.176 l 0,2.655 C 4.176,2.059 4.167,3.389 4.149,4.684 4.128,5.978 4.085,7.199 4.02,8.344 4.28,8.278 4.503,8.247 4.684,8.247 4.84,8.247 5.05,8.278 5.309,8.344 5.282,8.057 5.253,7.628 5.221,7.055 5.188,6.483 5.155,5.872 5.124,5.222 5.091,4.569 5.062,3.933 5.036,3.309 5.009,2.684 4.997,2.183 4.997,1.806 l 0,-1.172 c 0,-0.442 0.002,-0.905 0.01,-1.386 0.006,-0.481 0.014,-0.966 0.019,-1.454 0.006,-0.488 0.012,-0.944 0.019,-1.366 0.007,-0.425 0.011,-0.79 0.011,-1.104 l 0,-0.643 -0.275,0 C 3.286,-3.59 1.689,-1.815 0,0" /></g><g
           style="fill:#ffffff"
           transform="translate(470.5098,61.6128)"
           id="g3471"><path
             id="path3473"
             style="fill:#ffffff;fill-opacity:1;fill-rule:nonzero;stroke:none"
             d="m 0,0 c 0.274,-0.066 0.645,-0.116 1.11,-0.147 0.471,-0.034 0.952,-0.05 1.446,-0.05 0.716,0 1.431,0.086 2.147,0.256 C 5.419,0.225 6.061,0.546 6.627,1.013 7.19,1.483 7.653,2.125 8.013,2.937 8.369,3.75 8.548,4.801 8.548,6.089 8.548,7.222 8.41,8.152 8.131,8.881 7.851,9.608 7.465,10.184 6.979,10.608 6.489,11.03 5.906,11.324 5.23,11.486 4.554,11.649 3.811,11.73 3.006,11.73 2.421,11.73 1.874,11.71 1.366,11.671 0.858,11.633 0.402,11.588 0,11.534 -0.041,10.911 -0.07,10.256 -0.09,9.574 -0.107,8.89 -0.117,8.197 -0.117,7.495 l 0,-3.357 C -0.117,2.731 -0.078,1.352 0,0 m -1.768,10.021 c -0.031,0.829 -0.067,1.671 -0.108,2.529 0.494,-0.025 0.987,-0.05 1.475,-0.068 0.487,-0.02 0.979,-0.029 1.474,-0.029 0.494,0 0.986,0.016 1.475,0.047 0.487,0.034 0.976,0.05 1.473,0.05 1.145,0 2.125,-0.149 2.937,-0.449 0.813,-0.298 1.48,-0.725 2.001,-1.278 0.521,-0.553 0.9,-1.231 1.142,-2.03 0.239,-0.801 0.362,-1.702 0.362,-2.704 0,-1.3 -0.227,-2.398 -0.676,-3.29 C 9.341,1.907 8.767,1.189 8.071,0.643 7.373,0.097 6.605,-0.292 5.767,-0.52 4.929,-0.745 4.125,-0.861 3.354,-0.861 c -0.442,0 -0.875,0.007 -1.306,0.021 -0.429,0.013 -0.864,0.02 -1.308,0.02 l -1.306,0 c -0.432,0 -0.868,-0.013 -1.31,-0.041 0.041,0.809 0.077,1.629 0.108,2.462 0.032,0.83 0.05,1.677 0.05,2.537 l 0,3.357 c 0,0.858 -0.018,1.7 -0.05,2.526" /></g><g
           style="fill:#ffffff"
           transform="translate(183.0596,48.1748)"
           id="g3475"><path
             id="path3477"
             style="fill:#ffffff;fill-opacity:1;fill-rule:nonzero;stroke:none"
             d="M 0,0 C -0.013,1.003 -0.046,1.693 -0.099,2.07 0.045,2.044 0.182,2.021 0.313,2.001 0.442,1.981 0.572,1.974 0.703,1.974 0.873,1.974 1.066,2.005 1.288,2.07 1.25,1.614 1.211,1.07 1.17,0.44 1.132,-0.192 1.1,-0.867 1.073,-1.59 1.048,-2.312 1.021,-3.055 0.995,-3.815 0.97,-4.576 0.949,-5.316 0.937,-6.029 0.924,-6.904 0.792,-7.685 0.537,-8.373 c -0.254,-0.69 -0.615,-1.276 -1.083,-1.757 -0.469,-0.481 -1.045,-0.847 -1.729,-1.093 -0.682,-0.248 -1.466,-0.372 -2.352,-0.372 -1.951,0 -3.37,0.445 -4.254,1.33 -0.886,0.882 -1.328,2.282 -1.328,4.195 0,0.611 0.017,1.155 0.048,1.629 0.033,0.477 0.05,0.96 0.05,1.455 0,1.092 -0.014,2.063 -0.04,2.91 -0.025,0.844 -0.052,1.559 -0.078,2.146 0.156,-0.026 0.326,-0.049 0.509,-0.069 0.181,-0.02 0.35,-0.027 0.506,-0.027 0.144,0 0.284,0.007 0.42,0.027 0.137,0.02 0.277,0.043 0.42,0.069 -0.025,-0.286 -0.053,-0.661 -0.077,-1.122 -0.028,-0.463 -0.052,-0.986 -0.08,-1.571 -0.026,-0.587 -0.045,-1.218 -0.058,-1.894 -0.013,-0.677 -0.018,-1.379 -0.018,-2.109 0,-0.442 0.005,-0.9 0.018,-1.374 0.013,-0.478 0.058,-0.938 0.138,-1.387 0.077,-0.45 0.203,-0.879 0.38,-1.29 0.175,-0.407 0.425,-0.767 0.751,-1.071 0.324,-0.308 0.736,-0.549 1.23,-0.723 0.495,-0.175 1.106,-0.264 1.835,-0.264 0.716,0 1.317,0.104 1.805,0.311 0.489,0.208 0.888,0.482 1.2,0.82 0.313,0.338 0.557,0.729 0.733,1.172 0.175,0.443 0.303,0.905 0.38,1.386 0.078,0.481 0.124,0.964 0.137,1.445 0.012,0.481 0.019,0.923 0.019,1.328 C 0.019,-2.427 0.012,-1.003 0,0" /></g><g
           style="fill:#ffffff"
           transform="translate(194.4009,41.9004)"
           id="g3479"><path
             id="path3481"
             style="fill:#ffffff;fill-opacity:1;fill-rule:nonzero;stroke:none"
             d="M 0,0 C -1.693,1.815 -3.384,3.621 -5.075,5.417 -5.089,5.051 -5.101,4.563 -5.114,3.954 -5.127,3.342 -5.134,2.509 -5.134,1.455 c 0,-0.273 0.002,-0.612 0.009,-1.017 0.007,-0.404 0.014,-0.826 0.021,-1.268 0.006,-0.442 0.015,-0.893 0.029,-1.346 0.013,-0.456 0.026,-0.881 0.038,-1.27 0.014,-0.39 0.027,-0.733 0.039,-1.024 0.013,-0.294 0.027,-0.492 0.04,-0.595 -0.209,0.025 -0.436,0.038 -0.684,0.038 -0.259,0 -0.501,-0.013 -0.722,-0.038 0.027,0.13 0.056,0.37 0.088,0.722 0.033,0.353 0.062,0.77 0.088,1.259 0.025,0.488 0.056,1.019 0.088,1.59 0.031,0.574 0.058,1.144 0.079,1.718 0.018,0.574 0.034,1.133 0.047,1.677 0.014,0.549 0.021,1.037 0.021,1.465 0,1.249 -0.004,2.323 -0.011,3.222 -0.007,0.896 -0.023,1.567 -0.048,2.009 l 0.311,0 C -4.906,7.739 -4.057,6.818 -3.152,5.836 -2.249,4.853 -1.35,3.884 -0.458,2.928 0.432,1.972 1.277,1.065 2.079,0.216 2.878,-0.639 3.578,-1.363 4.176,-1.962 l 0,2.655 C 4.176,2.06 4.167,3.39 4.147,4.685 4.128,5.979 4.086,7.198 4.021,8.345 4.28,8.279 4.501,8.248 4.685,8.248 4.84,8.248 5.048,8.279 5.31,8.345 5.283,8.059 5.253,7.629 5.221,7.056 5.188,6.482 5.156,5.873 5.125,5.221 5.091,4.57 5.062,3.934 5.035,3.308 5.01,2.683 4.996,2.182 4.996,1.804 l 0,-1.169 c 0,-0.443 0.004,-0.906 0.011,-1.387 0.005,-0.483 0.012,-0.965 0.019,-1.455 0.006,-0.485 0.013,-0.941 0.02,-1.366 0.006,-0.423 0.009,-0.791 0.009,-1.103 l 0,-0.644 -0.273,0 C 3.286,-3.589 1.691,-1.816 0,0" /></g><g
           style="fill:#ffffff"
           transform="translate(203.4287,47.7168)"
           id="g3483"><path
             id="path3485"
             style="fill:#ffffff;fill-opacity:1;fill-rule:nonzero;stroke:none"
             d="M 0,0 C -0.033,0.826 -0.069,1.668 -0.108,2.528 0.062,2.502 0.224,2.479 0.38,2.459 0.537,2.439 0.692,2.432 0.849,2.432 c 0.156,0 0.312,0.007 0.468,0.027 0.157,0.02 0.319,0.043 0.489,0.069 C 1.766,1.668 1.73,0.826 1.698,0 1.666,-0.826 1.648,-1.669 1.648,-2.528 l 0,-3.359 c 0,-0.857 0.018,-1.703 0.05,-2.537 0.032,-0.833 0.068,-1.652 0.108,-2.458 -0.301,0.026 -0.618,0.038 -0.957,0.038 -0.338,0 -0.658,-0.012 -0.957,-0.038 0.039,0.806 0.075,1.625 0.108,2.458 0.032,0.834 0.048,1.68 0.048,2.537 l 0,3.359 C 0.048,-1.669 0.032,-0.826 0,0" /></g><g
           style="fill:#ffffff"
           transform="translate(211.7734,39.6074)"
           id="g3487"><path
             id="path3489"
             style="fill:#ffffff;fill-opacity:1;fill-rule:nonzero;stroke:none"
             d="m 0,0 c -0.43,1.079 -0.888,2.217 -1.377,3.415 -0.488,1.197 -0.989,2.421 -1.501,3.67 -0.516,1.25 -1.006,2.433 -1.475,3.553 0.182,-0.027 0.358,-0.05 0.526,-0.07 0.169,-0.019 0.332,-0.027 0.488,-0.027 0.157,0 0.319,0.008 0.489,0.027 0.169,0.02 0.344,0.043 0.527,0.07 0.286,-0.861 0.602,-1.761 0.946,-2.705 0.345,-0.944 0.71,-1.904 1.094,-2.878 C 0.099,4.079 0.495,3.091 0.899,2.088 1.3,1.085 1.711,0.09 2.126,-0.898 c 0.235,0.532 0.489,1.127 0.763,1.785 0.273,0.657 0.549,1.342 0.829,2.051 0.281,0.708 0.557,1.43 0.83,2.166 0.272,0.734 0.536,1.441 0.791,2.118 0.253,0.675 0.484,1.307 0.692,1.894 0.209,0.585 0.385,1.092 0.528,1.522 0.285,-0.066 0.526,-0.097 0.722,-0.097 0.194,0 0.435,0.031 0.722,0.097 C 6.988,8.373 6.012,6.129 5.075,3.903 4.139,1.677 3.24,-0.546 2.38,-2.772 2.172,-2.747 1.958,-2.734 1.737,-2.734 1.477,-2.734 1.262,-2.747 1.093,-2.772 0.793,-2.005 0.429,-1.082 0,0" /></g><g
           style="fill:#ffffff"
           transform="translate(222.0703,47.7461)"
           id="g3491"><path
             id="path3493"
             style="fill:#ffffff;fill-opacity:1;fill-rule:nonzero;stroke:none"
             d="M 0,0 C -0.034,0.832 -0.069,1.666 -0.108,2.499 0.478,2.473 1.06,2.449 1.639,2.43 2.219,2.41 2.8,2.402 3.387,2.402 3.971,2.402 4.551,2.41 5.123,2.43 5.696,2.449 6.275,2.473 6.861,2.499 6.822,2.303 6.803,2.108 6.803,1.912 6.803,1.718 6.822,1.521 6.861,1.327 6.445,1.353 6.063,1.379 5.719,1.406 5.374,1.432 5.01,1.458 4.626,1.483 4.243,1.51 3.822,1.533 3.366,1.553 2.91,1.571 2.364,1.58 1.728,1.58 1.714,1.165 1.698,0.768 1.678,0.391 1.659,0.014 1.649,-0.415 1.649,-0.898 c 0,-0.508 0.004,-1.003 0.01,-1.484 0.007,-0.481 0.009,-0.844 0.009,-1.093 0.573,0 1.086,0.007 1.542,0.021 0.457,0.011 0.872,0.029 1.25,0.047 0.376,0.02 0.726,0.041 1.044,0.058 0.319,0.022 0.621,0.043 0.908,0.071 -0.038,-0.197 -0.058,-0.398 -0.058,-0.608 0,-0.193 0.02,-0.387 0.058,-0.585 -0.339,0.041 -0.731,0.073 -1.181,0.1 -0.449,0.025 -0.898,0.041 -1.348,0.047 -0.448,0.008 -0.871,0.013 -1.269,0.021 -0.395,0.006 -0.711,0.009 -0.946,0.009 0,-0.118 -0.002,-0.244 -0.009,-0.382 -0.006,-0.136 -0.01,-0.309 -0.01,-0.517 l 0,-0.76 0,-1.173 c 0,-0.74 0.004,-1.352 0.01,-1.835 0.007,-0.481 0.016,-0.844 0.03,-1.093 l 1.366,0 c 0.494,0 0.979,0.012 1.454,0.03 0.474,0.02 0.923,0.045 1.347,0.079 0.423,0.031 0.791,0.082 1.102,0.146 C 6.931,-9.891 6.916,-9.99 6.909,-10.101 6.903,-10.212 6.9,-10.313 6.9,-10.403 c 0,-0.208 0.02,-0.377 0.058,-0.508 -0.584,0.025 -1.168,0.038 -1.747,0.038 l -1.766,0 -1.777,0 c -0.585,0 -1.178,-0.013 -1.776,-0.038 0.039,0.832 0.074,1.661 0.108,2.487 0.032,0.826 0.047,1.668 0.047,2.529 l 0,3.357 C 0.047,-1.678 0.032,-0.833 0,0" /></g><g
           style="fill:#ffffff"
           transform="translate(234.1719,43.998)"
           id="g3495"><path
             id="path3497"
             style="fill:#ffffff;fill-opacity:1;fill-rule:nonzero;stroke:none"
             d="m 0,0 c 0.214,-0.014 0.453,-0.02 0.713,-0.02 0.403,0 0.822,0.045 1.259,0.137 0.436,0.091 0.836,0.251 1.199,0.48 C 3.537,0.822 3.839,1.13 4.079,1.514 4.321,1.897 4.44,2.383 4.44,2.967 4.44,3.476 4.346,3.895 4.158,4.226 3.969,4.559 3.725,4.82 3.426,5.017 3.126,5.211 2.801,5.346 2.451,5.416 2.099,5.488 1.754,5.524 1.415,5.524 0.959,5.524 0.583,5.516 0.283,5.495 -0.016,5.475 -0.27,5.453 -0.478,5.428 -0.504,4.709 -0.53,4.003 -0.556,3.299 -0.583,2.597 -0.595,1.894 -0.595,1.19 l 0,-1.11 C -0.413,0.039 -0.214,0.014 0,0 m -2.245,3.719 c -0.032,0.826 -0.068,1.668 -0.108,2.528 0.378,-0.026 0.749,-0.05 1.113,-0.069 0.366,-0.02 0.736,-0.028 1.113,-0.028 0.377,0 0.748,0.016 1.113,0.047 0.364,0.032 0.735,0.05 1.113,0.05 0.546,0 1.066,-0.052 1.56,-0.155 C 4.155,5.987 4.587,5.813 4.958,5.574 5.329,5.332 5.621,5.017 5.836,4.627 6.051,4.235 6.159,3.748 6.159,3.163 6.159,2.538 6.019,2.001 5.739,1.551 5.458,1.103 5.118,0.732 4.713,0.44 4.311,0.146 3.878,-0.081 3.417,-0.243 2.955,-0.406 2.534,-0.515 2.158,-0.566 2.314,-0.76 2.528,-1.034 2.801,-1.387 3.075,-1.735 3.379,-2.125 3.718,-2.546 4.057,-2.971 4.409,-3.413 4.772,-3.874 5.137,-4.337 5.488,-4.779 5.827,-5.201 6.166,-5.624 6.484,-6.012 6.784,-6.364 7.083,-6.715 7.324,-6.98 7.507,-7.163 7.31,-7.138 7.116,-7.125 6.919,-7.125 l -0.584,0 -0.567,0 c -0.195,0 -0.384,-0.013 -0.567,-0.038 -0.194,0.272 -0.49,0.684 -0.887,1.229 -0.397,0.547 -0.836,1.132 -1.318,1.757 -0.481,0.626 -0.972,1.247 -1.474,1.865 -0.501,0.617 -0.959,1.141 -1.376,1.572 l -0.741,0 0,-1.428 c 0,-0.857 0.016,-1.703 0.049,-2.537 0.032,-0.833 0.068,-1.652 0.108,-2.458 -0.3,0.025 -0.619,0.038 -0.958,0.038 -0.338,0 -0.657,-0.013 -0.957,-0.038 0.04,0.806 0.076,1.625 0.108,2.458 0.034,0.834 0.049,1.68 0.049,2.537 l 0,3.358 c 0,0.86 -0.015,1.703 -0.049,2.529" /></g><g
           style="fill:#ffffff"
           transform="translate(243.9912,38.6582)"
           id="g3499"><path
             id="path3501"
             style="fill:#ffffff;fill-opacity:1;fill-rule:nonzero;stroke:none"
             d="m 0,0 c 0.175,-0.239 0.391,-0.458 0.645,-0.652 0.252,-0.197 0.548,-0.355 0.887,-0.478 0.338,-0.125 0.716,-0.185 1.132,-0.185 0.43,0 0.816,0.074 1.162,0.222 0.345,0.151 0.637,0.353 0.878,0.606 0.241,0.256 0.426,0.553 0.557,0.898 0.129,0.344 0.195,0.714 0.195,1.103 0,0.597 -0.154,1.074 -0.458,1.424 C 4.69,3.29 4.311,3.583 3.855,3.818 3.399,4.051 2.909,4.269 2.381,4.462 1.854,4.658 1.363,4.902 0.908,5.193 0.453,5.486 0.071,5.862 -0.234,6.315 c -0.307,0.456 -0.459,1.069 -0.459,1.836 0,0.546 0.098,1.044 0.293,1.493 0.194,0.449 0.478,0.836 0.848,1.162 0.37,0.325 0.817,0.578 1.339,0.76 0.519,0.183 1.105,0.273 1.756,0.273 0.625,0 1.164,-0.074 1.619,-0.223 C 5.618,11.465 6.04,11.234 6.431,10.923 6.315,10.701 6.216,10.467 6.139,10.219 6.061,9.973 5.983,9.661 5.905,9.284 l -0.235,0 C 5.604,9.465 5.517,9.663 5.407,9.878 5.297,10.093 5.146,10.292 4.958,10.474 4.769,10.656 4.544,10.809 4.284,10.933 4.024,11.056 3.713,11.118 3.347,11.118 2.983,11.118 2.648,11.06 2.342,10.941 2.037,10.826 1.769,10.659 1.541,10.444 1.314,10.229 1.139,9.973 1.015,9.675 0.891,9.374 0.83,9.049 0.83,8.697 0.83,8.085 0.982,7.604 1.288,7.253 1.594,6.902 1.974,6.604 2.43,6.365 2.885,6.123 3.376,5.909 3.904,5.722 4.431,5.532 4.922,5.302 5.376,5.028 5.833,4.756 6.213,4.403 6.519,3.975 6.825,3.546 6.978,2.972 6.978,2.256 6.978,1.658 6.871,1.091 6.657,0.558 6.441,0.023 6.128,-0.442 5.72,-0.839 5.309,-1.234 4.808,-1.541 4.216,-1.756 3.624,-1.97 2.95,-2.078 2.195,-2.078 c -0.806,0 -1.46,0.108 -1.961,0.322 -0.502,0.215 -0.922,0.459 -1.259,0.732 0.117,0.299 0.198,0.571 0.244,0.81 0.046,0.241 0.088,0.551 0.127,0.928 l 0.233,0 C -0.316,0.479 -0.176,0.242 0,0" /></g><g
           style="fill:#ffffff"
           transform="translate(253.8086,47.7168)"
           id="g3503"><path
             id="path3505"
             style="fill:#ffffff;fill-opacity:1;fill-rule:nonzero;stroke:none"
             d="M 0,0 C -0.031,0.826 -0.067,1.668 -0.106,2.528 0.063,2.502 0.226,2.479 0.382,2.459 0.538,2.439 0.693,2.432 0.85,2.432 c 0.156,0 0.313,0.007 0.469,0.027 0.156,0.02 0.318,0.043 0.487,0.069 C 1.768,1.668 1.732,0.826 1.699,0 1.667,-0.826 1.65,-1.669 1.65,-2.528 l 0,-3.359 c 0,-0.857 0.017,-1.703 0.049,-2.537 0.033,-0.833 0.069,-1.652 0.107,-2.458 -0.3,0.026 -0.618,0.038 -0.956,0.038 -0.339,0 -0.658,-0.012 -0.956,-0.038 0.039,0.806 0.075,1.625 0.106,2.458 0.034,0.834 0.05,1.68 0.05,2.537 l 0,3.359 C 0.05,-1.669 0.034,-0.826 0,0" /></g><g
           style="fill:#ffffff"
           transform="translate(262.0366,49.2295)"
           id="g3507"><path
             id="path3509"
             style="fill:#ffffff;fill-opacity:1;fill-rule:nonzero;stroke:none"
             d="m 0,0 c -0.337,0 -0.692,-0.003 -1.063,-0.009 -0.372,-0.008 -0.742,-0.02 -1.112,-0.039 -0.371,-0.02 -0.73,-0.043 -1.075,-0.069 -0.345,-0.026 -0.653,-0.059 -0.927,-0.098 0.065,0.236 0.098,0.443 0.098,0.625 0,0.143 -0.033,0.346 -0.098,0.606 0.859,-0.027 1.698,-0.05 2.519,-0.07 C -0.839,0.927 0,0.919 0.859,0.919 c 0.86,0 1.698,0.008 2.519,0.027 0.82,0.02 1.658,0.043 2.518,0.07 C 5.831,0.756 5.797,0.547 5.797,0.391 5.797,0.222 5.831,0.021 5.896,-0.215 5.623,-0.176 5.313,-0.143 4.968,-0.117 4.623,-0.091 4.266,-0.068 3.895,-0.048 3.523,-0.029 3.153,-0.017 2.783,-0.009 2.412,-0.003 2.055,0 1.719,0 1.678,-1.339 1.661,-2.687 1.661,-4.041 l 0,-3.358 c 0,-0.858 0.015,-1.704 0.047,-2.538 0.033,-0.833 0.069,-1.652 0.108,-2.458 -0.3,0.026 -0.618,0.039 -0.957,0.039 -0.339,0 -0.657,-0.013 -0.957,-0.039 0.04,0.806 0.077,1.625 0.108,2.458 0.032,0.834 0.049,1.68 0.049,2.538 l 0,3.358 C 0.059,-2.687 0.04,-1.339 0,0" /></g><g
           style="fill:#ffffff"
           transform="translate(276.1499,53.3672)"
           id="g3511"><path
             id="path3513"
             style="fill:#ffffff;fill-opacity:1;fill-rule:nonzero;stroke:none"
             d="M 0,0 C 0.194,0.196 0.429,0.294 0.702,0.294 0.975,0.294 1.21,0.196 1.405,0 1.601,-0.193 1.698,-0.429 1.698,-0.702 1.698,-0.975 1.601,-1.21 1.405,-1.403 1.21,-1.601 0.975,-1.697 0.702,-1.697 c -0.273,0 -0.508,0.096 -0.702,0.294 -0.197,0.193 -0.293,0.428 -0.293,0.701 0,0.273 0.096,0.509 0.293,0.702 m -3.69,-10.462 c 0.338,0 0.689,-0.006 1.054,-0.019 0.365,-0.012 0.717,-0.019 1.054,-0.019 0.365,0 0.728,0.003 1.093,0.009 0.364,0.008 0.73,0.015 1.094,0.029 l -2.168,4.958 -2.127,-4.958 z M -3.845,0 c 0.194,0.196 0.429,0.294 0.702,0.294 0.273,0 0.507,-0.098 0.702,-0.294 0.196,-0.193 0.294,-0.429 0.294,-0.702 0,-0.273 -0.098,-0.508 -0.294,-0.701 -0.195,-0.198 -0.429,-0.294 -0.702,-0.294 -0.273,0 -0.508,0.096 -0.702,0.294 -0.196,0.193 -0.294,0.428 -0.294,0.701 0,0.273 0.098,0.509 0.294,0.702 m 3.942,-5.318 c 0.365,-0.879 0.735,-1.768 1.113,-2.664 0.377,-0.9 0.754,-1.79 1.131,-2.676 0.378,-0.885 0.732,-1.707 1.064,-2.467 0.332,-0.762 0.632,-1.443 0.898,-2.042 0.267,-0.598 0.486,-1.054 0.655,-1.365 -0.183,0.025 -0.354,0.038 -0.517,0.038 l -0.517,0 -0.519,0 c -0.162,0 -0.335,-0.013 -0.517,-0.038 -0.091,0.3 -0.215,0.659 -0.371,1.083 -0.156,0.423 -0.328,0.865 -0.517,1.328 -0.188,0.46 -0.381,0.93 -0.576,1.403 -0.194,0.478 -0.377,0.929 -0.546,1.358 -0.416,0.013 -0.84,0.022 -1.269,0.029 -0.43,0.007 -0.858,0.01 -1.289,0.01 -0.402,0 -0.799,-0.003 -1.19,-0.01 -0.39,-0.007 -0.787,-0.016 -1.191,-0.029 -0.416,-1.017 -0.793,-1.983 -1.131,-2.899 -0.339,-0.917 -0.592,-1.676 -0.761,-2.273 -0.221,0.025 -0.463,0.038 -0.722,0.038 -0.263,0 -0.501,-0.013 -0.723,-0.038 1.055,2.277 2.081,4.539 3.083,6.793 1.003,2.251 2.012,4.541 3.025,6.869 l 0.371,0 c 0.314,-0.754 0.652,-1.57 1.016,-2.448" /></g><g
           style="fill:#ffffff"
           transform="translate(286.1035,49.2295)"
           id="g3515"><path
             id="path3517"
             style="fill:#ffffff;fill-opacity:1;fill-rule:nonzero;stroke:none"
             d="m 0,0 c -0.338,0 -0.691,-0.003 -1.063,-0.009 -0.371,-0.008 -0.742,-0.02 -1.112,-0.039 -0.371,-0.02 -0.729,-0.043 -1.073,-0.069 -0.346,-0.026 -0.655,-0.059 -0.928,-0.098 0.065,0.236 0.097,0.443 0.097,0.625 0,0.143 -0.032,0.346 -0.097,0.606 0.86,-0.027 1.697,-0.05 2.518,-0.07 C -0.837,0.927 0,0.919 0.86,0.919 c 0.858,0 1.699,0.008 2.518,0.027 0.819,0.02 1.659,0.043 2.518,0.07 C 5.832,0.756 5.798,0.547 5.798,0.391 5.798,0.222 5.832,0.021 5.896,-0.215 5.623,-0.176 5.313,-0.143 4.97,-0.117 4.624,-0.091 4.267,-0.068 3.895,-0.048 3.524,-0.029 3.154,-0.017 2.783,-0.009 2.411,-0.003 2.057,0 1.718,0 1.68,-1.339 1.661,-2.687 1.661,-4.041 l 0,-3.358 c 0,-0.858 0.016,-1.704 0.048,-2.538 0.031,-0.833 0.068,-1.652 0.107,-2.458 -0.298,0.026 -0.617,0.039 -0.956,0.039 -0.339,0 -0.657,-0.013 -0.957,-0.039 0.038,0.806 0.075,1.625 0.109,2.458 0.031,0.834 0.048,1.68 0.048,2.538 l 0,3.358 C 0.06,-2.687 0.04,-1.339 0,0" /></g><g
           style="fill:#ffffff"
           transform="translate(294.3906,38.6582)"
           id="g3519"><path
             id="path3521"
             style="fill:#ffffff;fill-opacity:1;fill-rule:nonzero;stroke:none"
             d="m 0,0 c 0.176,-0.239 0.391,-0.458 0.645,-0.652 0.252,-0.197 0.549,-0.355 0.888,-0.478 0.337,-0.125 0.714,-0.185 1.131,-0.185 0.43,0 0.816,0.074 1.162,0.222 0.344,0.151 0.637,0.353 0.878,0.606 0.24,0.256 0.425,0.553 0.556,0.898 0.131,0.344 0.194,0.714 0.194,1.103 0,0.597 -0.151,1.074 -0.458,1.424 C 4.691,3.29 4.31,3.583 3.855,3.818 3.4,4.051 2.908,4.269 2.382,4.462 1.854,4.658 1.363,4.902 0.907,5.193 0.453,5.486 0.071,5.862 -0.233,6.315 c -0.307,0.456 -0.46,1.069 -0.46,1.836 0,0.546 0.098,1.044 0.293,1.493 0.194,0.449 0.478,0.836 0.849,1.162 0.37,0.325 0.817,0.578 1.336,0.76 0.522,0.183 1.107,0.273 1.758,0.273 0.625,0 1.164,-0.074 1.62,-0.223 C 5.618,11.465 6.041,11.234 6.432,10.923 6.314,10.701 6.218,10.467 6.139,10.219 6.061,9.973 5.982,9.661 5.903,9.284 l -0.233,0 C 5.605,9.465 5.517,9.663 5.407,9.878 5.297,10.093 5.146,10.292 4.958,10.474 4.769,10.656 4.545,10.809 4.285,10.933 4.024,11.056 3.711,11.118 3.348,11.118 2.983,11.118 2.648,11.06 2.343,10.941 2.036,10.826 1.77,10.659 1.542,10.444 1.313,10.229 1.138,9.973 1.015,9.675 0.891,9.374 0.83,9.049 0.83,8.697 0.83,8.085 0.981,7.604 1.288,7.253 1.594,6.902 1.975,6.604 2.431,6.365 2.885,6.123 3.377,5.909 3.903,5.722 4.431,5.532 4.922,5.302 5.378,5.028 5.833,4.756 6.213,4.403 6.52,3.975 6.825,3.546 6.979,2.972 6.979,2.256 6.979,1.658 6.87,1.091 6.655,0.558 6.441,0.023 6.129,-0.442 5.719,-0.839 5.31,-1.234 4.809,-1.541 4.215,-1.756 3.623,-1.97 2.95,-2.078 2.195,-2.078 c -0.807,0 -1.461,0.108 -1.961,0.322 -0.501,0.215 -0.921,0.459 -1.258,0.732 0.116,0.299 0.198,0.571 0.243,0.81 0.047,0.241 0.088,0.551 0.128,0.928 l 0.233,0 C -0.316,0.479 -0.177,0.242 0,0" /></g><g
           style="fill:#ffffff"
           transform="translate(305.8984,39.5664)"
           id="g3523"><path
             id="path3525"
             style="fill:#ffffff;fill-opacity:1;fill-rule:nonzero;stroke:none"
             d="m 0,0 c 0.024,-0.65 0.051,-1.308 0.078,-1.972 0.247,-0.025 0.54,-0.049 0.877,-0.066 0.339,-0.022 0.684,-0.029 1.036,-0.029 0.416,0 0.816,0.07 1.2,0.213 0.384,0.143 0.719,0.355 1.005,0.634 0.286,0.281 0.514,0.626 0.683,1.034 0.169,0.412 0.255,0.877 0.255,1.398 0,0.559 -0.102,1.017 -0.303,1.375 C 4.628,2.943 4.339,3.224 3.961,3.427 3.585,3.628 3.133,3.768 2.604,3.848 2.079,3.924 1.49,3.962 0.84,3.962 l -0.879,0 0,-1.988 C -0.039,1.31 -0.027,0.652 0,0 m 2.371,4.823 c 0.448,0.09 0.849,0.243 1.2,0.458 0.353,0.214 0.635,0.501 0.849,0.86 0.215,0.356 0.322,0.808 0.322,1.355 0,0.534 -0.096,0.959 -0.293,1.279 C 4.255,9.094 4.007,9.343 3.709,9.517 3.409,9.692 3.07,9.809 2.692,9.868 2.316,9.927 1.938,9.956 1.563,9.956 1.224,9.956 0.937,9.947 0.701,9.927 0.467,9.906 0.259,9.885 0.078,9.859 0.051,9.233 0.024,8.615 0,8.003 -0.027,7.392 -0.039,6.773 -0.039,6.15 l 0,-1.465 1.053,0 c 0.455,0 0.908,0.047 1.357,0.138 m -4.06,3.357 c -0.032,0.832 -0.068,1.666 -0.108,2.499 0.338,-0.027 0.683,-0.05 1.035,-0.07 0.352,-0.019 0.696,-0.027 1.034,-0.027 0.339,0 0.683,0.016 1.035,0.047 0.351,0.031 0.698,0.05 1.034,0.05 0.559,0 1.088,-0.043 1.583,-0.126 0.494,-0.086 0.93,-0.236 1.306,-0.45 C 5.607,9.889 5.907,9.598 6.129,9.233 6.351,8.87 6.46,8.414 6.46,7.868 6.46,6.904 6.158,6.15 5.553,5.604 4.948,5.058 4.156,4.674 3.18,4.452 l 0,-0.04 C 4.339,4.359 5.253,4.079 5.924,3.574 6.594,3.066 6.928,2.254 6.928,1.134 6.928,0.404 6.779,-0.207 6.48,-0.702 6.181,-1.196 5.79,-1.596 5.309,-1.903 4.827,-2.208 4.297,-2.422 3.718,-2.547 3.139,-2.671 2.563,-2.731 1.991,-2.731 c -0.313,0 -0.628,0.005 -0.948,0.019 -0.318,0.012 -0.632,0.019 -0.947,0.019 l -0.946,0 c -0.319,0 -0.634,-0.013 -0.947,-0.038 0.04,0.832 0.076,1.661 0.108,2.487 0.033,0.826 0.048,1.668 0.048,2.529 l 0,3.357 c 0,0.86 -0.015,1.705 -0.048,2.538" /></g><g
           style="fill:#ffffff"
           transform="translate(316.2334,47.7168)"
           id="g3527"><path
             id="path3529"
             style="fill:#ffffff;fill-opacity:1;fill-rule:nonzero;stroke:none"
             d="M 0,0 C -0.032,0.826 -0.069,1.668 -0.108,2.528 0.061,2.502 0.224,2.479 0.381,2.459 0.537,2.439 0.693,2.432 0.849,2.432 c 0.156,0 0.313,0.007 0.469,0.027 0.157,0.02 0.319,0.043 0.488,0.069 C 1.767,1.668 1.73,0.826 1.698,0 1.666,-0.826 1.65,-1.669 1.65,-2.528 l 0,-3.359 c 0,-0.857 0.016,-1.703 0.048,-2.537 0.032,-0.833 0.069,-1.652 0.108,-2.458 -0.3,0.026 -0.618,0.038 -0.957,0.038 -0.339,0 -0.657,-0.012 -0.957,-0.038 0.039,0.806 0.076,1.625 0.108,2.458 0.032,0.834 0.048,1.68 0.048,2.537 l 0,3.359 C 0.048,-1.669 0.032,-0.826 0,0" /></g><g
           style="fill:#ffffff"
           transform="translate(323.4463,39.5664)"
           id="g3531"><path
             id="path3533"
             style="fill:#ffffff;fill-opacity:1;fill-rule:nonzero;stroke:none"
             d="m 0,0 c 0.024,-0.65 0.051,-1.308 0.078,-1.972 0.248,-0.025 0.538,-0.049 0.877,-0.066 0.339,-0.022 0.685,-0.029 1.036,-0.029 0.416,0 0.816,0.07 1.199,0.213 0.385,0.143 0.72,0.355 1.006,0.634 0.286,0.281 0.514,0.626 0.683,1.034 0.169,0.412 0.255,0.877 0.255,1.398 0,0.559 -0.102,1.017 -0.303,1.375 C 4.628,2.943 4.339,3.224 3.963,3.427 3.585,3.628 3.133,3.768 2.605,3.848 2.078,3.924 1.49,3.962 0.839,3.962 l -0.878,0 0,-1.988 C -0.039,1.31 -0.026,0.652 0,0 m 2.371,4.823 c 0.449,0.09 0.849,0.243 1.2,0.458 0.352,0.214 0.635,0.501 0.85,0.86 C 4.635,6.497 4.744,6.949 4.744,7.496 4.744,8.03 4.646,8.455 4.45,8.775 4.255,9.094 4.008,9.343 3.709,9.517 3.409,9.692 3.07,9.809 2.693,9.868 2.316,9.927 1.938,9.956 1.562,9.956 1.223,9.956 0.938,9.947 0.702,9.927 0.468,9.906 0.26,9.885 0.078,9.859 0.051,9.233 0.024,8.615 0,8.003 -0.026,7.392 -0.039,6.773 -0.039,6.15 l 0,-1.465 1.053,0 c 0.456,0 0.908,0.047 1.357,0.138 M -1.688,8.18 c -0.033,0.832 -0.07,1.666 -0.109,2.499 0.339,-0.027 0.684,-0.05 1.035,-0.07 0.352,-0.019 0.697,-0.027 1.035,-0.027 0.338,0 0.682,0.016 1.035,0.047 0.352,0.031 0.696,0.05 1.033,0.05 0.56,0 1.088,-0.043 1.582,-0.126 0.496,-0.086 0.931,-0.236 1.308,-0.45 C 5.607,9.889 5.907,9.598 6.129,9.233 6.351,8.87 6.46,8.414 6.46,7.868 6.46,6.904 6.159,6.15 5.554,5.604 4.948,5.058 4.156,4.674 3.182,4.452 l 0,-0.04 C 4.339,4.359 5.253,4.079 5.925,3.574 6.595,3.066 6.929,2.254 6.929,1.134 6.929,0.404 6.78,-0.207 6.479,-0.702 6.181,-1.196 5.79,-1.596 5.309,-1.903 4.827,-2.208 4.297,-2.422 3.718,-2.547 3.139,-2.671 2.563,-2.731 1.991,-2.731 1.678,-2.731 1.364,-2.726 1.043,-2.712 0.726,-2.7 0.41,-2.693 0.098,-2.693 l -0.948,0 c -0.32,0 -0.634,-0.013 -0.947,-0.038 0.039,0.832 0.076,1.661 0.109,2.487 0.031,0.826 0.046,1.668 0.046,2.529 l 0,3.357 c 0,0.86 -0.015,1.705 -0.046,2.538" /></g><g
           style="fill:#ffffff"
           transform="translate(333.7822,47.7168)"
           id="g3535"><path
             id="path3537"
             style="fill:#ffffff;fill-opacity:1;fill-rule:nonzero;stroke:none"
             d="M 0,0 C -0.034,0.826 -0.07,1.668 -0.108,2.528 0.061,2.502 0.224,2.479 0.379,2.459 0.536,2.439 0.693,2.432 0.849,2.432 1.005,2.432 1.16,2.439 1.316,2.459 1.473,2.479 1.637,2.502 1.805,2.528 1.765,1.668 1.729,0.826 1.698,0 1.664,-0.826 1.648,-1.669 1.648,-2.528 c 0,-1.64 0.007,-3.063 0.021,-4.265 0.012,-1.204 0.024,-2.281 0.037,-3.231 0.925,0 1.811,0.011 2.655,0.029 0.848,0.02 1.757,0.095 2.735,0.225 -0.067,-0.234 -0.098,-0.428 -0.098,-0.585 0,-0.143 0.031,-0.32 0.098,-0.527 -0.6,0.026 -1.2,0.038 -1.797,0.038 l -1.795,0 -1.806,0 c -0.581,0 -1.18,-0.012 -1.806,-0.038 0.038,0.806 0.074,1.625 0.108,2.458 0.031,0.834 0.048,1.68 0.048,2.537 l 0,3.359 C 0.048,-1.669 0.031,-0.826 0,0" /></g><g
           style="fill:#ffffff"
           transform="translate(343.6387,47.7168)"
           id="g3539"><path
             id="path3541"
             style="fill:#ffffff;fill-opacity:1;fill-rule:nonzero;stroke:none"
             d="M 0,0 C -0.032,0.826 -0.068,1.668 -0.108,2.528 0.062,2.502 0.225,2.479 0.381,2.459 0.538,2.439 0.693,2.432 0.85,2.432 c 0.155,0 0.312,0.007 0.468,0.027 0.157,0.02 0.319,0.043 0.489,0.069 C 1.767,1.668 1.731,0.826 1.697,0 1.666,-0.826 1.649,-1.669 1.649,-2.528 l 0,-3.359 c 0,-0.857 0.017,-1.703 0.048,-2.537 0.034,-0.833 0.07,-1.652 0.11,-2.458 -0.301,0.026 -0.619,0.038 -0.957,0.038 -0.339,0 -0.659,-0.012 -0.958,-0.038 0.04,0.806 0.076,1.625 0.108,2.458 0.032,0.834 0.049,1.68 0.049,2.537 l 0,3.359 C 0.049,-1.669 0.032,-0.826 0,0" /></g><g
           style="fill:#ffffff"
           transform="translate(360.416,46.3125)"
           id="g3543"><path
             id="path3545"
             style="fill:#ffffff;fill-opacity:1;fill-rule:nonzero;stroke:none"
             d="m 0,0 c -0.274,0.785 -0.652,1.436 -1.142,1.95 -0.489,0.515 -1.06,0.895 -1.717,1.143 -0.658,0.246 -1.37,0.371 -2.138,0.371 -0.755,0 -1.46,-0.125 -2.117,-0.371 C -7.772,2.845 -8.345,2.465 -8.832,1.95 -9.319,1.436 -9.701,0.785 -9.975,0 c -0.273,-0.788 -0.41,-1.723 -0.41,-2.802 0,-1.079 0.137,-2.013 0.41,-2.802 0.274,-0.788 0.656,-1.438 1.143,-1.951 0.487,-0.514 1.06,-0.896 1.718,-1.141 0.657,-0.249 1.362,-0.37 2.117,-0.37 0.768,0 1.48,0.121 2.138,0.37 0.657,0.245 1.228,0.627 1.717,1.141 0.49,0.513 0.868,1.163 1.142,1.951 0.272,0.789 0.411,1.723 0.411,2.802 C 0.411,-1.723 0.272,-0.788 0,0 m -11.761,0.155 c 0.358,0.866 0.859,1.597 1.503,2.197 0.645,0.599 1.415,1.053 2.314,1.367 0.898,0.311 1.88,0.466 2.947,0.466 1.08,0 2.069,-0.155 2.967,-0.466 0.898,-0.314 1.67,-0.768 2.313,-1.367 0.645,-0.6 1.146,-1.331 1.503,-2.197 0.359,-0.866 0.536,-1.85 0.536,-2.957 0,-1.106 -0.177,-2.094 -0.536,-2.957 C 1.429,-6.624 0.928,-7.357 0.283,-7.956 -0.36,-8.555 -1.132,-8.999 -2.03,-9.293 c -0.898,-0.291 -1.887,-0.439 -2.967,-0.439 -1.067,0 -2.049,0.148 -2.947,0.439 -0.899,0.294 -1.669,0.738 -2.314,1.337 -0.644,0.599 -1.145,1.332 -1.503,2.197 -0.357,0.863 -0.537,1.851 -0.537,2.957 0,1.107 0.18,2.091 0.537,2.957" /></g><g
           style="fill:#ffffff"
           transform="translate(367.502,49.2295)"
           id="g3547"><path
             id="path3549"
             style="fill:#ffffff;fill-opacity:1;fill-rule:nonzero;stroke:none"
             d="m 0,0 c -0.338,0 -0.692,-0.003 -1.063,-0.009 -0.371,-0.008 -0.743,-0.02 -1.113,-0.039 -0.371,-0.02 -0.729,-0.043 -1.073,-0.069 -0.344,-0.026 -0.653,-0.059 -0.927,-0.098 0.065,0.236 0.097,0.443 0.097,0.625 0,0.143 -0.032,0.346 -0.097,0.606 0.859,-0.027 1.697,-0.05 2.518,-0.07 C -0.839,0.927 0,0.919 0.859,0.919 c 0.859,0 1.699,0.008 2.519,0.027 0.819,0.02 1.659,0.043 2.517,0.07 C 5.831,0.756 5.799,0.547 5.799,0.391 5.799,0.222 5.831,0.021 5.895,-0.215 5.622,-0.176 5.313,-0.143 4.969,-0.117 4.624,-0.091 4.266,-0.068 3.896,-0.048 3.523,-0.029 3.153,-0.017 2.781,-0.009 2.411,-0.003 2.057,0 1.718,0 1.681,-1.339 1.659,-2.687 1.659,-4.041 l 0,-3.358 c 0,-0.858 0.016,-1.704 0.05,-2.538 0.032,-0.833 0.067,-1.652 0.106,-2.458 -0.298,0.026 -0.617,0.039 -0.956,0.039 -0.338,0 -0.657,-0.013 -0.956,-0.039 0.038,0.806 0.075,1.625 0.108,2.458 0.031,0.834 0.049,1.68 0.049,2.538 l 0,3.358 C 0.06,-2.687 0.039,-1.339 0,0" /></g><g
           style="fill:#ffffff"
           transform="translate(385.5098,47.7168)"
           id="g3551"><path
             id="path3553"
             style="fill:#ffffff;fill-opacity:1;fill-rule:nonzero;stroke:none"
             d="M 0,0 C -0.032,0.826 -0.068,1.668 -0.107,2.528 0.061,2.502 0.225,2.479 0.378,2.459 0.536,2.439 0.693,2.432 0.849,2.432 c 0.156,0 0.31,0.007 0.468,0.027 0.158,0.02 0.32,0.043 0.489,0.069 C 1.765,1.668 1.729,0.826 1.697,0 1.665,-0.826 1.649,-1.669 1.649,-2.528 l 0,-3.359 c 0,-0.857 0.016,-1.703 0.048,-2.537 0.032,-0.833 0.068,-1.652 0.109,-2.458 -0.3,0.026 -0.619,0.038 -0.957,0.038 -0.339,0 -0.658,-0.012 -0.956,-0.038 0.039,0.806 0.075,1.625 0.107,2.458 0.031,0.834 0.048,1.68 0.048,2.537 l 0,1.757 c -0.703,0.014 -1.383,0.026 -2.039,0.029 -0.658,0.008 -1.337,0.012 -2.04,0.012 -0.703,0 -1.383,-0.004 -2.039,-0.012 -0.659,-0.003 -1.339,-0.015 -2.041,-0.029 l 0,-1.757 c 0,-0.857 0.015,-1.703 0.048,-2.537 0.034,-0.833 0.069,-1.652 0.109,-2.458 -0.3,0.026 -0.619,0.038 -0.957,0.038 -0.339,0 -0.657,-0.012 -0.958,-0.038 0.04,0.806 0.076,1.625 0.109,2.458 0.031,0.834 0.047,1.68 0.047,2.537 l 0,3.359 c 0,0.859 -0.016,1.702 -0.047,2.528 -0.033,0.826 -0.069,1.668 -0.109,2.528 0.17,-0.026 0.333,-0.049 0.488,-0.069 0.157,-0.02 0.315,-0.027 0.47,-0.027 0.156,0 0.311,0.007 0.469,0.027 0.157,0.02 0.319,0.043 0.488,0.069 C -7.994,1.668 -8.029,0.826 -8.063,0 -8.096,-0.826 -8.111,-1.669 -8.111,-2.528 l 0,-0.682 c 0.702,-0.014 1.382,-0.027 2.041,-0.039 0.656,-0.014 1.336,-0.02 2.039,-0.02 0.703,0 1.382,0.006 2.04,0.02 0.656,0.012 1.336,0.025 2.039,0.039 l 0,0.682 C 0.048,-1.669 0.031,-0.826 0,0" /></g><g
           style="fill:#ffffff"
           transform="translate(391.0342,47.7461)"
           id="g3555"><path
             id="path3557"
             style="fill:#ffffff;fill-opacity:1;fill-rule:nonzero;stroke:none"
             d="M 0,0 C -0.032,0.832 -0.069,1.666 -0.108,2.499 0.479,2.473 1.06,2.449 1.639,2.43 2.219,2.41 2.801,2.402 3.386,2.402 3.972,2.402 4.551,2.41 5.123,2.43 5.696,2.449 6.275,2.473 6.861,2.499 6.822,2.303 6.802,2.108 6.802,1.912 6.802,1.718 6.822,1.521 6.861,1.327 6.445,1.353 6.063,1.379 5.72,1.406 5.374,1.432 5.009,1.458 4.625,1.483 4.241,1.51 3.822,1.533 3.367,1.553 2.912,1.571 2.364,1.58 1.727,1.58 1.714,1.165 1.697,0.768 1.679,0.391 1.658,0.014 1.65,-0.415 1.65,-0.898 c 0,-0.508 0.002,-1.003 0.008,-1.484 0.008,-0.481 0.01,-0.844 0.01,-1.093 0.573,0 1.088,0.007 1.543,0.021 0.455,0.011 0.871,0.029 1.25,0.047 0.376,0.02 0.725,0.041 1.043,0.058 0.318,0.022 0.622,0.043 0.907,0.071 -0.038,-0.197 -0.058,-0.398 -0.058,-0.608 0,-0.193 0.02,-0.387 0.058,-0.585 -0.339,0.041 -0.731,0.073 -1.181,0.1 -0.449,0.025 -0.897,0.041 -1.346,0.047 -0.447,0.008 -0.871,0.013 -1.269,0.021 -0.396,0.006 -0.712,0.009 -0.947,0.009 0,-0.118 -0.002,-0.244 -0.01,-0.382 C 1.652,-4.812 1.65,-4.985 1.65,-5.193 l 0,-0.76 0,-1.173 c 0,-0.74 0.002,-1.352 0.008,-1.835 0.008,-0.481 0.018,-0.844 0.03,-1.093 l 1.367,0 c 0.494,0 0.979,0.012 1.453,0.03 0.477,0.02 0.925,0.045 1.348,0.079 0.422,0.031 0.79,0.082 1.103,0.146 C 6.933,-9.891 6.916,-9.99 6.91,-10.101 6.904,-10.212 6.9,-10.313 6.9,-10.403 c 0,-0.208 0.02,-0.377 0.059,-0.508 -0.586,0.025 -1.169,0.038 -1.748,0.038 l -1.767,0 -1.776,0 c -0.585,0 -1.178,-0.013 -1.776,-0.038 0.039,0.832 0.076,1.661 0.108,2.487 0.032,0.826 0.048,1.668 0.048,2.529 l 0,3.357 C 0.048,-1.678 0.032,-0.833 0,0" /></g><g
           style="fill:#ffffff"
           transform="translate(400.8906,39.293)"
           id="g3559"><path
             id="path3561"
             style="fill:#ffffff;fill-opacity:1;fill-rule:nonzero;stroke:none"
             d="m 0,0 c 0.034,0.834 0.05,1.68 0.05,2.537 l 0,3.359 c 0,0.859 -0.016,1.702 -0.05,2.528 -0.031,0.826 -0.067,1.668 -0.106,2.528 0.169,-0.026 0.331,-0.05 0.488,-0.069 0.155,-0.02 0.311,-0.028 0.467,-0.028 0.157,0 0.314,0.008 0.469,0.028 0.157,0.019 0.32,0.043 0.489,0.069 C 1.769,10.092 1.731,9.25 1.698,8.424 1.667,7.598 1.651,6.755 1.651,5.896 l 0,-1.074 c 0,-0.103 0.037,-0.155 0.118,-0.155 0.049,0 0.141,0.059 0.272,0.174 0.454,0.39 0.933,0.833 1.434,1.329 0.501,0.493 1.005,1.008 1.512,1.541 0.508,0.534 1.009,1.076 1.503,1.629 0.495,0.556 0.969,1.091 1.425,1.612 0.145,-0.026 0.28,-0.05 0.411,-0.069 0.129,-0.02 0.26,-0.028 0.391,-0.028 0.156,0 0.311,0.008 0.468,0.028 0.157,0.019 0.312,0.043 0.469,0.069 C 9.198,10.562 8.684,10.1 8.11,9.565 7.538,9.03 6.962,8.486 6.383,7.927 5.805,7.366 5.252,6.816 4.725,6.277 4.197,5.737 3.758,5.265 3.407,4.861 4.461,3.679 5.524,2.471 6.599,1.239 7.671,0.012 8.762,-1.223 9.868,-2.458 9.673,-2.433 9.478,-2.42 9.283,-2.42 l -0.587,0 -0.536,0 C 7.984,-2.42 7.806,-2.433 7.622,-2.458 7.154,-1.926 6.637,-1.314 6.071,-0.623 5.506,0.066 4.952,0.731 4.412,1.378 3.872,2.021 3.385,2.602 2.949,3.113 2.513,3.628 2.189,3.99 1.982,4.197 1.877,4.302 1.8,4.353 1.747,4.353 1.683,4.353 1.651,4.315 1.651,4.235 l 0,-1.698 C 1.651,1.68 1.667,0.834 1.698,0 1.731,-0.833 1.769,-1.652 1.807,-2.458 1.506,-2.433 1.188,-2.42 0.849,-2.42 0.51,-2.42 0.192,-2.433 -0.106,-2.458 -0.067,-1.652 -0.031,-0.833 0,0" /></g><g
           style="fill:#ffffff"
           transform="translate(428.9414,48.5664)"
           id="g3563"><path
             id="path3565"
             style="fill:#ffffff;fill-opacity:1;fill-rule:nonzero;stroke:none"
             d="M 0,0 C -0.293,0.233 -0.618,0.438 -0.977,0.615 -1.334,0.789 -1.73,0.934 -2.167,1.044 -2.602,1.155 -3.068,1.21 -3.562,1.21 -4.37,1.21 -5.122,1.085 -5.817,0.839 -6.514,0.591 -7.118,0.211 -7.633,-0.304 c -0.514,-0.514 -0.917,-1.165 -1.21,-1.95 -0.293,-0.788 -0.44,-1.723 -0.44,-2.802 0,-0.95 0.131,-1.808 0.391,-2.579 0.259,-0.767 0.641,-1.412 1.142,-1.94 0.501,-0.527 1.113,-0.933 1.835,-1.22 0.723,-0.286 1.539,-0.429 2.45,-0.429 0.274,0 0.559,0.014 0.858,0.038 0.3,0.028 0.589,0.066 0.869,0.119 0.28,0.05 0.54,0.117 0.781,0.193 0.241,0.079 0.445,0.169 0.615,0.276 0.014,0.388 0.022,0.778 0.029,1.169 0.006,0.39 0.008,0.787 0.008,1.193 0,0.453 -0.008,0.909 -0.027,1.365 -0.02,0.456 -0.042,0.892 -0.069,1.308 0.325,-0.067 0.638,-0.098 0.936,-0.098 0.145,0 0.288,0.008 0.431,0.021 0.143,0.01 0.279,0.037 0.409,0.077 C 1.35,-5.861 1.33,-6.336 1.316,-6.979 1.304,-7.623 1.298,-8.472 1.298,-9.526 c 0,-0.259 0.003,-0.524 0.011,-0.79 0.004,-0.266 0.007,-0.531 0.007,-0.79 -0.272,-0.104 -0.613,-0.212 -1.024,-0.324 -0.409,-0.11 -0.845,-0.202 -1.308,-0.272 -0.462,-0.072 -0.923,-0.136 -1.385,-0.194 -0.462,-0.059 -0.882,-0.09 -1.259,-0.09 -1.159,0 -2.202,0.141 -3.133,0.419 -0.93,0.28 -1.723,0.713 -2.372,1.298 -0.65,0.587 -1.151,1.316 -1.504,2.188 -0.35,0.871 -0.525,1.881 -0.525,3.025 0,1.107 0.18,2.091 0.546,2.957 0.364,0.866 0.877,1.597 1.542,2.197 0.663,0.599 1.467,1.053 2.41,1.367 0.944,0.311 1.987,0.466 3.134,0.466 0.664,0 1.25,-0.035 1.765,-0.106 0.515,-0.072 0.97,-0.167 1.366,-0.284 C -0.033,1.424 0.314,1.302 0.615,1.171 0.914,1.04 1.182,0.918 1.415,0.801 1.311,0.617 1.215,0.384 1.132,0.098 1.047,-0.188 0.991,-0.457 0.966,-0.703 l -0.234,0 C 0.535,-0.468 0.292,-0.233 0,0" /></g><g
           style="fill:#ffffff"
           transform="translate(441.208,53.3672)"
           id="g3567"><path
             id="path3569"
             style="fill:#ffffff;fill-opacity:1;fill-rule:nonzero;stroke:none"
             d="M 0,0 C 0.196,0.196 0.431,0.294 0.705,0.294 0.978,0.294 1.212,0.196 1.406,0 1.604,-0.193 1.7,-0.429 1.7,-0.702 1.7,-0.975 1.604,-1.21 1.406,-1.403 1.212,-1.601 0.978,-1.697 0.705,-1.697 c -0.274,0 -0.509,0.096 -0.705,0.294 -0.194,0.193 -0.292,0.428 -0.292,0.701 0,0.273 0.098,0.509 0.292,0.702 m -3.845,0 c 0.197,0.196 0.432,0.294 0.704,0.294 0.274,0 0.507,-0.098 0.703,-0.294 0.194,-0.193 0.292,-0.429 0.292,-0.702 0,-0.273 -0.098,-0.508 -0.292,-0.701 -0.196,-0.198 -0.429,-0.294 -0.703,-0.294 -0.272,0 -0.507,0.096 -0.704,0.294 -0.194,0.193 -0.291,0.428 -0.291,0.701 0,0.273 0.097,0.509 0.291,0.702 M 3.768,-7.055 C 3.495,-6.27 3.115,-5.619 2.626,-5.104 2.138,-4.59 1.566,-4.21 0.91,-3.962 c -0.657,0.246 -1.37,0.371 -2.138,0.371 -0.756,0 -1.46,-0.125 -2.119,-0.371 -0.658,-0.248 -1.229,-0.628 -1.716,-1.142 -0.489,-0.515 -0.871,-1.166 -1.143,-1.951 -0.273,-0.788 -0.41,-1.722 -0.41,-2.801 0,-1.08 0.137,-2.014 0.41,-2.803 0.272,-0.787 0.654,-1.438 1.143,-1.95 0.487,-0.515 1.058,-0.897 1.716,-1.142 0.659,-0.249 1.363,-0.37 2.119,-0.37 0.768,0 1.481,0.121 2.138,0.37 0.656,0.245 1.228,0.627 1.716,1.142 0.489,0.512 0.869,1.163 1.142,1.95 0.273,0.789 0.411,1.723 0.411,2.803 0,1.079 -0.138,2.013 -0.411,2.801 m -11.759,0.156 c 0.357,0.865 0.858,1.596 1.501,2.196 0.645,0.599 1.416,1.054 2.313,1.367 0.899,0.312 1.88,0.466 2.949,0.466 1.079,0 2.068,-0.154 2.966,-0.466 0.9,-0.313 1.669,-0.768 2.312,-1.367 0.645,-0.6 1.147,-1.331 1.504,-2.196 0.359,-0.867 0.538,-1.851 0.538,-2.957 0,-1.107 -0.179,-2.094 -0.538,-2.957 -0.357,-0.866 -0.859,-1.599 -1.504,-2.198 -0.643,-0.598 -1.412,-1.043 -2.312,-1.337 -0.898,-0.291 -1.887,-0.439 -2.966,-0.439 -1.069,0 -2.05,0.148 -2.949,0.439 -0.897,0.294 -1.668,0.739 -2.313,1.337 -0.643,0.599 -1.144,1.332 -1.501,2.198 -0.36,0.863 -0.538,1.85 -0.538,2.957 0,1.106 0.178,2.09 0.538,2.957" /></g><g
           style="fill:#ffffff"
           transform="translate(452.7852,49.2295)"
           id="g3571"><path
             id="path3573"
             style="fill:#ffffff;fill-opacity:1;fill-rule:nonzero;stroke:none"
             d="m 0,0 c -0.339,0 -0.693,-0.003 -1.065,-0.009 -0.371,-0.008 -0.741,-0.02 -1.111,-0.039 -0.37,-0.02 -0.73,-0.043 -1.075,-0.069 -0.345,-0.026 -0.652,-0.059 -0.926,-0.098 0.064,0.236 0.098,0.443 0.098,0.625 0,0.143 -0.034,0.346 -0.098,0.606 0.858,-0.027 1.698,-0.05 2.518,-0.07 C -0.84,0.927 0,0.919 0.857,0.919 c 0.862,0 1.699,0.008 2.52,0.027 0.82,0.02 1.657,0.043 2.519,0.07 C 5.829,0.756 5.798,0.547 5.798,0.391 5.798,0.222 5.829,0.021 5.896,-0.215 5.621,-0.176 5.313,-0.143 4.967,-0.117 4.621,-0.091 4.265,-0.068 3.895,-0.048 3.522,-0.029 3.152,-0.017 2.782,-0.009 2.412,-0.003 2.054,0 1.719,0 1.678,-1.339 1.66,-2.687 1.66,-4.041 l 0,-3.358 c 0,-0.858 0.016,-1.704 0.047,-2.538 0.033,-0.833 0.07,-1.652 0.108,-2.458 -0.3,0.026 -0.619,0.039 -0.958,0.039 -0.338,0 -0.656,-0.013 -0.956,-0.039 0.04,0.806 0.077,1.625 0.108,2.458 0.032,0.834 0.05,1.68 0.05,2.538 l 0,3.358 C 0.059,-2.687 0.039,-1.339 0,0" /></g><g
           style="fill:#ffffff"
           transform="translate(463.7344,49.2295)"
           id="g3575"><path
             id="path3577"
             style="fill:#ffffff;fill-opacity:1;fill-rule:nonzero;stroke:none"
             d="m 0,0 c -0.338,0 -0.692,-0.003 -1.063,-0.009 -0.37,-0.008 -0.743,-0.02 -1.113,-0.039 -0.37,-0.02 -0.729,-0.043 -1.072,-0.069 -0.345,-0.026 -0.654,-0.059 -0.928,-0.098 0.066,0.236 0.097,0.443 0.097,0.625 0,0.143 -0.031,0.346 -0.097,0.606 0.86,-0.027 1.697,-0.05 2.518,-0.07 C -0.838,0.927 0,0.919 0.86,0.919 c 0.858,0 1.698,0.008 2.518,0.027 0.819,0.02 1.659,0.043 2.517,0.07 C 5.832,0.756 5.799,0.547 5.799,0.391 5.799,0.222 5.832,0.021 5.895,-0.215 5.622,-0.176 5.313,-0.143 4.97,-0.117 4.624,-0.091 4.266,-0.068 3.896,-0.048 3.525,-0.029 3.154,-0.017 2.781,-0.009 2.411,-0.003 2.057,0 1.718,0 1.681,-1.339 1.659,-2.687 1.659,-4.041 l 0,-3.358 c 0,-0.858 0.017,-1.704 0.051,-2.538 0.031,-0.833 0.066,-1.652 0.105,-2.458 -0.297,0.026 -0.616,0.039 -0.955,0.039 -0.339,0 -0.656,-0.013 -0.957,-0.039 0.038,0.806 0.075,1.625 0.109,2.458 0.031,0.834 0.048,1.68 0.048,2.538 l 0,3.358 C 0.06,-2.687 0.039,-1.339 0,0" /></g><g
           style="fill:#ffffff"
           transform="translate(471.9824,47.7168)"
           id="g3579"><path
             id="path3581"
             style="fill:#ffffff;fill-opacity:1;fill-rule:nonzero;stroke:none"
             d="M 0,0 C -0.031,0.826 -0.068,1.668 -0.106,2.528 0.063,2.502 0.226,2.479 0.382,2.459 0.537,2.439 0.693,2.432 0.849,2.432 c 0.158,0 0.313,0.007 0.469,0.027 0.157,0.02 0.319,0.043 0.488,0.069 C 1.767,1.668 1.731,0.826 1.697,0 1.666,-0.826 1.649,-1.669 1.649,-2.528 l 0,-3.359 c 0,-0.857 0.017,-1.703 0.048,-2.537 0.034,-0.833 0.07,-1.652 0.109,-2.458 -0.3,0.026 -0.619,0.038 -0.957,0.038 -0.337,0 -0.658,-0.012 -0.955,-0.038 0.038,0.806 0.075,1.625 0.106,2.458 0.033,0.834 0.049,1.68 0.049,2.537 l 0,3.359 C 0.049,-1.669 0.033,-0.826 0,0" /></g><g
           style="fill:#ffffff"
           transform="translate(483.7627,41.9004)"
           id="g3583"><path
             id="path3585"
             style="fill:#ffffff;fill-opacity:1;fill-rule:nonzero;stroke:none"
             d="M 0,0 C -1.691,1.815 -3.382,3.621 -5.075,5.417 -5.087,5.051 -5.101,4.563 -5.114,3.954 -5.128,3.342 -5.134,2.509 -5.134,1.455 c 0,-0.273 0.004,-0.612 0.012,-1.017 0.004,-0.404 0.01,-0.826 0.018,-1.268 0.005,-0.442 0.017,-0.893 0.029,-1.346 0.013,-0.456 0.027,-0.881 0.041,-1.27 0.01,-0.39 0.023,-0.733 0.037,-1.024 0.014,-0.294 0.025,-0.492 0.039,-0.595 -0.207,0.025 -0.437,0.038 -0.682,0.038 -0.261,0 -0.501,-0.013 -0.722,-0.038 0.024,0.13 0.053,0.37 0.088,0.722 0.032,0.353 0.061,0.77 0.086,1.259 0.026,0.488 0.055,1.019 0.088,1.59 0.034,0.574 0.058,1.144 0.079,1.718 0.02,0.574 0.036,1.133 0.047,1.677 0.014,0.549 0.02,1.037 0.02,1.465 0,1.249 -0.002,2.323 -0.009,3.222 -0.007,0.896 -0.022,1.567 -0.05,2.009 l 0.315,0 c 0.792,-0.858 1.64,-1.779 2.546,-2.761 0.903,-0.983 1.801,-1.952 2.694,-2.908 0.892,-0.956 1.737,-1.863 2.537,-2.712 0.8,-0.855 1.499,-1.579 2.098,-2.178 l 0,2.655 C 4.177,2.06 4.167,3.39 4.149,4.685 4.129,5.979 4.087,7.198 4.021,8.345 4.282,8.279 4.504,8.248 4.685,8.248 4.841,8.248 5.05,8.279 5.31,8.345 5.285,8.059 5.254,7.629 5.222,7.056 5.189,6.482 5.156,5.873 5.125,5.221 5.091,4.57 5.062,3.934 5.037,3.308 5.01,2.683 4.998,2.182 4.998,1.804 l 0,-1.169 c 0,-0.443 0.003,-0.906 0.009,-1.387 0.007,-0.483 0.014,-0.965 0.02,-1.455 0.005,-0.485 0.012,-0.941 0.019,-1.366 0.007,-0.423 0.011,-0.791 0.011,-1.103 l 0,-0.644 -0.273,0 C 3.286,-3.589 1.692,-1.816 0,0" /></g><g
           style="fill:#ffffff"
           transform="translate(503.2939,48.5664)"
           id="g3587"><path
             id="path3589"
             style="fill:#ffffff;fill-opacity:1;fill-rule:nonzero;stroke:none"
             d="m 0,0 c -0.294,0.233 -0.619,0.438 -0.978,0.615 -0.357,0.174 -0.753,0.319 -1.19,0.429 -0.435,0.111 -0.9,0.166 -1.395,0.166 -0.808,0 -1.56,-0.125 -2.255,-0.371 -0.696,-0.248 -1.3,-0.628 -1.816,-1.143 -0.514,-0.514 -0.916,-1.165 -1.21,-1.95 -0.293,-0.788 -0.44,-1.723 -0.44,-2.802 0,-0.95 0.131,-1.808 0.39,-2.579 0.26,-0.767 0.642,-1.412 1.143,-1.94 0.501,-0.527 1.112,-0.933 1.835,-1.22 0.723,-0.286 1.538,-0.429 2.45,-0.429 0.274,0 0.56,0.014 0.858,0.038 0.3,0.028 0.589,0.066 0.869,0.119 0.28,0.05 0.54,0.117 0.781,0.193 0.241,0.079 0.445,0.169 0.615,0.276 0.014,0.388 0.022,0.778 0.03,1.169 0.005,0.39 0.007,0.787 0.007,1.193 0,0.453 -0.007,0.909 -0.027,1.365 -0.02,0.456 -0.043,0.892 -0.069,1.308 0.325,-0.067 0.638,-0.098 0.936,-0.098 0.145,0 0.288,0.008 0.432,0.021 0.142,0.01 0.279,0.037 0.408,0.077 C 1.35,-5.861 1.329,-6.336 1.315,-6.979 1.304,-7.623 1.298,-8.472 1.298,-9.526 c 0,-0.259 0.002,-0.524 0.009,-0.79 0.006,-0.266 0.008,-0.531 0.008,-0.79 -0.273,-0.104 -0.614,-0.212 -1.024,-0.324 -0.409,-0.11 -0.845,-0.202 -1.308,-0.272 -0.462,-0.072 -0.923,-0.136 -1.385,-0.194 -0.461,-0.059 -0.884,-0.09 -1.258,-0.09 -1.161,0 -2.203,0.141 -3.133,0.419 -0.931,0.28 -1.724,0.713 -2.373,1.298 -0.65,0.587 -1.151,1.316 -1.504,2.188 -0.351,0.871 -0.526,1.881 -0.526,3.025 0,1.107 0.183,2.091 0.546,2.957 0.366,0.866 0.879,1.597 1.543,2.197 0.663,0.599 1.466,1.053 2.41,1.367 0.944,0.311 1.987,0.466 3.134,0.466 0.664,0 1.25,-0.035 1.765,-0.106 C -1.283,1.753 -0.827,1.658 -0.432,1.541 -0.034,1.424 0.313,1.302 0.613,1.171 0.914,1.04 1.181,0.918 1.415,0.801 1.31,0.617 1.214,0.384 1.13,0.098 1.047,-0.188 0.99,-0.457 0.966,-0.703 l -0.236,0 C 0.534,-0.468 0.291,-0.233 0,0" /></g><g
           style="fill:#ffffff"
           transform="translate(508.0752,47.7461)"
           id="g3591"><path
             id="path3593"
             style="fill:#ffffff;fill-opacity:1;fill-rule:nonzero;stroke:none"
             d="M 0,0 C -0.031,0.832 -0.07,1.666 -0.108,2.499 0.479,2.473 1.062,2.449 1.64,2.43 2.219,2.41 2.802,2.402 3.387,2.402 3.972,2.402 4.552,2.41 5.123,2.43 5.696,2.449 6.276,2.473 6.861,2.499 6.822,2.303 6.803,2.108 6.803,1.912 6.803,1.718 6.822,1.521 6.861,1.327 6.445,1.353 6.064,1.379 5.719,1.406 5.376,1.432 5.01,1.458 4.626,1.483 4.242,1.51 3.822,1.533 3.366,1.553 2.912,1.571 2.364,1.58 1.728,1.58 1.714,1.165 1.698,0.768 1.677,0.391 1.659,0.014 1.65,-0.415 1.65,-0.898 c 0,-0.508 0.003,-1.003 0.009,-1.484 0.007,-0.481 0.01,-0.844 0.01,-1.093 0.573,0 1.085,0.007 1.541,0.021 0.456,0.011 0.871,0.029 1.251,0.047 0.378,0.02 0.725,0.041 1.044,0.058 0.317,0.022 0.62,0.043 0.906,0.071 -0.037,-0.197 -0.058,-0.398 -0.058,-0.608 0,-0.193 0.021,-0.387 0.058,-0.585 -0.338,0.041 -0.73,0.073 -1.181,0.1 -0.448,0.025 -0.898,0.041 -1.346,0.047 -0.448,0.008 -0.872,0.013 -1.268,0.021 -0.397,0.006 -0.713,0.009 -0.947,0.009 0,-0.118 -0.003,-0.244 -0.01,-0.382 C 1.653,-4.812 1.65,-4.985 1.65,-5.193 l 0,-0.76 0,-1.173 c 0,-0.74 0.003,-1.352 0.009,-1.835 0.007,-0.481 0.016,-0.844 0.029,-1.093 l 1.367,0 c 0.494,0 0.979,0.012 1.454,0.03 0.475,0.02 0.924,0.045 1.346,0.079 0.423,0.031 0.791,0.082 1.103,0.146 -0.027,-0.092 -0.043,-0.191 -0.047,-0.302 -0.008,-0.111 -0.012,-0.212 -0.012,-0.302 0,-0.208 0.02,-0.377 0.059,-0.508 -0.584,0.025 -1.167,0.038 -1.747,0.038 l -1.766,0 -1.776,0 c -0.586,0 -1.179,-0.013 -1.777,-0.038 0.038,0.832 0.077,1.661 0.108,2.487 0.031,0.826 0.048,1.668 0.048,2.529 l 0,3.357 C 0.048,-1.678 0.031,-0.833 0,0" /></g><g
           style="fill:#ffffff"
           transform="translate(524.1875,41.9004)"
           id="g3595"><path
             id="path3597"
             style="fill:#ffffff;fill-opacity:1;fill-rule:nonzero;stroke:none"
             d="M 0,0 C -1.69,1.815 -3.384,3.621 -5.074,5.417 -5.088,5.051 -5.1,4.563 -5.113,3.954 -5.127,3.342 -5.133,2.509 -5.133,1.455 c 0,-0.273 0.004,-0.612 0.009,-1.017 0.007,-0.404 0.014,-0.826 0.02,-1.268 0.006,-0.442 0.016,-0.893 0.03,-1.346 0.012,-0.456 0.026,-0.881 0.04,-1.27 0.012,-0.39 0.025,-0.733 0.039,-1.024 0.014,-0.294 0.023,-0.492 0.037,-0.595 -0.207,0.025 -0.435,0.038 -0.684,0.038 -0.258,0 -0.501,-0.013 -0.722,-0.038 0.027,0.13 0.056,0.37 0.089,0.722 0.033,0.353 0.062,0.77 0.087,1.259 0.028,0.488 0.057,1.019 0.088,1.59 0.032,0.574 0.059,1.144 0.079,1.718 0.021,0.574 0.037,1.133 0.048,1.677 0.014,0.549 0.02,1.037 0.02,1.465 0,1.249 -0.002,2.323 -0.009,3.222 -0.007,0.896 -0.022,1.567 -0.05,2.009 l 0.312,0 C -4.905,7.739 -4.057,6.818 -3.15,5.836 -2.248,4.853 -1.35,3.884 -0.458,2.928 0.435,1.972 1.278,1.065 2.08,0.216 2.879,-0.639 3.579,-1.363 4.177,-1.962 l 0,2.655 C 4.177,2.06 4.169,3.39 4.147,4.685 4.13,5.979 4.087,7.198 4.021,8.345 4.281,8.279 4.502,8.248 4.686,8.248 4.841,8.248 5.051,8.279 5.311,8.345 5.283,8.059 5.254,7.629 5.223,7.056 5.188,6.482 5.157,5.873 5.125,5.221 5.092,4.57 5.063,3.934 5.037,3.308 5.011,2.683 4.999,2.182 4.999,1.804 l 0,-1.169 c 0,-0.443 0.002,-0.906 0.009,-1.387 0.007,-0.483 0.012,-0.965 0.02,-1.455 0.004,-0.485 0.012,-0.941 0.018,-1.366 0.008,-0.423 0.01,-0.791 0.01,-1.103 l 0,-0.644 -0.274,0 C 3.288,-3.589 1.691,-1.816 0,0" /></g><path
           id="path3599"
           style="fill:#ffffff;fill-opacity:1;fill-rule:nonzero;stroke:none"
           d="m 152.781,74.509 1.009,0 0,-37.953 -1.009,0 0,37.953 z" /><g
           style="fill:#ffffff"
           transform="translate(99.5537,49.4824)"
           id="g3601"><path
             id="path3603"
             style="fill:#ffffff;fill-opacity:1;fill-rule:nonzero;stroke:none"
             d="m 0,0 c 0,-2.555 -0.587,-4.827 -1.76,-6.814 -1.177,-1.985 -2.799,-3.524 -4.872,-4.61 -2.054,-1.09 -4.369,-1.634 -6.942,-1.634 -2.556,0 -4.863,0.544 -6.917,1.634 -1.195,0.632 -2.239,1.415 -3.135,2.351 1.716,-0.691 3.594,-1.034 5.631,-1.034 2.571,0 4.888,0.543 6.942,1.632 2.072,1.085 3.696,2.623 4.871,4.61 1.174,1.985 1.762,4.257 1.762,6.811 l 0,22.081 4.42,0 L 0,0 Z m -25.794,25.027 4.422,0 0,-24.768 c 0,-1.656 0.319,-3.11 0.958,-4.352 0.125,-0.24 0.261,-0.466 0.403,-0.684 -0.76,0.161 -1.462,0.423 -2.104,0.783 -1.176,0.673 -2.081,1.623 -2.718,2.848 -0.64,1.245 -0.961,2.697 -0.961,4.353 l 0,21.82 z m -35.37,-33.11 3.708,3.66 c 1.774,-1.766 3.717,-3.037 5.831,-3.809 2.143,-0.76 4.655,-1.14 7.54,-1.14 1.985,0 3.798,0.242 5.439,0.725 1.132,0.346 2.165,0.802 3.099,1.37 -0.626,-1.088 -1.455,-2.037 -2.483,-2.852 -1.225,-0.967 -2.66,-1.703 -4.301,-2.202 -1.64,-0.483 -3.452,-0.725 -5.44,-0.727 -2.884,0 -5.396,0.381 -7.539,1.14 -2.124,0.778 -4.075,2.058 -5.854,3.835 m 21.111,4.43 c 0.122,0.473 0.183,0.984 0.183,1.53 0,1.709 -0.5,3.013 -1.501,3.911 -0.45,0.448 -0.978,0.784 -1.582,1.009 -0.586,0.243 -1.432,0.44 -2.537,0.597 l -4.457,0.622 c -3.074,0.431 -5.468,1.442 -7.177,3.032 -1.83,1.708 -2.745,4.109 -2.745,7.202 0,2.192 0.509,4.126 1.53,5.802 0.863,1.421 2.042,2.567 3.54,3.442 -0.923,-1.619 -1.385,-3.473 -1.385,-5.561 0,-3.092 0.914,-5.493 2.746,-7.202 1.711,-1.589 4.1,-2.599 7.176,-3.031 l 4.456,-0.62 c 1.104,-0.158 1.952,-0.357 2.539,-0.598 0.603,-0.222 1.13,-0.56 1.58,-1.01 1.001,-0.898 1.504,-2.201 1.504,-3.91 -0.004,-1.833 -0.692,-3.256 -2.075,-4.275 -0.523,-0.386 -1.122,-0.701 -1.795,-0.94 m 2.859,26.097 c 0.574,-0.414 1.135,-0.876 1.677,-1.381 l -3.68,-3.626 c -0.759,0.741 -1.57,1.319 -2.432,1.734 -0.866,0.432 -1.762,0.733 -2.696,0.907 -0.931,0.19 -1.962,0.284 -3.083,0.284 -1.107,0 -2.097,-0.15 -2.968,-0.448 0.133,0.455 0.321,0.883 0.566,1.283 0.551,0.898 1.343,1.598 2.381,2.099 1.037,0.5 2.272,0.752 3.707,0.752 1.12,0 2.149,-0.095 3.082,-0.286 0.933,-0.174 1.83,-0.475 2.693,-0.907 0.256,-0.123 0.508,-0.26 0.753,-0.411 M 29.934,0.734 c -0.202,0.276 -0.411,0.539 -0.629,0.785 -0.473,0.692 -1.122,1.248 -1.946,1.668 -0.529,0.313 -1,0.543 -1.494,0.735 0.898,0.345 1.736,0.89 2.511,1.631 0.78,0.759 1.399,1.683 1.866,2.773 0.485,1.105 0.727,2.305 0.727,3.6 0,2.09 -0.468,3.911 -1.399,5.466 -0.916,1.571 -2.246,2.772 -3.99,3.603 -1.728,0.845 -3.73,1.266 -6.011,1.266 l -10.294,0 0,2.766 14.716,0 c 2.28,0 4.284,-0.423 6.012,-1.271 1.739,-0.829 3.07,-2.029 3.986,-3.601 0.934,-1.555 1.401,-3.378 1.401,-5.465 0,-1.296 -0.243,-2.497 -0.726,-3.601 C 34.198,9.999 33.577,9.077 32.799,8.316 32.023,7.573 31.185,7.029 30.285,6.684 c 1.624,-0.621 2.979,-1.682 4.067,-3.186 1.089,-1.504 1.633,-3.36 1.633,-5.571 0,-2.28 -0.484,-4.223 -1.449,-5.828 -0.953,-1.589 -2.301,-2.798 -4.042,-3.625 -0.459,-0.218 -0.935,-0.407 -1.428,-0.562 0.391,0.435 0.739,0.908 1.049,1.422 0.965,1.609 1.449,3.552 1.449,5.83 0,2.211 -0.543,4.067 -1.63,5.57 m -14.907,16.4 0,-8.065 8.473,0 c 0.413,0 0.812,0.021 1.189,0.067 C 24.422,8.599 24.053,8.129 23.584,7.73 22.48,6.779 20.976,6.305 19.077,6.305 l -8.471,0 0,10.829 4.421,0 z m 0,-15.984 0,-8.741 9.016,0 c 0.373,0 0.731,0.021 1.073,0.061 -0.512,-0.914 -1.22,-1.597 -2.154,-2.099 -0.932,-0.484 -2.045,-0.725 -3.339,-0.725 l -9.017,0 0,11.504 4.421,0 z" /></g></g></g></g></svg>