<?xml version="1.0" encoding="UTF-8" standalone="no"?>
<svg id="svg3355" xmlns:rdf="http://www.w3.org/1999/02/22-rdf-syntax-ns#" xmlns="http://www.w3.org/2000/svg" xml:space="preserve" height="51.443" viewBox="0 0 613.88599 51.442749" width="613.89" version="1.1" xmlns:cc="http://creativecommons.org/ns#" xmlns:dc="http://purl.org/dc/elements/1.1/">
	<metadata id="metadata3361">
		<rdf:RDF>
			<cc:Work rdf:about="">
				<dc:format>image/svg+xml</dc:format><dc:type rdf:resource="http://purl.org/dc/dcmitype/StillImage"/>
				<dc:title/>
			</cc:Work>
		</rdf:RDF>
	</metadata>
	<defs id="defs3359">
		<clipPath id="clipPath3369" clipPathUnits="userSpaceOnUse"><path id="path3371" d="m0 112h570v-112h-570v112z"/></clipPath>
	</defs>
	<g id="g3363" transform="matrix(1.25 0 0 -1.25 0 51.443)">
		<g id="g3365" fill="#fff" transform="translate(-38.39 -36.424)">
			<g id="g3367" fill="#fff" clip-path="url(#clipPath3369)">
				<g id="g3373" transform="translate(179.12 65.819)"><path id="path3375" d="m0 0c-1.692 1.815-3.384 3.621-5.075 5.416-0.013-0.364-0.026-0.852-0.038-1.463-0.014-0.612-0.021-1.445-0.021-2.499 0-0.273 0.004-0.612 0.009-1.014 0.007-0.404 0.014-0.829 0.021-1.271 0.007-0.443 0.016-0.89 0.029-1.346 0.014-0.456 0.027-0.878 0.039-1.268 0.013-0.391 0.027-0.732 0.04-1.026 0.013-0.293 0.025-0.492 0.038-0.596-0.207 0.027-0.435 0.041-0.684 0.041-0.259 0-0.501-0.014-0.722-0.041 0.027 0.131 0.056 0.373 0.089 0.723 0.033 0.352 0.061 0.772 0.087 1.26 0.027 0.487 0.057 1.018 0.088 1.591 0.032 0.572 0.059 1.145 0.079 1.716 0.019 0.574 0.035 1.133 0.047 1.68 0.014 0.546 0.021 1.034 0.021 1.463 0 1.25-0.003 2.322-0.009 3.221-0.008 0.899-0.024 1.57-0.05 2.012h0.312c0.795-0.86 1.643-1.782 2.548-2.764 0.904-0.981 1.802-1.95 2.694-2.907 0.891-0.957 1.737-1.861 2.538-2.714 0.798-0.851 1.499-1.578 2.097-2.176v2.655c0 1.366-0.009 2.696-0.029 3.991-0.019 1.294-0.062 2.515-0.127 3.66 0.26-0.066 0.481-0.097 0.664-0.097 0.155 0 0.365 0.031 0.626 0.097-0.028-0.287-0.057-0.716-0.089-1.289-0.034-0.572-0.065-1.183-0.097-1.833-0.034-0.653-0.063-1.289-0.088-1.913-0.027-0.625-0.04-1.126-0.04-1.503v-1.172c0-0.442 0.004-0.905 0.011-1.386 0.006-0.481 0.011-0.966 0.019-1.454 0.005-0.488 0.012-0.944 0.019-1.366 0.007-0.425 0.01-0.79 0.01-1.104v-0.643h-0.274c-1.495 1.729-3.091 3.504-4.782 5.319" fill="#fff"/></g>
				<g id="g3377" transform="translate(188.14 71.634)"><path id="path3379" d="m0 0c-0.033 0.829-0.069 1.67-0.108 2.528 0.169-0.024 0.331-0.049 0.487-0.067 0.157-0.021 0.314-0.03 0.47-0.03 0.155 0 0.311 0.009 0.468 0.03 0.157 0.018 0.319 0.043 0.489 0.067-0.039-0.858-0.076-1.699-0.108-2.528-0.033-0.826-0.049-1.668-0.049-2.526v-3.357c0-0.861 0.016-1.707 0.049-2.538 0.032-0.833 0.069-1.653 0.108-2.461-0.3 0.027-0.618 0.041-0.957 0.041s-0.657-0.014-0.957-0.041c0.039 0.808 0.075 1.628 0.108 2.461 0.031 0.831 0.047 1.677 0.047 2.538v3.357c0 0.858-0.016 1.7-0.047 2.526" fill="#fff"/></g>
				<g id="g3381" transform="translate(193.67 71.666)"><path id="path3383" d="m0 0c-0.034 0.831-0.07 1.664-0.109 2.497 0.587-0.025 1.168-0.05 1.748-0.068 0.579-0.02 1.16-0.03 1.747-0.03 0.585 0 1.164 0.01 1.737 0.03 0.573 0.018 1.152 0.043 1.738 0.068-0.04-0.194-0.059-0.391-0.059-0.585 0-0.197 0.019-0.391 0.059-0.587-0.417 0.027-0.798 0.051-1.142 0.079-0.346 0.025-0.709 0.052-1.093 0.077-0.384 0.027-0.804 0.049-1.26 0.07-0.456 0.02-1.003 0.029-1.639 0.029-0.014-0.418-0.029-0.815-0.05-1.192-0.019-0.377-0.028-0.806-0.028-1.287 0-0.508 0.003-1.002 0.009-1.483 0.007-0.483 0.01-0.847 0.01-1.095 0.573 0 1.086 0.007 1.542 0.02 0.457 0.014 0.872 0.03 1.249 0.05 0.376 0.018 0.727 0.039 1.045 0.058s0.621 0.041 0.908 0.068c-0.038-0.196-0.059-0.397-0.059-0.605 0-0.196 0.021-0.39 0.059-0.585-0.339 0.039-0.732 0.071-1.181 0.097s-0.899 0.041-1.348 0.048c-0.448 0.007-0.871 0.014-1.269 0.021-0.396 0.006-0.711 0.009-0.946 0.009 0-0.116-0.003-0.244-0.01-0.38-0.006-0.137-0.009-0.309-0.009-0.517v-0.763-1.169c0-0.743 0.003-1.355 0.009-1.836 0.007-0.483 0.017-0.847 0.03-1.092h1.367c0.494 0 0.978 0.009 1.453 0.029 0.474 0.018 0.924 0.045 1.348 0.076 0.422 0.034 0.79 0.082 1.102 0.147-0.027-0.09-0.043-0.192-0.05-0.303-0.006-0.11-0.009-0.209-0.009-0.302 0-0.207 0.021-0.377 0.059-0.508-0.584 0.027-1.168 0.041-1.748 0.041h-1.765-1.777c-0.585 0-1.178-0.014-1.777-0.041 0.039 0.833 0.075 1.664 0.109 2.491 0.031 0.826 0.047 1.668 0.047 2.526v3.359c0 0.858-0.016 1.705-0.047 2.538" fill="#fff"/></g>
				<g id="g3385" transform="translate(205.29 61.613)"><path id="path3387" d="m0 0c0.273-0.066 0.643-0.116 1.112-0.147 0.469-0.034 0.95-0.05 1.445-0.05 0.715 0 1.431 0.086 2.147 0.256 0.715 0.166 1.357 0.487 1.923 0.954 0.564 0.47 1.027 1.112 1.385 1.924 0.358 0.813 0.536 1.864 0.536 3.152 0 1.133-0.138 2.063-0.419 2.792-0.279 0.727-0.663 1.303-1.151 1.727-0.489 0.422-1.071 0.716-1.746 0.878-0.677 0.163-1.42 0.244-2.226 0.244-0.586 0-1.132-0.02-1.64-0.059-0.507-0.038-0.963-0.083-1.366-0.137-0.04-0.623-0.069-1.278-0.088-1.96-0.019-0.684-0.03-1.377-0.03-2.079v-3.357c0-1.407 0.04-2.786 0.118-4.138m-1.767 10.021c-0.033 0.829-0.069 1.671-0.108 2.529 0.494-0.025 0.987-0.05 1.474-0.068 0.488-0.02 0.98-0.029 1.474-0.029s0.986 0.016 1.474 0.047c0.488 0.034 0.978 0.05 1.474 0.05 1.145 0 2.125-0.149 2.938-0.449 0.813-0.298 1.479-0.725 2-1.278 0.52-0.553 0.901-1.231 1.143-2.03 0.239-0.801 0.361-1.702 0.361-2.704 0-1.3-0.226-2.398-0.675-3.29-0.447-0.892-1.02-1.61-1.717-2.156-0.696-0.546-1.464-0.935-2.304-1.163-0.838-0.225-1.642-0.341-2.41-0.341-0.443 0-0.878 0.007-1.308 0.021-0.429 0.013-0.865 0.02-1.308 0.02h-1.307c-0.43 0-0.867-0.013-1.309-0.041 0.039 0.809 0.075 1.629 0.108 2.462 0.032 0.83 0.049 1.677 0.049 2.537v3.357c0 0.858-0.017 1.7-0.049 2.526" fill="#fff"/></g>
				<g id="g3389" transform="translate(218.81 71.666)"><path id="path3391" d="m0 0c-0.032 0.831-0.068 1.664-0.107 2.497 0.586-0.025 1.168-0.05 1.746-0.068 0.58-0.02 1.163-0.03 1.747-0.03 0.587 0 1.165 0.01 1.738 0.03 0.572 0.018 1.152 0.043 1.737 0.068-0.038-0.194-0.059-0.391-0.059-0.585 0-0.197 0.021-0.391 0.059-0.587-0.415 0.027-0.797 0.051-1.141 0.079-0.345 0.025-0.71 0.052-1.094 0.077-0.384 0.027-0.804 0.049-1.258 0.07-0.455 0.02-1.003 0.029-1.641 0.029-0.012-0.418-0.029-0.815-0.048-1.192-0.02-0.377-0.029-0.806-0.029-1.287 0-0.508 0.002-1.002 0.009-1.483 0.007-0.483 0.011-0.847 0.011-1.095 0.572 0 1.085 0.007 1.54 0.02 0.457 0.014 0.872 0.03 1.251 0.05 0.377 0.018 0.725 0.039 1.043 0.058s0.622 0.041 0.908 0.068c-0.038-0.196-0.058-0.397-0.058-0.605 0-0.196 0.02-0.39 0.058-0.585-0.338 0.039-0.732 0.071-1.181 0.097s-0.898 0.041-1.347 0.048c-0.448 0.007-0.871 0.014-1.267 0.021-0.398 0.006-0.714 0.009-0.947 0.009 0-0.116-0.004-0.244-0.011-0.38-0.007-0.137-0.009-0.309-0.009-0.517v-0.763-1.169c0-0.743 0.002-1.355 0.009-1.836 0.007-0.483 0.016-0.847 0.029-1.092h1.367c0.494 0 0.979 0.009 1.453 0.029 0.477 0.018 0.927 0.045 1.348 0.076 0.422 0.034 0.79 0.082 1.103 0.147-0.025-0.09-0.043-0.192-0.048-0.303-0.007-0.11-0.011-0.209-0.011-0.302 0-0.207 0.02-0.377 0.059-0.508-0.585 0.027-1.168 0.041-1.747 0.041h-1.767-1.775c-0.587 0-1.179-0.014-1.777-0.041 0.039 0.833 0.075 1.664 0.107 2.491 0.033 0.826 0.048 1.668 0.048 2.526v3.359c0 0.858-0.015 1.705-0.048 2.538" fill="#fff"/></g>
				<g id="g3393" transform="translate(230.91 67.916)"><path id="path3395" d="m0 0c0.215-0.012 0.453-0.019 0.712-0.019 0.404 0 0.823 0.046 1.26 0.136 0.436 0.092 0.835 0.251 1.2 0.479s0.667 0.533 0.908 0.917c0.24 0.385 0.361 0.869 0.361 1.456 0 0.506-0.094 0.925-0.284 1.257-0.188 0.332-0.432 0.596-0.731 0.79-0.301 0.197-0.626 0.33-0.975 0.402-0.353 0.07-0.698 0.106-1.035 0.106-0.456 0-0.833-0.009-1.133-0.029-0.3-0.018-0.553-0.04-0.761-0.068-0.026-0.716-0.051-1.425-0.078-2.127-0.027-0.704-0.039-1.406-0.039-2.108v-1.113c0.181-0.039 0.381-0.065 0.595-0.079m-2.245 3.718c-0.031 0.829-0.068 1.671-0.108 2.529 0.379-0.025 0.749-0.05 1.114-0.068 0.364-0.02 0.735-0.03 1.112-0.03s0.749 0.017 1.113 0.048c0.364 0.034 0.735 0.05 1.112 0.05 0.547 0 1.068-0.052 1.563-0.156 0.494-0.104 0.925-0.278 1.298-0.517 0.37-0.242 0.664-0.558 0.878-0.946 0.215-0.391 0.321-0.878 0.321-1.465 0-0.625-0.139-1.161-0.419-1.61-0.279-0.449-0.622-0.82-1.024-1.113-0.404-0.294-0.838-0.522-1.298-0.684-0.463-0.162-0.883-0.269-1.26-0.321 0.156-0.196 0.37-0.469 0.643-0.819 0.274-0.352 0.581-0.741 0.92-1.163 0.337-0.422 0.688-0.864 1.054-1.328 0.363-0.462 0.715-0.905 1.052-1.327 0.339-0.422 0.658-0.808 0.957-1.16 0.3-0.352 0.54-0.619 0.723-0.802-0.194 0.027-0.391 0.041-0.585 0.041h-0.587-0.565c-0.196 0-0.386-0.014-0.567-0.041-0.194 0.273-0.492 0.685-0.889 1.231-0.396 0.546-0.835 1.131-1.316 1.756-0.483 0.626-0.973 1.246-1.475 1.865-0.501 0.618-0.959 1.142-1.376 1.571h-0.741v-1.424c0-0.86 0.016-1.707 0.049-2.538 0.032-0.833 0.068-1.652 0.107-2.461-0.3 0.027-0.619 0.041-0.957 0.041s-0.657-0.014-0.957-0.041c0.04 0.809 0.077 1.628 0.108 2.461 0.034 0.831 0.05 1.678 0.05 2.538v3.357c0 0.858-0.016 1.7-0.05 2.526" fill="#fff"/></g>
				<g id="g3397" transform="translate(240.73 62.579)"><path id="path3399" d="m0 0c0.175-0.242 0.391-0.461 0.645-0.655 0.253-0.194 0.548-0.355 0.887-0.479s0.716-0.185 1.132-0.185c0.43 0 0.816 0.074 1.162 0.223 0.345 0.152 0.637 0.353 0.878 0.608 0.241 0.253 0.426 0.553 0.557 0.896 0.13 0.346 0.195 0.714 0.195 1.104 0 0.599-0.153 1.072-0.458 1.425-0.308 0.352-0.687 0.644-1.143 0.878-0.456 0.235-0.946 0.45-1.474 0.643-0.526 0.197-1.018 0.441-1.473 0.734-0.455 0.291-0.837 0.666-1.141 1.122-0.308 0.457-0.46 1.066-0.46 1.833 0 0.549 0.099 1.046 0.293 1.495s0.478 0.835 0.849 1.16 0.817 0.581 1.338 0.764c0.52 0.18 1.105 0.273 1.756 0.273 0.625 0 1.165-0.077 1.62-0.226s0.879-0.379 1.268-0.693c-0.116-0.221-0.214-0.457-0.291-0.702-0.079-0.249-0.157-0.56-0.235-0.937h-0.235c-0.065 0.183-0.153 0.379-0.263 0.596-0.11 0.214-0.26 0.413-0.449 0.593-0.188 0.183-0.414 0.337-0.674 0.461-0.259 0.122-0.571 0.185-0.937 0.185-0.363 0-0.699-0.058-1.004-0.176-0.306-0.117-0.574-0.282-0.801-0.499-0.228-0.214-0.402-0.472-0.527-0.77-0.124-0.3-0.185-0.625-0.185-0.975 0-0.612 0.152-1.094 0.459-1.445 0.305-0.352 0.686-0.648 1.142-0.889 0.454-0.24 0.945-0.456 1.473-0.643 0.527-0.188 1.018-0.421 1.473-0.694 0.456-0.273 0.836-0.623 1.142-1.054 0.306-0.429 0.46-1.003 0.46-1.718 0-0.599-0.108-1.165-0.322-1.698-0.216-0.533-0.528-0.998-0.937-1.395-0.41-0.398-0.912-0.702-1.503-0.919-0.593-0.212-1.267-0.321-2.021-0.321-0.807 0-1.461 0.109-1.962 0.321-0.501 0.217-0.922 0.461-1.259 0.734 0.117 0.297 0.198 0.568 0.244 0.81 0.047 0.239 0.088 0.549 0.128 0.926h0.232c0.105-0.232 0.247-0.472 0.421-0.711" fill="#fff"/></g>
				<g id="g3401" transform="translate(256.42 77.288)"><path id="path3403" d="m0 0c0.195 0.194 0.43 0.291 0.704 0.291 0.273 0 0.507-0.097 0.702-0.291 0.194-0.197 0.292-0.432 0.292-0.705s-0.098-0.508-0.292-0.702c-0.195-0.197-0.429-0.293-0.702-0.293-0.274 0-0.509 0.096-0.704 0.293-0.195 0.194-0.292 0.429-0.292 0.702s0.097 0.508 0.292 0.705m-3.69-10.464c0.338 0 0.691-0.007 1.054-0.019 0.366-0.014 0.716-0.019 1.054-0.019 0.364 0 0.73 0.002 1.093 0.008 0.366 0.007 0.73 0.018 1.094 0.03l-2.166 4.957-2.129-4.957zm-0.156 10.464c0.196 0.194 0.429 0.291 0.702 0.291 0.275 0 0.508-0.097 0.705-0.291 0.194-0.197 0.292-0.432 0.292-0.705s-0.098-0.508-0.292-0.702c-0.197-0.197-0.43-0.293-0.705-0.293-0.273 0-0.506 0.096-0.702 0.293-0.194 0.194-0.292 0.429-0.292 0.702s0.098 0.508 0.292 0.705m3.945-5.321c0.363-0.876 0.733-1.766 1.112-2.664 0.376-0.897 0.754-1.789 1.132-2.674 0.377-0.884 0.731-1.709 1.063-2.469 0.332-0.761 0.632-1.441 0.898-2.041 0.267-0.599 0.485-1.052 0.654-1.367-0.182 0.028-0.354 0.041-0.517 0.041h-0.517-0.518c-0.163 0-0.335-0.013-0.517-0.041-0.091 0.301-0.215 0.662-0.371 1.084-0.157 0.425-0.329 0.868-0.517 1.328-0.189 0.463-0.381 0.93-0.575 1.407-0.197 0.474-0.38 0.925-0.547 1.356-0.417 0.011-0.839 0.021-1.27 0.029-0.43 0.005-0.859 0.01-1.287 0.01-0.405 0-0.801-0.005-1.191-0.01-0.391-0.008-0.788-0.018-1.192-0.029-0.416-1.015-0.793-1.982-1.131-2.898-0.338-0.92-0.593-1.676-0.762-2.277-0.221 0.028-0.461 0.041-0.721 0.041-0.262 0-0.501-0.013-0.722-0.041 1.052 2.279 2.082 4.543 3.084 6.794 1.001 2.251 2.009 4.542 3.025 6.872h0.371c0.311-0.756 0.649-1.571 1.016-2.451" fill="#fff"/></g>
				<g id="g3405" transform="translate(273.25 61.21)"><path id="path3407" d="m0 0c-0.255-0.122-0.56-0.232-0.917-0.332-0.359-0.097-0.759-0.185-1.202-0.262-0.442-0.079-0.903-0.117-1.384-0.117-1.03 0-1.979 0.147-2.851 0.438-0.872 0.294-1.624 0.741-2.254 1.339-0.632 0.598-1.126 1.33-1.483 2.194-0.359 0.867-0.537 1.851-0.537 2.958 0 1.106 0.178 2.093 0.537 2.957 0.357 0.865 0.858 1.598 1.501 2.197 0.646 0.598 1.416 1.054 2.314 1.366 0.899 0.311 1.888 0.47 2.967 0.47 0.859 0 1.642-0.088 2.352-0.265 0.709-0.176 1.337-0.388 1.883-0.634-0.104-0.183-0.188-0.429-0.254-0.743-0.065-0.312-0.116-0.573-0.155-0.779l-0.118-0.04c-0.13 0.155-0.311 0.331-0.546 0.528-0.234 0.194-0.507 0.384-0.819 0.564-0.314 0.183-0.664 0.337-1.055 0.461-0.39 0.121-0.818 0.185-1.288 0.185-0.768 0-1.48-0.124-2.137-0.373-0.658-0.246-1.229-0.627-1.717-1.14-0.488-0.514-0.869-1.165-1.142-1.953-0.274-0.787-0.411-1.72-0.411-2.801 0-1.079 0.137-2.014 0.411-2.8 0.273-0.788 0.654-1.44 1.142-1.953 0.488-0.514 1.059-0.896 1.717-1.142 0.657-0.246 1.369-0.37 2.137-0.37 0.47 0 0.9 0.059 1.298 0.176 0.397 0.118 0.761 0.255 1.094 0.42 0.33 0.162 0.63 0.336 0.897 0.526 0.266 0.19 0.491 0.354 0.673 0.496l0.078-0.076-0.175-1.152c-0.117-0.106-0.304-0.219-0.556-0.343" fill="#fff"/></g>
				<g id="g3409" transform="translate(286.54 71.634)"><path id="path3411" d="m0 0c-0.033 0.829-0.068 1.67-0.108 2.528 0.17-0.024 0.332-0.049 0.488-0.067 0.155-0.021 0.312-0.03 0.469-0.03 0.156 0 0.311 0.009 0.467 0.03 0.158 0.018 0.32 0.043 0.49 0.067-0.04-0.858-0.077-1.699-0.109-2.528-0.032-0.826-0.049-1.668-0.049-2.526v-3.357c0-0.861 0.017-1.707 0.049-2.538 0.032-0.833 0.069-1.653 0.109-2.461-0.3 0.027-0.618 0.041-0.957 0.041s-0.659-0.014-0.957-0.041c0.04 0.808 0.075 1.628 0.108 2.461 0.032 0.831 0.049 1.677 0.049 2.538v1.756c-0.703 0.011-1.383 0.023-2.04 0.029-0.657 0.007-1.338 0.01-2.041 0.01-0.702 0-1.382-0.003-2.039-0.01-0.657-0.006-1.337-0.018-2.041-0.029v-1.756c0-0.861 0.017-1.707 0.05-2.538 0.032-0.833 0.068-1.653 0.107-2.461-0.299 0.027-0.617 0.041-0.956 0.041s-0.657-0.014-0.957-0.041c0.038 0.808 0.074 1.628 0.108 2.461 0.032 0.831 0.048 1.677 0.048 2.538v3.357c0 0.858-0.016 1.7-0.048 2.526-0.034 0.829-0.07 1.67-0.108 2.528 0.169-0.024 0.332-0.049 0.487-0.067 0.158-0.021 0.314-0.03 0.47-0.03s0.311 0.009 0.467 0.03c0.158 0.018 0.32 0.043 0.489 0.067-0.039-0.858-0.075-1.699-0.107-2.528-0.033-0.826-0.05-1.668-0.05-2.526v-0.684c0.704-0.014 1.384-0.025 2.041-0.039 0.657-0.013 1.337-0.02 2.039-0.02 0.703 0 1.384 0.007 2.041 0.02 0.657 0.014 1.337 0.025 2.04 0.039v0.684c0 0.858-0.017 1.7-0.049 2.526" fill="#fff"/></g>
				<g id="g3413" transform="translate(292.11 62.579)"><path id="path3415" d="m0 0c0.176-0.242 0.391-0.461 0.644-0.655s0.55-0.355 0.887-0.479c0.339-0.124 0.716-0.185 1.133-0.185 0.43 0 0.815 0.074 1.161 0.223 0.346 0.152 0.638 0.353 0.878 0.608 0.242 0.253 0.427 0.553 0.557 0.896 0.13 0.346 0.195 0.714 0.195 1.104 0 0.599-0.152 1.072-0.458 1.425-0.306 0.352-0.686 0.644-1.143 0.878-0.455 0.235-0.946 0.45-1.472 0.643-0.528 0.197-1.019 0.441-1.475 0.734-0.456 0.291-0.838 0.666-1.142 1.122-0.306 0.457-0.458 1.066-0.458 1.833 0 0.549 0.096 1.046 0.292 1.495 0.195 0.449 0.479 0.835 0.85 1.16 0.37 0.325 0.816 0.581 1.336 0.764 0.521 0.18 1.107 0.273 1.757 0.273 0.625 0 1.165-0.077 1.619-0.226 0.456-0.149 0.88-0.379 1.27-0.693-0.118-0.221-0.215-0.457-0.292-0.702-0.078-0.249-0.157-0.56-0.235-0.937h-0.234c-0.065 0.183-0.154 0.379-0.263 0.596-0.111 0.214-0.261 0.413-0.45 0.593-0.188 0.183-0.413 0.337-0.672 0.461-0.263 0.122-0.574 0.185-0.938 0.185-0.365 0-0.7-0.058-1.005-0.176-0.306-0.117-0.572-0.282-0.8-0.499-0.229-0.214-0.404-0.472-0.528-0.77-0.123-0.3-0.185-0.625-0.185-0.975 0-0.612 0.152-1.094 0.458-1.445 0.307-0.352 0.687-0.648 1.143-0.889 0.455-0.24 0.947-0.456 1.473-0.643 0.527-0.188 1.018-0.421 1.474-0.694 0.455-0.273 0.836-0.623 1.142-1.054 0.305-0.429 0.459-1.003 0.459-1.718 0-0.599-0.107-1.165-0.323-1.698-0.215-0.533-0.527-0.998-0.935-1.395-0.41-0.398-0.912-0.702-1.504-0.919-0.593-0.212-1.266-0.321-2.021-0.321-0.807 0-1.461 0.109-1.961 0.321-0.501 0.217-0.922 0.461-1.259 0.734 0.117 0.297 0.198 0.568 0.244 0.81 0.045 0.239 0.088 0.549 0.126 0.926h0.234c0.105-0.232 0.244-0.472 0.421-0.711" fill="#fff"/></g>
				<g id="g3417" transform="translate(301.93 71.634)"><path id="path3419" d="m0 0c-0.033 0.829-0.069 1.67-0.107 2.528 0.169-0.024 0.332-0.049 0.487-0.067 0.156-0.021 0.312-0.03 0.47-0.03 0.156 0 0.311 0.009 0.467 0.03 0.158 0.018 0.319 0.043 0.489 0.067-0.04-0.858-0.076-1.699-0.107-2.528-0.035-0.826-0.051-1.668-0.051-2.526v-3.357c0-0.861 0.016-1.707 0.051-2.538 0.031-0.833 0.067-1.653 0.107-2.461-0.3 0.027-0.618 0.041-0.956 0.041-0.339 0-0.659-0.014-0.957-0.041 0.038 0.808 0.074 1.628 0.107 2.461 0.032 0.831 0.048 1.677 0.048 2.538v3.357c0 0.858-0.016 1.7-0.048 2.526" fill="#fff"/></g>
				<g id="g3421" transform="translate(307.49 62.579)"><path id="path3423" d="m0 0c0.174-0.242 0.39-0.461 0.643-0.655s0.549-0.355 0.887-0.479 0.716-0.185 1.133-0.185c0.429 0 0.816 0.074 1.161 0.223 0.345 0.152 0.639 0.353 0.879 0.608 0.24 0.253 0.426 0.553 0.557 0.896 0.13 0.346 0.194 0.714 0.194 1.104 0 0.599-0.151 1.072-0.459 1.425-0.305 0.352-0.685 0.644-1.141 0.878-0.456 0.235-0.947 0.45-1.474 0.643-0.527 0.197-1.018 0.441-1.473 0.734-0.457 0.291-0.838 0.666-1.142 1.122-0.306 0.457-0.458 1.066-0.458 1.833 0 0.549 0.096 1.046 0.29 1.495 0.197 0.449 0.479 0.835 0.851 1.16 0.37 0.325 0.816 0.581 1.336 0.764 0.521 0.18 1.107 0.273 1.758 0.273 0.625 0 1.164-0.077 1.619-0.226s0.88-0.379 1.27-0.693c-0.118-0.221-0.215-0.457-0.293-0.702-0.079-0.249-0.156-0.56-0.236-0.937h-0.233c-0.065 0.183-0.153 0.379-0.263 0.596-0.111 0.214-0.26 0.413-0.449 0.593-0.189 0.183-0.414 0.337-0.673 0.461-0.262 0.122-0.573 0.185-0.938 0.185-0.364 0-0.699-0.058-1.006-0.176-0.304-0.117-0.572-0.282-0.799-0.499-0.228-0.214-0.403-0.472-0.528-0.77-0.123-0.3-0.185-0.625-0.185-0.975 0-0.612 0.153-1.094 0.458-1.445 0.308-0.352 0.687-0.648 1.143-0.889 0.456-0.24 0.947-0.456 1.473-0.643 0.527-0.188 1.019-0.421 1.475-0.694 0.455-0.273 0.835-0.623 1.141-1.054 0.306-0.429 0.46-1.003 0.46-1.718 0-0.599-0.109-1.165-0.324-1.698-0.214-0.533-0.526-0.998-0.936-1.395-0.41-0.398-0.911-0.702-1.504-0.919-0.591-0.212-1.265-0.321-2.021-0.321-0.805 0-1.461 0.109-1.961 0.321-0.501 0.217-0.92 0.461-1.257 0.734 0.117 0.297 0.199 0.568 0.244 0.81 0.045 0.239 0.088 0.549 0.126 0.926h0.234c0.104-0.232 0.244-0.472 0.421-0.711" fill="#fff"/></g>
				<g id="g3425" transform="translate(326.89 61.21)"><path id="path3427" d="m0 0c-0.255-0.122-0.56-0.232-0.916-0.332-0.359-0.097-0.76-0.185-1.203-0.262-0.442-0.079-0.904-0.117-1.384-0.117-1.029 0-1.979 0.147-2.851 0.438-0.873 0.294-1.624 0.741-2.254 1.339-0.632 0.598-1.127 1.33-1.484 2.194-0.358 0.867-0.537 1.851-0.537 2.958 0 1.106 0.179 2.093 0.537 2.957 0.357 0.865 0.858 1.598 1.503 2.197 0.645 0.598 1.414 1.054 2.313 1.366 0.899 0.311 1.887 0.47 2.966 0.47 0.861 0 1.644-0.088 2.353-0.265 0.709-0.176 1.338-0.388 1.884-0.634-0.105-0.183-0.189-0.429-0.254-0.743-0.066-0.312-0.117-0.573-0.155-0.779l-0.119-0.04c-0.13 0.155-0.311 0.331-0.545 0.528-0.236 0.194-0.508 0.384-0.821 0.564-0.312 0.183-0.664 0.337-1.054 0.461-0.389 0.121-0.819 0.185-1.289 0.185-0.767 0-1.478-0.124-2.136-0.373-0.658-0.246-1.23-0.627-1.717-1.14-0.489-0.514-0.869-1.165-1.143-1.953-0.273-0.787-0.41-1.72-0.41-2.801 0-1.079 0.137-2.014 0.41-2.8 0.274-0.788 0.654-1.44 1.143-1.953 0.487-0.514 1.059-0.896 1.717-1.142s1.369-0.37 2.136-0.37c0.47 0 0.903 0.059 1.299 0.176 0.398 0.118 0.762 0.255 1.095 0.42 0.329 0.162 0.629 0.336 0.896 0.526s0.492 0.354 0.672 0.496l0.079-0.076-0.175-1.152c-0.117-0.106-0.303-0.219-0.556-0.343" fill="#fff"/></g>
				<g id="g3429" transform="translate(340.18 71.634)"><path id="path3431" d="m0 0c-0.033 0.829-0.067 1.67-0.107 2.528 0.169-0.024 0.333-0.049 0.486-0.067 0.158-0.021 0.314-0.03 0.471-0.03 0.154 0 0.31 0.009 0.468 0.03 0.157 0.018 0.319 0.043 0.489 0.067-0.041-0.858-0.077-1.699-0.11-2.528-0.032-0.826-0.048-1.668-0.048-2.526v-3.357c0-0.861 0.016-1.707 0.048-2.538 0.033-0.833 0.069-1.653 0.11-2.461-0.301 0.027-0.619 0.041-0.957 0.041-0.339 0-0.659-0.014-0.957-0.041 0.04 0.808 0.074 1.628 0.107 2.461 0.032 0.831 0.049 1.677 0.049 2.538v1.756c-0.703 0.011-1.383 0.023-2.039 0.029-0.658 0.007-1.337 0.01-2.041 0.01-0.702 0-1.382-0.003-2.04-0.01-0.657-0.006-1.337-0.018-2.039-0.029v-1.756c0-0.861 0.015-1.707 0.047-2.538 0.033-0.833 0.07-1.653 0.11-2.461-0.301 0.027-0.618 0.041-0.957 0.041s-0.658-0.014-0.958-0.041c0.04 0.808 0.076 1.628 0.108 2.461 0.031 0.831 0.047 1.677 0.047 2.538v3.357c0 0.858-0.016 1.7-0.047 2.526-0.032 0.829-0.068 1.67-0.108 2.528 0.169-0.024 0.332-0.049 0.488-0.067 0.157-0.021 0.314-0.03 0.47-0.03 0.155 0 0.311 0.009 0.469 0.03 0.156 0.018 0.318 0.043 0.488 0.067-0.04-0.858-0.077-1.699-0.11-2.528-0.032-0.826-0.047-1.668-0.047-2.526v-0.684c0.702-0.014 1.382-0.025 2.039-0.039 0.658-0.013 1.338-0.02 2.04-0.02 0.704 0 1.383 0.007 2.041 0.02 0.656 0.014 1.336 0.025 2.039 0.039v0.684c0 0.858-0.017 1.7-0.049 2.526" fill="#fff"/></g>
				<g id="g3433" transform="translate(345.71,71.666)"><path id="path3435" d="m0 0c-0.035 0.831-0.07 1.664-0.109 2.497 0.586-0.025 1.167-0.05 1.748-0.068 0.579-0.02 1.16-0.03 1.747-0.03 0.585 0 1.164 0.01 1.736 0.03 0.574 0.018 1.152 0.043 1.737 0.068-0.038-0.194-0.058-0.391-0.058-0.585 0-0.197 0.02-0.391 0.058-0.587-0.417 0.027-0.797 0.051-1.141 0.079-0.345 0.025-0.709 0.052-1.093 0.077-0.384 0.027-0.803 0.049-1.259 0.07-0.457 0.02-1.003 0.029-1.639 0.029-0.014-0.418-0.03-0.815-0.05-1.192s-0.03-0.806-0.03-1.287c0-0.508 0.004-1.002 0.01-1.483 0.007-0.483 0.011-0.847 0.011-1.095 0.57 0 1.085 0.007 1.542 0.02 0.456 0.014 0.871 0.03 1.25 0.05 0.375 0.018 0.726 0.039 1.044 0.058 0.317 0.019 0.621 0.041 0.907 0.068-0.039-0.196-0.058-0.397-0.058-0.605 0-0.196 0.019-0.39 0.058-0.585-0.339 0.039-0.732 0.071-1.181 0.097s-0.898 0.041-1.347 0.048-0.871 0.014-1.269 0.021c-0.396 0.006-0.711 0.009-0.946 0.009 0-0.116-0.004-0.244-0.011-0.38-0.006-0.137-0.01-0.309-0.01-0.517v-0.763-1.169c0-0.743 0.004-1.355 0.01-1.836 0.007-0.483 0.018-0.847 0.031-1.092h1.367c0.493 0 0.977 0.009 1.453 0.029 0.473 0.018 0.924 0.045 1.346 0.076 0.424 0.034 0.792 0.082 1.103 0.147-0.027-0.09-0.043-0.192-0.049-0.303-0.007-0.11-0.01-0.209-0.01-0.302 0-0.207 0.021-0.377 0.059-0.508-0.585 0.027-1.168 0.041-1.747 0.041h-1.766-1.776c-0.586 0-1.179-0.014-1.777-0.041 0.039 0.833 0.074 1.664 0.109 2.491 0.031 0.826 0.047 1.668 0.047 2.526v3.359c0 0.858-0.016 1.705-0.047 2.538" fill="#fff"/></g>
				<g id="g3437" transform="translate(361.13 62.579)"><path id="path3439" d="m0 0c0.176-0.242 0.391-0.461 0.645-0.655 0.252-0.194 0.549-0.355 0.888-0.479 0.338-0.124 0.714-0.185 1.131-0.185 0.431 0 0.817 0.074 1.161 0.223 0.345 0.152 0.639 0.353 0.88 0.608 0.24 0.253 0.426 0.553 0.556 0.896 0.13 0.346 0.195 0.714 0.195 1.104 0 0.599-0.153 1.072-0.458 1.425-0.307 0.352-0.687 0.644-1.143 0.878-0.455 0.235-0.946 0.45-1.472 0.643-0.529 0.197-1.019 0.441-1.475 0.734-0.456 0.291-0.837 0.666-1.143 1.122-0.304 0.457-0.458 1.066-0.458 1.833 0 0.549 0.098 1.046 0.294 1.495 0.193 0.449 0.478 0.835 0.849 1.16 0.37 0.325 0.817 0.581 1.336 0.764 0.52 0.18 1.106 0.273 1.756 0.273 0.626 0 1.165-0.077 1.621-0.226 0.455-0.149 0.878-0.379 1.27-0.693-0.119-0.221-0.216-0.457-0.294-0.702-0.076-0.249-0.156-0.56-0.235-0.937h-0.233c-0.066 0.183-0.153 0.379-0.264 0.596-0.11 0.214-0.26 0.413-0.449 0.593-0.188 0.183-0.413 0.337-0.673 0.461-0.262 0.122-0.573 0.185-0.936 0.185-0.367 0-0.701-0.058-1.006-0.176-0.307-0.117-0.573-0.282-0.801-0.499-0.229-0.214-0.404-0.472-0.527-0.77-0.122-0.3-0.186-0.625-0.186-0.975 0-0.612 0.153-1.094 0.458-1.445 0.307-0.352 0.688-0.648 1.143-0.889 0.456-0.24 0.948-0.456 1.474-0.643 0.528-0.188 1.018-0.421 1.474-0.694 0.455-0.273 0.835-0.623 1.143-1.054 0.304-0.429 0.458-1.003 0.458-1.718 0-0.599-0.108-1.165-0.324-1.698-0.214-0.533-0.526-0.998-0.935-1.395-0.409-0.398-0.911-0.702-1.503-0.919-0.593-0.212-1.266-0.321-2.022-0.321-0.806 0-1.46 0.109-1.961 0.321-0.501 0.217-0.92 0.461-1.258 0.734 0.117 0.297 0.198 0.568 0.243 0.81 0.045 0.239 0.088 0.549 0.128 0.926h0.233c0.105-0.232 0.243-0.472 0.42-0.711" fill="#fff"/></g>
				<g id="g3441" transform="translate(373.65 73.147)"><path id="path3443" d="m0 0c-0.337 0-0.691-0.002-1.063-0.009-0.371-0.007-0.742-0.018-1.112-0.039-0.371-0.02-0.727-0.043-1.074-0.067-0.345-0.028-0.654-0.059-0.928-0.1 0.067 0.235 0.099 0.443 0.099 0.626 0 0.144-0.032 0.345-0.099 0.605 0.862-0.025 1.699-0.05 2.519-0.068 0.821-0.02 1.658-0.03 2.519-0.03 0.859 0 1.698 0.01 2.517 0.03 0.821 0.018 1.66 0.043 2.518 0.068-0.064-0.26-0.098-0.468-0.098-0.626 0-0.166 0.034-0.37 0.098-0.605-0.273 0.041-0.583 0.072-0.926 0.1-0.345 0.024-0.704 0.047-1.075 0.067-0.371 0.021-0.741 0.032-1.112 0.039s-0.725 0.009-1.063 0.009c-0.04-1.339-0.059-2.687-0.059-4.039v-3.357c0-0.86 0.016-1.707 0.048-2.538 0.032-0.833 0.068-1.652 0.109-2.461-0.3 0.027-0.618 0.041-0.957 0.041s-0.658-0.014-0.958-0.041c0.038 0.809 0.076 1.628 0.109 2.461 0.031 0.831 0.047 1.678 0.047 2.538v3.357c0 1.352-0.018 2.7-0.059 4.039" fill="#fff"/></g>
				<g id="g3445" transform="translate(382.63 66.823)"><path id="path3447" d="m0 0c0.338 0 0.688-0.007 1.054-0.019 0.364-0.013 0.717-0.019 1.055-0.019 0.363 0 0.727 0.002 1.093 0.009 0.362 0.007 0.728 0.017 1.092 0.029l-2.167 4.958-2.127-4.958zm8.647-6.071c-0.183 0.027-0.354 0.041-0.517 0.041h-0.517-0.518c-0.163 0-0.335-0.014-0.518-0.041-0.091 0.3-0.214 0.662-0.371 1.084-0.155 0.424-0.328 0.867-0.517 1.327-0.189 0.463-0.38 0.931-0.576 1.407-0.194 0.474-0.376 0.925-0.546 1.357-0.417 0.011-0.839 0.02-1.269 0.029-0.429 0.005-0.858 0.009-1.287 0.009-0.404 0-0.801-0.004-1.192-0.009-0.39-0.009-0.788-0.018-1.189-0.029-0.418-1.016-0.795-1.982-1.134-2.899-0.338-0.919-0.591-1.675-0.761-2.276-0.221 0.027-0.463 0.041-0.722 0.041-0.26 0-0.5-0.014-0.722-0.041 1.054 2.278 2.082 4.543 3.083 6.794 1.003 2.251 2.013 4.542 3.026 6.872h0.371c0.313-0.757 0.652-1.572 1.015-2.452 0.364-0.876 0.735-1.766 1.113-2.664 0.377-0.896 0.754-1.789 1.132-2.673 0.377-0.885 0.732-1.709 1.064-2.47s0.631-1.44 0.898-2.041c0.267-0.599 0.485-1.052 0.654-1.366" fill="#fff"/></g>
				<g id="g3449" transform="translate(395.75 66.823)"><path id="path3451" d="m0 0c0.339 0 0.69-0.007 1.056-0.019 0.362-0.013 0.715-0.019 1.053-0.019 0.364 0 0.729 0.002 1.093 0.009 0.363 0.007 0.73 0.017 1.093 0.029l-2.166 4.958-2.129-4.958zm8.647-6.071c-0.181 0.027-0.354 0.041-0.516 0.041h-0.518-0.516c-0.163 0-0.336-0.014-0.518-0.041-0.092 0.3-0.216 0.662-0.371 1.084-0.157 0.424-0.328 0.867-0.517 1.327-0.188 0.463-0.381 0.931-0.576 1.407-0.194 0.474-0.378 0.925-0.547 1.357-0.415 0.011-0.839 0.02-1.268 0.029-0.43 0.005-0.859 0.009-1.287 0.009-0.405 0-0.802-0.004-1.193-0.009-0.39-0.009-0.787-0.018-1.19-0.029-0.417-1.016-0.794-1.982-1.132-2.899-0.339-0.919-0.593-1.675-0.762-2.276-0.221 0.027-0.462 0.041-0.722 0.041s-0.501-0.014-0.723-0.041c1.056 2.278 2.083 4.543 3.085 6.794s2.011 4.542 3.025 6.872h0.37c0.313-0.757 0.652-1.572 1.016-2.452 0.366-0.876 0.736-1.766 1.112-2.664 0.378-0.896 0.754-1.789 1.133-2.673 0.379-0.885 0.733-1.709 1.065-2.47s0.631-1.44 0.897-2.041c0.268-0.599 0.485-1.052 0.653-1.366" fill="#fff"/></g>
				<g id="g3453" transform="translate(407.95 73.147)"><path id="path3455" d="m0 0c-0.338 0-0.692-0.002-1.064-0.009-0.371-0.007-0.741-0.018-1.112-0.039-0.371-0.02-0.728-0.043-1.074-0.067-0.346-0.028-0.654-0.059-0.927-0.1 0.065 0.235 0.099 0.443 0.099 0.626 0 0.144-0.034 0.345-0.099 0.605 0.86-0.025 1.698-0.05 2.518-0.068 0.82-0.02 1.659-0.03 2.517-0.03 0.86 0 1.699 0.01 2.52 0.03 0.819 0.018 1.657 0.043 2.518 0.068-0.066-0.26-0.098-0.468-0.098-0.626 0-0.166 0.032-0.37 0.098-0.605-0.273 0.041-0.583 0.072-0.928 0.1-0.346 0.024-0.702 0.047-1.073 0.067-0.373 0.021-0.743 0.032-1.113 0.039-0.371 0.007-0.726 0.009-1.064 0.009-0.039-1.339-0.058-2.687-0.058-4.039v-3.357c0-0.86 0.016-1.707 0.047-2.538 0.034-0.833 0.069-1.652 0.109-2.461-0.299 0.027-0.619 0.041-0.958 0.041-0.337 0-0.657-0.014-0.957-0.041 0.04 0.809 0.076 1.628 0.11 2.461 0.031 0.831 0.048 1.678 0.048 2.538v3.357c0 1.352-0.019 2.7-0.059 4.039" fill="#fff"/></g>
				<g id="g3457" transform="translate(416.23 62.579)"><path id="path3459" d="m0 0c0.177-0.242 0.392-0.461 0.646-0.655 0.251-0.194 0.548-0.355 0.887-0.479 0.337-0.124 0.714-0.185 1.132-0.185 0.429 0 0.816 0.074 1.16 0.223 0.346 0.152 0.639 0.353 0.88 0.608 0.239 0.253 0.425 0.553 0.557 0.896 0.13 0.346 0.194 0.714 0.194 1.104 0 0.599-0.153 1.072-0.458 1.425-0.307 0.352-0.686 0.644-1.143 0.878-0.455 0.235-0.947 0.45-1.472 0.643-0.529 0.197-1.019 0.441-1.475 0.734-0.456 0.291-0.837 0.666-1.142 1.122-0.305 0.457-0.459 1.066-0.459 1.833 0 0.549 0.098 1.046 0.293 1.495s0.478 0.835 0.85 1.16c0.37 0.325 0.816 0.581 1.336 0.764 0.521 0.18 1.107 0.273 1.757 0.273 0.625 0 1.165-0.077 1.621-0.226 0.455-0.149 0.877-0.379 1.269-0.693-0.118-0.221-0.215-0.457-0.294-0.702-0.077-0.249-0.157-0.56-0.234-0.937h-0.235c-0.064 0.183-0.151 0.379-0.263 0.596-0.11 0.214-0.259 0.413-0.449 0.593-0.188 0.183-0.413 0.337-0.673 0.461-0.262 0.122-0.573 0.185-0.936 0.185-0.367 0-0.7-0.058-1.006-0.176-0.306-0.117-0.572-0.282-0.8-0.499-0.229-0.214-0.405-0.472-0.527-0.77-0.123-0.3-0.186-0.625-0.186-0.975 0-0.612 0.152-1.094 0.458-1.445 0.306-0.352 0.687-0.648 1.142-0.889 0.456-0.24 0.948-0.456 1.474-0.643 0.527-0.188 1.019-0.421 1.474-0.694 0.456-0.273 0.836-0.623 1.143-1.054 0.304-0.429 0.458-1.003 0.458-1.718 0-0.599-0.108-1.165-0.323-1.698s-0.526-0.998-0.935-1.395c-0.41-0.398-0.911-0.702-1.504-0.919-0.593-0.212-1.266-0.321-2.021-0.321-0.807 0-1.461 0.109-1.961 0.321-0.502 0.217-0.921 0.461-1.259 0.734 0.117 0.297 0.198 0.568 0.243 0.81 0.045 0.239 0.088 0.549 0.128 0.926h0.234c0.104-0.232 0.243-0.472 0.419-0.711" fill="#fff"/></g><path id="path3461" d="m429.87 64.697h-4.859v1.21h4.859v-1.21z"/>
				<g id="g3463" transform="translate(448.37 72.095)"><path id="path3465" d="m0 0c-0.014 1-0.045 1.691-0.096 2.068 0.141-0.025 0.278-0.05 0.409-0.068 0.129-0.02 0.259-0.029 0.39-0.029 0.169 0 0.365 0.031 0.587 0.097-0.041-0.456-0.08-0.998-0.117-1.63-0.041-0.63-0.072-1.307-0.1-2.03-0.025-0.722-0.052-1.465-0.077-2.225-0.027-0.761-0.045-1.499-0.058-2.215-0.014-0.872-0.147-1.653-0.4-2.342-0.255-0.69-0.616-1.275-1.084-1.756-0.469-0.483-1.045-0.847-1.727-1.095-0.684-0.246-1.467-0.37-2.352-0.37-1.953 0-3.37 0.442-4.256 1.327-0.885 0.885-1.327 2.285-1.327 4.197 0 0.612 0.016 1.154 0.049 1.63 0.031 0.475 0.048 0.96 0.048 1.454 0 1.092-0.013 2.062-0.038 2.908-0.028 0.847-0.053 1.562-0.08 2.147 0.156-0.025 0.325-0.05 0.508-0.068 0.183-0.02 0.353-0.029 0.508-0.029 0.143 0 0.282 0.009 0.42 0.029 0.136 0.018 0.275 0.043 0.42 0.068-0.027-0.287-0.055-0.661-0.079-1.122-0.027-0.463-0.052-0.987-0.076-1.571-0.028-0.585-0.048-1.217-0.059-1.895-0.014-0.675-0.021-1.379-0.021-2.108 0-0.44 0.007-0.901 0.021-1.375 0.011-0.476 0.059-0.937 0.135-1.386 0.079-0.449 0.206-0.879 0.382-1.287 0.176-0.411 0.424-0.77 0.752-1.075 0.325-0.307 0.733-0.546 1.228-0.722 0.493-0.176 1.106-0.264 1.835-0.264 0.716 0 1.318 0.106 1.806 0.314 0.488 0.207 0.887 0.48 1.201 0.819 0.311 0.339 0.555 0.729 0.731 1.172 0.176 0.44 0.303 0.903 0.382 1.384 0.076 0.483 0.121 0.964 0.135 1.444 0.014 0.481 0.02 0.924 0.02 1.328 0 1.847-0.006 3.274-0.02 4.276" fill="#fff"/></g>
				<g id="g3467" transform="translate(459.71 65.819)"><path id="path3469" d="m0 0c-1.692 1.815-3.386 3.621-5.076 5.416-0.012-0.364-0.026-0.852-0.038-1.463-0.014-0.612-0.021-1.445-0.021-2.499 0-0.273 0.004-0.612 0.009-1.014 0.007-0.404 0.014-0.829 0.021-1.271 0.006-0.443 0.017-0.89 0.029-1.346 0.013-0.456 0.027-0.878 0.041-1.268 0.011-0.391 0.024-0.732 0.038-1.026 0.014-0.293 0.025-0.492 0.039-0.596-0.208 0.027-0.437 0.041-0.686 0.041-0.258 0-0.5-0.014-0.721-0.041 0.026 0.131 0.055 0.373 0.091 0.723 0.031 0.352 0.06 0.772 0.085 1.26 0.027 0.487 0.056 1.018 0.087 1.591 0.033 0.572 0.059 1.145 0.081 1.716 0.019 0.574 0.035 1.133 0.046 1.68 0.014 0.546 0.02 1.034 0.02 1.463 0 1.25-0.002 2.322-0.008 3.221-0.008 0.899-0.023 1.57-0.051 2.012h0.315c0.792-0.86 1.641-1.782 2.547-2.764 0.902-0.981 1.8-1.95 2.693-2.907 0.892-0.957 1.738-1.861 2.537-2.714 0.8-0.851 1.499-1.578 2.098-2.176v2.655c0 1.366-0.009 2.696-0.027 3.991-0.021 1.294-0.064 2.515-0.129 3.66 0.26-0.066 0.483-0.097 0.664-0.097 0.156 0 0.366 0.031 0.625 0.097-0.027-0.287-0.056-0.716-0.088-1.289-0.033-0.572-0.066-1.183-0.097-1.833-0.033-0.653-0.062-1.289-0.088-1.913-0.027-0.625-0.039-1.126-0.039-1.503v-1.172c0-0.442 0.002-0.905 0.01-1.386 0.006-0.481 0.014-0.966 0.019-1.454 0.006-0.488 0.012-0.944 0.019-1.366 0.007-0.425 0.011-0.79 0.011-1.104v-0.643h-0.275c-1.495 1.729-3.092 3.504-4.781 5.319" fill="#fff"/></g>
				<g id="g3471" transform="translate(470.51 61.613)"><path id="path3473" d="m0 0c0.274-0.066 0.645-0.116 1.11-0.147 0.471-0.034 0.952-0.05 1.446-0.05 0.716 0 1.431 0.086 2.147 0.256 0.716 0.166 1.358 0.487 1.924 0.954 0.563 0.47 1.026 1.112 1.386 1.924 0.356 0.813 0.535 1.864 0.535 3.152 0 1.133-0.138 2.063-0.417 2.792-0.28 0.727-0.666 1.303-1.152 1.727-0.49 0.422-1.073 0.716-1.749 0.878-0.676 0.163-1.419 0.244-2.224 0.244-0.585 0-1.132-0.02-1.64-0.059-0.508-0.038-0.964-0.083-1.366-0.137-0.041-0.623-0.07-1.278-0.09-1.96-0.017-0.684-0.027-1.377-0.027-2.079v-3.357c0-1.407 0.039-2.786 0.117-4.138m-1.768 10.021c-0.031 0.829-0.067 1.671-0.108 2.529 0.494-0.025 0.987-0.05 1.475-0.068 0.487-0.02 0.979-0.029 1.474-0.029 0.494 0 0.986 0.016 1.475 0.047 0.487 0.034 0.976 0.05 1.473 0.05 1.145 0 2.125-0.149 2.937-0.449 0.813-0.298 1.48-0.725 2.001-1.278s0.9-1.231 1.142-2.03c0.239-0.801 0.362-1.702 0.362-2.704 0-1.3-0.227-2.398-0.676-3.29-0.446-0.892-1.02-1.61-1.716-2.156-0.698-0.546-1.466-0.935-2.304-1.163-0.838-0.225-1.642-0.341-2.413-0.341-0.442 0-0.875 0.007-1.306 0.021-0.429 0.013-0.864 0.02-1.308 0.02h-1.306c-0.432 0-0.868-0.013-1.31-0.041 0.041 0.809 0.077 1.629 0.108 2.462 0.032 0.83 0.05 1.677 0.05 2.537v3.357c0 0.858-0.018 1.7-0.05 2.526" fill="#fff"/></g>
				<g id="g3475" transform="translate(183.06 48.175)"><path id="path3477" d="m0 0c-0.013 1.003-0.046 1.693-0.099 2.07 0.144-0.026 0.281-0.049 0.412-0.069 0.129-0.02 0.259-0.027 0.39-0.027 0.17 0 0.363 0.031 0.585 0.096-0.038-0.456-0.077-1-0.118-1.63-0.038-0.632-0.07-1.307-0.097-2.03-0.025-0.722-0.052-1.465-0.078-2.225-0.025-0.761-0.046-1.501-0.058-2.214-0.013-0.875-0.145-1.656-0.4-2.344-0.254-0.69-0.615-1.276-1.083-1.757-0.469-0.481-1.045-0.847-1.729-1.093-0.682-0.248-1.466-0.372-2.352-0.372-1.951 0-3.37 0.445-4.254 1.33-0.886 0.882-1.328 2.282-1.328 4.195 0 0.611 0.017 1.155 0.048 1.629 0.033 0.477 0.05 0.96 0.05 1.455 0 1.092-0.014 2.063-0.04 2.91-0.025 0.844-0.052 1.559-0.078 2.146 0.156-0.026 0.326-0.049 0.509-0.069 0.181-0.02 0.35-0.027 0.506-0.027 0.144 0 0.284 0.007 0.42 0.027 0.137 0.02 0.277 0.043 0.42 0.069-0.025-0.286-0.053-0.661-0.077-1.122-0.028-0.463-0.052-0.986-0.08-1.571-0.026-0.587-0.045-1.218-0.058-1.894-0.013-0.677-0.018-1.379-0.018-2.109 0-0.442 0.005-0.9 0.018-1.374 0.013-0.478 0.058-0.938 0.138-1.387 0.077-0.45 0.203-0.879 0.38-1.29 0.175-0.407 0.425-0.767 0.751-1.071 0.324-0.308 0.736-0.549 1.23-0.723 0.495-0.175 1.106-0.264 1.835-0.264 0.716 0 1.317 0.104 1.805 0.311 0.489 0.208 0.888 0.482 1.2 0.82 0.313 0.338 0.557 0.729 0.733 1.172 0.175 0.443 0.303 0.905 0.38 1.386 0.078 0.481 0.124 0.964 0.137 1.445 0.012 0.481 0.019 0.923 0.019 1.328 0 1.846-0.007 3.27-0.019 4.273" fill="#fff"/></g>
				<g id="g3479" transform="translate(194.4 41.9)"><path id="path3481" d="m0 0c-1.693 1.815-3.384 3.621-5.075 5.417-0.014-0.366-0.026-0.854-0.039-1.463-0.013-0.612-0.02-1.445-0.02-2.499 0-0.273 0.002-0.612 0.009-1.017 0.007-0.404 0.014-0.826 0.021-1.268 0.006-0.442 0.015-0.893 0.029-1.346 0.013-0.456 0.026-0.881 0.038-1.27 0.014-0.39 0.027-0.733 0.039-1.024 0.013-0.294 0.027-0.492 0.04-0.595-0.209 0.025-0.436 0.038-0.684 0.038-0.259 0-0.501-0.013-0.722-0.038 0.027 0.13 0.056 0.37 0.088 0.722 0.033 0.353 0.062 0.77 0.088 1.259 0.025 0.488 0.056 1.019 0.088 1.59 0.031 0.574 0.058 1.144 0.079 1.718 0.018 0.574 0.034 1.133 0.047 1.677 0.014 0.549 0.021 1.037 0.021 1.465 0 1.249-0.004 2.323-0.011 3.222-0.007 0.896-0.023 1.567-0.048 2.009h0.311c0.795-0.858 1.644-1.779 2.549-2.761 0.903-0.983 1.802-1.952 2.694-2.908 0.89-0.956 1.735-1.863 2.537-2.712 0.799-0.855 1.499-1.579 2.097-2.178v2.655c0 1.367-0.009 2.697-0.029 3.992-0.019 1.294-0.061 2.513-0.126 3.66 0.259-0.066 0.48-0.097 0.664-0.097 0.155 0 0.363 0.031 0.625 0.097-0.027-0.286-0.057-0.716-0.089-1.289-0.033-0.574-0.065-1.183-0.096-1.835-0.034-0.651-0.063-1.287-0.09-1.913-0.025-0.625-0.039-1.126-0.039-1.504v-1.169c0-0.443 0.004-0.906 0.011-1.387 0.005-0.483 0.012-0.965 0.019-1.455 0.006-0.485 0.013-0.941 0.02-1.366 0.006-0.423 0.009-0.791 0.009-1.103v-0.644h-0.273c-1.496 1.731-3.091 3.504-4.782 5.32" fill="#fff"/></g>
				<g id="g3483" transform="translate(203.43 47.717)"><path id="path3485" d="m0 0c-0.033 0.826-0.069 1.668-0.108 2.528 0.17-0.026 0.332-0.049 0.488-0.069 0.157-0.02 0.312-0.027 0.469-0.027 0.156 0 0.312 0.007 0.468 0.027 0.157 0.02 0.319 0.043 0.489 0.069-0.04-0.86-0.076-1.702-0.108-2.528s-0.05-1.669-0.05-2.528v-3.359c0-0.857 0.018-1.703 0.05-2.537 0.032-0.833 0.068-1.652 0.108-2.458-0.301 0.026-0.618 0.038-0.957 0.038-0.338 0-0.658-0.012-0.957-0.038 0.039 0.806 0.075 1.625 0.108 2.458 0.032 0.834 0.048 1.68 0.048 2.537v3.359c0 0.859-0.016 1.702-0.048 2.528" fill="#fff"/></g>
				<g id="g3487" transform="translate(211.77 39.607)"><path id="path3489" d="m0 0c-0.43 1.079-0.888 2.217-1.377 3.415-0.488 1.197-0.989 2.421-1.501 3.67-0.516 1.25-1.006 2.433-1.475 3.553 0.182-0.027 0.358-0.05 0.526-0.07 0.169-0.019 0.332-0.027 0.488-0.027 0.157 0 0.319 0.008 0.489 0.027 0.169 0.02 0.344 0.043 0.527 0.07 0.286-0.861 0.602-1.761 0.946-2.705 0.345-0.944 0.71-1.904 1.094-2.878 0.382-0.976 0.778-1.964 1.182-2.967 0.401-1.003 0.812-1.998 1.227-2.986 0.235 0.532 0.489 1.127 0.763 1.785 0.273 0.657 0.549 1.342 0.829 2.051 0.281 0.708 0.557 1.43 0.83 2.166 0.272 0.734 0.536 1.441 0.791 2.118 0.253 0.675 0.484 1.307 0.692 1.894 0.209 0.585 0.385 1.092 0.528 1.522 0.285-0.066 0.526-0.097 0.722-0.097 0.194 0 0.435 0.031 0.722 0.097-1.015-2.265-1.991-4.509-2.928-6.735-0.936-2.226-1.835-4.449-2.695-6.675-0.208 0.025-0.422 0.038-0.643 0.038-0.26 0-0.475-0.013-0.644-0.038-0.3 0.767-0.664 1.69-1.093 2.772" fill="#fff"/></g>
				<g id="g3491" transform="translate(222.07 47.746)"><path id="path3493" d="m0 0c-0.034 0.832-0.069 1.666-0.108 2.499 0.586-0.026 1.168-0.05 1.747-0.069 0.58-0.02 1.161-0.028 1.748-0.028 0.584 0 1.164 0.008 1.736 0.028 0.573 0.019 1.152 0.043 1.738 0.069-0.039-0.196-0.058-0.391-0.058-0.587 0-0.194 0.019-0.391 0.058-0.585-0.416 0.026-0.798 0.052-1.142 0.079-0.345 0.026-0.709 0.052-1.093 0.077-0.383 0.027-0.804 0.05-1.26 0.07-0.456 0.018-1.002 0.027-1.638 0.027-0.014-0.415-0.03-0.812-0.05-1.189-0.019-0.377-0.029-0.806-0.029-1.289 0-0.508 0.004-1.003 0.01-1.484 0.007-0.481 0.009-0.844 0.009-1.093 0.573 0 1.086 0.007 1.542 0.021 0.457 0.011 0.872 0.029 1.25 0.047 0.376 0.02 0.726 0.041 1.044 0.058 0.319 0.022 0.621 0.043 0.908 0.071-0.038-0.197-0.058-0.398-0.058-0.608 0-0.193 0.02-0.387 0.058-0.585-0.339 0.041-0.731 0.073-1.181 0.1-0.449 0.025-0.898 0.041-1.348 0.047-0.448 0.008-0.871 0.013-1.269 0.021-0.395 0.006-0.711 0.009-0.946 0.009 0-0.118-0.002-0.244-0.009-0.382-0.006-0.136-0.01-0.309-0.01-0.517v-0.76-1.173c0-0.74 0.004-1.352 0.01-1.835 0.007-0.481 0.016-0.844 0.03-1.093h1.366c0.494 0 0.979 0.012 1.454 0.03 0.474 0.02 0.923 0.045 1.347 0.079 0.423 0.031 0.791 0.082 1.102 0.146-0.027-0.092-0.042-0.191-0.049-0.302-0.006-0.111-0.009-0.212-0.009-0.302 0-0.208 0.02-0.377 0.058-0.508-0.584 0.025-1.168 0.038-1.747 0.038h-1.766-1.777c-0.585 0-1.178-0.013-1.776-0.038 0.039 0.832 0.074 1.661 0.108 2.487 0.032 0.826 0.047 1.668 0.047 2.529v3.357c0 0.86-0.015 1.705-0.047 2.538" fill="#fff"/></g>
				<g id="g3495" transform="translate(234.17 43.998)"><path id="path3497" d="m0 0c0.214-0.014 0.453-0.02 0.713-0.02 0.403 0 0.822 0.045 1.259 0.137 0.436 0.091 0.836 0.251 1.199 0.48 0.366 0.225 0.668 0.533 0.908 0.917 0.242 0.383 0.361 0.869 0.361 1.453 0 0.509-0.094 0.928-0.282 1.259-0.189 0.333-0.433 0.594-0.732 0.791-0.3 0.194-0.625 0.329-0.975 0.399-0.352 0.072-0.697 0.108-1.036 0.108-0.456 0-0.832-0.008-1.132-0.029-0.299-0.02-0.553-0.042-0.761-0.067-0.026-0.719-0.052-1.425-0.078-2.129-0.027-0.702-0.039-1.405-0.039-2.109v-1.11c0.182-0.041 0.381-0.066 0.595-0.08m-2.245 3.719c-0.032 0.826-0.068 1.668-0.108 2.528 0.378-0.026 0.749-0.05 1.113-0.069 0.366-0.02 0.736-0.028 1.113-0.028s0.748 0.016 1.113 0.047c0.364 0.032 0.735 0.05 1.113 0.05 0.546 0 1.066-0.052 1.56-0.155 0.496-0.105 0.928-0.279 1.299-0.518 0.371-0.242 0.663-0.557 0.878-0.947 0.215-0.392 0.323-0.879 0.323-1.464 0-0.625-0.14-1.162-0.42-1.612-0.281-0.448-0.621-0.819-1.026-1.111-0.402-0.294-0.835-0.521-1.296-0.683-0.462-0.163-0.883-0.272-1.259-0.323 0.156-0.194 0.37-0.468 0.643-0.821 0.274-0.348 0.578-0.738 0.917-1.159 0.339-0.425 0.691-0.867 1.054-1.328 0.365-0.463 0.716-0.905 1.055-1.327 0.339-0.423 0.657-0.811 0.957-1.163 0.299-0.351 0.54-0.616 0.723-0.799-0.197 0.025-0.391 0.038-0.588 0.038h-0.584-0.567c-0.195 0-0.384-0.013-0.567-0.038-0.194 0.272-0.49 0.684-0.887 1.229-0.397 0.547-0.836 1.132-1.318 1.757-0.481 0.626-0.972 1.247-1.474 1.865-0.501 0.617-0.959 1.141-1.376 1.572h-0.741v-1.428c0-0.857 0.016-1.703 0.049-2.537 0.032-0.833 0.068-1.652 0.108-2.458-0.3 0.025-0.619 0.038-0.958 0.038-0.338 0-0.657-0.013-0.957-0.038 0.04 0.806 0.076 1.625 0.108 2.458 0.034 0.834 0.049 1.68 0.049 2.537v3.358c0 0.86-0.015 1.703-0.049 2.529" fill="#fff"/></g>
				<g id="g3499" transform="translate(243.99 38.658)"><path id="path3501" d="m0 0c0.175-0.239 0.391-0.458 0.645-0.652 0.252-0.197 0.548-0.355 0.887-0.478 0.338-0.125 0.716-0.185 1.132-0.185 0.43 0 0.816 0.074 1.162 0.222 0.345 0.151 0.637 0.353 0.878 0.606 0.241 0.256 0.426 0.553 0.557 0.898 0.129 0.344 0.195 0.714 0.195 1.103 0 0.597-0.154 1.074-0.458 1.424-0.308 0.352-0.687 0.645-1.143 0.88-0.456 0.233-0.946 0.451-1.474 0.644-0.527 0.196-1.018 0.44-1.473 0.731-0.455 0.293-0.837 0.669-1.142 1.122-0.307 0.456-0.459 1.069-0.459 1.836 0 0.546 0.098 1.044 0.293 1.493 0.194 0.449 0.478 0.836 0.848 1.162 0.37 0.325 0.817 0.578 1.339 0.76 0.519 0.183 1.105 0.273 1.756 0.273 0.625 0 1.164-0.074 1.619-0.223 0.456-0.151 0.878-0.382 1.269-0.693-0.116-0.222-0.215-0.456-0.292-0.704-0.078-0.246-0.156-0.558-0.234-0.935h-0.235c-0.066 0.181-0.153 0.379-0.263 0.594s-0.261 0.414-0.449 0.596c-0.189 0.182-0.414 0.335-0.674 0.459-0.26 0.123-0.571 0.185-0.937 0.185-0.364 0-0.699-0.058-1.005-0.177-0.305-0.115-0.573-0.282-0.801-0.497-0.227-0.215-0.402-0.471-0.526-0.769-0.124-0.301-0.185-0.626-0.185-0.978 0-0.612 0.152-1.093 0.458-1.444s0.686-0.649 1.142-0.888c0.455-0.242 0.946-0.456 1.474-0.643 0.527-0.19 1.018-0.42 1.472-0.694 0.457-0.272 0.837-0.625 1.143-1.053 0.306-0.429 0.459-1.003 0.459-1.719 0-0.598-0.107-1.165-0.321-1.698-0.216-0.535-0.529-1-0.937-1.397-0.411-0.395-0.912-0.702-1.504-0.917-0.592-0.214-1.266-0.322-2.021-0.322-0.806 0-1.46 0.108-1.961 0.322-0.502 0.215-0.922 0.459-1.259 0.732 0.117 0.299 0.198 0.571 0.244 0.81 0.046 0.241 0.088 0.551 0.127 0.928h0.233c0.105-0.235 0.245-0.472 0.421-0.714" fill="#fff"/></g>
				<g id="g3503" transform="translate(253.81 47.717)"><path id="path3505" d="m0 0c-0.031 0.826-0.067 1.668-0.106 2.528 0.169-0.026 0.332-0.049 0.488-0.069s0.311-0.027 0.468-0.027c0.156 0 0.313 0.007 0.469 0.027s0.318 0.043 0.487 0.069c-0.038-0.86-0.074-1.702-0.107-2.528-0.032-0.826-0.049-1.669-0.049-2.528v-3.359c0-0.857 0.017-1.703 0.049-2.537 0.033-0.833 0.069-1.652 0.107-2.458-0.3 0.026-0.618 0.038-0.956 0.038-0.339 0-0.658-0.012-0.956-0.038 0.039 0.806 0.075 1.625 0.106 2.458 0.034 0.834 0.05 1.68 0.05 2.537v3.359c0 0.859-0.016 1.702-0.05 2.528" fill="#fff"/></g>
				<g id="g3507" transform="translate(262.04 49.23)"><path id="path3509" d="m0 0c-0.337 0-0.692-0.003-1.063-0.009-0.372-0.008-0.742-0.02-1.112-0.039-0.371-0.02-0.73-0.043-1.075-0.069s-0.653-0.059-0.927-0.098c0.065 0.236 0.098 0.443 0.098 0.625 0 0.143-0.033 0.346-0.098 0.606 0.859-0.027 1.698-0.05 2.519-0.07 0.819-0.019 1.658-0.027 2.517-0.027 0.86 0 1.698 0.008 2.519 0.027 0.82 0.02 1.658 0.043 2.518 0.07-0.065-0.26-0.099-0.469-0.099-0.625 0-0.169 0.034-0.37 0.099-0.606-0.273 0.039-0.583 0.072-0.928 0.098s-0.702 0.049-1.073 0.069c-0.372 0.019-0.742 0.031-1.112 0.039-0.371 0.006-0.728 0.009-1.064 0.009-0.041-1.339-0.058-2.687-0.058-4.041v-3.358c0-0.858 0.015-1.704 0.047-2.538 0.033-0.833 0.069-1.652 0.108-2.458-0.3 0.026-0.618 0.039-0.957 0.039s-0.657-0.013-0.957-0.039c0.04 0.806 0.077 1.625 0.108 2.458 0.032 0.834 0.049 1.68 0.049 2.538v3.358c0 1.354-0.019 2.702-0.059 4.041" fill="#fff"/></g>
				<g id="g3511" transform="translate(276.15 53.367)"><path id="path3513" d="m0 0c0.194 0.196 0.429 0.294 0.702 0.294s0.508-0.098 0.703-0.294c0.196-0.193 0.293-0.429 0.293-0.702s-0.097-0.508-0.293-0.701c-0.195-0.198-0.43-0.294-0.703-0.294s-0.508 0.096-0.702 0.294c-0.197 0.193-0.293 0.428-0.293 0.701s0.096 0.509 0.293 0.702m-3.69-10.462c0.338 0 0.689-0.006 1.054-0.019 0.365-0.012 0.717-0.019 1.054-0.019 0.365 0 0.728 0.003 1.093 0.009 0.364 0.008 0.73 0.015 1.094 0.029l-2.168 4.958-2.127-4.958zm-0.155 10.462c0.194 0.196 0.429 0.294 0.702 0.294s0.507-0.098 0.702-0.294c0.196-0.193 0.294-0.429 0.294-0.702s-0.098-0.508-0.294-0.701c-0.195-0.198-0.429-0.294-0.702-0.294s-0.508 0.096-0.702 0.294c-0.196 0.193-0.294 0.428-0.294 0.701s0.098 0.509 0.294 0.702m3.942-5.318c0.365-0.879 0.735-1.768 1.113-2.664 0.377-0.9 0.754-1.79 1.131-2.676 0.378-0.885 0.732-1.707 1.064-2.467 0.332-0.762 0.632-1.443 0.898-2.042 0.267-0.598 0.486-1.054 0.655-1.365-0.183 0.025-0.354 0.038-0.517 0.038h-0.517-0.519c-0.162 0-0.335-0.013-0.517-0.038-0.091 0.3-0.215 0.659-0.371 1.083-0.156 0.423-0.328 0.865-0.517 1.328-0.188 0.46-0.381 0.93-0.576 1.403-0.194 0.478-0.377 0.929-0.546 1.358-0.416 0.013-0.84 0.022-1.269 0.029-0.43 0.007-0.858 0.01-1.289 0.01-0.402 0-0.799-0.003-1.19-0.01-0.39-0.007-0.787-0.016-1.191-0.029-0.416-1.017-0.793-1.983-1.131-2.899-0.339-0.917-0.592-1.676-0.761-2.273-0.221 0.025-0.463 0.038-0.722 0.038-0.263 0-0.501-0.013-0.723-0.038 1.055 2.277 2.081 4.539 3.083 6.793 1.003 2.251 2.012 4.541 3.025 6.869h0.371c0.314-0.754 0.652-1.57 1.016-2.448" fill="#fff"/></g>
				<g id="g3515" transform="translate(286.1 49.23)"><path id="path3517" d="m0 0c-0.338 0-0.691-0.003-1.063-0.009-0.371-0.008-0.742-0.02-1.112-0.039-0.371-0.02-0.729-0.043-1.073-0.069-0.346-0.026-0.655-0.059-0.928-0.098 0.065 0.236 0.097 0.443 0.097 0.625 0 0.143-0.032 0.346-0.097 0.606 0.86-0.027 1.697-0.05 2.518-0.07 0.821-0.019 1.658-0.027 2.518-0.027 0.858 0 1.699 0.008 2.518 0.027 0.819 0.02 1.659 0.043 2.518 0.07-0.064-0.26-0.098-0.469-0.098-0.625 0-0.169 0.034-0.37 0.098-0.606-0.273 0.039-0.583 0.072-0.926 0.098-0.346 0.026-0.703 0.049-1.075 0.069-0.371 0.019-0.741 0.031-1.112 0.039-0.372 0.006-0.726 0.009-1.065 0.009-0.038-1.339-0.057-2.687-0.057-4.041v-3.358c0-0.858 0.016-1.704 0.048-2.538 0.031-0.833 0.068-1.652 0.107-2.458-0.298 0.026-0.617 0.039-0.956 0.039s-0.657-0.013-0.957-0.039c0.038 0.806 0.075 1.625 0.109 2.458 0.031 0.834 0.048 1.68 0.048 2.538v3.358c0 1.354-0.02 2.702-0.06 4.041" fill="#fff"/></g>
				<g id="g3519" transform="translate(294.39 38.658)"><path id="path3521" d="m0 0c0.176-0.239 0.391-0.458 0.645-0.652 0.252-0.197 0.549-0.355 0.888-0.478 0.337-0.125 0.714-0.185 1.131-0.185 0.43 0 0.816 0.074 1.162 0.222 0.344 0.151 0.637 0.353 0.878 0.606 0.24 0.256 0.425 0.553 0.556 0.898 0.131 0.344 0.194 0.714 0.194 1.103 0 0.597-0.151 1.074-0.458 1.424-0.305 0.352-0.686 0.645-1.141 0.88-0.455 0.233-0.947 0.451-1.473 0.644-0.528 0.196-1.019 0.44-1.475 0.731-0.454 0.293-0.836 0.669-1.14 1.122-0.307 0.456-0.46 1.069-0.46 1.836 0 0.546 0.098 1.044 0.293 1.493 0.194 0.449 0.478 0.836 0.849 1.162 0.37 0.325 0.817 0.578 1.336 0.76 0.522 0.183 1.107 0.273 1.758 0.273 0.625 0 1.164-0.074 1.62-0.223 0.455-0.151 0.878-0.382 1.269-0.693-0.118-0.222-0.214-0.456-0.293-0.704-0.078-0.246-0.157-0.558-0.236-0.935h-0.233c-0.065 0.181-0.153 0.379-0.263 0.594s-0.261 0.414-0.449 0.596c-0.189 0.182-0.413 0.335-0.673 0.459-0.261 0.123-0.574 0.185-0.937 0.185-0.365 0-0.7-0.058-1.005-0.177-0.307-0.115-0.573-0.282-0.801-0.497-0.229-0.215-0.404-0.471-0.527-0.769-0.124-0.301-0.185-0.626-0.185-0.978 0-0.612 0.151-1.093 0.458-1.444 0.306-0.351 0.687-0.649 1.143-0.888 0.454-0.242 0.946-0.456 1.472-0.643 0.528-0.19 1.019-0.42 1.475-0.694 0.455-0.272 0.835-0.625 1.142-1.053 0.305-0.429 0.459-1.003 0.459-1.719 0-0.598-0.109-1.165-0.324-1.698-0.214-0.535-0.526-1-0.936-1.397-0.409-0.395-0.91-0.702-1.504-0.917-0.592-0.214-1.265-0.322-2.02-0.322-0.807 0-1.461 0.108-1.961 0.322-0.501 0.215-0.921 0.459-1.258 0.732 0.116 0.299 0.198 0.571 0.243 0.81 0.047 0.241 0.088 0.551 0.128 0.928h0.233c0.104-0.235 0.243-0.472 0.42-0.714" fill="#fff"/></g>
				<g id="g3523" transform="translate(305.9 39.566)"><path id="path3525" d="m0 0c0.024-0.65 0.051-1.308 0.078-1.972 0.247-0.025 0.54-0.049 0.877-0.066 0.339-0.022 0.684-0.029 1.036-0.029 0.416 0 0.816 0.07 1.2 0.213s0.719 0.355 1.005 0.634c0.286 0.281 0.514 0.626 0.683 1.034 0.169 0.412 0.255 0.877 0.255 1.398 0 0.559-0.102 1.017-0.303 1.375-0.203 0.356-0.492 0.637-0.87 0.84-0.376 0.201-0.828 0.341-1.357 0.421-0.525 0.076-1.114 0.114-1.764 0.114h-0.879v-1.988c0-0.664 0.012-1.322 0.039-1.974m2.371 4.823c0.448 0.09 0.849 0.243 1.2 0.458 0.353 0.214 0.635 0.501 0.849 0.86 0.215 0.356 0.322 0.808 0.322 1.355 0 0.534-0.096 0.959-0.293 1.279-0.194 0.319-0.442 0.568-0.74 0.742-0.3 0.175-0.639 0.292-1.017 0.351-0.376 0.059-0.754 0.088-1.129 0.088-0.339 0-0.626-0.009-0.862-0.029-0.234-0.021-0.442-0.042-0.623-0.068-0.027-0.626-0.054-1.244-0.078-1.856-0.027-0.611-0.039-1.23-0.039-1.853v-1.465h1.053c0.455 0 0.908 0.047 1.357 0.138m-4.06 3.357c-0.032 0.832-0.068 1.666-0.108 2.499 0.338-0.027 0.683-0.05 1.035-0.07 0.352-0.019 0.696-0.027 1.034-0.027 0.339 0 0.683 0.016 1.035 0.047 0.351 0.031 0.698 0.05 1.034 0.05 0.559 0 1.088-0.043 1.583-0.126 0.494-0.086 0.93-0.236 1.306-0.45 0.377-0.214 0.677-0.505 0.899-0.87 0.222-0.363 0.331-0.819 0.331-1.365 0-0.964-0.302-1.718-0.907-2.264s-1.397-0.93-2.373-1.152v-0.04c1.159-0.053 2.073-0.333 2.744-0.838 0.67-0.508 1.004-1.32 1.004-2.44 0-0.73-0.149-1.341-0.448-1.836-0.299-0.494-0.69-0.894-1.171-1.201-0.482-0.305-1.012-0.519-1.591-0.644-0.579-0.124-1.155-0.184-1.727-0.184-0.313 0-0.628 0.005-0.948 0.019-0.318 0.012-0.632 0.019-0.947 0.019h-0.946c-0.319 0-0.634-0.013-0.947-0.038 0.04 0.832 0.076 1.661 0.108 2.487 0.033 0.826 0.048 1.668 0.048 2.529v3.357c0 0.86-0.015 1.705-0.048 2.538" fill="#fff"/></g>
				<g id="g3527" transform="translate(316.23 47.717)"><path id="path3529" d="m0 0c-0.032 0.826-0.069 1.668-0.108 2.528 0.169-0.026 0.332-0.049 0.489-0.069 0.156-0.02 0.312-0.027 0.468-0.027s0.313 0.007 0.469 0.027c0.157 0.02 0.319 0.043 0.488 0.069-0.039-0.86-0.076-1.702-0.108-2.528s-0.048-1.669-0.048-2.528v-3.359c0-0.857 0.016-1.703 0.048-2.537 0.032-0.833 0.069-1.652 0.108-2.458-0.3 0.026-0.618 0.038-0.957 0.038s-0.657-0.012-0.957-0.038c0.039 0.806 0.076 1.625 0.108 2.458 0.032 0.834 0.048 1.68 0.048 2.537v3.359c0 0.859-0.016 1.702-0.048 2.528" fill="#fff"/></g>
				<g id="g3531" transform="translate(323.45 39.566)"><path id="path3533" d="m0 0c0.024-0.65 0.051-1.308 0.078-1.972 0.248-0.025 0.538-0.049 0.877-0.066 0.339-0.022 0.685-0.029 1.036-0.029 0.416 0 0.816 0.07 1.199 0.213 0.385 0.143 0.72 0.355 1.006 0.634 0.286 0.281 0.514 0.626 0.683 1.034 0.169 0.412 0.255 0.877 0.255 1.398 0 0.559-0.102 1.017-0.303 1.375-0.203 0.356-0.492 0.637-0.868 0.84-0.378 0.201-0.83 0.341-1.358 0.421-0.527 0.076-1.115 0.114-1.766 0.114h-0.878v-1.988c0-0.664 0.013-1.322 0.039-1.974m2.371 4.823c0.449 0.09 0.849 0.243 1.2 0.458 0.352 0.214 0.635 0.501 0.85 0.86 0.214 0.356 0.323 0.808 0.323 1.355 0 0.534-0.098 0.959-0.294 1.279-0.195 0.319-0.442 0.568-0.741 0.742-0.3 0.175-0.639 0.292-1.016 0.351s-0.755 0.088-1.131 0.088c-0.339 0-0.624-0.009-0.86-0.029-0.234-0.021-0.442-0.042-0.624-0.068-0.027-0.626-0.054-1.244-0.078-1.856-0.026-0.611-0.039-1.23-0.039-1.853v-1.465h1.053c0.456 0 0.908 0.047 1.357 0.138m-4.059 3.357c-0.033 0.832-0.07 1.666-0.109 2.499 0.339-0.027 0.684-0.05 1.035-0.07 0.352-0.019 0.697-0.027 1.035-0.027s0.682 0.016 1.035 0.047c0.352 0.031 0.696 0.05 1.033 0.05 0.56 0 1.088-0.043 1.582-0.126 0.496-0.086 0.931-0.236 1.308-0.45 0.376-0.214 0.676-0.505 0.898-0.87 0.222-0.363 0.331-0.819 0.331-1.365 0-0.964-0.301-1.718-0.906-2.264-0.606-0.546-1.398-0.93-2.372-1.152v-0.04c1.157-0.053 2.071-0.333 2.743-0.838 0.67-0.508 1.004-1.32 1.004-2.44 0-0.73-0.149-1.341-0.45-1.836-0.298-0.494-0.689-0.894-1.17-1.201-0.482-0.305-1.012-0.519-1.591-0.644-0.579-0.124-1.155-0.184-1.727-0.184-0.313 0-0.627 0.005-0.948 0.019-0.317 0.012-0.633 0.019-0.945 0.019h-0.948c-0.32 0-0.634-0.013-0.947-0.038 0.039 0.832 0.076 1.661 0.109 2.487 0.031 0.826 0.046 1.668 0.046 2.529v3.357c0 0.86-0.015 1.705-0.046 2.538" fill="#fff"/></g>
				<g id="g3535" transform="translate(333.78 47.717)"><path id="path3537" d="m0 0c-0.034 0.826-0.07 1.668-0.108 2.528 0.169-0.026 0.332-0.049 0.487-0.069 0.157-0.02 0.314-0.027 0.47-0.027s0.311 0.007 0.467 0.027c0.157 0.02 0.321 0.043 0.489 0.069-0.04-0.86-0.076-1.702-0.107-2.528-0.034-0.826-0.05-1.669-0.05-2.528 0-1.64 0.007-3.063 0.021-4.265 0.012-1.204 0.024-2.281 0.037-3.231 0.925 0 1.811 0.011 2.655 0.029 0.848 0.02 1.757 0.095 2.735 0.225-0.067-0.234-0.098-0.428-0.098-0.585 0-0.143 0.031-0.32 0.098-0.527-0.6 0.026-1.2 0.038-1.797 0.038h-1.795-1.806c-0.581 0-1.18-0.012-1.806-0.038 0.038 0.806 0.074 1.625 0.108 2.458 0.031 0.834 0.048 1.68 0.048 2.537v3.359c0 0.859-0.017 1.702-0.048 2.528" fill="#fff"/></g>
				<g id="g3539" transform="translate(343.64 47.717)"><path id="path3541" d="m0 0c-0.032 0.826-0.068 1.668-0.108 2.528 0.17-0.026 0.333-0.049 0.489-0.069 0.157-0.02 0.312-0.027 0.469-0.027 0.155 0 0.312 0.007 0.468 0.027 0.157 0.02 0.319 0.043 0.489 0.069-0.04-0.86-0.076-1.702-0.11-2.528-0.031-0.826-0.048-1.669-0.048-2.528v-3.359c0-0.857 0.017-1.703 0.048-2.537 0.034-0.833 0.07-1.652 0.11-2.458-0.301 0.026-0.619 0.038-0.957 0.038-0.339 0-0.659-0.012-0.958-0.038 0.04 0.806 0.076 1.625 0.108 2.458 0.032 0.834 0.049 1.68 0.049 2.537v3.359c0 0.859-0.017 1.702-0.049 2.528" fill="#fff"/></g>
				<g id="g3543" transform="translate(360.42 46.312)"><path id="path3545" d="m0 0c-0.274 0.785-0.652 1.436-1.142 1.95-0.489 0.515-1.06 0.895-1.717 1.143-0.658 0.246-1.37 0.371-2.138 0.371-0.755 0-1.46-0.125-2.117-0.371-0.658-0.248-1.231-0.628-1.718-1.143-0.487-0.514-0.869-1.165-1.143-1.95-0.273-0.788-0.41-1.723-0.41-2.802s0.137-2.013 0.41-2.802c0.274-0.788 0.656-1.438 1.143-1.951 0.487-0.514 1.06-0.896 1.718-1.141 0.657-0.249 1.362-0.37 2.117-0.37 0.768 0 1.48 0.121 2.138 0.37 0.657 0.245 1.228 0.627 1.717 1.141 0.49 0.513 0.868 1.163 1.142 1.951 0.272 0.789 0.411 1.723 0.411 2.802s-0.139 2.014-0.411 2.802m-11.761 0.155c0.358 0.866 0.859 1.597 1.503 2.197 0.645 0.599 1.415 1.053 2.314 1.367 0.898 0.311 1.88 0.466 2.947 0.466 1.08 0 2.069-0.155 2.967-0.466 0.898-0.314 1.67-0.768 2.313-1.367 0.645-0.6 1.146-1.331 1.503-2.197 0.359-0.866 0.536-1.85 0.536-2.957 0-1.106-0.177-2.094-0.536-2.957-0.357-0.865-0.858-1.598-1.503-2.197-0.643-0.599-1.415-1.043-2.313-1.337-0.898-0.291-1.887-0.439-2.967-0.439-1.067 0-2.049 0.148-2.947 0.439-0.899 0.294-1.669 0.738-2.314 1.337-0.644 0.599-1.145 1.332-1.503 2.197-0.357 0.863-0.537 1.851-0.537 2.957 0 1.107 0.18 2.091 0.537 2.957" fill="#fff"/></g>
				<g id="g3547" transform="translate(367.5 49.23)"><path id="path3549" d="m0 0c-0.338 0-0.692-0.003-1.063-0.009-0.371-0.008-0.743-0.02-1.113-0.039-0.371-0.02-0.729-0.043-1.073-0.069s-0.653-0.059-0.927-0.098c0.065 0.236 0.097 0.443 0.097 0.625 0 0.143-0.032 0.346-0.097 0.606 0.859-0.027 1.697-0.05 2.518-0.07 0.819-0.019 1.658-0.027 2.517-0.027s1.699 0.008 2.519 0.027c0.819 0.02 1.659 0.043 2.517 0.07-0.064-0.26-0.096-0.469-0.096-0.625 0-0.169 0.032-0.37 0.096-0.606-0.273 0.039-0.582 0.072-0.926 0.098-0.345 0.026-0.703 0.049-1.073 0.069-0.373 0.019-0.743 0.031-1.115 0.039-0.37 0.006-0.724 0.009-1.063 0.009-0.037-1.339-0.059-2.687-0.059-4.041v-3.358c0-0.858 0.016-1.704 0.05-2.538 0.032-0.833 0.067-1.652 0.106-2.458-0.298 0.026-0.617 0.039-0.956 0.039-0.338 0-0.657-0.013-0.956-0.039 0.038 0.806 0.075 1.625 0.108 2.458 0.031 0.834 0.049 1.68 0.049 2.538v3.358c0 1.354-0.021 2.702-0.06 4.041" fill="#fff"/></g>
				<g id="g3551" transform="translate(385.51 47.717)"><path id="path3553" d="m0 0c-0.032 0.826-0.068 1.668-0.107 2.528 0.168-0.026 0.332-0.049 0.485-0.069 0.158-0.02 0.315-0.027 0.471-0.027s0.31 0.007 0.468 0.027 0.32 0.043 0.489 0.069c-0.041-0.86-0.077-1.702-0.109-2.528s-0.048-1.669-0.048-2.528v-3.359c0-0.857 0.016-1.703 0.048-2.537 0.032-0.833 0.068-1.652 0.109-2.458-0.3 0.026-0.619 0.038-0.957 0.038-0.339 0-0.658-0.012-0.956-0.038 0.039 0.806 0.075 1.625 0.107 2.458 0.031 0.834 0.048 1.68 0.048 2.537v1.757c-0.703 0.014-1.383 0.026-2.039 0.029-0.658 0.008-1.337 0.012-2.04 0.012s-1.383-0.004-2.039-0.012c-0.659-0.003-1.339-0.015-2.041-0.029v-1.757c0-0.857 0.015-1.703 0.048-2.537 0.034-0.833 0.069-1.652 0.109-2.458-0.3 0.026-0.619 0.038-0.957 0.038-0.339 0-0.657-0.012-0.958-0.038 0.04 0.806 0.076 1.625 0.109 2.458 0.031 0.834 0.047 1.68 0.047 2.537v3.359c0 0.859-0.016 1.702-0.047 2.528-0.033 0.826-0.069 1.668-0.109 2.528 0.17-0.026 0.333-0.049 0.488-0.069 0.157-0.02 0.315-0.027 0.47-0.027 0.156 0 0.311 0.007 0.469 0.027 0.157 0.02 0.319 0.043 0.488 0.069-0.04-0.86-0.075-1.702-0.109-2.528-0.033-0.826-0.048-1.669-0.048-2.528v-0.682c0.702-0.014 1.382-0.027 2.041-0.039 0.656-0.014 1.336-0.02 2.039-0.02s1.382 0.006 2.04 0.02c0.656 0.012 1.336 0.025 2.039 0.039v0.682c0 0.859-0.017 1.702-0.048 2.528" fill="#fff"/></g>
				<g id="g3555" transform="translate(391.03 47.746)"><path id="path3557" d="m0 0c-0.032 0.832-0.069 1.666-0.108 2.499 0.587-0.026 1.168-0.05 1.747-0.069 0.58-0.02 1.162-0.028 1.747-0.028 0.586 0 1.165 0.008 1.737 0.028 0.573 0.019 1.152 0.043 1.738 0.069-0.039-0.196-0.059-0.391-0.059-0.587 0-0.194 0.02-0.391 0.059-0.585-0.416 0.026-0.798 0.052-1.141 0.079-0.346 0.026-0.711 0.052-1.095 0.077-0.384 0.027-0.803 0.05-1.258 0.07-0.455 0.018-1.003 0.027-1.64 0.027-0.013-0.415-0.03-0.812-0.048-1.189-0.021-0.377-0.029-0.806-0.029-1.289 0-0.508 0.002-1.003 0.008-1.484 0.008-0.481 0.01-0.844 0.01-1.093 0.573 0 1.088 0.007 1.543 0.021 0.455 0.011 0.871 0.029 1.25 0.047 0.376 0.02 0.725 0.041 1.043 0.058 0.318 0.022 0.622 0.043 0.907 0.071-0.038-0.197-0.058-0.398-0.058-0.608 0-0.193 0.02-0.387 0.058-0.585-0.339 0.041-0.731 0.073-1.181 0.1-0.449 0.025-0.897 0.041-1.346 0.047-0.447 0.008-0.871 0.013-1.269 0.021-0.396 0.006-0.712 0.009-0.947 0.009 0-0.118-0.002-0.244-0.01-0.382-0.006-0.136-0.008-0.309-0.008-0.517v-0.76-1.173c0-0.74 0.002-1.352 0.008-1.835 0.008-0.481 0.018-0.844 0.03-1.093h1.367c0.494 0 0.979 0.012 1.453 0.03 0.477 0.02 0.925 0.045 1.348 0.079 0.422 0.031 0.79 0.082 1.103 0.146-0.026-0.092-0.043-0.191-0.049-0.302s-0.01-0.212-0.01-0.302c0-0.208 0.02-0.377 0.059-0.508-0.586 0.025-1.169 0.038-1.748 0.038h-1.767-1.776c-0.585 0-1.178-0.013-1.776-0.038 0.039 0.832 0.076 1.661 0.108 2.487s0.048 1.668 0.048 2.529v3.357c0 0.86-0.016 1.705-0.048 2.538" fill="#fff"/></g>
				<g id="g3559" transform="translate(400.89 39.293)"><path id="path3561" d="m0 0c0.034 0.834 0.05 1.68 0.05 2.537v3.359c0 0.859-0.016 1.702-0.05 2.528-0.031 0.826-0.067 1.668-0.106 2.528 0.169-0.026 0.331-0.05 0.488-0.069 0.155-0.02 0.311-0.028 0.467-0.028 0.157 0 0.314 0.008 0.469 0.028 0.157 0.019 0.32 0.043 0.489 0.069-0.038-0.86-0.076-1.702-0.109-2.528-0.031-0.826-0.047-1.669-0.047-2.528v-1.074c0-0.103 0.037-0.155 0.118-0.155 0.049 0 0.141 0.059 0.272 0.174 0.454 0.39 0.933 0.833 1.434 1.329 0.501 0.493 1.005 1.008 1.512 1.541 0.508 0.534 1.009 1.076 1.503 1.629 0.495 0.556 0.969 1.091 1.425 1.612 0.145-0.026 0.28-0.05 0.411-0.069 0.129-0.02 0.26-0.028 0.391-0.028 0.156 0 0.311 0.008 0.468 0.028 0.157 0.019 0.312 0.043 0.469 0.069-0.456-0.39-0.97-0.852-1.544-1.387-0.572-0.535-1.148-1.079-1.727-1.638-0.578-0.561-1.131-1.111-1.658-1.65-0.528-0.54-0.967-1.012-1.318-1.416 1.054-1.182 2.117-2.39 3.192-3.622 1.072-1.227 2.163-2.462 3.269-3.697-0.195 0.025-0.39 0.038-0.585 0.038h-0.587-0.536c-0.176 0-0.354-0.013-0.538-0.038-0.468 0.532-0.985 1.144-1.551 1.835-0.565 0.689-1.119 1.354-1.659 2.001-0.54 0.643-1.027 1.224-1.463 1.735-0.436 0.515-0.76 0.877-0.967 1.084-0.105 0.105-0.182 0.156-0.235 0.156-0.064 0-0.096-0.038-0.096-0.118v-1.698c0-0.857 0.016-1.703 0.047-2.537 0.033-0.833 0.071-1.652 0.109-2.458-0.301 0.025-0.619 0.038-0.958 0.038s-0.657-0.013-0.955-0.038c0.039 0.806 0.075 1.625 0.106 2.458" fill="#fff"/></g>
				<g id="g3563" transform="translate(428.94 48.566)"><path id="path3565" d="m0 0c-0.293 0.233-0.618 0.438-0.977 0.615-0.357 0.174-0.753 0.319-1.19 0.429-0.435 0.111-0.901 0.166-1.395 0.166-0.808 0-1.56-0.125-2.255-0.371-0.697-0.248-1.301-0.628-1.816-1.143-0.514-0.514-0.917-1.165-1.21-1.95-0.293-0.788-0.44-1.723-0.44-2.802 0-0.95 0.131-1.808 0.391-2.579 0.259-0.767 0.641-1.412 1.142-1.94 0.501-0.527 1.113-0.933 1.835-1.22 0.723-0.286 1.539-0.429 2.45-0.429 0.274 0 0.559 0.014 0.858 0.038 0.3 0.028 0.589 0.066 0.869 0.119 0.28 0.05 0.54 0.117 0.781 0.193 0.241 0.079 0.445 0.169 0.615 0.276 0.014 0.388 0.022 0.778 0.029 1.169 0.006 0.39 0.008 0.787 0.008 1.193 0 0.453-0.008 0.909-0.027 1.365-0.02 0.456-0.042 0.892-0.069 1.308 0.325-0.067 0.638-0.098 0.936-0.098 0.145 0 0.288 0.008 0.431 0.021 0.143 0.01 0.279 0.037 0.409 0.077-0.025-0.298-0.045-0.773-0.059-1.416-0.012-0.644-0.018-1.493-0.018-2.547 0-0.259 0.003-0.524 0.011-0.79 0.004-0.266 0.007-0.531 0.007-0.79-0.272-0.104-0.613-0.212-1.024-0.324-0.409-0.11-0.845-0.202-1.308-0.272-0.462-0.072-0.923-0.136-1.385-0.194-0.462-0.059-0.882-0.09-1.259-0.09-1.159 0-2.202 0.141-3.133 0.419-0.93 0.28-1.723 0.713-2.372 1.298-0.65 0.587-1.151 1.316-1.504 2.188-0.35 0.871-0.525 1.881-0.525 3.025 0 1.107 0.18 2.091 0.546 2.957 0.364 0.866 0.877 1.597 1.542 2.197 0.663 0.599 1.467 1.053 2.41 1.367 0.944 0.311 1.987 0.466 3.134 0.466 0.664 0 1.25-0.035 1.765-0.106 0.515-0.072 0.97-0.167 1.366-0.284 0.398-0.117 0.745-0.239 1.046-0.37 0.299-0.131 0.567-0.253 0.8-0.37-0.104-0.184-0.2-0.417-0.283-0.703-0.085-0.286-0.141-0.555-0.166-0.801h-0.234c-0.197 0.235-0.44 0.47-0.732 0.703" fill="#fff"/></g>
				<g id="g3567" transform="translate(441.21 53.367)"><path id="path3569" d="m0 0c0.196 0.196 0.431 0.294 0.705 0.294 0.273 0 0.507-0.098 0.701-0.294 0.198-0.193 0.294-0.429 0.294-0.702s-0.096-0.508-0.294-0.701c-0.194-0.198-0.428-0.294-0.701-0.294-0.274 0-0.509 0.096-0.705 0.294-0.194 0.193-0.292 0.428-0.292 0.701s0.098 0.509 0.292 0.702m-3.845 0c0.197 0.196 0.432 0.294 0.704 0.294 0.274 0 0.507-0.098 0.703-0.294 0.194-0.193 0.292-0.429 0.292-0.702s-0.098-0.508-0.292-0.701c-0.196-0.198-0.429-0.294-0.703-0.294-0.272 0-0.507 0.096-0.704 0.294-0.194 0.193-0.291 0.428-0.291 0.701s0.097 0.509 0.291 0.702m7.613-7.055c-0.273 0.785-0.653 1.436-1.142 1.951-0.488 0.514-1.06 0.894-1.716 1.142-0.657 0.246-1.37 0.371-2.138 0.371-0.756 0-1.46-0.125-2.119-0.371-0.658-0.248-1.229-0.628-1.716-1.142-0.489-0.515-0.871-1.166-1.143-1.951-0.273-0.788-0.41-1.722-0.41-2.801 0-1.08 0.137-2.014 0.41-2.803 0.272-0.787 0.654-1.438 1.143-1.95 0.487-0.515 1.058-0.897 1.716-1.142 0.659-0.249 1.363-0.37 2.119-0.37 0.768 0 1.481 0.121 2.138 0.37 0.656 0.245 1.228 0.627 1.716 1.142 0.489 0.512 0.869 1.163 1.142 1.95 0.273 0.789 0.411 1.723 0.411 2.803 0 1.079-0.138 2.013-0.411 2.801m-11.759 0.156c0.357 0.865 0.858 1.596 1.501 2.196 0.645 0.599 1.416 1.054 2.313 1.367 0.899 0.312 1.88 0.466 2.949 0.466 1.079 0 2.068-0.154 2.966-0.466 0.9-0.313 1.669-0.768 2.312-1.367 0.645-0.6 1.147-1.331 1.504-2.196 0.359-0.867 0.538-1.851 0.538-2.957 0-1.107-0.179-2.094-0.538-2.957-0.357-0.866-0.859-1.599-1.504-2.198-0.643-0.598-1.412-1.043-2.312-1.337-0.898-0.291-1.887-0.439-2.966-0.439-1.069 0-2.05 0.148-2.949 0.439-0.897 0.294-1.668 0.739-2.313 1.337-0.643 0.599-1.144 1.332-1.501 2.198-0.36 0.863-0.538 1.85-0.538 2.957 0 1.106 0.178 2.09 0.538 2.957" fill="#fff"/></g>
				<g id="g3571" transform="translate(452.79 49.23)"><path id="path3573" d="m0 0c-0.339 0-0.693-0.003-1.065-0.009-0.371-0.008-0.741-0.02-1.111-0.039-0.37-0.02-0.73-0.043-1.075-0.069s-0.652-0.059-0.926-0.098c0.064 0.236 0.098 0.443 0.098 0.625 0 0.143-0.034 0.346-0.098 0.606 0.858-0.027 1.698-0.05 2.518-0.07 0.819-0.019 1.659-0.027 2.516-0.027 0.862 0 1.699 0.008 2.52 0.027 0.82 0.02 1.657 0.043 2.519 0.07-0.067-0.26-0.098-0.469-0.098-0.625 0-0.169 0.031-0.37 0.098-0.606-0.275 0.039-0.583 0.072-0.929 0.098s-0.702 0.049-1.072 0.069c-0.373 0.019-0.743 0.031-1.113 0.039-0.37 0.006-0.728 0.009-1.063 0.009-0.041-1.339-0.059-2.687-0.059-4.041v-3.358c0-0.858 0.016-1.704 0.047-2.538 0.033-0.833 0.07-1.652 0.108-2.458-0.3 0.026-0.619 0.039-0.958 0.039-0.338 0-0.656-0.013-0.956-0.039 0.04 0.806 0.077 1.625 0.108 2.458 0.032 0.834 0.05 1.68 0.05 2.538v3.358c0 1.354-0.02 2.702-0.059 4.041" fill="#fff"/></g>
				<g id="g3575" transform="translate(463.73 49.23)"><path id="path3577" d="m0 0c-0.338 0-0.692-0.003-1.063-0.009-0.37-0.008-0.743-0.02-1.113-0.039-0.37-0.02-0.729-0.043-1.072-0.069-0.345-0.026-0.654-0.059-0.928-0.098 0.066 0.236 0.097 0.443 0.097 0.625 0 0.143-0.031 0.346-0.097 0.606 0.86-0.027 1.697-0.05 2.518-0.07 0.82-0.019 1.658-0.027 2.518-0.027 0.858 0 1.698 0.008 2.518 0.027 0.819 0.02 1.659 0.043 2.517 0.07-0.063-0.26-0.096-0.469-0.096-0.625 0-0.169 0.033-0.37 0.096-0.606-0.273 0.039-0.582 0.072-0.925 0.098-0.346 0.026-0.704 0.049-1.074 0.069-0.371 0.019-0.742 0.031-1.115 0.039-0.37 0.006-0.724 0.009-1.063 0.009-0.037-1.339-0.059-2.687-0.059-4.041v-3.358c0-0.858 0.017-1.704 0.051-2.538 0.031-0.833 0.066-1.652 0.105-2.458-0.297 0.026-0.616 0.039-0.955 0.039s-0.656-0.013-0.957-0.039c0.038 0.806 0.075 1.625 0.109 2.458 0.031 0.834 0.048 1.68 0.048 2.538v3.358c0 1.354-0.021 2.702-0.06 4.041" fill="#fff"/></g>
				<g id="g3579" transform="translate(471.98 47.717)"><path id="path3581" d="m0 0c-0.031 0.826-0.068 1.668-0.106 2.528 0.169-0.026 0.332-0.049 0.488-0.069 0.155-0.02 0.311-0.027 0.467-0.027 0.158 0 0.313 0.007 0.469 0.027 0.157 0.02 0.319 0.043 0.488 0.069-0.039-0.86-0.075-1.702-0.109-2.528-0.031-0.826-0.048-1.669-0.048-2.528v-3.359c0-0.857 0.017-1.703 0.048-2.537 0.034-0.833 0.07-1.652 0.109-2.458-0.3 0.026-0.619 0.038-0.957 0.038-0.337 0-0.658-0.012-0.955-0.038 0.038 0.806 0.075 1.625 0.106 2.458 0.033 0.834 0.049 1.68 0.049 2.537v3.359c0 0.859-0.016 1.702-0.049 2.528" fill="#fff"/></g>
				<g id="g3583" transform="translate(483.76 41.9)"><path id="path3585" d="m0 0c-1.691 1.815-3.382 3.621-5.075 5.417-0.012-0.366-0.026-0.854-0.039-1.463-0.014-0.612-0.02-1.445-0.02-2.499 0-0.273 0.004-0.612 0.012-1.017 0.004-0.404 0.01-0.826 0.018-1.268 0.005-0.442 0.017-0.893 0.029-1.346 0.013-0.456 0.027-0.881 0.041-1.27 0.01-0.39 0.023-0.733 0.037-1.024 0.014-0.294 0.025-0.492 0.039-0.595-0.207 0.025-0.437 0.038-0.682 0.038-0.261 0-0.501-0.013-0.722-0.038 0.024 0.13 0.053 0.37 0.088 0.722 0.032 0.353 0.061 0.77 0.086 1.259 0.026 0.488 0.055 1.019 0.088 1.59 0.034 0.574 0.058 1.144 0.079 1.718 0.02 0.574 0.036 1.133 0.047 1.677 0.014 0.549 0.02 1.037 0.02 1.465 0 1.249-0.002 2.323-0.009 3.222-0.007 0.896-0.022 1.567-0.05 2.009h0.315c0.792-0.858 1.64-1.779 2.546-2.761 0.903-0.983 1.801-1.952 2.694-2.908 0.892-0.956 1.737-1.863 2.537-2.712 0.8-0.855 1.499-1.579 2.098-2.178v2.655c0 1.367-0.01 2.697-0.028 3.992-0.02 1.294-0.062 2.513-0.128 3.66 0.261-0.066 0.483-0.097 0.664-0.097 0.156 0 0.365 0.031 0.625 0.097-0.025-0.286-0.056-0.716-0.088-1.289-0.033-0.574-0.066-1.183-0.097-1.835-0.034-0.651-0.063-1.287-0.088-1.913-0.027-0.625-0.039-1.126-0.039-1.504v-1.169c0-0.443 0.003-0.906 0.009-1.387 0.007-0.483 0.014-0.965 0.02-1.455 0.005-0.485 0.012-0.941 0.019-1.366 0.007-0.423 0.011-0.791 0.011-1.103v-0.644h-0.273c-1.498 1.731-3.092 3.504-4.784 5.32" fill="#fff"/></g>
				<g id="g3587" transform="translate(503.29 48.566)"><path id="path3589" d="m0 0c-0.294 0.233-0.619 0.438-0.978 0.615-0.357 0.174-0.753 0.319-1.19 0.429-0.435 0.111-0.9 0.166-1.395 0.166-0.808 0-1.56-0.125-2.255-0.371-0.696-0.248-1.3-0.628-1.816-1.143-0.514-0.514-0.916-1.165-1.21-1.95-0.293-0.788-0.44-1.723-0.44-2.802 0-0.95 0.131-1.808 0.39-2.579 0.26-0.767 0.642-1.412 1.143-1.94 0.501-0.527 1.112-0.933 1.835-1.22 0.723-0.286 1.538-0.429 2.45-0.429 0.274 0 0.56 0.014 0.858 0.038 0.3 0.028 0.589 0.066 0.869 0.119 0.28 0.05 0.54 0.117 0.781 0.193 0.241 0.079 0.445 0.169 0.615 0.276 0.014 0.388 0.022 0.778 0.03 1.169 0.005 0.39 0.007 0.787 0.007 1.193 0 0.453-0.007 0.909-0.027 1.365s-0.043 0.892-0.069 1.308c0.325-0.067 0.638-0.098 0.936-0.098 0.145 0 0.288 0.008 0.432 0.021 0.142 0.01 0.279 0.037 0.408 0.077-0.024-0.298-0.045-0.773-0.059-1.416-0.011-0.644-0.017-1.493-0.017-2.547 0-0.259 0.002-0.524 0.009-0.79 0.006-0.266 0.008-0.531 0.008-0.79-0.273-0.104-0.614-0.212-1.024-0.324-0.409-0.11-0.845-0.202-1.308-0.272-0.462-0.072-0.923-0.136-1.385-0.194-0.461-0.059-0.884-0.09-1.258-0.09-1.161 0-2.203 0.141-3.133 0.419-0.931 0.28-1.724 0.713-2.373 1.298-0.65 0.587-1.151 1.316-1.504 2.188-0.351 0.871-0.526 1.881-0.526 3.025 0 1.107 0.183 2.091 0.546 2.957 0.366 0.866 0.879 1.597 1.543 2.197 0.663 0.599 1.466 1.053 2.41 1.367 0.944 0.311 1.987 0.466 3.134 0.466 0.664 0 1.25-0.035 1.765-0.106 0.515-0.072 0.971-0.167 1.366-0.284 0.398-0.117 0.745-0.239 1.045-0.37 0.301-0.131 0.568-0.253 0.802-0.37-0.105-0.184-0.201-0.417-0.285-0.703-0.083-0.286-0.14-0.555-0.164-0.801h-0.236c-0.196 0.235-0.439 0.47-0.73 0.703" fill="#fff"/></g>
				<g id="g3591" transform="translate(508.08 47.746)"><path id="path3593" d="m0 0c-0.031 0.832-0.07 1.666-0.108 2.499 0.587-0.026 1.17-0.05 1.748-0.069 0.579-0.02 1.162-0.028 1.747-0.028s1.165 0.008 1.736 0.028c0.573 0.019 1.153 0.043 1.738 0.069-0.039-0.196-0.058-0.391-0.058-0.587 0-0.194 0.019-0.391 0.058-0.585-0.416 0.026-0.797 0.052-1.142 0.079-0.343 0.026-0.709 0.052-1.093 0.077-0.384 0.027-0.804 0.05-1.26 0.07-0.454 0.018-1.002 0.027-1.638 0.027-0.014-0.415-0.03-0.812-0.051-1.189-0.018-0.377-0.027-0.806-0.027-1.289 0-0.508 0.003-1.003 0.009-1.484 0.007-0.481 0.01-0.844 0.01-1.093 0.573 0 1.085 0.007 1.541 0.021 0.456 0.011 0.871 0.029 1.251 0.047 0.378 0.02 0.725 0.041 1.044 0.058 0.317 0.022 0.62 0.043 0.906 0.071-0.037-0.197-0.058-0.398-0.058-0.608 0-0.193 0.021-0.387 0.058-0.585-0.338 0.041-0.73 0.073-1.181 0.1-0.448 0.025-0.898 0.041-1.346 0.047-0.448 0.008-0.872 0.013-1.268 0.021-0.397 0.006-0.713 0.009-0.947 0.009 0-0.118-0.003-0.244-0.01-0.382-0.006-0.136-0.009-0.309-0.009-0.517v-0.76-1.173c0-0.74 0.003-1.352 0.009-1.835 0.007-0.481 0.016-0.844 0.029-1.093h1.367c0.494 0 0.979 0.012 1.454 0.03 0.475 0.02 0.924 0.045 1.346 0.079 0.423 0.031 0.791 0.082 1.103 0.146-0.027-0.092-0.043-0.191-0.047-0.302-0.008-0.111-0.012-0.212-0.012-0.302 0-0.208 0.02-0.377 0.059-0.508-0.584 0.025-1.167 0.038-1.747 0.038h-1.766-1.776c-0.586 0-1.179-0.013-1.777-0.038 0.038 0.832 0.077 1.661 0.108 2.487s0.048 1.668 0.048 2.529v3.357c0 0.86-0.017 1.705-0.048 2.538" fill="#fff"/></g>
				<g id="g3595" transform="translate(524.19 41.9)"><path id="path3597" d="m0 0c-1.69 1.815-3.384 3.621-5.074 5.417-0.014-0.366-0.026-0.854-0.039-1.463-0.014-0.612-0.02-1.445-0.02-2.499 0-0.273 0.004-0.612 0.009-1.017 0.007-0.404 0.014-0.826 0.02-1.268s0.016-0.893 0.03-1.346c0.012-0.456 0.026-0.881 0.04-1.27 0.012-0.39 0.025-0.733 0.039-1.024 0.014-0.294 0.023-0.492 0.037-0.595-0.207 0.025-0.435 0.038-0.684 0.038-0.258 0-0.501-0.013-0.722-0.038 0.027 0.13 0.056 0.37 0.089 0.722 0.033 0.353 0.062 0.77 0.087 1.259 0.028 0.488 0.057 1.019 0.088 1.59 0.032 0.574 0.059 1.144 0.079 1.718 0.021 0.574 0.037 1.133 0.048 1.677 0.014 0.549 0.02 1.037 0.02 1.465 0 1.249-0.002 2.323-0.009 3.222-0.007 0.896-0.022 1.567-0.05 2.009h0.312c0.795-0.858 1.643-1.779 2.55-2.761 0.902-0.983 1.8-1.952 2.692-2.908 0.893-0.956 1.736-1.863 2.538-2.712 0.799-0.855 1.499-1.579 2.097-2.178v2.655c0 1.367-0.008 2.697-0.03 3.992-0.017 1.294-0.06 2.513-0.126 3.66 0.26-0.066 0.481-0.097 0.665-0.097 0.155 0 0.365 0.031 0.625 0.097-0.028-0.286-0.057-0.716-0.088-1.289-0.035-0.574-0.066-1.183-0.098-1.835-0.033-0.651-0.062-1.287-0.088-1.913-0.026-0.625-0.038-1.126-0.038-1.504v-1.169c0-0.443 0.002-0.906 0.009-1.387 0.007-0.483 0.012-0.965 0.02-1.455 0.004-0.485 0.012-0.941 0.018-1.366 0.008-0.423 0.01-0.791 0.01-1.103v-0.644h-0.274c-1.494 1.731-3.091 3.504-4.782 5.32" fill="#fff"/></g><path id="path3599" d="m152.78 74.509h1.009v-37.953h-1.009v37.953z"/>
				<g id="g3601" transform="translate(99.554 49.482)"><path id="path3603" d="m0 0c0-2.555-0.587-4.827-1.76-6.814-1.177-1.985-2.799-3.524-4.872-4.61-2.054-1.09-4.369-1.634-6.942-1.634-2.556 0-4.863 0.544-6.917 1.634-1.195 0.632-2.239 1.415-3.135 2.351 1.716-0.691 3.594-1.034 5.631-1.034 2.571 0 4.888 0.543 6.942 1.632 2.072 1.085 3.696 2.623 4.871 4.61 1.174 1.985 1.762 4.257 1.762 6.811v22.081h4.42v-25.027zm-25.794 25.027h4.422v-24.768c0-1.656 0.319-3.11 0.958-4.352 0.125-0.24 0.261-0.466 0.403-0.684-0.76 0.161-1.462 0.423-2.104 0.783-1.176 0.673-2.081 1.623-2.718 2.848-0.64 1.245-0.961 2.697-0.961 4.353v21.82zm-35.37-33.11 3.708 3.66c1.774-1.766 3.717-3.037 5.831-3.809 2.143-0.76 4.655-1.14 7.54-1.14 1.985 0 3.798 0.242 5.439 0.725 1.132 0.346 2.165 0.802 3.099 1.37-0.626-1.088-1.455-2.037-2.483-2.852-1.225-0.967-2.66-1.703-4.301-2.202-1.64-0.483-3.452-0.725-5.44-0.727-2.884 0-5.396 0.381-7.539 1.14-2.124 0.778-4.075 2.058-5.854 3.835m21.111 4.43c0.122 0.473 0.183 0.984 0.183 1.53 0 1.709-0.5 3.013-1.501 3.911-0.45 0.448-0.978 0.784-1.582 1.009-0.586 0.243-1.432 0.44-2.537 0.597l-4.457 0.622c-3.074 0.431-5.468 1.442-7.177 3.032-1.83 1.708-2.745 4.109-2.745 7.202 0 2.192 0.509 4.126 1.53 5.802 0.863 1.421 2.042 2.567 3.54 3.442-0.923-1.619-1.385-3.473-1.385-5.561 0-3.092 0.914-5.493 2.746-7.202 1.711-1.589 4.1-2.599 7.176-3.031l4.456-0.62c1.104-0.158 1.952-0.357 2.539-0.598 0.603-0.222 1.13-0.56 1.58-1.01 1.001-0.898 1.504-2.201 1.504-3.91-0.004-1.833-0.692-3.256-2.075-4.275-0.523-0.386-1.122-0.701-1.795-0.94m2.859 26.097c0.574-0.414 1.135-0.876 1.677-1.381l-3.68-3.626c-0.759 0.741-1.57 1.319-2.432 1.734-0.866 0.432-1.762 0.733-2.696 0.907-0.931 0.19-1.962 0.284-3.083 0.284-1.107 0-2.097-0.15-2.968-0.448 0.133 0.455 0.321 0.883 0.566 1.283 0.551 0.898 1.343 1.598 2.381 2.099 1.037 0.5 2.272 0.752 3.707 0.752 1.12 0 2.149-0.095 3.082-0.286 0.933-0.174 1.83-0.475 2.693-0.907 0.256-0.123 0.508-0.26 0.753-0.411m67.128-21.71c-0.202 0.276-0.411 0.539-0.629 0.785-0.473 0.692-1.122 1.248-1.946 1.668-0.529 0.313-1 0.543-1.494 0.735 0.898 0.345 1.736 0.89 2.511 1.631 0.78 0.759 1.399 1.683 1.866 2.773 0.485 1.105 0.727 2.305 0.727 3.6 0 2.09-0.468 3.911-1.399 5.466-0.916 1.571-2.246 2.772-3.99 3.603-1.728 0.845-3.73 1.266-6.011 1.266h-10.294v2.766h14.716c2.28 0 4.284-0.423 6.012-1.271 1.739-0.829 3.07-2.029 3.986-3.601 0.934-1.555 1.401-3.378 1.401-5.465 0-1.296-0.243-2.497-0.726-3.601-0.466-1.09-1.087-2.012-1.865-2.773-0.776-0.743-1.614-1.287-2.514-1.632 1.624-0.621 2.979-1.682 4.067-3.186 1.089-1.504 1.633-3.36 1.633-5.571 0-2.28-0.484-4.223-1.449-5.828-0.953-1.589-2.301-2.798-4.042-3.625-0.459-0.218-0.935-0.407-1.428-0.562 0.391 0.435 0.739 0.908 1.049 1.422 0.965 1.609 1.449 3.552 1.449 5.83 0 2.211-0.543 4.067-1.63 5.57m-14.907 16.4v-8.065h8.473c0.413 0 0.812 0.021 1.189 0.067-0.267-0.537-0.636-1.007-1.105-1.406-1.104-0.951-2.608-1.425-4.507-1.425h-8.471v10.829h4.421zm0-15.984v-8.741h9.016c0.373 0 0.731 0.021 1.073 0.061-0.512-0.914-1.22-1.597-2.154-2.099-0.932-0.484-2.045-0.725-3.339-0.725h-9.017v11.504h4.421z" fill="#fff"/></g>
			</g>
		</g>
	</g>
</svg>
