<?xml version="1.0" encoding="UTF-8" standalone="no"?>
<svg id="svg2" xmlns:rdf="http://www.w3.org/1999/02/22-rdf-syntax-ns#" xmlns="http://www.w3.org/2000/svg" xml:space="preserve" height="109.9" width="568.84" version="1.1" xmlns:cc="http://creativecommons.org/ns#" viewBox="0 0 568.83752 109.9" xmlns:dc="http://purl.org/dc/elements/1.1/"><metadata id="metadata8"><rdf:RDF><cc:Work rdf:about=""><dc:format>image/svg+xml</dc:format><dc:type rdf:resource="http://purl.org/dc/dcmitype/StillImage"/><dc:title/></cc:Work></rdf:RDF></metadata><g id="g10" transform="matrix(1.25,0,0,-1.25,0,109.9)"><g id="g12" transform="scale(.1)"><path id="path14" d="m245.12 31.523c-1.758-4.2382-2.07-6.1914-2.129-10.41l-8.996 3.5742c4.699 5 5.285 6.4531 7.348 11.492l12.027 29.445-10.719-3.4492-1.867 2.1015c1.961 0.6641 18.762 7.2266 21.067 7.7735l-16.73-40.527" fill="#231f20"/><path id="path16" d="m493.81 50.312-8.477-0.7812c-9.141-0.8399-12.129-2.8516-14.949-5.0391l0.324 5.9375c0.09 1.2891 0.047 1.7969-0.176 2.7148l31.11 2.8321-10.879-25.098c13.45-1.348 14.38-11.551 14.52-13.203 0.37-4.063-1.81-16.203-18-17.676-7.93-0.73438-11.348 0.46875-13.653 1.3281l3.75 9.4336c0.918-2.2461 3.106-7.2969 10.742-6.6015 7.696 0.70312 11.543 7.4609 11.028 13.105-0.352 3.8477-3.067 6.7696-5.805 7.6758-3.953 1.3672-7.859 0.9375-10.992 0.5664l11.473 24.805" fill="#231f20"/><path id="path18" d="m378.43 28.555-0.219-0.0391-8.043 0.8203 13.617 24.883-27.871 2.8125c-1.855 0.1757-2.852 0.2929-3.633 0.4375-0.703 0.1484-1.187 0.2656-1.898 0.4023l-1.422-9.082c3.777 2.5195 5.336 3.5859 17.805 2.3242l8.621-0.8672-10.961-20.344-8.098 0.8204c-1.488 0.1562-2.273 0.2343-2.898 0.3515-0.571 0.1172-0.957 0.2149-1.52 0.3321l-0.73-3.3282-0.215-0.0508 0.207-0.0117-0.016-0.0468 0.227 0.0312 11.398-1.1562-4.922-9.1094c-3.11-5.813-6.19-10.606-9.84-13.919l11.199-1.1211c-0.027 0.50782-0.031 1.9414 0.063 2.8711 0.332 3.2812 1.812 7.1563 6.312 15.43l2.895 5.2734 4.762-0.4765c1.476-0.1485 2.273-0.2266 2.89-0.3438 0.571-0.1172 0.965-0.2344 1.536-0.332l0.73 3.332 0.215 0.0274-0.211 0.0195 0.012 0.0586" fill="#231f20"/><path id="path20" d="m618.75 44.598-0.184-0.1172-8.078-1.7344 5.332 27.887-27.382-5.8984c-1.836-0.3906-2.813-0.5938-3.594-0.6914-0.723-0.0703-1.211-0.1094-1.934-0.2071l1.426-9.0625c2.832 3.5586 3.984 5.0391 16.23 7.6563l8.477 1.8359-4.199-22.73-7.793-1.6602c-1.446-0.3164-2.227-0.4922-2.86-0.5469-0.578-0.0781-0.976-0.1015-1.554-0.1601l0.332-3.3985-0.196-0.1054 0.207 0.0468 0.008-0.0468 0.196 0.0898 11.035 2.3711-1.875-10.176c-1.2-6.495-2.65-11.987-5.11-16.264l10.996 2.3555c-0.168 0.4765-0.613 1.8437-0.801 2.7617-0.703 3.2148-0.488 7.3633 1.27 16.606l1.133 5.9179 4.844 1.0508c1.445 0.3047 2.226 0.4688 2.871 0.5586 0.566 0.0469 0.968 0.0781 1.543 0.1484l-0.332 3.3868 0.207 0.1093-0.207-0.0625-0.02 0.0782" fill="#231f20"/><path id="path22" d="m171.91 512.48h-59.531c0-102.26 64.598-210.58 203.59-253.48 8.293 16.902 16.633 34.949 25.047 54.274-130.69 36.22-169.11 135.46-169.11 199.21" fill="#bac5dc"/><path id="path24" d="m452.52 299.41c-30.32 0-57.5 2.59-82 7.121-9.726-23.371-18.105-43.226-24.019-55.558 31.914-7.11 67.168-11.094 106.02-11.094 18.387 0 36.129 1.758 53.375 4.777-9.335 18.395-17.683 37.301-24.89 56.531-9.344-1.054-18.789-1.777-28.485-1.777" fill="#bac5dc"/><path id="path26" d="m525.24 209.77c-21.844-4.719-44.48-7.52-67.84-7.95-43.652-0.8-87.265 4.414-128.66 14.719-11.43-21.183-22.926-40.422-34.473-57.992 52.536-15.094 108.49-22.926 164.33-21.902 37.235 0.683 72.793 6.218 106.45 15.574-3.973 5.109-7.989 10.351-12.098 15.871-9.863 13.25-19.063 27.238-27.719 41.68" fill="#113e74"/><path id="path28" d="m143.98 313.75c-51.691 50.33-78.199 111.76-78.785 182.56-1.625 196.66 188.4 315.96 373.02 317.69 181.12 1.69 330.58-112.5 332.07-113.65l16.582-14.071 15.793 78.114c-41.28 29.06-189.36 116.44-365.04 114.8-216.66-2.03-439.58-146-437.62-383.41 0.72266-87.61 34.785-166.71 98.5-228.75 43.738-42.59 101.43-76.386 165.71-98.945 11.391 16.766 22.805 35.769 34.289 57.043-60.41 19.254-114.51 49.656-154.52 88.621" fill="#113e74"/><path id="path30" d="m883.65 466.8 12.215 41.754h-352.06v-65.2h261.68c-41.789-94.718-130.14-186.82-245.07-224.17 10.828-18.661 23.828-37.567 38.426-56.063 144.7 53.477 248.53 179.73 284.8 303.68" fill="#113e74"/><path id="path32" d="m908.96 759.51h-79.402l-4.614-24.195c-29.93-157.13-134.98-382.83-309.43-427.8 7.8-17.735 16.679-36.133 26.238-54.426 185.18 55.871 298.2 278.82 336.37 446.88h1.074v-439.46h59.531v498.99h-29.765" fill="#bac5dc"/><path id="path34" d="m798.14 103.4c-9.16 1.668-13.188-16.339 0.84-18.332 5.828-2.5 4.168-12.5-7.5-22.5-11.672-10-70-27.5-115 10s-91.68 89.161-123.34 144.16c-24.055 41.777-51.914 98.441-67.59 146.65 65-1.563 57.59 27.519 57.59 27.519-11.282-19.335-35.782-23.039-59.516-21.386-3.992 12.988-7.078 25.301-8.816 36.386-8.336 53.336-6.66 105.83-4.164 116.66 0 0-1.395-0.903-3.707-2.684l0.371 1.855s-71.664-45.832-154.16 5c-82.5 50.829-63.336 235.83 80 235 27.5 0.829 70.836-7.5 88.336-35 0 0 4.988 9.168 16.66 12.5 0 0-11.672-0.839-20 3.329-8.332 4.171-19.996 25.835-89.996 25.835s-145-49.164-145-141.66c0-89.621 97.777-160.46 211.48-117.8-17.5-17.27-46.684-53.313-74.219-119.76-15.164 0.539-28.07-2.418-28.449-14.102-0.441-13.796 7.766-17.574 15.52-18.132-41.36-102.99-82.16-180.17-125.17-230.22-39.17-45.597-79.16-86.664-158.33-76.664-28.332 4.1602-69.164 44.16-35 88.332 4.1132 5.313 6.6718-10.832 21.672-2.5 15 8.329-10 29.161-27.5 8.329-17.501-20.83-35.841-98.343 75.828-105 111.67-6.664 196.67 166.67 219.17 211.67 10.941 21.887 32.918 77.461 55.867 131.18 22.242-3.617 50.847-12.863 67.461-17.016 2.594-0.281 5.086-0.523 7.515-0.73 14.18-58.77 42.598-128.09 89.993-191.77 111.66-150 170-139.16 225.83-125 18.332 8.332 46.66 49.16 13.332 55.832zm-435.84 270.83c0 6.738 6.285 9.238 15.785 9.308-0.813-2.031-1.641-3.887-2.449-5.969-2.125-5.457-4.25-10.777-6.371-16.101-5.696 2.656-6.965 6.543-6.965 12.762zm65 6.671c-4.907 1.309-17.461 4.649-30.938 6.688 23.516 54.75 47.688 106.29 61.774 116.65 0 0-6.953-49.175 5.961-117.48 0.937-4.969 2.183-10.207 3.343-15.363-18.929 3.027-35.082 8.156-40.14 9.503" fill="#231f20"/><path id="path36" d="m1233 730.24c-13.24 15.121-33.15 22.926-53.3 22.926-40.3 0-68.26-26.476-68.26-74.219 0-46.793 24.17-75.863 70.85-75.863 12.81 0 26.09 2.356 36.98 8.035v60.742c3.32-0.238 6.86-0.593 10.41-0.593 3.32 0 6.63 0.355 10.42 0.593v-66.89c-20.59-7.145-42.4-10.961-64.43-10.961-59.97 0-87.56 35.777-87.56 83.762 0 55.296 39.91 84.472 92.54 84.472 35.31 0 55.19-10.492 60.41-13.801-2.14-5.914-3.8-12.058-5.45-18.203h-2.61" fill="#231f20"/><path id="path38" d="m1303.3 688.34h36.77c7.12 0 14.01 0.953 21.12 1.18-0.22-1.895-0.56-4.028-0.56-6.161 0-1.898 0.34-4.039 0.56-6.652-7.11 0.238-14 1.192-21.12 1.192h-36.77v-69.372c14.46-0.472 28.71 0.477 42.95 0.954 7.35 0.238 14.47 0.949 21.83 2.14-0.24-2.617-0.65-4.746-0.65-7.113s0.41-4.734 0.65-7.102h-85.61v161.44h84.19c-0.24-2.61-0.65-4.739-0.65-7.102 0-2.367 0.41-4.738 0.65-7.097-7.12 1.418-14.23 2.128-21.37 2.597l-23.73 0.473h-18.26v-59.379" fill="#231f20"/><path id="path40" d="m1548.2 679.42c1.68-26.067-16.32-77.742-66.31-77.742-35.29 0-64.66 25.121-64.66 73.242s25.11 79.637 66.79 79.637c18.95 0 37.43-8.055 49.27-22.985 12.32-15.886 14.91-32.476 14.91-52.152zm-67.01-85.442c52.8 0 90.35 34.481 90.35 87.336 0 56.887-45.36 80.95-89.9 80.95-49.02 0-87.73-32.594-87.73-84.496 0-50.727 34.93-83.79 87.28-83.79" fill="#231f20"/><path id="path42" d="m1627.5 750.1c9.98 0.464 26.12 1.175 34.92-0.239 17.83-2.855 26.13-13.527 26.13-29.894 0-18.5-13.07-30.36-30.41-33.918-12.11-2.371-27.31-1.422-30.64-1.184v65.235zm-20.83-153.27c3.32 0.234 6.88 0.57 10.42 0.57 3.32 0 6.63-0.336 10.41-0.57v79.012h9.03l19-22.254 28.02-36.215c5-6.633 9.73-13.254 14.96-20.543 4.25 0.234 9.01 0.57 13.51 0.57s8.79-0.336 13.76-0.57l-4.5 5.879-11.4 13.23-48.88 61.805c23.98 4.27 48.65 17.555 48.65 45.07 0 23.961-16.14 36.028-52.7 36.028h-50.28v-162.01" fill="#231f20"/><path id="path44" d="m1894.2 730.24c-13.24 15.121-33.16 22.926-53.31 22.926-40.29 0-68.25-26.476-68.25-74.219 0-46.793 24.17-75.863 70.87-75.863 12.8 0 26.06 2.356 36.97 8.035v60.742c3.31-0.238 6.85-0.593 10.41-0.593 3.31 0 6.62 0.355 10.41 0.593v-66.89c-20.57-7.145-42.38-10.961-64.43-10.961-59.96 0-87.57 35.777-87.57 83.762 0 55.296 39.93 84.472 92.55 84.472 35.31 0 55.2-10.492 60.41-13.801-2.14-5.914-3.79-12.058-5.45-18.203h-2.61" fill="#231f20"/><path id="path46" d="m1932.3 642.5h59.324v14.777h-59.324v-14.777z" fill="#231f20"/><path id="path48" d="m2106.5 670.7h-52.12l25.83 60.606 26.29-60.606zm-17.77 91.567h-5.45l-73.98-165.43c2.61 0.234 5.21 0.57 8.31 0.57 2.84 0 5.45-0.336 8.78-0.57 6.64 22.207 15.18 43.051 23.49 63.895h60.18c9.49-21.559 18.03-44.301 24.91-63.895 4.03 0.234 8.09 0.57 12.58 0.57 4.03 0 7.83-0.336 12.35-0.57l-71.17 165.43" fill="#231f20"/><path id="path50" d="m2210.5 668.12c0-41.73 11.87-63.297 52.52-63.297 37.78 0 51.33 27.262 51.33 65.664v88.36c2.13-0.231 4.29-0.567 6.66-0.567 2.16 0 4.3 0.336 6.68 0.567v-94.289c0-46.938-27.6-70.575-69.43-70.575-23.52 0-39.22 5.418-51.56 16.528-14.89 13.504-16.79 34.609-17.03 53.578v94.758c3.31-0.231 6.85-0.567 10.41-0.567 3.31 0 6.62 0.336 10.42 0.567v-90.727" fill="#231f20"/><path id="path52" d="m2516 730.24c-13.27 15.121-33.16 22.926-53.32 22.926-40.29 0-68.25-26.476-68.25-74.219 0-46.793 24.17-75.863 70.87-75.863 12.79 0 26.07 2.356 36.98 8.035v60.742c3.31-0.238 6.85-0.593 10.4-0.593 3.32 0 6.62 0.355 10.42 0.593v-66.89c-20.6-7.145-42.41-10.961-64.44-10.961-59.98 0-87.56 35.777-87.56 83.762 0 55.296 39.92 84.472 92.54 84.472 35.32 0 55.19-10.492 60.41-13.801-2.14-5.914-3.8-12.058-5.45-18.203h-2.6" fill="#231f20"/><path id="path54" d="m2587.4 668.12c0-41.73 11.88-63.297 52.52-63.297 37.78 0 51.32 27.262 51.32 65.664v88.36c2.14-0.231 4.3-0.567 6.68-0.567 2.15 0 4.28 0.336 6.67 0.567v-94.289c0-46.938-27.61-70.575-69.43-70.575-23.54 0-39.21 5.418-51.55 16.528-14.92 13.504-16.8 34.609-17.04 53.578v94.758c3.31-0.231 6.87-0.567 10.41-0.567 3.31 0 6.63 0.336 10.42 0.567v-90.727" fill="#231f20"/><path id="path56" d="m2750.4 628.81c9.26-15.133 19.93-24.59 38.41-24.59 19.18 0 32.93 15.84 32.93 34.523 0 43.984-74.19 24.59-74.19 78.043 0 30.504 24.21 45.453 52.64 45.453 11.35 0 25.11-3.566 33.93-11.402-2.87-6.152-4.52-12.77-6.43-19.391h-2.39c-4.99 12.77-15.41 20.571-29.39 20.571-16.33 0-29.84-10.883-29.84-27.665 0-43.511 74.72-26.015 74.72-76.386 0-33.813-26.4-53.961-58.61-53.961-11.61 0-30.59 4.988-38.67 13.754 2.39 6.859 3.56 13.957 4.52 21.051h2.37" fill="#231f20"/><path id="path58" d="m2932.8 596.35c-3.79 0.238-7.09 0.382-10.41 0.382-3.55 0-7.11-0.144-10.42-0.382v151.09c-23.96 0-38.43-1.429-51.96-2.847 0.23 2.363 0.7 4.738 0.7 7.121 0 2.367-0.47 4.5-0.7 7.113h122.39c-0.23-2.613-0.51-4.746-0.51-7.113 0-2.383 0.28-4.758 0.51-7.121-11.87 1.418-28.48 2.847-49.6 2.847v-151.09" fill="#231f20"/><path id="path60" d="m2980.4 642.5h59.336v14.773h-59.336v-14.773z" fill="#231f20"/><path id="path62" d="m3096.6 668.12c0-41.73 11.88-63.297 52.52-63.297 37.79 0 51.34 27.262 51.34 65.664v88.36c2.13-0.231 4.3-0.567 6.68-0.567 2.14 0 4.28 0.336 6.67 0.567v-94.289c0-46.938-27.62-70.575-69.44-70.575-23.53 0-39.21 5.418-51.55 16.528-14.9 13.504-16.8 34.613-17.05 53.578v94.758c3.32-0.231 6.87-0.567 10.42-0.567 3.31 0 6.63 0.336 10.41 0.567v-90.727" fill="#231f20"/><path id="path64" d="m3403.3 596.83h-7.16c-2.62 3.297-7.39 8.938-12.35 14.387l-102.49 113.31h-2.35v-127.7c-2.4 0.238-4.53 0.57-6.69 0.57-2.39 0-4.54-0.332-6.67-0.57v162.01h9.29l112.69-122.02h2.38v122.02c2.13-0.231 4.28-0.567 6.67-0.567 2.15 0 4.29 0.336 6.68 0.567v-162.01" fill="#231f20"/><path id="path66" d="m3452.9 758.84c3.32-0.231 6.87-0.567 10.42-0.567 3.31 0 6.62 0.336 10.41 0.567v-162.01c-3.79 0.238-7.1 0.57-10.41 0.57-3.55 0-7.1-0.332-10.42-0.57v162.01" fill="#231f20"/><path id="path68" d="m3623 715.53 14.23 39.547 1.67 3.766c2.85-0.231 5.69-0.567 8.79-0.567 2.59 0 5.45 0.336 8.53 0.567-7.58-14.395-60.05-135.77-68.58-162.01-1.67 0.238-3.34 0.57-4.77 0.57-1.67 0-3.34-0.332-5.01-0.57-27.07 55.637-61.72 141.93-72.17 162.01 3.56-0.231 7.6-0.567 11.4-0.567s7.35 0.336 11.63 0.567c3.09-7.297 5.92-15.102 8.77-22.926l15.9-41.488 29.25-71.832h2.14c4.53 9.722 9.51 18.968 13.3 28.687l24.92 64.246" fill="#231f20"/><path id="path70" d="m3704.1 688.34h36.79c7.12 0 13.99 0.953 21.11 1.18-0.24-1.895-0.58-4.028-0.58-6.161 0-1.898 0.34-4.039 0.58-6.652-7.12 0.238-13.99 1.192-21.11 1.192h-36.79v-69.372c14.48-0.472 28.71 0.477 42.95 0.954 7.37 0.238 14.47 0.949 21.83 2.14-0.23-2.617-0.65-4.746-0.65-7.113s0.42-4.734 0.65-7.102h-85.6v161.44h84.18c-0.24-2.61-0.64-4.739-0.64-7.094 0-2.375 0.4-4.746 0.64-7.105-7.12 1.418-14.24 2.128-21.37 2.597l-23.73 0.477h-18.26v-59.383" fill="#231f20"/><path id="path72" d="m3826.9 750.1c9.99 0.468 26.12 1.175 34.92-0.239 17.81-2.855 26.12-13.527 26.12-29.894 0-18.5-13.05-30.36-30.4-33.918-12.12-2.371-27.31-1.422-30.64-1.184v65.235zm-20.83-153.27c3.32 0.238 6.86 0.57 10.41 0.57 3.32 0 6.62-0.332 10.42-0.57v79.012h9.02l19-22.254 28.02-36.215c5-6.633 9.75-13.25 14.96-20.543 4.26 0.238 9.01 0.57 13.53 0.57 4.49 0 8.78-0.332 13.75-0.57l-4.49 5.883-11.41 13.234-48.9 61.797c24 4.27 48.67 17.563 48.67 45.07 0 23.961-16.13 36.028-52.69 36.028h-50.29v-162.01" fill="#231f20"/><path id="path74" d="m3951.1 628.81c9.26-15.133 19.93-24.59 38.41-24.59 19.18 0 32.92 15.84 32.92 34.523 0 43.984-74.18 24.59-74.18 78.043 0 30.504 24.21 45.453 52.63 45.453 11.37 0 25.12-3.566 33.94-11.402-2.87-6.152-4.54-12.77-6.44-19.391h-2.38c-5 12.77-15.41 20.578-29.38 20.578-16.35 0-29.85-10.89-29.85-27.672 0-43.511 74.71-26.015 74.71-76.386 0-33.813-26.4-53.961-58.61-53.961-11.6 0-30.58 4.988-38.65 13.762 2.36 6.851 3.56 13.949 4.52 21.043h2.36" fill="#231f20"/><path id="path76" d="m4078.4 758.84c3.32-0.231 6.87-0.567 10.43-0.567 3.31 0 6.62 0.336 10.41 0.567v-162.01c-3.79 0.238-7.1 0.57-10.41 0.57-3.56 0-7.11-0.332-10.43-0.57v162.01" fill="#231f20"/><path id="path78" d="m4203.3 596.35c-3.78 0.238-7.1 0.382-10.41 0.382-3.54 0-7.1-0.144-10.42-0.382v151.09c-23.95 0-38.43-1.429-51.97-2.847 0.24 2.371 0.7 4.742 0.7 7.121 0 2.367-0.46 4.5-0.7 7.113h122.4c-0.24-2.613-0.5-4.746-0.5-7.113 0-2.379 0.26-4.75 0.5-7.121-11.86 1.418-28.48 2.847-49.6 2.847v-151.09" fill="#231f20"/><path id="path80" d="m4362.6 670.7h-52.12l25.82 60.606 26.3-60.606zm1.12 106.25c5.7 0 10.96 5.238 10.96 10.953 0 5.719-5.01 10.957-10.96 10.957-5.96 0-10.96-5.238-10.96-10.957 0-5.715 5.25-10.953 10.96-10.953zm-46.5 0c5.71 0 10.97 5 10.97 10.953 0 5.957-5 10.957-10.97 10.957-5.94 0-10.95-5.238-10.95-10.957 0-5.715 5.24-10.953 10.95-10.953zm27.61-14.687h-5.45l-73.99-165.43c2.6 0.238 5.23 0.57 8.3 0.57 2.86 0 5.47-0.332 8.8-0.57 6.63 22.207 15.18 43.051 23.48 63.895h60.19c9.49-21.559 18.02-44.301 24.92-63.895 4.03 0.238 8.07 0.57 12.56 0.57 4.04 0 7.85-0.332 12.37-0.57l-71.18 165.43" fill="#231f20"/><path id="path82" d="m4501.1 596.35c-3.77 0.238-7.09 0.382-10.41 0.382-3.55 0-7.09-0.144-10.39-0.382v151.09c-23.99 0-38.46-1.429-51.99-2.847 0.25 2.371 0.7 4.742 0.7 7.121 0 2.367-0.45 4.5-0.7 7.113h122.4c-0.24-2.613-0.52-4.746-0.52-7.113 0-2.379 0.28-4.75 0.52-7.121-11.86 1.418-28.48 2.847-49.61 2.847v-151.09" fill="#231f20"/><path id="path84" d="m1233 406.21c-13.24 15.117-33.15 22.937-53.3 22.937-40.3 0-68.26-26.492-68.26-74.226 0-46.777 24.17-75.859 70.85-75.859 12.81 0 26.09 2.343 36.98 8.027v60.734c3.32-0.238 6.86-0.59 10.41-0.59 3.32 0 6.63 0.352 10.42 0.59v-66.886c-20.59-7.129-42.4-10.958-64.43-10.958-59.97 0-87.56 35.782-87.56 83.75 0 55.321 39.91 84.481 92.54 84.481 35.31 0 55.19-10.488 60.41-13.816-2.14-5.891-3.8-12.032-5.45-18.184h-2.61" fill="#231f20"/><path id="path86" d="m1428.6 355.38c1.68-26.043-16.34-77.734-66.31-77.734-35.28 0-64.65 25.14-64.65 73.253 0 48.106 25.1 79.641 66.79 79.641 18.93 0 37.42-8.059 49.25-22.992 12.33-15.887 14.92-32.469 14.92-52.168zm-42.37 97.551c5.71 0 10.95 5.234 10.95 10.949s-4.99 10.957-10.95 10.957c-5.95 0-10.95-5.242-10.95-10.957s5.23-10.949 10.95-10.949zm-46.49 0c5.71 0 10.95 4.988 10.95 10.949 0 5.949-4.98 10.957-10.95 10.957-5.95 0-10.96-5.242-10.96-10.957s5.23-10.949 10.96-10.949zm21.83-182.99c52.83 0 90.37 34.493 90.37 87.344 0 56.895-45.35 80.945-89.88 80.945-49.03 0-87.77-32.578-87.77-84.5 0-50.714 34.95-83.789 87.28-83.789" fill="#231f20"/><path id="path88" d="m1546.1 272.32c-3.78 0.235-7.1 0.391-10.41 0.391-3.54 0-7.1-0.156-10.41-0.391v151.1c-23.96 0-38.43-1.422-51.96-2.848 0.23 2.36 0.69 4.723 0.69 7.106 0 2.375-0.46 4.515-0.69 7.109h122.39c-0.24-2.594-0.51-4.734-0.51-7.109 0-2.383 0.27-4.746 0.51-7.106-11.87 1.426-28.47 2.848-49.61 2.848v-151.1" fill="#231f20"/><path id="path90" d="m1684.8 272.32c-3.8 0.235-7.11 0.391-10.43 0.391-3.55 0-7.09-0.156-10.4-0.391v151.1c-23.97 0-38.44-1.422-51.97-2.848 0.24 2.36 0.69 4.723 0.69 7.106 0 2.375-0.45 4.515-0.69 7.109h122.39c-0.25-2.594-0.51-4.734-0.51-7.109 0-2.383 0.26-4.746 0.52-7.106-11.88 1.426-28.48 2.848-49.6 2.848v-151.1" fill="#231f20"/><path id="path92" d="m1768.3 434.81c3.29-0.243 6.85-0.563 10.4-0.563 3.31 0 6.62 0.32 10.4 0.563v-162c-3.78 0.214-7.09 0.566-10.4 0.566-3.55 0-7.11-0.352-10.4-0.566v162" fill="#231f20"/><path id="path94" d="m1979.8 272.81h-7.15c-2.63 3.281-7.38 8.945-12.38 14.394l-102.46 113.3h-2.37v-127.7c-2.38 0.214-4.54 0.566-6.68 0.566-2.38 0-4.53-0.352-6.68-0.566v162h9.3l112.69-122.02h2.39v122.02c2.15-0.243 4.27-0.563 6.67-0.563 2.14 0 4.29 0.32 6.67 0.563v-162" fill="#231f20"/><path id="path96" d="m2169.7 406.21c-13.26 15.117-33.18 22.937-53.32 22.937-40.29 0-68.25-26.492-68.25-74.226 0-46.777 24.16-75.859 70.87-75.859 12.79 0 26.07 2.343 36.97 8.027v60.734c3.31-0.238 6.85-0.59 10.41-0.59 3.32 0 6.62 0.352 10.41 0.59v-66.886c-20.59-7.129-42.38-10.958-64.43-10.958-59.97 0-87.57 35.782-87.57 83.75 0 55.321 39.93 84.481 92.55 84.481 35.31 0 55.2-10.488 60.41-13.816-2.15-5.891-3.81-12.032-5.45-18.184h-2.6" fill="#231f20"/><path id="path98" d="m2242.8 364.3h36.79c7.13 0 14.01 0.949 21.12 1.183-0.23-1.894-0.57-4.023-0.57-6.16 0-1.898 0.34-4.035 0.57-6.652-7.11 0.234-13.99 1.191-21.12 1.191h-36.79v-69.375c14.48-0.469 28.72 0.477 42.96 0.969 7.36 0.23 14.49 0.945 21.83 2.125-0.23-2.617-0.65-4.746-0.65-7.109 0-2.36 0.42-4.735 0.65-7.098h-85.61v161.43h84.18c-0.22-2.598-0.63-4.735-0.63-7.09 0-2.383 0.41-4.746 0.63-7.106-7.11 1.414-14.23 2.129-21.36 2.613l-23.71 0.461h-18.29v-59.386" fill="#231f20"/><path id="path100" d="m2487.6 272.81h-7.15c-2.63 3.281-7.4 8.945-12.37 14.394l-102.48 113.3h-2.38v-127.7c-2.36 0.214-4.52 0.566-6.66 0.566-2.38 0-4.53-0.352-6.69-0.566v162h9.31l112.69-122.02h2.39v122.02c2.13-0.243 4.27-0.563 6.66-0.563 2.16 0 4.29 0.32 6.68 0.563v-162" fill="#231f20"/></g></g></svg>
